<svg xmlns="http://www.w3.org/2000/svg" width="71" height="71" viewBox="0 0 71 71">
  <g id="Grupo_1077185" data-name="Grupo 1077185" transform="translate(-1022 -3942.127)">
    <g id="Grupo_1075762" data-name="Grupo 1075762" transform="translate(1022 3942.127)">
      <circle id="Elipse_4845" data-name="Elipse 4845" cx="35.5" cy="35.5" r="35.5" fill="#3b5620"/>
    </g>
    <g id="Grupo_1075766" data-name="Grupo 1075766" transform="translate(306.877 3869.942)">
      <path id="Trazado_815082" data-name="Trazado 815082" d="M758.577,131.685c-8-.478-13.965-4.193-17.465-11.635A1.512,1.512,0,0,0,740,119.1c-7.214-1.928-12.124-6.4-14.076-13.635-1.957-7.25-.05-13.636,5.256-18.965a3.729,3.729,0,0,1,4.748-.858,1.121,1.121,0,0,0,.832-.047,16.468,16.468,0,0,1,15.364-.011,1.308,1.308,0,0,0,.98-.013,3.722,3.722,0,0,1,4.356.683,19.159,19.159,0,0,1,5.609,9.306,1.245,1.245,0,0,0,.939,1.005c.849.269,1.644.705,2.483,1.013a1.342,1.342,0,0,0,.909.006,3.728,3.728,0,0,1,4.489.743c5.657,5.555,7.532,12.234,5.217,19.781s-7.771,11.826-15.466,13.288C760.679,131.577,759.687,131.585,758.577,131.685ZM739.5,111.1c.057-.292.113-.5.137-.716a19.1,19.1,0,0,1,6.052-12.053,3.741,3.741,0,0,1,4.486-.739,1.026,1.026,0,0,0,.69.105c1.473-.581,2.931-1.2,4.435-1.828a9.98,9.98,0,0,0-2.541-3.791,4.029,4.029,0,0,1-1.5-4.284,14.391,14.391,0,0,0-13.213-.164.762.762,0,0,0-.337.621,4.083,4.083,0,0,1-1.425,3.67,11.389,11.389,0,0,0-3.16,11.719A11.261,11.261,0,0,0,739.5,111.1Zm9.693,8.009c.152.237.241.408.36.556a11.508,11.508,0,0,0,8.933,4.51,11.763,11.763,0,0,0,8.528-20.2,3.983,3.983,0,0,1-1.4-4.185l-1.949-.854A19.359,19.359,0,0,1,749.2,119.105Zm9.575,10.277c1.084-.129,2.184-.18,3.249-.4a16.83,16.83,0,0,0,13.485-19.165A16.228,16.228,0,0,0,770.256,100a1.389,1.389,0,0,0-2.311.344c-.346.789.073,1.318.6,1.843a13.822,13.822,0,0,1,4.133,12.584,14.108,14.108,0,1,1-27.546-5.983,14.363,14.363,0,0,1,4.119-6.822,1.308,1.308,0,0,0,.188-1.939,1.441,1.441,0,0,0-2.039-.094,8.666,8.666,0,0,0-.676.632,16.857,16.857,0,0,0-3.592,18.3A17.085,17.085,0,0,0,758.772,129.382Zm-18.821-12.713c-.116-.844-.249-1.582-.309-2.326-.039-.483-.279-.679-.679-.924a25.074,25.074,0,0,1-4.373-2.915,14.062,14.062,0,0,1,.159-20.307c.828-.78.925-1.555.327-2.193a1.5,1.5,0,0,0-2.224.179,16.909,16.909,0,0,0,6.192,28.241C739.322,116.517,739.612,116.578,739.952,116.669Zm7.914.212A16.7,16.7,0,0,0,761.11,98.212l-2.635-.153c.54,8.506-3.253,13.87-11.317,16.368Zm-.965-5.058c6.676-1.243,10.419-8.325,8.943-13.55l-3.891,1.456a4.03,4.03,0,0,1-1.295,4.154,10.731,10.731,0,0,0-2.827,4.32C747.436,109.345,747.221,110.55,746.9,111.823Zm13.762-16.08a16.516,16.516,0,0,0-4.952-7.887,1.327,1.327,0,0,0-1.895.149,1.291,1.291,0,0,0,.147,1.935,16.043,16.043,0,0,1,3.687,5.362.757.757,0,0,0,.505.42C758.957,95.769,759.765,95.743,760.662,95.743Z" transform="translate(0)" fill="#e8e8e8"/>
    </g>
  </g>
</svg>
