<svg xmlns="http://www.w3.org/2000/svg" width="71" height="71" viewBox="0 0 71 71">
  <g id="Grupo_1077186" data-name="Grupo 1077186" transform="translate(-1266 -3942.127)">
    <g id="Grupo_1075763" data-name="Grupo 1075763" transform="translate(1266 3942.127)">
      <circle id="Elipse_4845" data-name="Elipse 4845" cx="35.5" cy="35.5" r="35.5" fill="#3b5620"/>
    </g>
    <g id="Grupo_1075768" data-name="Grupo 1075768" transform="translate(1014.333 3802.482)">
      <path id="Trazado_815085" data-name="Trazado 815085" d="M264.667,196.893c.3-.334.578-.682.892-1,1.711-1.721,3.433-3.43,5.137-5.158a.687.687,0,0,0,.183-.56,3.145,3.145,0,0,1,.863-3.474c1.093-1.089,2.177-2.187,3.277-3.268a.6.6,0,0,0,.191-.709,7.828,7.828,0,0,1,2.09-8.392q7.742-7.769,15.509-15.513c.136-.136.289-.254.454-.4-.2-.228-.362-.4-.5-.586a.932.932,0,0,1,.076-1.231.907.907,0,0,1,1.226-.1,5.167,5.167,0,0,1,.6.551c.975.974,1.947,1.951,2.894,2.9l3.781-3.786c-.607-.607-1.285-1.241-1.907-1.925a4.492,4.492,0,0,1-.894-1.292,3.04,3.04,0,0,1,2.019-4.051c.122-.037.24-.084.36-.127h.964a4.72,4.72,0,0,1,2.367,1.564c.382.412.8.79,1.187,1.2a.967.967,0,1,1-1.353,1.365c-.613-.59-1.2-1.207-1.813-1.8a1.141,1.141,0,0,0-1.279-.307,1.108,1.108,0,0,0-.727.942,1.346,1.346,0,0,0,.515,1.139q2.591,2.589,5.179,5.181,1.993,1.994,3.988,3.986a1.307,1.307,0,0,0,1.144.5,1.114,1.114,0,0,0,.926-.746,1.125,1.125,0,0,0-.3-1.238c-.577-.6-1.176-1.186-1.765-1.779-.192-.194-.394-.38-.569-.588a.939.939,0,0,1-.01-1.309.915.915,0,0,1,1.34-.038,38.278,38.278,0,0,1,2.72,2.793,3.054,3.054,0,0,1-4.319,4.228c-.739-.613-1.4-1.325-2.079-2.005a3.208,3.208,0,0,1-.346-.493l-3.866,3.881c.319.309.665.635,1,.97q1.145,1.138,2.282,2.284a.987.987,0,0,1,.277,1.218.931.931,0,0,1-1.352.366,8.726,8.726,0,0,1-.693-.574,3.463,3.463,0,0,1-.337.471q-7.764,7.775-15.534,15.545a7.879,7.879,0,0,1-6.423,2.484,10.493,10.493,0,0,1-1.971-.406.582.582,0,0,0-.673.156c-1.093,1.111-2.2,2.206-3.3,3.31a3.141,3.141,0,0,1-3.473.86.687.687,0,0,0-.559.186c-1.875,1.851-3.731,3.721-5.6,5.579a.984.984,0,0,1-1.738-.166.337.337,0,0,0-.071-.06Zm20.365-11.308c-.251-.224-.485-.415-.7-.628a12.4,12.4,0,0,1-.986-1.052.892.892,0,0,1,.085-1.188.925.925,0,0,1,1.19-.133,2.785,2.785,0,0,1,.436.376c.53.535,1.054,1.077,1.57,1.605l3.186-3.2c-.082-.088-.188-.206-.3-.318-.476-.478-.956-.953-1.43-1.433a.994.994,0,0,1-.32-1.089.958.958,0,0,1,1.645-.3c.615.584,1.2,1.2,1.767,1.775l3.192-3.215c-.551-.543-1.134-1.114-1.711-1.691a1.018,1.018,0,0,1-.368-1.032.957.957,0,0,1,1.674-.374c.608.585,1.189,1.2,1.721,1.737l3.253-3.25a3.419,3.419,0,0,1-.42-.312c-.483-.471-.964-.945-1.426-1.436a.83.83,0,0,1-.167-1.1,1.338,1.338,0,0,1,.842-.508,1.3,1.3,0,0,1,.82.407c.587.541,1.13,1.13,1.645,1.652l2.684-2.685-8.409-8.409c-.086.1-.2.261-.336.4q-7.325,7.33-14.653,14.657c-.409.409-.83.807-1.218,1.236a5.831,5.831,0,0,0-1.377,5.727A5.932,5.932,0,0,0,285.032,185.585Zm16.357-21.871,3.683-3.634-2.317-2.321-3.675,3.652Zm-25.208,21.272c-1.018,1.022-2.129,2.114-3.21,3.233a1.147,1.147,0,0,0-.039,1.644,1.174,1.174,0,0,0,1.683-.035c.3-.269.571-.564.855-.848l2.348-2.338Z" fill="#e8e8e8"/>
      <path id="Trazado_815086" data-name="Trazado 815086" d="M603.095,192.957a.956.956,0,1,1-.975-.934A.99.99,0,0,1,603.095,192.957Z" transform="translate(-294.464 -37.841)" fill="#e8e8e8"/>
      <path id="Trazado_815087" data-name="Trazado 815087" d="M402.953,308.691a2.836,2.836,0,0,1-.4.639q-3.581,3.611-7.188,7.2c-.52.518-1.063.549-1.487.123a.974.974,0,0,1,.129-1.488q3.59-3.6,7.191-7.195a1.006,1.006,0,0,1,1.175-.3A.989.989,0,0,1,402.953,308.691Z" transform="translate(-112.814 -138.957)" fill="#e8e8e8"/>
      <path id="Trazado_815088" data-name="Trazado 815088" d="M473.413,288.391a.949.949,0,0,1,.927.969.974.974,0,0,1-.968.937,1,1,0,0,1-.938-.978A.977.977,0,0,1,473.413,288.391Z" transform="translate(-181.804 -122.166)" fill="#e8e8e8"/>
    </g>
  </g>
</svg>
