<svg xmlns="http://www.w3.org/2000/svg" width="71" height="71" viewBox="0 0 71 71">
  <g id="Grupo_1077182" data-name="Grupo 1077182" transform="translate(-271 -3950.127)">
    <g id="Grupo_1015825" data-name="Grupo 1015825" transform="translate(271 3950.127)">
      <circle id="Elipse_4845" data-name="Elipse 4845" cx="35.5" cy="35.5" r="35.5" fill="#3b5620"/>
    </g>
    <g id="Grupo_1075764" data-name="Grupo 1075764" transform="translate(-1104.673 3409.695)">
      <path id="Trazado_815078" data-name="Trazado 815078" d="M1412.353,544.611a4.128,4.128,0,0,1,2.887,3.255,3.516,3.516,0,0,1,2.572-.837,3.414,3.414,0,0,1,3.03,2.694,20.962,20.962,0,0,1,.44,3.207,10.72,10.72,0,0,1,.006,1.138c.181-.085.3-.134.406-.192a3.323,3.323,0,0,1,4.483,1.245,5.987,5.987,0,0,1,.859,3.1c.037,3.77.033,7.54.036,11.31,0,.638-.371,1.031-.9,1.015s-.868-.418-.869-1.123c-.005-3.336.014-6.672-.015-10.007a16.893,16.893,0,0,0-.264-2.46,2.534,2.534,0,0,0-.39-.917,1.474,1.474,0,0,0-2.646.007,4.725,4.725,0,0,0-.612,2.066c-.082,3.176-.067,6.354-.087,9.531a6.268,6.268,0,0,1-.021.709.8.8,0,0,1-.865.789.812.812,0,0,1-.869-.789,4.845,4.845,0,0,1-.021-.65c0-4.9.014-9.791-.014-14.685a11.94,11.94,0,0,0-.307-2.63,1.689,1.689,0,0,0-3.375.011,11.643,11.643,0,0,0-.3,2.572c-.029,4.322-.013,8.645-.014,12.968,0,.178.006.356,0,.533-.034.618-.357.985-.87,1-.538.013-.9-.365-.9-1.017-.01-2.823,0-5.645-.008-8.468-.011-2.9-.022-5.8-.074-8.7a5.071,5.071,0,0,0-.341-1.549,1.694,1.694,0,0,0-1.61-1.341,1.644,1.644,0,0,0-1.584,1.367,11.414,11.414,0,0,0-.383,2.613c-.049,2.565-.018,5.132-.018,7.7q0,4.056,0,8.112a2.293,2.293,0,0,1-.079.7.725.725,0,0,1-.91.556,1.751,1.751,0,0,1-.748-.707c-.1-.151-.036-.422-.036-.639,0-4.244.009-8.488-.01-12.731a16.685,16.685,0,0,0-.208-2.233,3.377,3.377,0,0,0-.331-.943,1.594,1.594,0,0,0-1.454-1.045,1.456,1.456,0,0,0-1.481,1.072,11.216,11.216,0,0,0-.509,2.88c-.055,4.006-.021,8.014-.025,12.021,0,2.191,0,4.382-.038,6.572-.007.4.183.5.463.635a20.571,20.571,0,0,1,8.866,7.683,13.779,13.779,0,0,1,2.267,6.643,3.08,3.08,0,0,1,0,.531.813.813,0,0,1-.854.806.8.8,0,0,1-.881-.77c-.064-.508-.065-1.026-.152-1.53a14.13,14.13,0,0,0-3.518-6.924,19.177,19.177,0,0,0-6.028-4.6c-.141-.07-.286-.134-.431-.194-.032-.013-.075,0,.033,0-.218,1.168-.4,2.3-.654,3.424a4.36,4.36,0,0,1-.54,1.177.879.879,0,0,1-1.175.364.859.859,0,0,1-.383-1.169c1.6-2.992.608-5.7-.926-8.323a10.671,10.671,0,0,0-2.95-3.2,4.858,4.858,0,0,0-1.42-.689,1.656,1.656,0,0,0-1.893.615,1.524,1.524,0,0,0,.128,1.92,19.364,19.364,0,0,1,2.918,5.845c.119.375.234.753.334,1.133a.884.884,0,0,1-.549,1.19c-.531.157-.943-.1-1.151-.721a23.391,23.391,0,0,0-.93-2.676,31.332,31.332,0,0,0-2-3.605,3.486,3.486,0,0,1-.189-4.133,3.616,3.616,0,0,1,4.132-1.227,8.657,8.657,0,0,1,3.687,2.786c.733.833,1.345,1.774,2.06,2.734v-.657c.005-5.428,0-10.856.031-16.284a8.8,8.8,0,0,1,.358-2.267c.722-2.6,3.318-3.674,5.53-2.077a.7.7,0,0,0,.117-.189,4,4,0,0,1,2.988-3.313Z" fill="#e8e8e8"/>
      <path id="Trazado_815079" data-name="Trazado 815079" d="M1579.878,749.589c0-1.461.034-2.923-.015-4.382a2.349,2.349,0,0,1,.681-1.794,16.227,16.227,0,0,0,4.016-7.075,8.341,8.341,0,0,0,.269-2.282c-.12-2.917-.312-5.832-.479-8.747-.028-.492-.079-.984-.1-1.476a.886.886,0,1,1,1.756-.131c.107,1.1.19,2.2.257,3.3q.192,3.132.353,6.265a14.373,14.373,0,0,1-3,9.153c-.508.726-1.114,1.382-1.638,2.1a1.551,1.551,0,0,0-.313.834c-.022,2.941-.014,5.882-.014,8.823a4.178,4.178,0,0,1-.017.591.891.891,0,0,1-.925.816.868.868,0,0,1-.826-.906c-.019-.809-.007-1.618-.008-2.428Q1579.877,750.921,1579.878,749.589Z" transform="translate(-158.783 -150.335)" fill="#e8e8e8"/>
      <path id="Trazado_815080" data-name="Trazado 815080" d="M1431.9,779.7c0,1.559,0,3.118,0,4.677,0,.234.039.541-.087.687a1.631,1.631,0,0,1-.848.581.734.734,0,0,1-.811-.693,3.806,3.806,0,0,1-.026-.649c0-2.861-.012-5.722.011-8.583a.972.972,0,0,0-.522-.945,23.814,23.814,0,0,1-7.609-7.491,9.241,9.241,0,0,1-1.455-4.745c-.019-.9-.183-1.8-.283-2.7-.011-.1-.036-.194-.045-.292a.917.917,0,0,1,.757-1.087.9.9,0,0,1,1,.858,22.659,22.659,0,0,1,.328,2.937,8.438,8.438,0,0,0,1.782,4.978,22.728,22.728,0,0,0,6.943,6.338,1.589,1.589,0,0,1,.877,1.579C1431.869,776.66,1431.9,778.18,1431.9,779.7Z" transform="translate(-24.082 -180.421)" fill="#e8e8e8"/>
    </g>
  </g>
</svg>
