<svg xmlns="http://www.w3.org/2000/svg" xmlns:xlink="http://www.w3.org/1999/xlink" width="295" height="174" viewBox="0 0 295 174">
  <defs>
    <clipPath id="clip-path">
      <rect id="Rect치ngulo_378746" data-name="Rect치ngulo 378746" width="156.015" height="154.291" fill="none"/>
    </clipPath>
  </defs>
  <g id="Grupo_1076256" data-name="Grupo 1076256" transform="translate(-180 -3971)">
    <rect id="Rect치ngulo_378747" data-name="Rect치ngulo 378747" width="295" height="174" transform="translate(180 3971)" fill="#fff"/>
    <g id="Grupo_1076255" data-name="Grupo 1076255" transform="translate(249.492 3979.709)">
      <g id="Grupo_1076254" data-name="Grupo 1076254" transform="translate(0 0)" clip-path="url(#clip-path)">
        <path id="Trazado_822115" data-name="Trazado 822115" d="M10.493,1.815a3.806,3.806,0,0,1,3.736,3.736,3.8,3.8,0,0,1-3.736,3.733A3.8,3.8,0,0,1,6.754,5.551a4.02,4.02,0,0,1,3.739-3.736" transform="translate(12.494 3.358)" fill="#ffdc67"/>
        <path id="Trazado_822116" data-name="Trazado 822116" d="M56.282,1.209A7.115,7.115,0,0,1,63.467,8.39a7.183,7.183,0,1,1-14.366,0,7.112,7.112,0,0,1,7.181-7.181" transform="translate(90.827 2.237)" fill="#ffdc67"/>
        <path id="Trazado_822117" data-name="Trazado 822117" d="M13.338,45.873A10.919,10.919,0,1,1,2.42,56.793a10.919,10.919,0,0,1,10.918-10.92" transform="translate(4.477 84.857)" fill="#ffdc67"/>
        <path id="Trazado_822118" data-name="Trazado 822118" d="M95.53,53.741H114.2C100.985,69.255,81.165,84.2,61.339,104.023,41.512,84.2,21.689,69.255,8.469,53.741H40.076l3.448-10.918,6.609,15.514,9.481-37.065L69.1,76.727l6.036-27.871L81.45,60.062l7.182-18.678Z" transform="translate(15.666 39.352)" fill="#db4040"/>
        <path id="Trazado_822119" data-name="Trazado 822119" d="M106.444,7.057a34.583,34.583,0,0,1,34.48,34.48c0,14.654-6.321,26.723-16.093,38.5H106.157L98.975,67.681,91.791,86.358,85.47,75.153l-6.033,27.871L69.953,47.573,60.471,84.637,53.866,69.12,50.417,80.038H18.81C9.041,68.259,2.723,56.478,2.723,41.537A34.58,34.58,0,0,1,37.2,7.057c17.238,0,25.856,8.621,34.48,25.859C80.585,15.678,89.2,7.057,106.444,7.057" transform="translate(5.037 13.055)" fill="#ff5856"/>
        <path id="Trazado_822120" data-name="Trazado 822120" d="M53.6,40.934a2.586,2.586,0,1,1-2.588,2.585A2.584,2.584,0,0,1,53.6,40.934" transform="translate(94.369 75.721)"/>
        <path id="Trazado_822121" data-name="Trazado 822121" d="M44.124,0a2.585,2.585,0,1,1-2.585,2.585A2.584,2.584,0,0,1,44.124,0" transform="translate(76.839 0.001)"/>
        <path id="Trazado_822122" data-name="Trazado 822122" d="M40.394,49.705a2.585,2.585,0,1,1-2.585,2.585,2.584,2.584,0,0,1,2.585-2.585" transform="translate(69.939 91.945)"/>
        <path id="Trazado_822123" data-name="Trazado 822123" d="M29.606,5.041a2.585,2.585,0,1,1-2.585,2.585,2.584,2.584,0,0,1,2.585-2.585" transform="translate(49.983 9.326)"/>
        <path id="Trazado_822124" data-name="Trazado 822124" d="M8.232,39.018A2.586,2.586,0,1,1,5.647,41.6a2.584,2.584,0,0,1,2.585-2.585" transform="translate(10.446 72.176)"/>
        <path id="Trazado_822125" data-name="Trazado 822125" d="M2.585,5.041A2.585,2.585,0,1,1,0,7.626,2.587,2.587,0,0,1,2.585,5.041" transform="translate(0 9.326)"/>
        <path id="Trazado_822126" data-name="Trazado 822126" d="M72.9,133.264a1.5,1.5,0,0,1-1.151-.576c-8.333-8.333-16.663-15.8-24.711-22.986-10.63-9.481-20.4-18.387-28.153-27.3C7.389,68.9,2.219,56.547,2.219,42.757a36.235,36.235,0,0,1,36.2-36.2c17.814,0,26.72,8.908,34.48,23.847C80.654,15.749,89.85,6.553,107.377,6.553a36.483,36.483,0,0,1,36.492,36.2c0,13.79-5.175,26.147-16.666,39.649-7.757,8.908-17.526,17.814-28.159,27.3-8.045,7.184-16.378,14.654-25,22.986a2.206,2.206,0,0,1-1.148.576M38.42,10A32.741,32.741,0,0,0,5.664,42.757c0,12.927,4.887,24.423,15.8,37.352,7.469,8.908,17.236,17.526,27.868,27.008,7.76,6.9,15.514,14.081,23.562,21.835,8.045-8.045,16.09-15.229,23.847-22.12,10.345-9.2,20.111-18.1,27.868-27.01,10.92-12.93,15.805-24.423,15.805-37.352A32.743,32.743,0,0,0,107.665,9.713c-17.238,0-25,9.2-33.043,25a1.739,1.739,0,0,1-1.721.863,2.05,2.05,0,0,1-1.724-.863C63.416,18.91,55.371,10,38.42,10" transform="translate(4.105 12.123)"/>
        <path id="Trazado_822127" data-name="Trazado 822127" d="M83.726,79.672h0A1.611,1.611,0,0,1,82,78.235L73.957,31.114l-7.469,29.02c-.285.861-.863,1.148-1.724,1.436a1.578,1.578,0,0,1-1.724-1.148L58.155,49.213l-2.012,6.036A1.574,1.574,0,0,1,54.422,56.4H2.128a1.724,1.724,0,1,1,0-3.448h51.43l2.873-9.481a1.868,1.868,0,0,1,3.448,0l4.6,10.63,8.045-31.889a1.752,1.752,0,0,1,3.448,0l7.757,46.255L87.75,49.5a2.361,2.361,0,0,1,1.436-1.439,1.729,1.729,0,0,1,1.721.863l4.312,7.757,5.748-14.942A1.9,1.9,0,0,1,102.4,40.6a2.041,2.041,0,0,1,1.721.863l6.609,11.49h31.319a1.724,1.724,0,1,1,0,3.448h-31.6a1.581,1.581,0,0,1-1.436-.861l-5.172-9.193L98.092,61.282a1.9,1.9,0,0,1-1.436,1.148,2.039,2.039,0,0,1-1.721-.861l-4.027-6.894L86.026,77.947a2.7,2.7,0,0,1-2.3,1.724" transform="translate(0.747 38.419)"/>
        <path id="Trazado_822128" data-name="Trazado 822128" d="M57.4,18.419a8.907,8.907,0,1,1,8.906-8.908A8.952,8.952,0,0,1,57.4,18.419m0-14.366a5.457,5.457,0,0,0-5.46,5.457,5.459,5.459,0,1,0,10.918,0A5.455,5.455,0,0,0,57.4,4.053" transform="translate(89.706 1.12)"/>
        <path id="Trazado_822129" data-name="Trazado 822129" d="M14.457,70.554a12.643,12.643,0,0,1,0-25.286,12.643,12.643,0,1,1,0,25.286m0-21.55a8.907,8.907,0,1,0,8.908,8.908A8.952,8.952,0,0,0,14.457,49" transform="translate(3.357 83.738)"/>
        <path id="Trazado_822130" data-name="Trazado 822130" d="M11.61,12.026A5.453,5.453,0,0,1,6.15,6.568a5.285,5.285,0,0,1,5.46-5.46,5.284,5.284,0,0,1,5.457,5.46,5.282,5.282,0,0,1-5.457,5.457m0-7.181A1.854,1.854,0,0,0,9.886,6.568,1.852,1.852,0,0,0,11.61,8.292a1.851,1.851,0,0,0,1.721-1.724A1.657,1.657,0,0,0,11.61,4.844" transform="translate(11.376 2.05)"/>
      </g>
    </g>
  </g>
</svg>
