<svg xmlns="http://www.w3.org/2000/svg" xmlns:xlink="http://www.w3.org/1999/xlink" width="190" height="117" viewBox="0 0 190 117">
  <defs>
    <clipPath id="clip-path">
      <rect id="Rectángulo_378858" data-name="Rectángulo 378858" width="97.006" height="102.782" fill="none"/>
    </clipPath>
  </defs>
  <g id="Grupo_1076492" data-name="Grupo 1076492" transform="translate(-180 -1883)">
    <rect id="Rectángulo_378859" data-name="Rectángulo 378859" width="190" height="117" transform="translate(180 1883)" fill="#fff"/>
    <g id="Grupo_1076491" data-name="Grupo 1076491" transform="translate(226.497 1887.3)">
      <rect id="Rectángulo_378855" data-name="Rectángulo 378855" width="46.446" height="57.653" transform="translate(26.884 33.795)" fill="#fc974d"/>
      <g id="Grupo_1076490" data-name="Grupo 1076490" transform="translate(0 0)">
        <g id="Grupo_1076489" data-name="Grupo 1076489" clip-path="url(#clip-path)">
          <path id="Trazado_822445" data-name="Trazado 822445" d="M35.2,28.332c22.048-.339,22.048,34.318,0,33.977-22.116.328-21.912-34.287,0-33.977" transform="translate(14.813 22.451)" fill="#232b3f"/>
          <path id="Trazado_822446" data-name="Trazado 822446" d="M49.714,8.168c5.876-.124,5.876,9.16,0,9.036-5.876.124-5.876-9.162,0-9.036" transform="translate(35.907 6.471)" fill="#88c116"/>
          <path id="Trazado_822447" data-name="Trazado 822447" d="M13.685,4.336c7.262-.082,7.262,11.288,0,11.205-7.188.091-7.391-11.32,0-11.205" transform="translate(6.513 3.435)" fill="#88c116"/>
          <path id="Trazado_822448" data-name="Trazado 822448" d="M41.117,38.812v5.964H34.97V50.92H29.007V44.775H22.862V38.812h6.145V32.667H34.97v6.145Z" transform="translate(18.119 25.889)" fill="#7da8ff"/>
          <rect id="Rectángulo_378856" data-name="Rectángulo 378856" width="46.267" height="10.119" transform="translate(26.884 91.447)" fill="#f47f31"/>
          <rect id="Rectángulo_378857" data-name="Rectángulo 378857" width="9.038" height="67.772" transform="translate(73.33 33.796)" fill="#f47f31"/>
          <path id="Trazado_822449" data-name="Trazado 822449" d="M18.993,76.507V86.627H9.957V18.854h9.036Z" transform="translate(7.891 14.941)" fill="#f47f31"/>
          <path id="Trazado_822450" data-name="Trazado 822450" d="M59.505,29.394V76.2c.073,7.281-6.844,11.42-13.553,10.481V18.911c6.6-.929,13.578,3.194,13.553,10.483" transform="translate(36.418 14.884)" fill="#fc974d"/>
          <path id="Trazado_822451" data-name="Trazado 822451" d="M15.95,18.913V86.684C9.237,87.615,2.322,83.49,2.4,76.2L2.4,29.4C2.322,22.119,9.239,17.97,15.95,18.913" transform="translate(1.898 14.883)" fill="#fc974d"/>
          <path id="Trazado_822452" data-name="Trazado 822452" d="M43.727,1.916a1.626,1.626,0,0,1,0,3.252,1.626,1.626,0,0,1,0-3.252" transform="translate(33.4 1.518)"/>
          <path id="Trazado_822453" data-name="Trazado 822453" d="M29.914,6.957a1.626,1.626,0,0,1,0,3.252,1.626,1.626,0,0,1,0-3.252" transform="translate(22.453 5.513)"/>
          <path id="Trazado_822454" data-name="Trazado 822454" d="M20.437,0a1.627,1.627,0,0,1,0,3.253,1.627,1.627,0,0,1,0-3.253" transform="translate(14.942 -0.001)"/>
          <path id="Trazado_822455" data-name="Trazado 822455" d="M1.584,12.6a1.626,1.626,0,0,1,0,3.252,1.626,1.626,0,0,1,0-3.252" transform="translate(0 9.987)"/>
          <path id="Trazado_822456" data-name="Trazado 822456" d="M35.488,52.521c-6.557-.353-7.737,2.087-7.229-5.964-8.065.514-5.6-.7-5.964-7.229-.079-1.948,4.987-.787,5.964-1.084.323-1-.887-6.215,1.084-6.145,6.543.355,7.742-2.09,7.229,5.966,1,.321,6.215-.891,6.145,1.083-.355,6.543,2.092,7.742-5.964,7.229-.28,1.115.88,6.24-1.266,6.145m-4.877-2.169H34.4c-.133-6.654-.667-6.091,5.964-5.964V40.413c-6.654.133-6.089.667-5.964-5.964H30.611c.131,6.654.665,6.089-5.966,5.964v3.795c6.878-.2,6.025-.471,5.966,6.145" transform="translate(17.601 25.37)"/>
          <path id="Trazado_822457" data-name="Trazado 822457" d="M35.735,63.873c-23.62-.156-23.617-35.994,0-36.146,23.358-.307,23.563,36.478,0,36.146m0-33.977C15.2,29.548,15,62.077,35.736,61.7c20.532.348,20.734-32.181,0-31.808" transform="translate(14.282 21.972)"/>
          <path id="Trazado_822458" data-name="Trazado 822458" d="M44.426,20.463c-.986-.375-8.1.995-7.952-1.084-.168-2.076,6.987-.715,7.952-1.084,1.405.025,1.377,2.268,0,2.169" transform="translate(28.904 14.417)"/>
          <path id="Trazado_822459" data-name="Trazado 822459" d="M22.348,20.463c-.986-.375-8.1.995-7.953-1.084-.168-2.076,6.989-.715,7.953-1.084,1.4.025,1.373,2.268,0,2.169" transform="translate(11.406 14.417)"/>
          <path id="Trazado_822460" data-name="Trazado 822460" d="M16.51,88.281c-7.441.993-14.9-3.764-14.821-11.746V29.907A11.726,11.726,0,0,1,13.438,18.159c.95.283,4.173-.71,4.157,1.084.013,1.714-3.2.914-4.157,1.084a9.332,9.332,0,0,0-9.4,9.4V76.715c-.088,6.758,6.333,10.262,12.469,9.4,1.319.03,1.62,2.332,0,2.167" transform="translate(1.338 14.371)"/>
          <path id="Trazado_822461" data-name="Trazado 822461" d="M61.924,58.225H15.477a1.084,1.084,0,1,1,0-2.167H61.743c1.249-.014,1.6,2.262.181,2.167" transform="translate(11.407 44.427)"/>
          <path id="Trazado_822462" data-name="Trazado 822462" d="M49.4,88.208H46.328a1.085,1.085,0,0,1,0-2.167c6.134.848,12.56-2.624,12.471-9.4V29.835a9.334,9.334,0,0,0-9.4-9.4c-.95-.075-4.171.565-4.155-1.083-.013-1.728,3.2-.905,4.155-1.086A11.725,11.725,0,0,1,61.148,30.016V76.643A11.687,11.687,0,0,1,49.4,88.208" transform="translate(35.858 14.444)"/>
          <path id="Trazado_822463" data-name="Trazado 822463" d="M52.058,25.586H19.348c-2.006.106-.753-5.532-1.084-6.507-.339-11.386,21.562-5.811,27.831-7.048,6.876-.05,7.538,7.31,7.05,12.471a1.043,1.043,0,0,1-1.086,1.084M20.432,23.417H50.975c.29-3.648.059-9.122-4.881-9.036H25.314c-4.924-.088-5.191,5.392-4.881,9.036" transform="translate(14.405 9.294)"/>
          <path id="Trazado_822464" data-name="Trazado 822464" d="M19.622,88.238c-.961-.609-10.363,1.21-10.119-1.083,1.015-1.086-1.981-69.028,1.081-68.854.964.608,10.366-1.212,10.124,1.083-.977,1.059,1.922,69.362-1.086,68.854m-7.771-2.167h6.867v-65.6H11.852Z" transform="translate(7.262 14.412)"/>
          <path id="Trazado_822465" data-name="Trazado 822465" d="M50.576,88.239c-.961-.609-10.364,1.21-10.121-1.083C41.47,86.07,38.475,18.128,41.536,18.3c.964.608,10.368-1.214,10.124,1.083-1.015,1.079,1.977,69.113-1.084,68.854m-7.952-2.167h6.867v-65.6H42.624Z" transform="translate(31.792 14.411)"/>
          <path id="Trazado_822466" data-name="Trazado 822466" d="M61.924,52.58H15.477a1.084,1.084,0,1,1,0-2.169H61.743c1.226.005,1.608,2.124.181,2.169" transform="translate(11.407 39.951)"/>
          <path id="Trazado_822467" data-name="Trazado 822467" d="M50.174,18.768c-7.262.081-7.262-11.289,0-11.205,7.26-.084,7.26,11.288,0,11.205m0-9.038c-4.361-.134-4.564,7.025,0,6.867,4.492.165,4.492-7.032,0-6.867" transform="translate(35.448 5.993)"/>
          <path id="Trazado_822468" data-name="Trazado 822468" d="M14.223,17.367C5.312,17.5,5.312,3.5,14.223,3.63c8.986-.122,8.78,13.837,0,13.736m0-11.205c-5.876-.124-5.876,9.16,0,9.036,5.876.124,5.876-9.162,0-9.036" transform="translate(5.975 2.876)"/>
        </g>
      </g>
    </g>
  </g>
</svg>
