<svg xmlns="http://www.w3.org/2000/svg" xmlns:xlink="http://www.w3.org/1999/xlink" width="90.268" height="93.461" viewBox="0 0 90.268 93.461">
  <defs>
    <clipPath id="clip-path">
      <rect id="Rectángulo_379026" data-name="Rectángulo 379026" width="90.268" height="93.461" fill="none"/>
    </clipPath>
  </defs>
  <g id="Grupo_1076856" data-name="Grupo 1076856" transform="translate(0 0)">
    <g id="Grupo_1076855" data-name="Grupo 1076855" transform="translate(0 0)" clip-path="url(#clip-path)">
      <path id="Trazado_822805" data-name="Trazado 822805" d="M52.4,4.436a5.212,5.212,0,1,1-5.212,5.21A5.238,5.238,0,0,1,52.4,4.436" transform="translate(31.483 2.96)" fill="#88c116"/>
      <path id="Trazado_822806" data-name="Trazado 822806" d="M7.5,47.185a6.387,6.387,0,1,1-6.389,6.387A6.387,6.387,0,0,1,7.5,47.185" transform="translate(0.739 31.484)" fill="#88c116"/>
      <path id="Trazado_822807" data-name="Trazado 822807" d="M42.157,6.957A37.821,37.821,0,1,1,4.336,44.778,37.879,37.879,0,0,1,42.157,6.957" transform="translate(2.893 4.642)" fill="#ff5856"/>
      <path id="Trazado_822808" data-name="Trazado 822808" d="M38.39,12.6A28.324,28.324,0,1,1,9.982,40.843,28.48,28.48,0,0,1,38.39,12.6" transform="translate(6.66 8.409)" fill="#232b3f"/>
      <path id="Trazado_822809" data-name="Trazado 822809" d="M53.739,42.245a1.513,1.513,0,1,1-1.514,1.512,1.512,1.512,0,0,1,1.514-1.512" transform="translate(34.847 28.187)"/>
      <path id="Trazado_822810" data-name="Trazado 822810" d="M43.656,52.932a1.513,1.513,0,1,1-1.512,1.512,1.512,1.512,0,0,1,1.512-1.512" transform="translate(28.12 35.318)"/>
      <path id="Trazado_822811" data-name="Trazado 822811" d="M42.447,4.134a1.513,1.513,0,1,1-1.514,1.512,1.512,1.512,0,0,1,1.514-1.512" transform="translate(27.312 2.758)"/>
      <path id="Trazado_822812" data-name="Trazado 822812" d="M23.493,0a1.513,1.513,0,1,1-1.514,1.514A1.512,1.512,0,0,1,23.493,0" transform="translate(14.665 0)"/>
      <path id="Trazado_822813" data-name="Trazado 822813" d="M17.242,54.242a1.513,1.513,0,1,1-1.514,1.514,1.512,1.512,0,0,1,1.514-1.514" transform="translate(10.494 36.192)"/>
      <path id="Trazado_822814" data-name="Trazado 822814" d="M5.848,6.957A1.512,1.512,0,1,1,4.336,8.469,1.513,1.513,0,0,1,5.848,6.957" transform="translate(2.893 4.642)"/>
      <path id="Trazado_822815" data-name="Trazado 822815" d="M1.512,37.2A1.512,1.512,0,1,1,0,38.716,1.513,1.513,0,0,1,1.512,37.2" transform="translate(0 24.824)"/>
      <path id="Trazado_822816" data-name="Trazado 822816" d="M38.794,70.832A29.417,29.417,0,1,1,68.209,41.415,29.557,29.557,0,0,1,38.794,70.832m0-56.816a27.4,27.4,0,1,0,27.4,27.4,27.4,27.4,0,0,0-27.4-27.4" transform="translate(6.257 8.005)"/>
      <path id="Trazado_822817" data-name="Trazado 822817" d="M42.562,84.012a38.83,38.83,0,1,1,38.83-38.83,38.849,38.849,0,0,1-38.83,38.83m0-75.643A36.729,36.729,0,1,0,79.373,45.014,36.8,36.8,0,0,0,42.562,8.369" transform="translate(2.489 4.238)"/>
      <path id="Trazado_822818" data-name="Trazado 822818" d="M52.866,16.4a6.387,6.387,0,1,1,6.387-6.387A6.385,6.385,0,0,1,52.866,16.4m0-10.422a4.2,4.2,0,1,0,4.2,4.2,4.162,4.162,0,0,0-4.2-4.2" transform="translate(31.013 2.422)"/>
      <path id="Trazado_822819" data-name="Trazado 822819" d="M7.9,61.373a7.4,7.4,0,1,1,0-14.793,7.4,7.4,0,0,1,0,14.793m0-12.608a5.211,5.211,0,1,0,5.21,5.212A5.131,5.131,0,0,0,7.9,48.766" transform="translate(0.336 31.08)"/>
      <path id="Trazado_822820" data-name="Trazado 822820" d="M23.267,52.309a5.772,5.772,0,0,1,5.922-5.922,5.923,5.923,0,0,1,0,11.846,5.773,5.773,0,0,1-5.922-5.924m.679-35.225H34.434L33.2,43.611H25.179Z" transform="translate(15.525 11.399)" fill="#7da8ff"/>
      <path id="Trazado_822821" data-name="Trazado 822821" d="M23.267,52.309a5.772,5.772,0,0,1,5.922-5.922,5.923,5.923,0,0,1,0,11.846A5.773,5.773,0,0,1,23.267,52.309Zm.679-35.225H34.434L33.2,43.611H25.179Z" transform="translate(15.525 11.399)" fill="none" stroke="#000" stroke-miterlimit="10" stroke-width="1"/>
    </g>
  </g>
</svg>
