<svg xmlns="http://www.w3.org/2000/svg" xmlns:xlink="http://www.w3.org/1999/xlink" width="190" height="119" viewBox="0 0 190 119">
  <defs>
    <clipPath id="clip-path">
      <rect id="Rect치ngulo_379023" data-name="Rect치ngulo 379023" width="105" height="100.418" fill="none"/>
    </clipPath>
  </defs>
  <g id="Grupo_1076854" data-name="Grupo 1076854" transform="translate(-180 -360)">
    <rect id="Rect치ngulo_379024" data-name="Rect치ngulo 379024" width="190" height="119" transform="translate(180 360)" fill="#fff"/>
    <g id="Grupo_1076853" data-name="Grupo 1076853" transform="translate(222.5 369.291)">
      <g id="Grupo_1076852" data-name="Grupo 1076852" transform="translate(0 0)" clip-path="url(#clip-path)">
        <path id="Trazado_822776" data-name="Trazado 822776" d="M96.895,38.514v8.208A8.557,8.557,0,0,1,88.3,55.313H12.322a8.555,8.555,0,0,1-8.591-8.591V38.514Z" transform="translate(3.334 34.413)" fill="#bcb7c6"/>
        <path id="Trazado_822777" data-name="Trazado 822777" d="M45.438,42.244a9.545,9.545,0,1,1-9.545,9.545,9.7,9.7,0,0,1,9.545-9.545" transform="translate(32.071 37.746)" fill="#57606f"/>
        <path id="Trazado_822778" data-name="Trazado 822778" d="M21.543,42.244A9.545,9.545,0,1,1,12,51.789a9.573,9.573,0,0,1,9.545-9.545" transform="translate(10.721 37.746)" fill="#57606f"/>
        <path id="Trazado_822779" data-name="Trazado 822779" d="M96.805,25.628V57.7H3.831v-6.11A8.862,8.862,0,0,1,4.977,47.2L20.441,21.239a8.407,8.407,0,0,1,7.254-4.2H88.4a8.516,8.516,0,0,1,8.4,8.589" transform="translate(3.423 15.224)" fill="#ecebed"/>
        <path id="Trazado_822780" data-name="Trazado 822780" d="M52.6.7a5.918,5.918,0,1,1-5.917,5.919A5.828,5.828,0,0,1,52.6.7" transform="translate(41.711 0.629)" fill="#a4c7ff"/>
        <path id="Trazado_822781" data-name="Trazado 822781" d="M9.006,5.041a8.4,8.4,0,1,1-8.4,8.4,8.4,8.4,0,0,1,8.4-8.4" transform="translate(0.54 4.504)" fill="#a4c7ff"/>
        <path id="Trazado_822782" data-name="Trazado 822782" d="M35.887,22.08V40.025h-25.2L21.57,22.08Z" transform="translate(9.548 19.729)" fill="#bdf9ff"/>
        <path id="Trazado_822783" data-name="Trazado 822783" d="M45.94,20.87A13.172,13.172,0,1,1,32.767,34.041,13.2,13.2,0,0,1,45.94,20.87" transform="translate(29.278 18.647)" fill="#232b3f"/>
        <path id="Trazado_822784" data-name="Trazado 822784" d="M50.491,28.858v4.774H45.719V38.6H40.755V33.631H35.792V28.858h4.963V23.895h4.965v4.963Z" transform="translate(31.981 21.35)" fill="#7da8ff"/>
        <path id="Trazado_822785" data-name="Trazado 822785" d="M43.186,44.765a4.773,4.773,0,1,1-4.772,4.772,4.726,4.726,0,0,1,4.772-4.772" transform="translate(34.324 39.998)" fill="#414a56"/>
        <path id="Trazado_822786" data-name="Trazado 822786" d="M19.291,44.765a4.773,4.773,0,1,1-4.772,4.772,4.727,4.727,0,0,1,4.772-4.772" transform="translate(12.973 39.998)" fill="#414a56"/>
        <path id="Trazado_822787" data-name="Trazado 822787" d="M55.354,45.471a1.717,1.717,0,1,1-1.717,1.717,1.718,1.718,0,0,1,1.717-1.717" transform="translate(47.926 40.629)"/>
        <path id="Trazado_822788" data-name="Trazado 822788" d="M40.836,2.017a1.717,1.717,0,1,1-1.717,1.717,1.717,1.717,0,0,1,1.717-1.717" transform="translate(34.954 1.802)"/>
        <path id="Trazado_822789" data-name="Trazado 822789" d="M31.963,8.268a1.718,1.718,0,1,1-1.717,1.717,1.718,1.718,0,0,1,1.717-1.717" transform="translate(27.026 7.387)"/>
        <path id="Trazado_822790" data-name="Trazado 822790" d="M15.026,2.621a1.718,1.718,0,1,1-1.717,1.717,1.717,1.717,0,0,1,1.717-1.717" transform="translate(11.892 2.341)"/>
        <path id="Trazado_822791" data-name="Trazado 822791" d="M3.634,20.87a1.717,1.717,0,1,1-1.719,1.717A1.717,1.717,0,0,1,3.634,20.87" transform="translate(1.711 18.647)"/>
        <path id="Trazado_822792" data-name="Trazado 822792" d="M36.4,41.712h-25.2a1.047,1.047,0,0,1-.954-.574,1.212,1.212,0,0,1,0-1.144L20.942,22.048a1.049,1.049,0,0,1,.954-.574H36.215a1.232,1.232,0,0,1,1.144,1.147V40.565a.955.955,0,0,1-.954,1.147M13.3,39.421H35.069V23.956H22.659Z" transform="translate(9.031 19.187)"/>
        <path id="Trazado_822793" data-name="Trazado 822793" d="M19.832,56.1a5.918,5.918,0,1,1,5.917-5.919A6.076,6.076,0,0,1,19.832,56.1m0-9.545A3.625,3.625,0,0,0,16.2,50.178a3.511,3.511,0,0,0,3.628,3.628,3.51,3.51,0,0,0,3.626-3.628,3.624,3.624,0,0,0-3.626-3.626" transform="translate(12.432 39.548)"/>
        <path id="Trazado_822794" data-name="Trazado 822794" d="M43.727,56.1a5.918,5.918,0,1,1,5.917-5.919c.193,3.054-2.672,5.919-5.917,5.919m0-9.545A3.625,3.625,0,0,0,40.1,50.178a3.627,3.627,0,1,0,3.628-3.626" transform="translate(33.783 39.548)"/>
        <path id="Trazado_822795" data-name="Trazado 822795" d="M88.845,76.189H84.261a1.146,1.146,0,0,1,0-2.291h4.584A7.251,7.251,0,0,0,96.1,66.644V26.17a7.251,7.251,0,0,0-7.252-7.254H28.326a7.369,7.369,0,0,0-6.3,3.628L6.564,48.507a6.712,6.712,0,0,0-.956,3.819V66.452a7.253,7.253,0,0,0,7.256,7.256h7.065a1.146,1.146,0,0,1,0,2.291H12.863a9.78,9.78,0,0,1-9.738-9.738V52.134a9.238,9.238,0,0,1,1.339-4.963L19.928,21.207a9.942,9.942,0,0,1,8.4-4.774H89.034a9.776,9.776,0,0,1,9.735,9.737V66.452a10.069,10.069,0,0,1-9.924,9.737" transform="translate(2.792 14.683)"/>
        <path id="Trazado_822796" data-name="Trazado 822796" d="M46.26,40.282H41.3a1.234,1.234,0,0,1-1.147-1.146V35.319H36.333a1.234,1.234,0,0,1-1.146-1.147V29.4a1.233,1.233,0,0,1,1.146-1.146H40.15V24.436A1.234,1.234,0,0,1,41.3,23.289H46.26a1.234,1.234,0,0,1,1.146,1.147v3.817h3.817A1.233,1.233,0,0,1,52.369,29.4v4.965a1.232,1.232,0,0,1-1.146,1.144H47.406v3.819a1.069,1.069,0,0,1-1.146.954M42.441,37.99h2.482V34.171a1.232,1.232,0,0,1,1.146-1.144h3.819V30.545H46.069A1.23,1.23,0,0,1,44.924,29.4V25.58H42.441V29.4A1.23,1.23,0,0,1,41.3,30.545H37.478v2.482H41.3a1.231,1.231,0,0,1,1.144,1.144Z" transform="translate(31.441 20.809)"/>
        <path id="Trazado_822797" data-name="Trazado 822797" d="M46.48,48.9A14.319,14.319,0,1,1,60.8,34.584,14.422,14.422,0,0,1,46.48,48.9m0-26.347A12.1,12.1,0,0,0,34.454,34.584a12.027,12.027,0,1,0,24.054,0A12.1,12.1,0,0,0,46.48,22.556" transform="translate(28.739 18.107)"/>
        <path id="Trazado_822798" data-name="Trazado 822798" d="M48.776,49.072H22.621a1.146,1.146,0,0,1,0-2.291H48.967a1.232,1.232,0,0,1,1.144,1.146,1.276,1.276,0,0,1-1.335,1.146" transform="translate(19.189 41.8)"/>
        <path id="Trazado_822799" data-name="Trazado 822799" d="M22.084,63.122A10.691,10.691,0,1,1,32.773,52.431,10.672,10.672,0,0,1,22.084,63.122m0-19.091a8.4,8.4,0,1,0,8.4,8.4,8.475,8.475,0,0,0-8.4-8.4" transform="translate(10.18 37.295)"/>
        <path id="Trazado_822800" data-name="Trazado 822800" d="M45.979,63.212A10.672,10.672,0,0,1,35.288,52.521,10.838,10.838,0,0,1,45.979,41.639,10.673,10.673,0,0,1,56.668,52.33,10.837,10.837,0,0,1,45.979,63.212m0-19.091a8.4,8.4,0,1,0,8.4,8.4,8.473,8.473,0,0,0-8.4-8.4" transform="translate(31.531 37.205)"/>
        <path id="Trazado_822801" data-name="Trazado 822801" d="M97.346,40.2H4.372a1.146,1.146,0,1,1,0-2.291H97.346a1.146,1.146,0,0,1,0,2.291" transform="translate(2.883 33.872)"/>
        <path id="Trazado_822802" data-name="Trazado 822802" d="M53.229,14.508a7.254,7.254,0,1,1,7.254-7.254,7.374,7.374,0,0,1-7.254,7.254m0-12.026a4.727,4.727,0,0,0-4.774,4.772,4.773,4.773,0,1,0,9.545,0,4.725,4.725,0,0,0-4.772-4.772" transform="translate(41.08 -0.001)"/>
        <path id="Trazado_822803" data-name="Trazado 822803" d="M9.545,23.525A9.451,9.451,0,0,1,0,13.981,9.452,9.452,0,0,1,9.545,4.436a9.452,9.452,0,0,1,9.545,9.545,9.451,9.451,0,0,1-9.545,9.543m0-16.608A7.255,7.255,0,1,0,16.8,14.173,7.253,7.253,0,0,0,9.545,6.917" transform="translate(0 3.963)"/>
        <path id="Trazado_822804" data-name="Trazado 822804" d="M85.071,54.113H8.707a1.146,1.146,0,0,1,0-2.291H85.071a1.232,1.232,0,0,1,1.146,1.146c.191.572-.382,1.146-1.146,1.146" transform="translate(6.756 46.304)"/>
      </g>
    </g>
  </g>
</svg>
