<svg xmlns="http://www.w3.org/2000/svg" xmlns:xlink="http://www.w3.org/1999/xlink" width="169" height="169" viewBox="0 0 169 169">
  <defs>
    <clipPath id="clip-path">
      <rect id="Rect치ngulo_379417" data-name="Rect치ngulo 379417" width="107.448" height="140.597" fill="none"/>
    </clipPath>
  </defs>
  <g id="Grupo_1077164" data-name="Grupo 1077164" transform="translate(-4965 8481.646)">
    <g id="Grupo_1077159" data-name="Grupo 1077159" transform="translate(4965 -8481.646)">
      <path id="Uni칩n_12" data-name="Uni칩n 12" d="M84.5,0A84.5,84.5,0,1,1,0,84.5,84.5,84.5,0,0,1,84.5,0Z" transform="translate(0 0)" fill="#fffad0"/>
    </g>
    <g id="Grupo_1077105" data-name="Grupo 1077105" transform="translate(4995.776 -8467.445)">
      <path id="Trazado_823498" data-name="Trazado 823498" d="M162.69,187.555l19.942,5.585,15.056,11.11,3.256,11.843-5.318,12.956-10.849,4.929-20.8-3.346-6.563-9.622,5.963-.973,12.978,4.09L186.676,224l6.413-6.355-1.718-8.266-10.55-8.053-25.363-5.386Z" transform="translate(-113.016 -136.351)" fill="#ffdc67"/>
      <path id="Trazado_823499" data-name="Trazado 823499" d="M59.139,270.692l8.823-1.394.549-15.474L66.459,240.3l-4.8-17.657-22.483-6.481L26.245,211.87l1.042-7.114L31.21,198.2l11.358-2.686,10.1-1.851,4.643.794,1.823-8.944L39.174,188.5l-16.84,8.576-3.764,14.24,5.716,9.046,17.134,4.3,14.522,4.342,3.394,7.946L55.942,244.9Z" transform="translate(-13.5 -134.866)" fill="#ffdc67"/>
      <path id="Trazado_823500" data-name="Trazado 823500" d="M151.669,64.29l4.51-5.3,8.236-3.33,5.716-3.446L188.4,67.688l8.494-7.6-13.135-9.6L202.6,45.3l.546-4.641-2.079-4.53-20.422,5.019,1.5-6.134,8.439-11.827L184.308,18l-10.1,11.466L162.369,39.692l-2.973,4.25-6.9,5.379v2.527L141.98,62.083l-5.062,15.173,3.119,17.127,5.91,5.093,7.51-1.756L143.94,84.913l1.434-12.237Z" transform="translate(-99.538 -13.086)" fill="#ffdc67"/>
      <g id="Grupo_1077104" data-name="Grupo 1077104">
        <g id="Grupo_1077103" data-name="Grupo 1077103" clip-path="url(#clip-path)">
          <path id="Trazado_823501" data-name="Trazado 823501" d="M4.5,155.73a2.73,2.73,0,1,1,2.73,2.73,2.73,2.73,0,0,1-2.73-2.73" transform="translate(-3.271 -111.23)" fill="#ffdc67"/>
          <path id="Trazado_823502" data-name="Trazado 823502" d="M3.959,156.417a3.959,3.959,0,1,1,3.959-3.959,3.963,3.963,0,0,1-3.959,3.959m0-5.46a1.5,1.5,0,1,0,1.5,1.5,1.5,1.5,0,0,0-1.5-1.5" transform="translate(0 -107.958)"/>
          <path id="Trazado_823503" data-name="Trazado 823503" d="M73.331,82.416A6.416,6.416,0,1,1,66.916,76a6.416,6.416,0,0,1,6.416,6.416" transform="translate(-43.983 -55.251)" fill="#fc974d"/>
          <path id="Trazado_823504" data-name="Trazado 823504" d="M63.644,86.789a7.644,7.644,0,1,1,7.644-7.644,7.653,7.653,0,0,1-7.644,7.644m0-12.831a5.187,5.187,0,1,0,5.187,5.187,5.193,5.193,0,0,0-5.187-5.187" transform="translate(-40.711 -51.98)"/>
          <path id="Trazado_823505" data-name="Trazado 823505" d="M273.331,401.416A6.416,6.416,0,1,1,266.916,395a6.416,6.416,0,0,1,6.416,6.416" transform="translate(-189.381 -287.161)" fill="#fc974d"/>
          <path id="Trazado_823506" data-name="Trazado 823506" d="M263.644,405.789a7.644,7.644,0,1,1,7.644-7.644,7.653,7.653,0,0,1-7.644,7.644m0-12.831a5.187,5.187,0,1,0,5.187,5.187,5.193,5.193,0,0,0-5.187-5.187" transform="translate(-186.11 -283.89)"/>
          <path id="Trazado_823507" data-name="Trazado 823507" d="M230.322,1.911A1.911,1.911,0,1,1,228.411,0a1.911,1.911,0,0,1,1.911,1.911" transform="translate(-164.663)"/>
          <path id="Trazado_823508" data-name="Trazado 823508" d="M338.322,389.911A1.911,1.911,0,1,1,336.411,388a1.911,1.911,0,0,1,1.911,1.911" transform="translate(-243.178 -282.072)"/>
          <path id="Trazado_823509" data-name="Trazado 823509" d="M74.322,376.911A1.911,1.911,0,1,1,72.411,375a1.911,1.911,0,0,1,1.911,1.911" transform="translate(-51.253 -272.621)"/>
          <path id="Trazado_823510" data-name="Trazado 823510" d="M89.531,30.445c5.025-.142,9.728-.764,13.855-3.657,2.162-1.515,3.154-1.448,5.157.27a15.769,15.769,0,0,1,4.49,6.512,2.757,2.757,0,0,1-.812,3.37,26.618,26.618,0,0,1-15.657,6.472c-.458.045-.918.061-1.4.092.021.62.538.652.859.835a53.509,53.509,0,0,1,7.644,5.19c2.145,1.775,2.284,3.172.583,5.346a25.509,25.509,0,0,1-9.491,7.53c-2.027.938-2.914.624-4.266-1.148A42.968,42.968,0,0,0,74.363,48.365c-.532-.251-.948-.44-1.5.147a12.751,12.751,0,0,1-8.741,4.365c-1.351.076-2.14,1.165-3.175,1.989a5.646,5.646,0,0,0,2.464.768c8.673,2.139,16.817,5.421,23.754,11.2,5.017,4.181,8.651,9.292,9.312,15.974.607,6.138-1.235,11.488-6.075,15.539a23.5,23.5,0,0,1-14.535,5.508,43.91,43.91,0,0,1-14.134-1.383c-1.048-.305-1.233,0-1.167,1a24.37,24.37,0,0,1-.093,3.755,5.609,5.609,0,0,0,.312,1.47c.486,3.417,2.073,6.6,2.558,9.918.937,6.408.631,12.938.225,19.412-.3,4.724-3.505,7.613-8.254,7.652a12.864,12.864,0,0,1-4.777-.732c-3.971-1.532-5.3-4.889-5.6-8.705-.511-6.524-.733-13.126.4-19.549.532-3.032.316-6.66,3.072-9.084.41-.361.231-.881.159-1.339a8.484,8.484,0,0,0-5.406-6.785,32.3,32.3,0,0,0-10.395-2.111c-4.59-.381-9.175-.754-13.507-2.508C13.1,92.378,9.232,87.962,8.265,81.319a19.1,19.1,0,0,1,4.284-15.392c4.4-5.384,10.343-8.164,16.863-9.951a60.314,60.314,0,0,1,15.474-2.191,2.472,2.472,0,0,0,2.4-1.306,30.564,30.564,0,0,1,8.026-8.5A4.8,4.8,0,0,0,56.7,42.369a14.3,14.3,0,0,1,4.9-5.6,2.345,2.345,0,0,0,1.1-1.251c1.544-4.3,4.54-7.475,8.1-10.15,2.713-2.04,5.579-3.876,8.316-5.888,3.764-2.766,7-5.948,8.267-10.692A2.665,2.665,0,0,1,90.831,7.14,16.591,16.591,0,0,1,98.6,12.231a3.387,3.387,0,0,1,.59,3.523,31.428,31.428,0,0,1-8.511,13.334,3.019,3.019,0,0,0-1.143,1.357M72.38,90.752a15.953,15.953,0,0,0,5.9-.487c5.038-1.708,6.459-5.584,3.64-10.083a18.265,18.265,0,0,0-6.2-6.1c-6.141-3.648-12.934-5.223-19.909-6.217-.915-.131-1.16.284-1.3,1.085a27.141,27.141,0,0,0-.247,8.886c.968,6.137,4.358,10.137,10.375,11.852a32.7,32.7,0,0,0,7.744,1.064M43.222,86.385a3.043,3.043,0,0,0-.063-.585,31.33,31.33,0,0,1-1.481-17.256c.244-1.233-.489-1.112-1.252-1.076a33.859,33.859,0,0,0-12.568,3.007,13.425,13.425,0,0,0-5.706,4.987,4.342,4.342,0,0,0,.766,6.169,13.138,13.138,0,0,0,5.851,2.861c4.724,1.2,9.62,1.016,14.452,1.893M87.509,38.361c1.984,0,3.972.078,5.951-.016,4.569-.215,9.062-.778,13.018-3.391.728-.48,1.3-.951.509-1.813-.627-.683-.84-2.037-2.359-1.162A27.97,27.97,0,0,1,93.781,35.3c-4.264.506-8.55.379-12.826.554a29.169,29.169,0,0,0-10.109,1.878c-.446.185-1.433.24-1.037.966.348.638.66,1.819,1.9,1.406,5.144-1.711,10.464-1.769,15.8-1.748M71.293,31.79c5.132-.431,9.676-1.643,13.648-4.677a26.8,26.8,0,0,0,8.646-11.126c.69-1.646-.732-1.981-1.593-2.552-1.01-.671-1.058.508-1.33.971a30.882,30.882,0,0,1-10.671,10.84,54.431,54.431,0,0,0-8.7,6.545M56.713,129.277h.064c0-2.032.076-4.067-.017-6.095-.15-3.285.724-3.155-3.377-3.23-1.168-.021-1.533.368-1.57,1.5-.151,4.585-.213,9.168,0,13.751a9.553,9.553,0,0,0,.362,2.152c.518,1.817,2.075,1.159,3.272,1.275,1.263.123,1.241-.874,1.251-1.693.032-2.552.012-5.1.012-7.657M77.952,44.153c.07.105.105.227.184.269A50.694,50.694,0,0,1,93.224,56.444c.5.594.951.441,1.492.1a27.53,27.53,0,0,0,3.576-2.783c.9-.791.9-1.251-.13-1.984a46.977,46.977,0,0,0-18.424-7.863,2.459,2.459,0,0,0-1.787.236M91.39,85.072a17.66,17.66,0,0,0-5.745-12.94c-1.173-1.112-1.763-.193-2.457.368-.917.741.171,1.059.474,1.423,3.765,4.506,6.294,9.28,3.738,15.335-.47,1.114.515,1.577,1.251,2.027.836.511,1.209-.087,1.533-.754a11.281,11.281,0,0,0,1.205-5.46M13.144,78.506c.091.655.165,1.543.357,2.4.1.461,0,1.444.784,1.118.742-.31,2.224-.1,1.945-1.67a10.987,10.987,0,0,1,2.263-8.544,16.931,16.931,0,0,1,4.473-4.346c.809-.538,1.431-2.9.814-3.373-.856-.655-1.431.407-2.131.7a5.856,5.856,0,0,0-1.171.781c-4.27,3.176-7.112,7.174-7.334,12.934M48.6,62.152a66.032,66.032,0,0,1,10.259.922c1.589.266,1.592-1.111,1.908-1.969.419-1.137-.748-.9-1.25-1a75.57,75.57,0,0,0-13.184-1.376c-1.726-.045-2.549.34-2.661,2.163-.057.932-.049,1.342,1.024,1.276,1.3-.08,2.6-.019,3.9-.019M86.947,94.495a16.96,16.96,0,0,1-1.56-1.283c-.471-.493-.816-.417-1.321-.036a15.178,15.178,0,0,1-7.7,2.759,30.9,30.9,0,0,1-6.55-.071c-1.3-.131-1.37.894-1.53,1.735-.211,1.113.674.976,1.313.98,2.344.015,4.694.1,7.029-.043a17.491,17.491,0,0,0,10.315-4.042M79.875,70.045c.428-.081,1.328-.137,1.553-.731.275-.725-.687-.884-1.157-1.185a56.182,56.182,0,0,0-14.823-6.623c-1.746-.5-1.377,1-1.748,1.694-.558,1.048.494.9,1,1.013a46.991,46.991,0,0,1,13.627,5.417,2.119,2.119,0,0,0,1.551.414M46.344,74.612a24.568,24.568,0,0,0,1.734,9.313c.131.336.187,1.245.793.774.732-.568,1.719-1.086,1.251-2.51a27.917,27.917,0,0,1-.88-13.429c.083-.508.572-1.283-.542-1.424-.892-.113-1.469.033-1.681,1.077a28.471,28.471,0,0,0-.674,6.2M30.395,92.029c.692.023.911-.182,1.087-1.079.219-1.119-.683-.874-1.189-.944-4.376-.61-8.46-1.826-11.656-5.137-1.007-1.043-2.083-.138-2.769.419-.789.64.306,1.137.691,1.55,3.664,3.935,8.579,4.655,13.836,5.192M27.069,62.753c-.025,1.965.344,2.251,2.176,1.638a31.349,31.349,0,0,1,8.4-1.753c1.661-.081,2.248-.925,2.688-2.259.36-1.092.037-1.4-1.068-1.272a49.056,49.056,0,0,0-11.37,2.717c-.44.163-.938.274-.822.929M63.613,97.731c1.017.138,1,.134,1.375-1.358.154-.613.473-1.154-.541-1.373A20.013,20.013,0,0,1,52.5,87.293c-.173-.226-.4-.669-.7-.351a4.97,4.97,0,0,0-.965,1.576c-.254.668.461.709.818.906a14.968,14.968,0,0,1,5.333,4.5c1.7,2.487,4.393,2.966,6.625,3.81M48.283,93.7a9.115,9.115,0,0,0-2.939-1.331,41.212,41.212,0,0,0-8.88-1.762,1.267,1.267,0,0,0-1.539,1.179c-.146,1,.773.567,1.209.615a29.484,29.484,0,0,1,8.941,2.149,2.24,2.24,0,0,0,3.208-.85m7.233,10.791a13.318,13.318,0,0,0-2.879-7.8c-.95-1.17-1.818-.334-2.576.184-1,.681.133,1.052.416,1.4a14.632,14.632,0,0,1,3.1,6.409c.146.706.238,1.338,1.211,1.227,1.029-.117.6-.9.729-1.423m12.3-58.664c-.015-1.358-2.04-4.169-3.076-4.449-1.148-.31-1.461.786-2.032,1.37-.61.623.152.885.494,1.188a11.041,11.041,0,0,1,2.1,2.513c.239.39.436.933,1.048.522.57-.384,1.417-.5,1.469-1.144M53.758,113.039v-.014h1.707c.4,0,.728-.1.729-.584,0-.452.134-1.018-.483-1.155a6.15,6.15,0,0,0-3.515.111,1.11,1.11,0,0,0-.7,1.265c.1.6.654.332,1.02.368.41.041.827.009,1.24.009M60.3,48.62c-.236-.543-.632-1.061-1.142-.936a2.363,2.363,0,0,0-1.856,1.47c-.1.377.722.843,1.159.77a3.4,3.4,0,0,0,1.839-1.3m-6.265,5.456A1.4,1.4,0,0,0,55.58,52.8c.133-.654-.683-.722-1.134-.71a1.66,1.66,0,0,0-1.509,1.529c-.089.555.725.323,1.1.455" transform="translate(-5.842 -5.089)"/>
        </g>
      </g>
    </g>
  </g>
</svg>
