<svg xmlns="http://www.w3.org/2000/svg" xmlns:xlink="http://www.w3.org/1999/xlink" width="169" height="169" viewBox="0 0 169 169">
  <defs>
    <clipPath id="clip-path">
      <rect id="Rect치ngulo_379416" data-name="Rect치ngulo 379416" width="116.291" height="140.291" fill="none"/>
    </clipPath>
  </defs>
  <g id="Grupo_1077162" data-name="Grupo 1077162" transform="translate(-726 -2925.061)">
    <g id="Grupo_1077157" data-name="Grupo 1077157" transform="translate(726 2925.061)">
      <path id="Uni칩n_12" data-name="Uni칩n 12" d="M84.5,0A84.5,84.5,0,1,1,0,84.5,84.5,84.5,0,0,1,84.5,0Z" transform="translate(0 0)" fill="#fffad0"/>
    </g>
    <g id="Grupo_1077102" data-name="Grupo 1077102" transform="translate(749.015 2936.736)">
      <path id="Trazado_823486" data-name="Trazado 823486" d="M80.031,279.921l-4.822-2.274-1.7-5,3.865-3.182L87.6,265.289l4.847,2.75v3.877L90.287,275l11.6,26.032,2.864,4.291v5.522l7.752,12.073-.853,6.185-4.9,2.747-7.634-1.969-2.638-16.828-3.505-.276-4.1-4.447,2.19-3.785Z" transform="translate(-53.635 -193.572)" fill="#fc974d"/>
      <g id="Grupo_1077101" data-name="Grupo 1077101">
        <g id="Grupo_1077100" data-name="Grupo 1077100" clip-path="url(#clip-path)">
          <path id="Trazado_823487" data-name="Trazado 823487" d="M77.371,136.819l-3.865-11.45V110.018l5.8-14.675,11.761-9.616L104.323,83.5l9.959,5.522,7.073,10.157.373,6.684-.915,16.2-2.567,16.453,2.1,9.039,4.385,5.559L132.3,155l4.244-2.277,2.945-9.5,3.625-15.8,3.186-8.178,5.735-4.258L154.2,113.1l2.433-7.569-4.05-2.706-3.336-6.007,2.117-8.45,6.622-1.761,9.462,2.433.541,5.407-5.672,9.5-3.789,1.58-1.352,4.866-2.7,5.947,1.352,4.325-2.163,5.881-4.595,17.1L144.2,156.085s-5.6,6.132-5.908,6.31-10.853,2.882-10.853,2.882l-10.866-5.668-5.625-11.9-1.352-11.354,3.529-16.794,1.158-12.128-3.335-9.465L102.3,92.016l-8.11.811-5.677,3.514-4.182,7.611-1.255,9.826,1.255,11.136,2.019,5.76.721,2.523Z" transform="translate(-53.635 -60.927)" fill="#fc974d"/>
          <path id="Trazado_823488" data-name="Trazado 823488" d="M315.962,437.231a4.731,4.731,0,1,1-4.731-4.731,4.731,4.731,0,0,1,4.731,4.731" transform="translate(-223.642 -315.58)" fill="#ffdc67"/>
          <path id="Trazado_823489" data-name="Trazado 823489" d="M307.947,439.895a5.947,5.947,0,1,1,5.947-5.947,5.954,5.954,0,0,1-5.947,5.947m0-9.462a3.514,3.514,0,1,0,3.514,3.514,3.518,3.518,0,0,0-3.514-3.514" transform="translate(-220.359 -312.296)"/>
          <path id="Trazado_823490" data-name="Trazado 823490" d="M264.206,10.853A6.353,6.353,0,1,1,257.853,4.5a6.353,6.353,0,0,1,6.353,6.353" transform="translate(-183.511 -3.283)" fill="#ffdc67"/>
          <path id="Trazado_823491" data-name="Trazado 823491" d="M254.569,15.139a7.569,7.569,0,1,1,7.569-7.569,7.578,7.578,0,0,1-7.569,7.569m0-12.706a5.136,5.136,0,1,0,5.136,5.136,5.142,5.142,0,0,0-5.136-5.136" transform="translate(-180.227)"/>
          <path id="Trazado_823492" data-name="Trazado 823492" d="M4.5,120.2a2.7,2.7,0,1,1,2.7,2.7,2.7,2.7,0,0,1-2.7-2.7" transform="translate(-3.283 -85.736)" fill="#ffdc67"/>
          <path id="Trazado_823493" data-name="Trazado 823493" d="M3.92,120.84a3.92,3.92,0,1,1,3.92-3.92,3.924,3.924,0,0,1-3.92,3.92m0-5.407a1.487,1.487,0,1,0,1.487,1.487,1.489,1.489,0,0,0-1.487-1.487" transform="translate(0 -82.452)"/>
          <path id="Trazado_823494" data-name="Trazado 823494" d="M55.285,82.392A1.892,1.892,0,1,1,53.392,80.5a1.892,1.892,0,0,1,1.892,1.892" transform="translate(-37.578 -58.738)"/>
          <path id="Trazado_823495" data-name="Trazado 823495" d="M279.285,73.392a1.892,1.892,0,1,1-1.892-1.892,1.892,1.892,0,0,1,1.892,1.892" transform="translate(-201.022 -52.171)"/>
          <path id="Trazado_823496" data-name="Trazado 823496" d="M256.285,419.392a1.892,1.892,0,1,1-1.892-1.892,1.892,1.892,0,0,1,1.892,1.892" transform="translate(-184.24 -304.635)"/>
          <path id="Trazado_823497" data-name="Trazado 823497" d="M103.571,134.429a65.386,65.386,0,0,1,2.29-15.746,50.328,50.328,0,0,0,1.691-15.24,18.534,18.534,0,0,0-3.044-8.851c-5.09-7.859-15.521-5.823-19.965.046a22.973,22.973,0,0,0-4.777,15.281A73.691,73.691,0,0,0,82.1,125.253c.206.8.474,1.278,1.405,1.262a4.011,4.011,0,0,1,2.784,1.227,9.539,9.539,0,0,1,2.974,5.764,3.948,3.948,0,0,1-1.181,3.461,1.228,1.228,0,0,0-.277,1.646q5.133,11.025,9.507,22.375a1.737,1.737,0,0,0,.659.981c2.928,1.819,3.645,4.871,4.3,7.917a3.115,3.115,0,0,1-.53,2.46c-.645.864-.453,1.431.2,2.187a61.549,61.549,0,0,1,5.564,7.133,12.243,12.243,0,0,1,2,6.367,8.023,8.023,0,0,1-10.246,8.149c-4.241-1.086-6.611-3.993-7.621-8.11a48.642,48.642,0,0,1-1.2-8.147c-.055-.774-.244-1.177-1.128-1.3-3.519-.478-6.614-5.877-6.535-8.3a3.785,3.785,0,0,1,.765-2.541c.794-.846.517-1.5.067-2.358a210.146,210.146,0,0,1-9.343-20.375A1.6,1.6,0,0,0,72.8,143.82c-3.524-.457-6.438-6.658-4.65-9.737a3.08,3.08,0,0,1,.91-1.155c1.429-.83,1.159-1.839.707-3.156A51.7,51.7,0,0,1,68.05,101.4,32.392,32.392,0,0,1,82.333,80.836c9.171-6.08,22.443-4.8,29.8,2.814,4.487,4.649,6.395,10.444,7.085,16.73.778,7.091-.475,14.009-1.786,20.92-.689,3.629-1.325,7.267-1.651,10.947a20.281,20.281,0,0,0,2.216,11.251,8.879,8.879,0,0,0,5.419,4.413c3.394,1.072,6.8-1,8.115-4.856a70.5,70.5,0,0,0,2.528-10.354,67.228,67.228,0,0,1,5.625-17.288,13.2,13.2,0,0,1,3.057-4.087,4.085,4.085,0,0,1,2.594-1.342c2.059.028,2.714-1.378,3.408-2.861a17.407,17.407,0,0,0,1.469-4.9c.072-.5.154-.945-.487-1.217-3.716-1.576-5.369-4.592-5.82-8.436A25.786,25.786,0,0,1,143.9,86.5a7.283,7.283,0,0,1,6.478-6.621,21.375,21.375,0,0,1,10.141.855c3.5,1.178,5.106,3.872,4.346,7.476a22.6,22.6,0,0,1-2.934,7.659,11.7,11.7,0,0,1-6.752,5.293,1.1,1.1,0,0,0-.948,1.093,19.437,19.437,0,0,1-2.89,8.353,1.041,1.041,0,0,0,.062,1.421,6.03,6.03,0,0,1,.864,6.365c-1.725,4.253-3.674,8.425-4.778,12.9-.928,3.759-1.726,7.55-2.659,11.307-1.221,4.916-3.182,9.477-6.749,13.2a18.462,18.462,0,0,1-27.972-.982,27.433,27.433,0,0,1-6.313-16.209c-.095-1.393-.149-2.788-.222-4.183M94.3,178.618a54.159,54.159,0,0,0,1.4,9.108,5.98,5.98,0,0,0,5.014,4.692,3.951,3.951,0,0,0,4.785-3.86,8.237,8.237,0,0,0-1.277-4.619,47.917,47.917,0,0,0-4.33-5.69c-1.909-2.359-1.9-2.325-4.623-1.087-.785.357-1.175.772-.973,1.456m53.525-89.047-.117,0c.046.854.057,1.713.145,2.563.226,2.168.971,4.106,3.1,5.024,2.262.973,4.228.1,5.949-1.428a8.4,8.4,0,0,0,1.338-1.512,19.98,19.98,0,0,0,2.761-7,2.036,2.036,0,0,0-1.157-2.475c-.789-.4-1.208-.384-1.24.7a24.128,24.128,0,0,1-1.341,7.007c-.228.676-.546,1.346-1.423,1.038s-.7-1.006-.475-1.7a24.124,24.124,0,0,0,1.128-5.136c.29-2.908.27-2.868-2.671-3.029-.967-.053-1.289.323-1.358,1.186a23.43,23.43,0,0,0-.1,4.451c.072.654-.137,1.227-.847,1.314-.8.1-1.142-.461-1.157-1.172-.028-1.3.022-2.611,0-3.915-.008-.452.438-1.091-.153-1.319-.516-.2-1,.3-1.385.675a3.241,3.241,0,0,0-1,2.295c-.021.81,0,1.62,0,2.43m-23.377,68.148a14.081,14.081,0,0,0,8.356-2.64c.666-.46.931-.792.055-1.324a6.079,6.079,0,0,1-2.049-2.12c-.374-.63-.714-.711-1.4-.4a10.171,10.171,0,0,1-8.753-.113c-1.7-.763-1.972-.7-2.937.9a6.758,6.758,0,0,0-.845,2.543,1.279,1.279,0,0,0,.822,1.495,14.29,14.29,0,0,0,6.748,1.658M97.637,81.012c-1.789-.089-1.782-.087-1.669,1.219a13.277,13.277,0,0,1,.1,2.154c-.063.809.194,1.066,1.015,1.16a14.427,14.427,0,0,1,9.573,5.272c1.508,1.768,1.584,1.805,3.553.513.3-.2.567-.447.87-.639.786-.5.755-1,.24-1.754a18.02,18.02,0,0,0-13.685-7.925m-3.524,2.916c-.078-2.974-.154-3.049-2.882-2.454a22.9,22.9,0,0,0-12.239,7.238c-1.113,1.22-1.11,1.215.311,2.135a7.624,7.624,0,0,1,1.2.87c.554.539.9.44,1.4-.128a17.516,17.516,0,0,1,10.658-5.88c1.34-.214,1.809-.735,1.551-1.781M73.9,139.8c-.009,0,.164-.042.333-.1a50.587,50.587,0,0,0,10.428-5.007c.265-.166.605-.355.6-.684a5.444,5.444,0,0,0-1.436-3.114c-.5-.689-1.211-.452-1.855-.243a36.529,36.529,0,0,0-8.2,3.73c-2.628,1.648-2.767,2.329-1.023,4.882a.981.981,0,0,0,1.151.537m16.756,34.887a15.65,15.65,0,0,0,4.551-1.949c3.741-2.276,3.819-1.789,1.744-6.255a1.187,1.187,0,0,0-1.706-.732,34.91,34.91,0,0,0-6.074,2.6c-2.868,1.6-3,2.291-.945,4.9a11.494,11.494,0,0,0,.911,1,1.689,1.689,0,0,0,1.519.44M114.829,154a8.978,8.978,0,0,1,2.382-4.489c.319-.31.138-.554-.116-.789a16.536,16.536,0,0,1-4.79-9.474c-.113-.594-.364-.82-1-.758-2.31.223-3.421,1.629-2.954,3.841A22.467,22.467,0,0,0,114.829,154M141.1,139.372c.477.086.492-.538.615-1.055.915-3.846,1.739-7.716,2.954-11.483.256-.792.058-.988-.725-1.1a8.034,8.034,0,0,1-2.439-.726c-.917-.457-1.27-.312-1.593.691a91.547,91.547,0,0,0-2.673,11.546c-.079.43-.125.778.343,1.027a9.83,9.83,0,0,0,3.518,1.1m-65.28-28.48a21.485,21.485,0,0,1,.017-2.286,1.148,1.148,0,0,0-.986-1.459c-1.205-.264-2.4-.808-3.631-.136-.107.059-.121.327-.14.5a45.13,45.13,0,0,0,.189,11.146c.087.61.34.71.9.608a30.311,30.311,0,0,1,3.46-.49c.782-.051,1-.273.862-1.058a42.442,42.442,0,0,1-.673-6.827m4.16-16.853a6.73,6.73,0,0,0-2.189-1.78c-.722-.478-1.2-.475-1.73.368a33.3,33.3,0,0,0-4.4,10.966c-.155.745-.145,1.172.83,1.171a9.09,9.09,0,0,1,2.518.406c.815.239,1.079.075,1.2-.8a25.847,25.847,0,0,1,3.305-9.5c.156-.27.3-.545.464-.836m55.128,58.739c.473-.032.629-.4.842-.668a25.694,25.694,0,0,0,4.576-8.809c.521-1.823.52-1.812-1.242-2.263a6.805,6.805,0,0,1-1.658-.559c-.878-.495-1.133-.13-1.35.69a19.063,19.063,0,0,1-3.372,7.3c-.4.5-1.275.875-.663,1.8a6.461,6.461,0,0,0,2.866,2.513m-27.483-19.453c0,1.214,0,2.429,0,3.643,0,.621.237.815.827.463a6.38,6.38,0,0,1,2.667-.9c.668-.064.78-.427.748-1a41.683,41.683,0,0,1,.83-10.2c.254-1.321-.127-1.735-1.366-1.632a8.874,8.874,0,0,1-1.079.031c-1.091-.042-1.543.454-1.737,1.556a61.371,61.371,0,0,0-.892,8.037m7.835-29.848a33.729,33.729,0,0,0-2.145-10.669c-.252-.686-.485-1.036-1.19-.411a7.748,7.748,0,0,1-2.429,1.437c-.647.242-.665.567-.408,1.129a24.76,24.76,0,0,1,2.355,9.9.919.919,0,0,0,.55.962c2.25,1.074,3.326.448,3.272-1.946,0-.135,0-.27,0-.407m-4.253,18.274c0-.01,0-.019,0-.029.449.022.9.022,1.346.073.509.058.742-.174.832-.647a76.115,76.115,0,0,0,1.772-12.257c.035-1.367-1.788-.335-2.627-.883-.207-.135-.8-.465-.94.248a1.29,1.29,0,0,0-.013.134,91.969,91.969,0,0,1-2.127,12.475c-.176.75.1.983.813.893a7.556,7.556,0,0,1,.943-.006m33.822,2.141a.771.771,0,0,0,.843-.569c.869-2.071,1.805-4.114,2.626-6.2.567-1.445.24-2.542-.736-3.088-1.007-.563-1.943-.258-3.043.948a16.445,16.445,0,0,0-2.639,4.824c-1.3,3.022-.8,3.812,2.577,4.057l.371.031m-69.068-3.266c-1.105.185-2.209.382-3.317.55-.669.1-.919.411-.764,1.105a65.946,65.946,0,0,0,1.8,6.631c.192.573.426.686.97.421a24.816,24.816,0,0,1,2.962-1.292c.851-.283.964-.713.754-1.508q-.636-2.41-1.111-4.861c-.152-.786-.513-1.1-1.3-1.046m12.689,30.939a39.927,39.927,0,0,0-6.577-2.034c-.972-.215-1.454.285-1.082,1.165.961,2.269,2.008,4.5,3.111,6.95a70.463,70.463,0,0,1,4.547-6.081M86.6,158.652a1.124,1.124,0,0,0-1.115,1.691c.519,1.14,1.169,2.219,1.693,3.357.338.733.689.87,1.437.484,1.19-.614,2.455-1.081,3.679-1.631.38-.171,1.068-.106,1.02-.664a1.617,1.617,0,0,0-.934-1.513,30.366,30.366,0,0,0-5.78-1.725m-3.88-11.061,5.383,1.595a13.6,13.6,0,0,0-.561-1.427c-.587-1.083-.725-3.144-1.667-3.112-1.247.043-2.23,1.6-3.156,2.944M79.448,142c1.449.571,2.7,1.08,3.974,1.543.144.052.4-.132.577-.25,1.173-.795,1.2-1.257.295-2.895-.268-.487-.482-.654-1.025-.354-1.174.647-2.384,1.227-3.82,1.956M89.9,153.217c-.576.7-.943,1.146-1.3,1.594-1.48,1.837-1.479,1.835.709,2.437.56.154,1.119.315,1.669.5.624.211.747-.027.531-.567-.494-1.238-1-2.471-1.606-3.964M78.084,143.9l1.68,4.074c.684-.841,1.264-1.563,1.855-2.275.344-.413.161-.633-.257-.785a16.444,16.444,0,0,0-3.279-1.014" transform="translate(-48.757 -56.179)"/>
        </g>
      </g>
    </g>
  </g>
</svg>
