<svg xmlns="http://www.w3.org/2000/svg" xmlns:xlink="http://www.w3.org/1999/xlink" width="169" height="169" viewBox="0 0 169 169">
  <defs>
    <clipPath id="clip-path">
      <rect id="Rect치ngulo_379410" data-name="Rect치ngulo 379410" width="140.027" height="117.016" fill="none"/>
    </clipPath>
  </defs>
  <g id="Grupo_1077163" data-name="Grupo 1077163" transform="translate(-363 -2925.061)">
    <g id="Grupo_159182" data-name="Grupo 159182" transform="translate(363 2925.061)">
      <path id="Uni칩n_12" data-name="Uni칩n 12" d="M84.5,0A84.5,84.5,0,1,1,0,84.5,84.5,84.5,0,0,1,84.5,0Z" transform="translate(0 0)" fill="#fffad0"/>
    </g>
    <g id="Grupo_1077086" data-name="Grupo 1077086" transform="translate(377.486 2951.053)">
      <path id="Trazado_823438" data-name="Trazado 823438" d="M101,76.993l.883-16.11L106.738,60l2.207,1.986L110.1,76.993l-.931,81.655-2.869,1.766-4.634-2.648Z" transform="translate(-78.71 -46.758)" fill="#fc974d"/>
      <g id="Grupo_1077085" data-name="Grupo 1077085">
        <g id="Grupo_1077084" data-name="Grupo 1077084" clip-path="url(#clip-path)">
          <path id="Trazado_823439" data-name="Trazado 823439" d="M85.6,137.124c0-5.259-.022-10.518.019-15.777a2.038,2.038,0,0,0-1.253-2.172,2.843,2.843,0,0,1-1.616-2.884c.048-3.2.113-6.4-.021-9.6a2.43,2.43,0,0,1,1.759-2.765,1.5,1.5,0,0,0,1.114-1.652c.028-5-.123-10,.094-15,.022-.512-.062-1.027-.07-1.542a1.326,1.326,0,0,0-.862-1.281,3.209,3.209,0,0,1-2.019-3.317c.095-3.2.1-6.4,0-9.6a2.183,2.183,0,0,1,1.534-2.457,1.848,1.848,0,0,0,1.333-2.088c-.051-4.265,0-8.532-.042-12.8a2.237,2.237,0,0,1,1.009-2.046,8.025,8.025,0,0,1,9.2.083,1.881,1.881,0,0,1,.851,1.671c-.013.882-.027,1.765-.026,2.647,0,.829.374,1.031,1.133.7a35.478,35.478,0,0,1,16.3-3.08c5.237.291,10.2,1.507,14.537,4.7a35.475,35.475,0,0,0,15.381,6.471,14.615,14.615,0,0,0,10.02-2.092,57.979,57.979,0,0,1,8.636-4.371,22.531,22.531,0,0,1,6.007-1.325,44.76,44.76,0,0,1,11.735.794,84.129,84.129,0,0,1,14.386,4.081c1,.372,1.975.8,2.954,1.212.6.255.82.524.362,1.229-5.522,8.5-10.989,17.03-16.511,25.527a2.545,2.545,0,0,0-.235,2.9c3.9,7.857,7.7,15.759,11.533,23.65q3,6.19,5.98,12.393c.139.288.436.587.163.9s-.639.056-.915-.058c-3.089-1.276-6.234-2.4-9.4-3.471a124.934,124.934,0,0,0-13.025-3.679c-2.441-.541-4.907-.89-7.383-1.239-5.854-.825-11.22.614-16.388,3.189-3.285,1.636-6.544,3.4-10.225,3.943-5.64.826-11.145.67-16.079-2.791a35.126,35.126,0,0,0-5.923-3.59,16.667,16.667,0,0,0-8.337-.98,80.828,80.828,0,0,0-13.6,2.629c-.978.257-1.112.888-1.11,1.738q.022,11.86.012,23.721c0,1.25-.029,2.5.01,3.751a1.819,1.819,0,0,1-.845,1.672,8.056,8.056,0,0,1-9.47-.114,1.939,1.939,0,0,1-.731-1.732c.021-5.37.011-10.739.011-16.108ZM98.873,90.352h-.016q0,9.048,0,18.1c0,2.722,0,5.444.008,8.165,0,1.323.235,1.466,1.493,1.2a64.131,64.131,0,0,1,13.086-1.745,20.964,20.964,0,0,1,7.366,1,30.907,30.907,0,0,1,6.637,3.658,15.418,15.418,0,0,0,7.774,3.079,23.819,23.819,0,0,0,12.789-3.069c5.151-2.731,10.547-4.672,16.482-4.674a42.553,42.553,0,0,1,5.248.424c2.04.252,4.067.583,6.078.953a84.435,84.435,0,0,1,10.872,2.819c.4.13.9.388,1.242-.011.328-.378-.044-.77-.222-1.108-2.605-4.971-4.7-10.187-7.3-15.162-2.008-3.838-3.788-7.794-5.708-11.679a1.427,1.427,0,0,1,.106-1.614c2.547-3.907,5.065-7.834,7.59-11.755q3.55-5.513,7.1-11.024c.469-.725.546-1.282-.431-1.6a65.4,65.4,0,0,0-16.6-3.346c-5.015-.295-9.446,1.413-13.662,3.916a37.8,37.8,0,0,1-6.391,3.2c-4.7,1.7-9.336,1-13.977-.277A42.63,42.63,0,0,1,124.8,63.011a18.64,18.64,0,0,0-9.115-3.319,31.579,31.579,0,0,0-15.51,2.524A1.849,1.849,0,0,0,98.859,64.2c.024,8.717.014,17.434.014,26.151M93.1,132.572q0-7.662,0-15.323c0-2.635-.048-2.657-2.716-2.482-.915.06-1.163.449-1.161,1.314.024,10.656.014,21.313.026,31.969,0,1.993.028,1.993,1.965,2a3.5,3.5,0,0,1,.66.013c.973.189,1.254-.187,1.246-1.172-.045-5.438-.022-10.877-.021-16.315m.009-41.17c0-3.234-.006-6.469,0-9.7,0-1.732-.263-2-2.033-1.967a7.508,7.508,0,0,0-.878.079.989.989,0,0,0-.986,1.091c.021,1.794-.367,3.57-.084,5.386a24.149,24.149,0,0,1,.115,3.63c.011,3.857,0,7.714,0,11.571,0,.613.237.951.91.965a8.827,8.827,0,0,1,1.968.2c.862.217,1-.137.993-.888-.026-3.455-.011-6.91-.01-10.365M93.1,61.289c0-1.617-.005-3.234,0-4.851.007-1.769-1.349-2.636-3.046-1.957a1.124,1.124,0,0,0-.821,1.152q.021,5.561.008,11.122c0,.44.16.757.625.7a7.094,7.094,0,0,1,2.284.291c.744.156.978-.091.962-.838-.039-1.874-.013-3.749-.013-5.623" transform="translate(-64.47 -39.545)"/>
          <path id="Trazado_823440" data-name="Trazado 823440" d="M168.306,131.018V107.851c0-1.869.006-1.852,1.8-2.461a27.853,27.853,0,0,1,14.129-1.065,17.339,17.339,0,0,1,6.833,3.177,43.36,43.36,0,0,0,19.185,7.567,22.452,22.452,0,0,0,12.441-2.022c2.719-1.216,5.123-2.984,7.809-4.266a19.779,19.779,0,0,1,10.779-1.462,57.237,57.237,0,0,1,10.154,1.987c1.027.3,1.039.658.532,1.438q-5.1,7.855-10.159,15.732c-1.154,1.789-2.29,3.59-3.463,5.367a1.727,1.727,0,0,0-.054,1.867c2.229,4.589,4.578,9.125,6.629,13.792,1.376,3.132,3.155,6.045,4.539,9.162.121.271.32.549.084.808-.217.239-.48-.007-.716-.064-2.18-.522-4.335-1.162-6.512-1.66a62.448,62.448,0,0,0-7.181-.906c-7.836-.851-14.985,1.24-21.82,4.853a20.831,20.831,0,0,1-8.981,2.732,13.249,13.249,0,0,1-8.751-2.66,31.32,31.32,0,0,0-9.2-4.64c-2.92-.932-5.823-.557-8.742-.371a55.41,55.41,0,0,0-8.4,1.161c-.6.133-.917-.119-.925-.741q0-.386,0-.772,0-11.693,0-23.387Z" transform="translate(-131.163 -80.944)" fill="#ff5856"/>
          <path id="Trazado_823441" data-name="Trazado 823441" d="M346.224,8.362A3.862,3.862,0,1,1,342.362,4.5a3.862,3.862,0,0,1,3.862,3.862" transform="translate(-263.797 -3.507)" fill="#ffdc67"/>
          <path id="Trazado_823442" data-name="Trazado 823442" d="M338.855,9.71a4.855,4.855,0,1,1,4.855-4.855,4.861,4.861,0,0,1-4.855,4.855m0-7.724a2.869,2.869,0,1,0,2.869,2.869,2.872,2.872,0,0,0-2.869-2.869" transform="translate(-260.29)"/>
          <path id="Trazado_823443" data-name="Trazado 823443" d="M222.872,454.686a5.186,5.186,0,1,1-5.186-5.186,5.186,5.186,0,0,1,5.186,5.186" transform="translate(-165.604 -350.3)" fill="#ffdc67"/>
          <path id="Trazado_823444" data-name="Trazado 823444" d="M214.179,457.359a6.179,6.179,0,1,1,6.179-6.179,6.186,6.186,0,0,1-6.179,6.179m0-10.372a4.193,4.193,0,1,0,4.193,4.193,4.2,4.2,0,0,0-4.193-4.193" transform="translate(-162.097 -346.793)"/>
          <path id="Trazado_823445" data-name="Trazado 823445" d="M4.5,229.707a2.207,2.207,0,1,1,2.207,2.207A2.207,2.207,0,0,1,4.5,229.707" transform="translate(-3.507 -177.293)" fill="#ffdc67"/>
          <path id="Trazado_823446" data-name="Trazado 823446" d="M3.2,229.4a3.2,3.2,0,1,1,3.2-3.2,3.2,3.2,0,0,1-3.2,3.2m0-4.414A1.214,1.214,0,1,0,4.414,226.2,1.215,1.215,0,0,0,3.2,224.986" transform="translate(0 -173.786)"/>
          <path id="Trazado_823447" data-name="Trazado 823447" d="M623.59,263.045a1.545,1.545,0,1,1-1.545-1.545,1.545,1.545,0,0,1,1.545,1.545" transform="translate(-483.562 -203.79)"/>
          <path id="Trazado_823448" data-name="Trazado 823448" d="M349.09,455.545A1.545,1.545,0,1,1,347.545,454a1.545,1.545,0,0,1,1.545,1.545" transform="translate(-269.642 -353.807)"/>
          <path id="Trazado_823449" data-name="Trazado 823449" d="M20.09,307.545A1.545,1.545,0,1,1,18.545,306a1.545,1.545,0,0,1,1.545,1.545" transform="translate(-13.248 -238.469)"/>
          <path id="Trazado_823450" data-name="Trazado 823450" d="M271.09,11.545A1.545,1.545,0,1,1,269.545,10a1.545,1.545,0,0,1,1.545,1.545" transform="translate(-208.855 -7.793)"/>
        </g>
      </g>
    </g>
  </g>
</svg>
