<svg xmlns="http://www.w3.org/2000/svg" xmlns:xlink="http://www.w3.org/1999/xlink" width="189" height="189" viewBox="0 0 189 189">
  <defs>
    <clipPath id="clip-path">
      <rect id="Rectángulo_379432" data-name="Rectángulo 379432" width="123.046" height="126.403" fill="none"/>
    </clipPath>
  </defs>
  <g id="Grupo_1077187" data-name="Grupo 1077187" transform="translate(-707 -953)">
    <g id="Grupo_161158" data-name="Grupo 161158" transform="translate(707 953)">
      <circle id="Elipse_1142" data-name="Elipse 1142" cx="94.5" cy="94.5" r="94.5" fill="#dbf9bd"/>
    </g>
    <g id="Grupo_1077127" data-name="Grupo 1077127" transform="translate(739.477 981.736)" clip-path="url(#clip-path)">
      <path id="Trazado_823533" data-name="Trazado 823533" d="M207.156,67.064a57.918,57.918,0,0,1-5.163,22.664,34.654,34.654,0,0,1-2.059,4.018,2.275,2.275,0,0,1-3.3.91c-1.063-.688-1.243-1.933-.489-3.3a50.44,50.44,0,0,0,6.472-27.6,19.945,19.945,0,0,0-5-11.784c-.79-.954-1.656-1.847-2.509-2.748-1.138-1.2-1.325-2.5-.466-3.428,1-1.085,2.305-1.034,3.628.251,5.92,5.746,9.171,12.631,8.889,21.015" transform="translate(-94.047 -21.819)"/>
      <path id="Trazado_823534" data-name="Trazado 823534" d="M47.5,27.079,39.768,16.254,35.128,8.522,38.221,4.4h5.948l8.486,9.279,4.639,7.732h5.67l7.176-5.67,8.8-5.155L90.8,9.037l10.825,3.093,10.31,7.217,6.186,7.217,6.186,14.949V55l-4.639,15.376-7.732,16.5L99.563,100.793l-10.825,7.217L74.82,112.649l-12.887-1.031-20.1-9.794L31,95.638l-7.732.515-3.608,3.093-1.8,6.443,3.093,4.639,8.763,4.639,3.608,6.186-1.031,5.155H22.321l-10.647-6.186L6,112.906l-2.062-9.794L6,95.9,9.1,91.256l5.67-5.155L22.5,82.493H43.118l12.887-3.608,5.155-9.794,1.546-15.98L55.49,38.677Z" transform="translate(-1.91 -2.131)" fill="#ff5856"/>
      <path id="Trazado_823535" data-name="Trazado 823535" d="M122.976,46.881a75.559,75.559,0,0,1-8.11,31.017A70.906,70.906,0,0,1,99.881,98.575,51.423,51.423,0,0,1,82.036,109.9c-10.972,3.934-21.759,3.488-32.263-1.792-4.956-2.492-9.625-5.488-14.505-8.11a45.644,45.644,0,0,0-9.58-4.219,7.506,7.506,0,0,0-4.969.056c-2.6,1.088-4.128,5.1-3.387,8.081.637,2.566,2.424,3.65,4.666,4.409a29.176,29.176,0,0,1,3.837,1.487,10.914,10.914,0,0,1,6.287,9.658c.182,3.883-1.882,6.835-6.376,6.928A24.879,24.879,0,0,1,8.788,120.11,23.54,23.54,0,0,1,0,101.611,23.1,23.1,0,0,1,18.876,78.747,35.585,35.585,0,0,1,28.7,78.3a70.927,70.927,0,0,0,11.852.251c6.7-.479,12.1-3.233,15.31-9.454a20.463,20.463,0,0,0,2.119-7.507c.694-7.3-1.361-13.959-4.906-20.236-4.528-8.018-10.147-15.287-15.633-22.645-2.439-3.272-4.795-6.585-6-10.579-1.155-3.824.727-6.906,4.576-7.8C41.648-.987,45.17,1.82,48.049,6.064c1.966,2.9,3.849,5.851,5.8,8.758,2.05,3.054,4.661,3.484,7.553,1.155a58.979,58.979,0,0,0,4.629-4.207C69.179,8.628,73.1,6.929,77.254,5.7a28.011,28.011,0,0,1,16.152.028A36.57,36.57,0,0,1,106.018,12.4a46.5,46.5,0,0,1,14.049,18.9,35.012,35.012,0,0,1,2.909,15.583m-95.933,35.2c-6.143-.366-11.985.76-16.806,5.174-5.68,5.2-8.309,13.707-5.061,21.377a22.51,22.51,0,0,0,13.031,12.572,14.844,14.844,0,0,0,7.915,1.254,2.371,2.371,0,0,0,2.158-2.6,7.166,7.166,0,0,0-3.712-6.339,16.451,16.451,0,0,0-4.059-1.633c-4.291-1.218-6.72-3.981-7.081-8.438-.587-7.228,3.69-12.747,11.164-11.821a26.447,26.447,0,0,1,7.566,2.419C38.4,96.864,44.05,100.742,50.1,103.9a38.9,38.9,0,0,0,12.342,4.368c9.1,1.323,17.529-.77,25.38-5.41a57.5,57.5,0,0,0,16.844-15.664,76,76,0,0,0,10.993-21.285,76.6,76.6,0,0,0,3.487-16.771,31.539,31.539,0,0,0-1.2-12.257,42.726,42.726,0,0,0-14.3-21.325c-4.8-3.9-10.188-6.623-16.5-7.041-7.469-.494-14,1.665-19.366,7.011a33.754,33.754,0,0,1-4.488,3.951c-3.513,2.442-8.687,2.735-11.822-1.293-1.2-1.546-2.162-3.244-3.332-4.8-1.78-2.374-3.017-5.124-5.083-7.3S38.5,3.259,36.227,4.305a1.774,1.774,0,0,0-1.119,2.13,12.636,12.636,0,0,0,2.107,4.986C40.746,17.013,45.05,22.052,48.8,27.493c4.556,6.614,9.16,13.186,11.6,20.969a1.115,1.115,0,0,0,1.564.8A8.749,8.749,0,0,0,64.7,47.678c1.846-1.444,2.008-3.538,2.208-5.634.165-1.732,1.087-2.617,2.473-2.47a2.521,2.521,0,0,1,2.026,2.969,21.988,21.988,0,0,1-.566,3.279c-1.082,4.2-3.768,6.615-7.89,7.1-1.027.12-1.328.54-1.182,1.588a28.888,28.888,0,0,1-1.35,13.906c-.517,1.447-.3,1.868,1.226,2.024a6.407,6.407,0,0,1,4.8,3.206,14.067,14.067,0,0,1,2.3,6.867c.113,1.821-.764,3-2.369,3.024-1.443.023-2.089-.854-2.029-2.752a6.861,6.861,0,0,0-4.6-6.791,2.315,2.315,0,0,0-3.013.829A16.612,16.612,0,0,1,50.7,79.727c-4.76,2.441-9.881,3.012-15.134,2.8-2.8-.112-5.577-.5-8.523-.445" transform="translate(0 0)"/>
    </g>
  </g>
</svg>
