<svg xmlns="http://www.w3.org/2000/svg" width="203" height="189" viewBox="0 0 203 189">
  <g id="Grupo_1077190" data-name="Grupo 1077190" transform="translate(-689 -1661)">
    <g id="Grupo_1077122" data-name="Grupo 1077122" transform="translate(0 91)">
      <g id="Grupo_161157" data-name="Grupo 161157" transform="translate(703 1570)">
        <circle id="Elipse_1146" data-name="Elipse 1146" cx="94.5" cy="94.5" r="94.5" fill="#e8e8e8"/>
      </g>
      <rect id="Rectángulo_379365" data-name="Rectángulo 379365" width="16" height="5" transform="translate(689 1662)" fill="#e8e8e8"/>
    </g>
    <g id="Grupo_1077130" data-name="Grupo 1077130" transform="translate(-18.015 89.765)">
      <path id="Trazado_823296" data-name="Trazado 823296" d="M18.927,49.957,14.384,43.9,12.87,36.328l.981-6.151.533-1.42,4.545,2.709,7.2,2.094,2.644,3.525,2.314,2.709,8.688-1.208,8.291,1.21,3.48-3.457L54.914,32.3l5.683-.9L65.115,28l1.705,8.34L65.7,44.289,59.954,50.64v4.334l2.311,8.208-3.207,8.733-7.066,4.272L40.885,77.973l-9.412-.916-7.246-2.113-5.3-5.42-.83-4.791.388-6.61.442-3.148,1.2-4.334Z" transform="translate(722.242 1612.741)" fill="#ffb59b"/>
      <path id="Trazado_823297" data-name="Trazado 823297" d="M32.483,57.141l4.543,1.514,2.835-1.819L40.886,54.5l-.709-3.71-1.988-2.4-6.765-.5-3.491.784-1.508,2.408v3.029l-.164,1.178,2.061,1.937,2.646,1.428Z" transform="translate(729.13 1622.973)" fill="#bf8874"/>
      <path id="Trazado_823298" data-name="Trazado 823298" d="M68.094,35.68A17.685,17.685,0,0,0,65.857,28a1.033,1.033,0,0,0-1.91.545c0,.521-.731,1.183-1.957,1.772a14.291,14.291,0,0,1-2.35.859c-6.319.906-9.966,5.821-11.2,7.8a24.974,24.974,0,0,0-8.261-1.384H40.1a24.982,24.982,0,0,0-8.262,1.384c-1.233-1.984-4.881-6.9-11.2-7.8-1.776-.448-4.3-1.628-4.3-2.63A1.033,1.033,0,0,0,14.424,28a17.708,17.708,0,0,0-2.237,7.682c-.245,4.028.815,9.981,7.137,15.711a15.147,15.147,0,0,0-.545,3.815c-.578,1.419-3.568,9.528.656,16,3.366,5.159,10.332,7.775,20.706,7.775,10.493,0,17.509-2.629,20.854-7.813C65.165,64.7,62.1,56.629,61.5,55.2a15.18,15.18,0,0,0-.547-3.809c6.322-5.73,7.382-11.683,7.137-15.711M14.243,35.9a16.555,16.555,0,0,1,1.112-5.064,7.918,7.918,0,0,0,2.07,1.358,16.1,16.1,0,0,0,2.768,1c.035.009.07.015.1.021,5.15.715,8.349,4.691,9.584,6.554q-.634.288-1.243.616c-1.178-1.316-4.33-4.5-7.42-4.728-1.626-.121-3.226-1.125-3.468-1.719a1.032,1.032,0,0,0-1.952.123c-.076.279-1.7,6.7,5.038,13.69a16.286,16.286,0,0,0-.763,1.514c-4.136-3.993-6.1-8.482-5.83-13.366m7.763,10.078a16.025,16.025,0,0,1-4.142-7.614,11.247,11.247,0,0,1-.212-1.769,8.086,8.086,0,0,0,3.413,1.122c1.82.135,4.046,2,5.427,3.406a13.035,13.035,0,0,0-4.305,4.617c-.061.08-.123.159-.182.238M59.251,70.058c-2.942,4.549-9.372,6.857-19.111,6.857-9.624,0-16.005-2.3-18.969-6.827-3.94-6.024-.451-14.176-.416-14.256a1.031,1.031,0,0,0,.088-.415A13.35,13.35,0,0,1,22.7,48.67a1.027,1.027,0,0,0,.51-.5c0-.009.256-.535.7-1.268a18.65,18.65,0,0,1,7.744-5.644.991.991,0,0,0,.2-.077l.017-.011A22.744,22.744,0,0,1,40.1,39.658h.08a22.756,22.756,0,0,1,8.229,1.514l.015.011a.971.971,0,0,0,.206.077A18.647,18.647,0,0,1,56.373,46.9c.439.731.694,1.26.7,1.269a1.03,1.03,0,0,0,.512.5,13.365,13.365,0,0,1,1.858,6.748,1.026,1.026,0,0,0,.091.424c.036.082,3.612,8.2-.279,14.217M58.04,45.668c-.268-.436-.588-.927-.957-1.428a10.716,10.716,0,0,0-3.3-3.123c1.383-1.4,3.607-3.269,5.427-3.4a8.107,8.107,0,0,0,3.418-1.124c-.083,2.091-.853,5.6-4.357,9.386-.077-.1-.156-.2-.236-.307m1.4,2.079c6.743-6.989,5.114-13.411,5.04-13.69a1.033,1.033,0,0,0-1.954-.123c-.242.594-1.84,1.6-3.468,1.719-3.091.229-6.242,3.412-7.42,4.728q-.611-.327-1.246-.618c1.23-1.863,4.416-5.835,9.587-6.553.035-.006.07-.012.1-.021a16.051,16.051,0,0,0,2.768-1,7.853,7.853,0,0,0,2.073-1.361,16.536,16.536,0,0,1,1.1,4.976c.3,4.919-1.663,9.437-5.826,13.457a16.287,16.287,0,0,0-.763-1.514" transform="translate(721.874 1612.489)" fill="#231f20"/>
      <path id="Trazado_823299" data-name="Trazado 823299" d="M39.847,48.632a9.762,9.762,0,0,0-6.023-1.587c-2,0-4.283.165-6,1.381-1.8,1.275-2.671,3.453-2.671,6.656,0,2.953,3.207,4.646,8.8,4.646,7.429,0,8.538-2.911,8.538-4.646,0-2.953-.89-5.123-2.647-6.45m-5.891,9.03c-3.256,0-6.736-.678-6.736-2.58,0-3.693,1.355-4.655,1.8-4.972,1.242-.88,3.124-1,4.8-1,4.691,0,6.6,1.731,6.6,5.971,0,2.329-4.526,2.58-6.472,2.58" transform="translate(728.561 1622.537)" fill="#231f20"/>
      <path id="Trazado_823300" data-name="Trazado 823300" d="M29.174,50.208a1.551,1.551,0,1,0,1.551,1.551,1.55,1.55,0,0,0-1.551-1.551" transform="translate(729.83 1624.164)" fill="#231f20"/>
      <path id="Trazado_823301" data-name="Trazado 823301" d="M33.641,50.208a1.551,1.551,0,1,0,1.551,1.551,1.55,1.55,0,0,0-1.551-1.551" transform="translate(732.128 1624.164)" fill="#231f20"/>
      <path id="Trazado_823302" data-name="Trazado 823302" d="M28.163,44.916a2.8,2.8,0,1,0-2.8,2.8,2.8,2.8,0,0,0,2.8-2.8m-2.8.731a.732.732,0,1,1,.731-.731.733.733,0,0,1-.731.731" transform="translate(727.229 1620.002)" fill="#231f20"/>
      <path id="Trazado_823303" data-name="Trazado 823303" d="M37.807,42.117a2.8,2.8,0,1,0,2.8,2.8,2.8,2.8,0,0,0-2.8-2.8m0,3.53a.732.732,0,1,1,.731-.731.733.733,0,0,1-.731.731" transform="translate(733.629 1620.002)" fill="#231f20"/>
    </g>
    <g id="Grupo_1077131" data-name="Grupo 1077131" transform="translate(0 100.648)">
      <path id="Trazado_823304" data-name="Trazado 823304" d="M18.927,49.957,14.384,43.9,12.87,36.328l.981-6.151.533-1.42,4.545,2.709,7.2,2.094,2.644,3.525,2.314,2.709,8.688-1.208,8.291,1.21,3.48-3.457L54.914,32.3l5.683-.9L65.115,28l1.705,8.34L65.7,44.289,59.954,50.64v4.334l2.311,8.208-3.207,8.733-7.066,4.272L40.885,77.973l-9.412-.916-7.246-2.113-5.3-5.42-.83-4.791.388-6.61.442-3.148,1.2-4.334Z" transform="translate(798.213 1573.741)" fill="#ffb59b"/>
      <path id="Trazado_823312" data-name="Trazado 823312" d="M18.927,49.957,14.384,43.9,12.87,36.328l.981-6.151.533-1.42,4.545,2.709,7.2,2.094,2.644,3.525,2.314,2.709,8.688-1.208,8.291,1.21,3.48-3.457L54.914,32.3l5.683-.9L65.115,28l1.705,8.34L65.7,44.289,59.954,50.64v4.334l2.311,8.208-3.207,8.733-7.066,4.272L40.885,77.973l-9.412-.916-7.246-2.113-5.3-5.42-.83-4.791.388-6.61.442-3.148,1.2-4.334Z" transform="translate(798.213 1625.212)" fill="#ffb59b"/>
      <path id="Trazado_823305" data-name="Trazado 823305" d="M32.483,57.141l4.543,1.514,2.835-1.819L40.886,54.5l-.709-3.71-1.988-2.4-6.765-.5-3.491.784-1.508,2.408v3.029l-.164,1.178,2.061,1.937,2.646,1.428Z" transform="translate(805.101 1583.973)" fill="#bf8874"/>
      <path id="Trazado_823313" data-name="Trazado 823313" d="M32.483,57.141l4.543,1.514,2.835-1.819L40.886,54.5l-.709-3.71-1.988-2.4-6.765-.5-3.491.784-1.508,2.408v3.029l-.164,1.178,2.061,1.937,2.646,1.428Z" transform="translate(805.101 1635.443)" fill="#bf8874"/>
      <path id="Trazado_823306" data-name="Trazado 823306" d="M68.094,35.68A17.685,17.685,0,0,0,65.857,28a1.033,1.033,0,0,0-1.91.545c0,.521-.731,1.183-1.957,1.772a14.291,14.291,0,0,1-2.35.859c-6.319.906-9.966,5.821-11.2,7.8a24.974,24.974,0,0,0-8.261-1.384H40.1a24.982,24.982,0,0,0-8.262,1.384c-1.233-1.984-4.881-6.9-11.2-7.8-1.776-.448-4.3-1.628-4.3-2.63A1.033,1.033,0,0,0,14.424,28a17.708,17.708,0,0,0-2.237,7.682c-.245,4.028.815,9.981,7.137,15.711a15.147,15.147,0,0,0-.545,3.815c-.578,1.419-3.568,9.528.656,16,3.366,5.159,10.332,7.775,20.706,7.775,10.493,0,17.509-2.629,20.854-7.813C65.165,64.7,62.1,56.629,61.5,55.2a15.18,15.18,0,0,0-.547-3.809c6.322-5.73,7.382-11.683,7.137-15.711M14.243,35.9a16.555,16.555,0,0,1,1.112-5.064,7.918,7.918,0,0,0,2.07,1.358,16.1,16.1,0,0,0,2.768,1c.035.009.07.015.1.021,5.15.715,8.349,4.691,9.584,6.554q-.634.288-1.243.616c-1.178-1.316-4.33-4.5-7.42-4.728-1.626-.121-3.226-1.125-3.468-1.719a1.032,1.032,0,0,0-1.952.123c-.076.279-1.7,6.7,5.038,13.69a16.286,16.286,0,0,0-.763,1.514c-4.136-3.993-6.1-8.482-5.83-13.366m7.763,10.078a16.025,16.025,0,0,1-4.142-7.614,11.247,11.247,0,0,1-.212-1.769,8.086,8.086,0,0,0,3.413,1.122c1.82.135,4.046,2,5.427,3.406a13.035,13.035,0,0,0-4.305,4.617c-.061.08-.123.159-.182.238M59.251,70.058c-2.942,4.549-9.372,6.857-19.111,6.857-9.624,0-16.005-2.3-18.969-6.827-3.94-6.024-.451-14.176-.416-14.256a1.031,1.031,0,0,0,.088-.415A13.35,13.35,0,0,1,22.7,48.67a1.027,1.027,0,0,0,.51-.5c0-.009.256-.535.7-1.268a18.65,18.65,0,0,1,7.744-5.644.991.991,0,0,0,.2-.077l.017-.011A22.744,22.744,0,0,1,40.1,39.658h.08a22.756,22.756,0,0,1,8.229,1.514l.015.011a.971.971,0,0,0,.206.077A18.647,18.647,0,0,1,56.373,46.9c.439.731.694,1.26.7,1.269a1.03,1.03,0,0,0,.512.5,13.365,13.365,0,0,1,1.858,6.748,1.026,1.026,0,0,0,.091.424c.036.082,3.612,8.2-.279,14.217M58.04,45.668c-.268-.436-.588-.927-.957-1.428a10.716,10.716,0,0,0-3.3-3.123c1.383-1.4,3.607-3.269,5.427-3.4a8.107,8.107,0,0,0,3.418-1.124c-.083,2.091-.853,5.6-4.357,9.386-.077-.1-.156-.2-.236-.307m1.4,2.079c6.743-6.989,5.114-13.411,5.04-13.69a1.033,1.033,0,0,0-1.954-.123c-.242.594-1.84,1.6-3.468,1.719-3.091.229-6.242,3.412-7.42,4.728q-.611-.327-1.246-.618c1.23-1.863,4.416-5.835,9.587-6.553.035-.006.07-.012.1-.021a16.051,16.051,0,0,0,2.768-1,7.853,7.853,0,0,0,2.073-1.361,16.536,16.536,0,0,1,1.1,4.976c.3,4.919-1.663,9.437-5.826,13.457a16.287,16.287,0,0,0-.763-1.514" transform="translate(797.845 1573.489)" fill="#231f20"/>
      <path id="Trazado_823314" data-name="Trazado 823314" d="M68.094,35.68A17.685,17.685,0,0,0,65.857,28a1.033,1.033,0,0,0-1.91.545c0,.521-.731,1.183-1.957,1.772a14.291,14.291,0,0,1-2.35.859c-6.319.906-9.966,5.821-11.2,7.8a24.974,24.974,0,0,0-8.261-1.384H40.1a24.982,24.982,0,0,0-8.262,1.384c-1.233-1.984-4.881-6.9-11.2-7.8-1.776-.448-4.3-1.628-4.3-2.63A1.033,1.033,0,0,0,14.424,28a17.708,17.708,0,0,0-2.237,7.682c-.245,4.028.815,9.981,7.137,15.711a15.147,15.147,0,0,0-.545,3.815c-.578,1.419-3.568,9.528.656,16,3.366,5.159,10.332,7.775,20.706,7.775,10.493,0,17.509-2.629,20.854-7.813C65.165,64.7,62.1,56.629,61.5,55.2a15.18,15.18,0,0,0-.547-3.809c6.322-5.73,7.382-11.683,7.137-15.711M14.243,35.9a16.555,16.555,0,0,1,1.112-5.064,7.918,7.918,0,0,0,2.07,1.358,16.1,16.1,0,0,0,2.768,1c.035.009.07.015.1.021,5.15.715,8.349,4.691,9.584,6.554q-.634.288-1.243.616c-1.178-1.316-4.33-4.5-7.42-4.728-1.626-.121-3.226-1.125-3.468-1.719a1.032,1.032,0,0,0-1.952.123c-.076.279-1.7,6.7,5.038,13.69a16.286,16.286,0,0,0-.763,1.514c-4.136-3.993-6.1-8.482-5.83-13.366m7.763,10.078a16.025,16.025,0,0,1-4.142-7.614,11.247,11.247,0,0,1-.212-1.769,8.086,8.086,0,0,0,3.413,1.122c1.82.135,4.046,2,5.427,3.406a13.035,13.035,0,0,0-4.305,4.617c-.061.08-.123.159-.182.238M59.251,70.058c-2.942,4.549-9.372,6.857-19.111,6.857-9.624,0-16.005-2.3-18.969-6.827-3.94-6.024-.451-14.176-.416-14.256a1.031,1.031,0,0,0,.088-.415A13.35,13.35,0,0,1,22.7,48.67a1.027,1.027,0,0,0,.51-.5c0-.009.256-.535.7-1.268a18.65,18.65,0,0,1,7.744-5.644.991.991,0,0,0,.2-.077l.017-.011A22.744,22.744,0,0,1,40.1,39.658h.08a22.756,22.756,0,0,1,8.229,1.514l.015.011a.971.971,0,0,0,.206.077A18.647,18.647,0,0,1,56.373,46.9c.439.731.694,1.26.7,1.269a1.03,1.03,0,0,0,.512.5,13.365,13.365,0,0,1,1.858,6.748,1.026,1.026,0,0,0,.091.424c.036.082,3.612,8.2-.279,14.217M58.04,45.668c-.268-.436-.588-.927-.957-1.428a10.716,10.716,0,0,0-3.3-3.123c1.383-1.4,3.607-3.269,5.427-3.4a8.107,8.107,0,0,0,3.418-1.124c-.083,2.091-.853,5.6-4.357,9.386-.077-.1-.156-.2-.236-.307m1.4,2.079c6.743-6.989,5.114-13.411,5.04-13.69a1.033,1.033,0,0,0-1.954-.123c-.242.594-1.84,1.6-3.468,1.719-3.091.229-6.242,3.412-7.42,4.728q-.611-.327-1.246-.618c1.23-1.863,4.416-5.835,9.587-6.553.035-.006.07-.012.1-.021a16.051,16.051,0,0,0,2.768-1,7.853,7.853,0,0,0,2.073-1.361,16.536,16.536,0,0,1,1.1,4.976c.3,4.919-1.663,9.437-5.826,13.457a16.287,16.287,0,0,0-.763-1.514" transform="translate(797.845 1624.96)" fill="#231f20"/>
      <path id="Trazado_823307" data-name="Trazado 823307" d="M39.847,48.632a9.762,9.762,0,0,0-6.023-1.587c-2,0-4.283.165-6,1.381-1.8,1.275-2.671,3.453-2.671,6.656,0,2.953,3.207,4.646,8.8,4.646,7.429,0,8.538-2.911,8.538-4.646,0-2.953-.89-5.123-2.647-6.45m-5.891,9.03c-3.256,0-6.736-.678-6.736-2.58,0-3.693,1.355-4.655,1.8-4.972,1.242-.88,3.124-1,4.8-1,4.691,0,6.6,1.731,6.6,5.971,0,2.329-4.526,2.58-6.472,2.58" transform="translate(804.531 1583.537)" fill="#231f20"/>
      <path id="Trazado_823315" data-name="Trazado 823315" d="M39.847,48.632a9.762,9.762,0,0,0-6.023-1.587c-2,0-4.283.165-6,1.381-1.8,1.275-2.671,3.453-2.671,6.656,0,2.953,3.207,4.646,8.8,4.646,7.429,0,8.538-2.911,8.538-4.646,0-2.953-.89-5.123-2.647-6.45m-5.891,9.03c-3.256,0-6.736-.678-6.736-2.58,0-3.693,1.355-4.655,1.8-4.972,1.242-.88,3.124-1,4.8-1,4.691,0,6.6,1.731,6.6,5.971,0,2.329-4.526,2.58-6.472,2.58" transform="translate(804.531 1635.008)" fill="#231f20"/>
      <path id="Trazado_823308" data-name="Trazado 823308" d="M29.174,50.208a1.551,1.551,0,1,0,1.551,1.551,1.55,1.55,0,0,0-1.551-1.551" transform="translate(805.801 1585.164)" fill="#231f20"/>
      <path id="Trazado_823316" data-name="Trazado 823316" d="M29.174,50.208a1.551,1.551,0,1,0,1.551,1.551,1.55,1.55,0,0,0-1.551-1.551" transform="translate(805.801 1636.635)" fill="#231f20"/>
      <path id="Trazado_823309" data-name="Trazado 823309" d="M33.641,50.208a1.551,1.551,0,1,0,1.551,1.551,1.55,1.55,0,0,0-1.551-1.551" transform="translate(808.099 1585.164)" fill="#231f20"/>
      <path id="Trazado_823317" data-name="Trazado 823317" d="M33.641,50.208a1.551,1.551,0,1,0,1.551,1.551,1.55,1.55,0,0,0-1.551-1.551" transform="translate(808.099 1636.635)" fill="#231f20"/>
      <path id="Trazado_823310" data-name="Trazado 823310" d="M28.163,44.916a2.8,2.8,0,1,0-2.8,2.8,2.8,2.8,0,0,0,2.8-2.8m-2.8.731a.732.732,0,1,1,.731-.731.733.733,0,0,1-.731.731" transform="translate(803.199 1581.002)" fill="#231f20"/>
      <path id="Trazado_823318" data-name="Trazado 823318" d="M28.163,44.916a2.8,2.8,0,1,0-2.8,2.8,2.8,2.8,0,0,0,2.8-2.8m-2.8.731a.732.732,0,1,1,.731-.731.733.733,0,0,1-.731.731" transform="translate(803.199 1632.473)" fill="#231f20"/>
      <path id="Trazado_823311" data-name="Trazado 823311" d="M37.807,42.117a2.8,2.8,0,1,0,2.8,2.8,2.8,2.8,0,0,0-2.8-2.8m0,3.53a.732.732,0,1,1,.731-.731.733.733,0,0,1-.731.731" transform="translate(809.6 1581.002)" fill="#231f20"/>
      <path id="Trazado_823319" data-name="Trazado 823319" d="M37.807,42.117a2.8,2.8,0,1,0,2.8,2.8,2.8,2.8,0,0,0-2.8-2.8m0,3.53a.732.732,0,1,1,.731-.731.733.733,0,0,1-.731.731" transform="translate(809.6 1632.473)" fill="#231f20"/>
    </g>
  </g>
</svg>
