<svg id="Grupo_1076869" data-name="Grupo 1076869" xmlns="http://www.w3.org/2000/svg" xmlns:xlink="http://www.w3.org/1999/xlink" width="123.341" height="117.978" viewBox="0 0 123.341 117.978">
  <defs>
    <clipPath id="clip-path">
      <rect id="Rect치ngulo_379036" data-name="Rect치ngulo 379036" width="123.341" height="117.977" fill="none"/>
    </clipPath>
  </defs>
  <g id="Grupo_1076868" data-name="Grupo 1076868" transform="translate(0 0)" clip-path="url(#clip-path)">
    <rect id="Rect치ngulo_379035" data-name="Rect치ngulo 379035" width="80.654" height="101.889" rx="3.428" transform="translate(21.235 14.801)" fill="#ecebed"/>
    <path id="Trazado_822871" data-name="Trazado 822871" d="M57.666,11.393a6.65,6.65,0,1,1-6.651,6.651,6.685,6.685,0,0,1,6.651-6.651" transform="translate(57.523 12.846)" fill="#fc974d"/>
    <path id="Trazado_822872" data-name="Trazado 822872" d="M5.966,42.244a5.364,5.364,0,1,1,0,10.727,5.364,5.364,0,0,1,0-10.727" transform="translate(0.682 47.632)" fill="#fc974d"/>
    <path id="Trazado_822873" data-name="Trazado 822873" d="M61.54,14.119c0,.43.215.857.215,1.287A6.683,6.683,0,0,1,55.1,22.055H25.5a6.307,6.307,0,0,1-4.719-1.93,6.309,6.309,0,0,1-1.932-4.719,2.717,2.717,0,0,1,.215-1.287,6.714,6.714,0,0,1,6.651-5.361h4.289A10.758,10.758,0,0,1,40.305.605,10.57,10.57,0,0,1,50.6,8.758H54.89a7.239,7.239,0,0,1,4.721,1.93,5.573,5.573,0,0,1,1.93,3.432" transform="translate(21.258 0.682)" fill="#414a56"/>
    <path id="Trazado_822874" data-name="Trazado 822874" d="M44.843,14.72a7.688,7.688,0,0,1,7.721,7.723c0,7.721-7.721,12.227-15.442,19.948C29.4,34.67,21.676,30.164,21.676,22.443A7.69,7.69,0,0,1,29.4,14.72c3.862,0,5.791,1.932,7.723,5.791,1.93-3.859,3.859-5.791,7.721-5.791" transform="translate(24.441 16.597)" fill="#ff5856"/>
    <path id="Trazado_822875" data-name="Trazado 822875" d="M54.257,47.286a1.93,1.93,0,1,1-1.93,1.93,1.929,1.929,0,0,1,1.93-1.93" transform="translate(59.002 53.318)"/>
    <path id="Trazado_822876" data-name="Trazado 822876" d="M53.552,22.08a1.93,1.93,0,1,1-1.932,1.93,1.929,1.929,0,0,1,1.932-1.93" transform="translate(58.205 24.896)"/>
    <path id="Trazado_822877" data-name="Trazado 822877" d="M49.822.706a1.931,1.931,0,1,1-1.932,1.93A1.929,1.929,0,0,1,49.822.706" transform="translate(53.999 0.796)"/>
    <path id="Trazado_822878" data-name="Trazado 822878" d="M16.45,1.311a1.931,1.931,0,1,1-1.932,1.93,1.929,1.929,0,0,1,1.932-1.93" transform="translate(16.37 1.478)"/>
    <path id="Trazado_822879" data-name="Trazado 822879" d="M3.846,15.829a1.93,1.93,0,1,1-1.93,1.93,1.93,1.93,0,0,1,1.93-1.93" transform="translate(2.16 17.848)"/>
    <path id="Trazado_822880" data-name="Trazado 822880" d="M3.14,32.767A1.931,1.931,0,1,1,1.21,34.7a1.929,1.929,0,0,1,1.93-1.93" transform="translate(1.364 36.947)"/>
    <path id="Trazado_822881" data-name="Trazado 822881" d="M55.9,24.239H26.3a8.68,8.68,0,0,1-5.791-2.359,7.922,7.922,0,0,1-2.359-5.791,3.177,3.177,0,0,1,.215-1.5A8.253,8.253,0,0,1,26.3,8.151H29.73A12.274,12.274,0,0,1,41.1,0,11.979,11.979,0,0,1,52.468,8.151H55.9a8.686,8.686,0,0,1,5.793,2.359,7.555,7.555,0,0,1,2.145,4.076c0,.43.215,1.072.215,1.5A8.437,8.437,0,0,1,55.9,24.239M26.3,10.725a5.493,5.493,0,0,0-5.364,4.291v1.072a6.159,6.159,0,0,0,1.5,3.859,5.163,5.163,0,0,0,3.859,1.5H55.9a5.31,5.31,0,0,0,5.364-5.361V15.016a5.122,5.122,0,0,0-1.5-2.789,5.178,5.178,0,0,0-3.864-1.5H51.61a1.362,1.362,0,0,1-1.287-1.072,9.4,9.4,0,0,0-9.008-7.078A9.167,9.167,0,0,0,32.3,9.653a1.362,1.362,0,0,1-1.287,1.072Z" transform="translate(20.463 0)"/>
    <path id="Trazado_822882" data-name="Trazado 822882" d="M84.024,110.816H17.956a8.606,8.606,0,0,1-8.58-8.58v-87.3a8.606,8.606,0,0,1,8.58-8.58H29.539a1.384,1.384,0,0,1,1.287,1.287,1.2,1.2,0,0,1-1.072,1.287H18.171a6,6,0,0,0-6.006,6.006v87.519a6,6,0,0,0,6.006,6.006H84.238a6,6,0,0,0,6.006-6.006V14.931a6,6,0,0,0-6.006-6.006H72.654a1.382,1.382,0,0,1-1.285-1.287,1.384,1.384,0,0,1,1.285-1.287H84.238a8.606,8.606,0,0,1,8.58,8.58v87.519a8.906,8.906,0,0,1-8.8,8.366" transform="translate(10.572 7.161)"/>
    <path id="Trazado_822883" data-name="Trazado 822883" d="M6.649,54.938a6.65,6.65,0,0,1,0-13.3,6.65,6.65,0,1,1,0,13.3m0-10.725a4.072,4.072,0,0,0-4.074,4.074,3.943,3.943,0,0,0,4.074,4.076,3.944,3.944,0,0,0,4.076-4.076,4.074,4.074,0,0,0-4.076-4.074" transform="translate(0 46.95)"/>
    <path id="Trazado_822884" data-name="Trazado 822884" d="M58.461,26.888a8.151,8.151,0,1,1,8.151-8.151,8.147,8.147,0,0,1-8.151,8.151m0-13.3a5.363,5.363,0,1,0,5.364,5.364,5.309,5.309,0,0,0-5.364-5.364" transform="translate(56.728 11.937)"/>
    <path id="Trazado_822885" data-name="Trazado 822885" d="M74.794,89.4H15.805a1.384,1.384,0,0,1-1.287-1.287v-71a1.384,1.384,0,0,1,1.287-1.285,1.382,1.382,0,0,1,1.287,1.285V86.831H73.507V17.115a1.287,1.287,0,0,1,2.574,0v71A1.382,1.382,0,0,1,74.794,89.4" transform="translate(16.37 17.849)"/>
    <path id="Trazado_822886" data-name="Trazado 822886" d="M37.8,44.36h0a1.113,1.113,0,0,1-.857-.428,60.811,60.811,0,0,0-5.578-5.149c-5.578-4.934-10.3-9.225-10.3-15.659a9.063,9.063,0,0,1,9.008-9.01c3.862,0,6.006,1.717,7.723,4.506,1.715-2.789,3.859-4.506,7.721-4.506a9.065,9.065,0,0,1,9.01,9.01c0,6.434-4.719,10.725-10.3,15.659C42.522,40.5,40.59,42,38.661,43.933c-.215.428-.43.428-.857.428M30.08,16.689a6.453,6.453,0,0,0-6.434,6.436c0,5.147,4.074,9.008,9.438,13.727,1.5,1.287,3,2.789,4.719,4.291,1.5-1.5,3.217-3,4.719-4.291,5.361-4.719,9.438-8.366,9.438-13.727a6.455,6.455,0,0,0-6.436-6.436c-3,0-4.719,1.287-6.649,5.149a1.3,1.3,0,0,1-1.287.643,1.526,1.526,0,0,1-1.287-.643c-1.717-3.862-3.217-5.149-6.221-5.149" transform="translate(23.76 15.915)"/>
    <path id="Trazado_822887" data-name="Trazado 822887" d="M37.706,33.526H18.83a1.287,1.287,0,1,1,0-2.574H37.706a1.384,1.384,0,0,1,1.287,1.287,1.238,1.238,0,0,1-1.287,1.287" transform="translate(19.781 34.9)"/>
    <path id="Trazado_822888" data-name="Trazado 822888" d="M63.12,36.047H18.93a1.287,1.287,0,0,1,0-2.574H63.12a1.287,1.287,0,1,1,0,2.574" transform="translate(19.894 37.743)"/>
    <path id="Trazado_822889" data-name="Trazado 822889" d="M37.706,39.777H18.83a1.287,1.287,0,1,1,0-2.574H37.706a1.384,1.384,0,0,1,1.287,1.287,1.236,1.236,0,0,1-1.287,1.287" transform="translate(19.781 41.948)"/>
    <path id="Trazado_822890" data-name="Trazado 822890" d="M63.12,42.3H18.93a1.287,1.287,0,0,1,0-2.574H63.12a1.287,1.287,0,1,1,0,2.574" transform="translate(19.894 44.791)"/>
    <path id="Trazado_822891" data-name="Trazado 822891" d="M37.706,46.129H18.83a1.287,1.287,0,1,1,0-2.574H37.706a1.384,1.384,0,0,1,1.287,1.287c.215.645-.43,1.287-1.287,1.287" transform="translate(19.781 49.111)"/>
    <path id="Trazado_822892" data-name="Trazado 822892" d="M63.12,48.65H18.93a1.287,1.287,0,0,1,0-2.574H63.12a1.287,1.287,0,1,1,0,2.574" transform="translate(19.894 51.953)"/>
  </g>
</svg>
