<svg xmlns="http://www.w3.org/2000/svg" width="107" height="107" viewBox="0 0 107 107">
  <g id="Grupo_1077197" data-name="Grupo 1077197" transform="translate(-285.5 -16869.104)">
    <g id="Grupo_156312" data-name="Grupo 156312" transform="translate(-3.168 12421.104)">
      <path id="Elipse_5845" data-name="Elipse 5845" d="M53.5,0A53.5,53.5,0,1,1,0,53.5,53.5,53.5,0,0,1,53.5,0Z" transform="translate(288.668 4448)" fill="#fffad0"/>
    </g>
    <g id="Grupo_1075860" data-name="Grupo 1075860" transform="translate(-49.682 16701.92)">
      <g id="Grupo_1075859" data-name="Grupo 1075859" transform="translate(360.257 190.183)">
        <path id="Trazado_815137" data-name="Trazado 815137" d="M377.035,286.123a.94.94,0,0,1-1.068.845c-2.106-.009-4.213,0-6.319-.005a7.9,7.9,0,0,1-7.979-7.972q-.015-15.331,0-30.662c0-1.112-.009-2.224.006-3.335a.648.648,0,0,0-.329-.67c-.545-.313-.739-.917-1.086-1.394v-1.405c.167-.043.154-.212.207-.324a2.529,2.529,0,0,1,2.783-1.564c1.636.242,3.259.571,4.9.774a70.554,70.554,0,0,0,8.922.541c.32,0,.439-.178.585-.381a16.011,16.011,0,0,1,23.557-2.776,1.692,1.692,0,0,0,1.243.464c1.988-.06,3.976-.007,5.962.111.679.04.915.246,1.055.928-.2.687-.406.844-1.114.829-1.2-.025-2.4-.172-3.6-.109-.974,0-1.95-.03-2.923.009a1.694,1.694,0,0,1-1.353-.525,13.276,13.276,0,0,0-4.329-2.822,13.034,13.034,0,0,0-6.039-1.029,7.37,7.37,0,0,0-1.97.18,14.052,14.052,0,0,0-9.362,6.217,1.31,1.31,0,0,1-1.259.656c-.719-.029-1.441,0-2.161.008a74.062,74.062,0,0,1-9.375-.836c-.981-.159-1.958-.343-2.94-.5a.828.828,0,0,0-1.011.667.871.871,0,0,0,.664,1.02,3.8,3.8,0,0,0,.455.1q2.41.477,4.85.767a60.811,60.811,0,0,0,7.468.5c.624.007,1.25-.015,1.871.028a3.1,3.1,0,0,0,3.017-1.6,12.033,12.033,0,0,1,6.061-4.752,16.294,16.294,0,0,1,3.7-.776c.757.045,1.521.04,2.27.143a12.249,12.249,0,0,1,7.011,3.417,2.664,2.664,0,0,0,1.9.888c1.188-.01,2.376-.025,3.564-.038.506.017,1.013.029,1.519.051a69.52,69.52,0,0,1,10.616,1.229c.847.169,1.346-.071,1.437-.662.085-.55-.315-.917-1.123-1.074-1.7-.331-3.416-.589-5.136-.806-.7-.089-.912-.31-.992-1.053a.992.992,0,0,1,1.186-.7c1.893.257,3.785.514,5.654.915a2.552,2.552,0,0,1,2.115,2.082,2.426,2.426,0,0,1-1.073,2.646c-.339.233-.3.5-.3.806q0,16.8,0,33.607a7.945,7.945,0,0,1-7.965,8.183q-15.427,0-30.854.005c-.635,0-1.055-.206-1.193-.853.216-.762.4-.909,1.19-.91l12.388-.019c6.3,0,12.6.053,18.9-.015a5.986,5.986,0,0,0,5.7-5.384c.188-1.984.033-3.978.082-5.966.008-.333-.176-.384-.421-.427a71.616,71.616,0,0,0-7.83-.964,66.474,66.474,0,0,0-11.51.249,53.4,53.4,0,0,0-6.452,1.032c-.174.017-.351.02-.522.053a67.4,67.4,0,0,1-8.515,1.105,71.483,71.483,0,0,1-17.878-.985c-.4-.074-.49.024-.485.416.021,1.5.005,3,.009,4.505a6.158,6.158,0,0,0,6.416,6.4c2.028,0,4.057,0,6.085,0C376.651,285.209,376.895,285.415,377.035,286.123Zm21.683-43.46c-.2-.189-.387-.384-.589-.566a10.546,10.546,0,0,0-11.122-2.319,10.026,10.026,0,0,0-5.269,4.167,4.6,4.6,0,0,1-3.388,2.24c-.86.11-.862.1-.878.985,0,.1-.007.2,0,.293a.984.984,0,0,1-.822,1.106c-.734-.149-.936-.384-.937-1.093a3.588,3.588,0,0,1,.021-.7c.1-.475-.092-.573-.544-.58a67.921,67.921,0,0,1-11.164-1.092c-.517-.094-.61,0-.609.5q.022,10.127.01,20.255c0,1.912,0,3.825,0,5.737,0,.279.018.445.376.509a72.967,72.967,0,0,0,11.568,1.165,69.962,69.962,0,0,0,9.927-.5,48.41,48.41,0,0,0,5.53-.92c.154-.015.311-.019.462-.048a69.224,69.224,0,0,1,11.5-1.231,67.33,67.33,0,0,1,13.686,1.036c.359.065.559.061.558-.422q-.021-12.968,0-25.935c0-.339-.091-.481-.428-.543a69.133,69.133,0,0,0-12.151-1.193c-.087,0-.194-.034-.256.086.01.051.019.108.034.163a14.384,14.384,0,0,1-4,14.424c-.529.538-.789.556-1.44.194-.364-.658-.33-.9.2-1.435.124-.125.254-.243.372-.373a12.7,12.7,0,0,0,3.14-12.5c-.111-.424-.293-.6-.759-.557A4.439,4.439,0,0,1,398.718,242.663Z" transform="translate(-360.257 -227.003)" fill="#030303"/>
        <path id="Trazado_815138" data-name="Trazado 815138" d="M548.224,190.183a1.283,1.283,0,0,1,.572,1.241c-.033.407,0,.818-.008,1.228-.01.566-.279.959-.858.982-.4.016-.436.2-.405.5a1.35,1.35,0,0,1,0,.292.872.872,0,0,1-1.738.023,13.517,13.517,0,0,1,0-1.753.765.765,0,0,1,.793-.778c.417,0,.507-.183.452-.528a1.33,1.33,0,0,1,.492-1.21Z" transform="translate(-516.723 -190.183)" fill="#040403"/>
        <path id="Trazado_815139" data-name="Trazado 815139" d="M409.359,500.1l-12.388.019c-.785,0-.974.149-1.19.91l-1.73.006c-.14-.707-.384-.914-1.11-.916-2.028,0-4.057,0-6.085,0a6.158,6.158,0,0,1-6.416-6.4c0-1.5.012-3-.009-4.505-.005-.393.083-.49.485-.416a71.484,71.484,0,0,0,17.878.985,67.4,67.4,0,0,0,8.515-1.105c.171-.034.348-.036.522-.053l-.018,1.585a2.262,2.262,0,0,0-2.153-.258.733.733,0,0,0-.515.768.708.708,0,0,0,.494.778c.743.121,1.536.361,2.195-.281q0,1.29,0,2.581a3.725,3.725,0,0,0-2.177-1.009,3.237,3.237,0,0,0-3.434,2.381,2.948,2.948,0,0,0,2.3,3.463,3.343,3.343,0,0,0,3.549-1.19A8.99,8.99,0,0,0,409.359,500.1Zm-22.008-1.59a4.667,4.667,0,0,0,3.442-1.341,2.969,2.969,0,0,0-.007-4.334,5.1,5.1,0,0,0-6.853-.032,2.99,2.99,0,0,0,.095,4.5A4.774,4.774,0,0,0,387.351,498.513Zm9.62-1.293a4.018,4.018,0,0,0,2.274-.624,2.666,2.666,0,0,0-.026-4.7,4.18,4.18,0,0,0-4.638.056,2.651,2.651,0,0,0-.035,4.571A4.021,4.021,0,0,0,396.971,497.22Zm-3.888,1.749v.008c.175,0,.352.01.526,0a.854.854,0,0,0,.867-.841.827.827,0,0,0-.767-.882,3.5,3.5,0,0,0-1.394.031.859.859,0,0,0,.124,1.682A5.948,5.948,0,0,0,393.083,498.97Z" transform="translate(-377.273 -441.919)" fill="#fbcb6f"/>
        <path id="Trazado_815140" data-name="Trazado 815140" d="M643.932,269.461c1.2-.063,2.4.084,3.6.109.708.015.916-.142,1.114-.829a6.733,6.733,0,0,0,1.723.126c.08.743.29.964.992,1.053,1.72.218,3.433.476,5.136.806.808.157,1.208.524,1.123,1.074-.091.592-.59.831-1.437.663a69.513,69.513,0,0,0-10.616-1.229c-.506-.022-1.013-.034-1.519-.051A2.347,2.347,0,0,1,643.932,269.461Z" transform="translate(-599.432 -256.446)" fill="#fad0ba"/>
        <path id="Trazado_815141" data-name="Trazado 815141" d="M501.6,200.468a1.065,1.065,0,0,1-.662-.334c-.329-.331-.668-.653-.988-.992a.863.863,0,0,1-.042-1.334c.2-.225.167-.34-.03-.509a2.49,2.49,0,0,1-.4-.422.812.812,0,0,1,.054-1.116.77.77,0,0,1,1.1-.135,8.007,8.007,0,0,1,1.476,1.483.733.733,0,0,1-.083,1.014c-.324.3-.166.448.056.671.509.511.555,1.037.15,1.42A.907.907,0,0,1,501.6,200.468Z" transform="translate(-477.523 -194.626)" fill="#070604"/>
        <path id="Trazado_815142" data-name="Trazado 815142" d="M585.984,205.456a3.916,3.916,0,0,1-2.092,2.119c-.114,0-.27-.008-.333-.078-.483-.539-.793-.21-1.184.152a.766.766,0,0,1-1.146-.1.774.774,0,0,1-.046-1.11,13.276,13.276,0,0,1,1.32-1.316.765.765,0,0,1,1.107.075c.254.26.4.189.595-.041a2.14,2.14,0,0,1,.428-.393.807.807,0,0,1,.884-.036A.9.9,0,0,1,585.984,205.456Z" transform="translate(-546.426 -202.352)" fill="#040403"/>
        <path id="Trazado_815143" data-name="Trazado 815143" d="M407.833,332.4a48.39,48.39,0,0,1-5.53.92,69.958,69.958,0,0,1-9.927.5,72.952,72.952,0,0,1-11.568-1.165c-.358-.064-.377-.23-.376-.509.006-1.912,0-3.825,0-5.737q0-10.127-.01-20.255c0-.5.092-.595.609-.5A67.925,67.925,0,0,0,392.2,306.75c.452.007.639.1.544.58a3.59,3.59,0,0,0-.021.7c0,.709.2.943.937,1.093q.063.862.125,1.724a.962.962,0,0,0-.515,1.309,14.525,14.525,0,0,0,7.01,8.8c.665.375.953.315,1.464-.261a14.05,14.05,0,0,0,6.081,1.163q-.007,1.668-.014,3.335a2.607,2.607,0,0,0-2.307,1.524,2.643,2.643,0,0,0,2.331,3.758Q407.833,331.443,407.833,332.4ZM388.9,313.711a2.62,2.62,0,0,0,2.649-2.624,2.633,2.633,0,0,0-5.266-.026A2.609,2.609,0,0,0,388.9,313.711Zm3.509,11.828a2.62,2.62,0,0,0,2.653-2.62,2.633,2.633,0,0,0-5.266-.034A2.609,2.609,0,0,0,392.41,325.539Zm-7.608-5.153a2.62,2.62,0,0,0,2.649-2.624,2.633,2.633,0,0,0-5.266-.027A2.61,2.61,0,0,0,384.8,320.386Zm-2.5,8.377a2.633,2.633,0,0,0,5.266.048,2.633,2.633,0,1,0-5.266-.048Zm15.019,3.217a2.62,2.62,0,0,0,2.66-2.613,2.633,2.633,0,0,0-5.266-.049A2.609,2.609,0,0,0,397.321,331.98Zm-13.48-23.62a.866.866,0,0,0-.9.875.877.877,0,0,0,.852.865.862.862,0,0,0,.887-.822A.852.852,0,0,0,383.841,308.36Zm18.645,17.273a.851.851,0,0,0-.827-.878.866.866,0,0,0-.913.857.876.876,0,0,0,.892.883A.86.86,0,0,0,402.486,325.633Zm-9.277-9.076a.866.866,0,0,0-.9.875.876.876,0,0,0,.852.865.862.862,0,0,0,.887-.822A.852.852,0,0,0,393.209,316.557Zm-6.181,6.734a.851.851,0,0,0-.827-.878.866.866,0,0,0-.913.857.876.876,0,0,0,.892.883A.86.86,0,0,0,387.028,323.291Zm3.788,6.148a.864.864,0,0,0-.845.867.876.876,0,0,0,.9.873.861.861,0,0,0,.838-.872A.852.852,0,0,0,390.817,329.439Z" transform="translate(-377.268 -287.558)" fill="#fc8d9c"/>
        <path id="Trazado_815144" data-name="Trazado 815144" d="M555.4,316.785q.007-1.668.014-3.335h0c.709-.1,1.421-.161,2.13-.276.987-.16,1.88-.618,2.853-.809a.878.878,0,0,0,1.162.308c.511-.252.518-.706.407-1.186a7.734,7.734,0,0,1,1.423-.964c.651.362.911.344,1.44-.194a14.384,14.384,0,0,0,4-14.424c-.014-.055-.023-.112-.033-.163.062-.121.169-.087.256-.086a69.136,69.136,0,0,1,12.151,1.193c.337.062.428.2.428.543q-.016,12.968,0,25.935c0,.484-.2.488-.558.422a67.331,67.331,0,0,0-13.686-1.036,69.214,69.214,0,0,0-11.5,1.231c-.151.029-.308.033-.462.048q0-.962,0-1.923l.348-.04a2.631,2.631,0,0,0,2.329-2.333,2.684,2.684,0,0,0-1.739-2.758C556.038,316.814,555.7,316.951,555.4,316.785Zm20.36-13.479a2.628,2.628,0,1,0-2.656-2.612A2.622,2.622,0,0,0,575.758,303.306Zm1.145,15.459a2.628,2.628,0,1,0-2.63-2.638A2.621,2.621,0,0,0,576.9,318.765Zm-5.878-6.09a2.628,2.628,0,1,0-2.607-2.66A2.622,2.622,0,0,0,571.026,312.675Zm-3.049,8.2a2.628,2.628,0,1,0-2.6-2.664A2.621,2.621,0,0,0,567.977,320.873Zm8.328-15.149a.846.846,0,0,0-.845-.858.861.861,0,0,0-.893.875.872.872,0,0,0,.851.863A.86.86,0,0,0,576.305,305.724Zm3.513,15.095a.846.846,0,0,0-.857-.845.862.862,0,0,0-.88.887.873.873,0,0,0,.864.851A.859.859,0,0,0,579.818,320.818Zm0-10.261a.848.848,0,0,0-.813-.89.863.863,0,0,0-.925.842.872.872,0,0,0,.877.9A.858.858,0,0,0,579.818,310.557Zm-7.026,4.556a.848.848,0,0,0-.824-.879.862.862,0,0,0-.913.854.872.872,0,0,0,.889.884A.857.857,0,0,0,572.792,315.113Zm-10.214,4.274a.862.862,0,0,0-.892.876.873.873,0,0,0,.853.862.858.858,0,0,0,.884-.823A.849.849,0,0,0,562.578,319.387Z" transform="translate(-524.857 -279.144)" fill="#fcb3be"/>
        <path id="Trazado_815145" data-name="Trazado 815145" d="M465.1,278.684q-.063-.862-.125-1.724a.984.984,0,0,0,.822-1.106c0-.1,0-.2,0-.293.017-.884.018-.875.878-.985a4.6,4.6,0,0,0,3.388-2.24,10.026,10.026,0,0,1,5.269-4.167,10.546,10.546,0,0,1,11.122,2.319c.2.182.393.377.589.566a11.041,11.041,0,0,0-6.728,5.657c-.133-.027-.266-.051-.4-.083a5.479,5.479,0,0,0-6.546,3.545c-.819,2.622.949,4.638,3.641,4.175a4.3,4.3,0,0,1,2.134-.139l-.009,5.49h0a14.049,14.049,0,0,1-6.081-1.163,1.072,1.072,0,0,0-.625-1.287,12.769,12.769,0,0,1-6.158-7.725C466.061,278.806,465.87,278.675,465.1,278.684Zm8.322-.735a.8.8,0,0,0-.188-.51,3.175,3.175,0,0,0-4.774-.008.872.872,0,0,0,1.2,1.248c1.147-.793,1.148-.8,2.389.025a.851.851,0,0,0,.936.046A.828.828,0,0,0,473.423,277.949Z" transform="translate(-448.587 -255.395)" fill="#e85a6f"/>
        <path id="Trazado_815146" data-name="Trazado 815146" d="M555.384,482.56q.009-.793.018-1.585a53.384,53.384,0,0,1,6.452-1.032,66.477,66.477,0,0,1,11.51-.249,71.646,71.646,0,0,1,7.83.964c.245.043.429.094.421.427-.05,1.989.106,3.983-.083,5.966a5.986,5.986,0,0,1-5.7,5.384c-6.3.067-12.6.017-18.9.015a8.987,8.987,0,0,1-1.284-2.657,2.948,2.948,0,0,0-.243-3.644q0-1.291,0-2.581A1.115,1.115,0,0,0,555.384,482.56Zm13.3,8.53a4,4,0,0,0,2.071-.51,2.7,2.7,0,0,0,.2-4.8,4.438,4.438,0,0,0-4.746.078,2.66,2.66,0,0,0,0,4.512A4.064,4.064,0,0,0,568.685,491.09Zm7.772-3.514a4.046,4.046,0,0,0,2.331-.626,2.666,2.666,0,0,0-.032-4.7,4.18,4.18,0,0,0-4.637.06,2.651,2.651,0,0,0-.029,4.57A4,4,0,0,0,576.457,487.576Zm-15.52-.117a4.018,4.018,0,0,0,2.273-.624,2.665,2.665,0,0,0-.026-4.7,4.18,4.18,0,0,0-4.638.056,2.651,2.651,0,0,0-.035,4.57A4.023,4.023,0,0,0,560.937,487.459Zm-.131,3.273v0c.312,0,.625.018.935,0a.8.8,0,0,0,.793-.787.77.77,0,0,0-.657-.9,6.253,6.253,0,0,0-2.207.009.767.767,0,0,0-.621.923.785.785,0,0,0,.763.75C560.142,490.753,560.475,490.732,560.806,490.732Zm14.63.005v0c.292,0,.585.008.877,0a.812.812,0,0,0,.858-.786.785.785,0,0,0-.7-.922,7.036,7.036,0,0,0-2.1,0,.782.782,0,0,0-.684.934.8.8,0,0,0,.813.765C574.812,490.751,575.125,490.737,575.437,490.737Zm-6.8-7.5c.312,0,.625.016.936,0a.8.8,0,0,0,.8-.777.769.769,0,0,0-.646-.907,6.254,6.254,0,0,0-2.207,0,.765.765,0,0,0-.632.915.8.8,0,0,0,.811.768C568.016,483.257,568.329,483.242,568.641,483.241Z" transform="translate(-524.845 -434.265)" fill="#f8df9e"/>
        <path id="Trazado_815147" data-name="Trazado 815147" d="M556.673,295.9a11.041,11.041,0,0,1,6.728-5.657,4.44,4.44,0,0,0,3.025.859c.465-.044.648.132.759.557a12.7,12.7,0,0,1-3.14,12.5c-.118.129-.249.248-.372.373-.532.538-.565.777-.2,1.435a7.737,7.737,0,0,0-1.423.964c-.332-.384-.719-.629-1.222-.341a.885.885,0,0,0-.347,1.219c-.973.19-1.866.649-2.853.808-.709.115-1.42.181-2.13.276l.009-5.49c.421.065.842.129,1.262.2a2.791,2.791,0,0,0,3.408-2.154,3.83,3.83,0,0,0-.369-2.818A5.723,5.723,0,0,0,556.673,295.9Zm6.056-.368a3.1,3.1,0,0,0-2.41,1.023.87.87,0,0,0,0,1.255.88.88,0,0,0,1.214,0c.913-.718,1.311-.719,2.206-.01a.877.877,0,1,0,1.2-1.279A3.011,3.011,0,0,0,562.729,295.53Z" transform="translate(-524.939 -274.581)" fill="#fc8d9c"/>
        <path id="Trazado_815148" data-name="Trazado 815148" d="M456.77,252.433c.721-.005,1.442-.036,2.161-.008a1.31,1.31,0,0,0,1.259-.656,14.052,14.052,0,0,1,9.362-6.217,7.371,7.371,0,0,1,1.97-.18,2.593,2.593,0,0,0,.012,1.678,16.289,16.289,0,0,0-3.7.776,12.032,12.032,0,0,0-6.061,4.752,3.105,3.105,0,0,1-3.017,1.6c-.621-.043-1.247-.021-1.871-.028A5.227,5.227,0,0,0,456.77,252.433Z" transform="translate(-441.665 -236.724)" fill="#fc8d9c"/>
        <path id="Trazado_815149" data-name="Trazado 815149" d="M550.317,246.911a2.594,2.594,0,0,1-.012-1.678,13.034,13.034,0,0,1,6.039,1.029,13.276,13.276,0,0,1,4.329,2.822,1.7,1.7,0,0,0,1.353.525c.973-.039,1.948-.01,2.923-.009a2.347,2.347,0,0,0,.117,1.722c-1.188.013-2.376.028-3.564.038a2.664,2.664,0,0,1-1.9-.888,12.249,12.249,0,0,0-7.011-3.417C551.838,246.951,551.074,246.956,550.317,246.911Z" transform="translate(-520.448 -236.584)" fill="#fab2bc"/>
        <path id="Trazado_815150" data-name="Trazado 815150" d="M384.817,283.287a5.228,5.228,0,0,1,.112,1.718,60.825,60.825,0,0,1-7.468-.5q-2.439-.286-4.85-.767a3.8,3.8,0,0,1-.455-.1.871.871,0,0,1-.664-1.02.828.828,0,0,1,1.011-.667c.982.154,1.959.338,2.94.5A74.056,74.056,0,0,0,384.817,283.287Z" transform="translate(-369.712 -267.578)" fill="#fabb9a"/>
        <path id="Trazado_815151" data-name="Trazado 815151" d="M400.982,513.994a4.774,4.774,0,0,1-3.323-1.21,2.99,2.99,0,0,1-.095-4.5,5.1,5.1,0,0,1,6.853.032,2.969,2.969,0,0,1,.007,4.334A4.668,4.668,0,0,1,400.982,513.994Zm-.02-1.76a3.169,3.169,0,0,0,2.11-.7,1.3,1.3,0,0,0,.019-2.072,3.474,3.474,0,0,0-4.212-.017,1.3,1.3,0,0,0,.026,2.109A3.063,3.063,0,0,0,400.963,512.234Z" transform="translate(-390.905 -457.399)" fill="#040403"/>
        <path id="Trazado_815152" data-name="Trazado 815152" d="M466.1,511.215a4.025,4.025,0,0,1-2.426-.695,2.651,2.651,0,0,1,.035-4.571,4.18,4.18,0,0,1,4.638-.056,2.666,2.666,0,0,1,.026,4.7A4.021,4.021,0,0,1,466.1,511.215Zm-.034-1.759a2.243,2.243,0,0,0,1.568-.516.858.858,0,0,0-.01-1.4,2.6,2.6,0,0,0-3.086-.009.857.857,0,0,0,.011,1.436A2.237,2.237,0,0,0,466.061,509.456Z" transform="translate(-446.396 -455.913)" fill="#040403"/>
        <path id="Trazado_815153" data-name="Trazado 815153" d="M524.955,516.168a2.948,2.948,0,0,1,.243,3.644,3.343,3.343,0,0,1-3.549,1.19,2.948,2.948,0,0,1-2.3-3.463,3.237,3.237,0,0,1,3.434-2.381A3.726,3.726,0,0,1,524.955,516.168Zm-2.426,3.183a1.316,1.316,0,0,0,1.42-1.228,1.355,1.355,0,0,0-1.448-1.216,1.242,1.242,0,1,0,.028,2.443Z" transform="translate(-494.395 -464.284)" fill="#040403"/>
        <path id="Trazado_815154" data-name="Trazado 815154" d="M541.005,496.57a1.115,1.115,0,0,1,.02,1.008c-.658.642-1.452.4-2.195.281a.708.708,0,0,1-.494-.778.733.733,0,0,1,.515-.768A2.263,2.263,0,0,1,541.005,496.57Z" transform="translate(-510.466 -448.276)" fill="#070604"/>
        <path id="Trazado_815155" data-name="Trazado 815155" d="M453.71,545.157a5.933,5.933,0,0,1-.642,0,.859.859,0,0,1-.124-1.682,3.5,3.5,0,0,1,1.394-.031.827.827,0,0,1,.767.882.854.854,0,0,1-.867.841c-.174.012-.351,0-.526,0Z" transform="translate(-437.9 -488.105)" fill="#070604"/>
        <path id="Trazado_815156" data-name="Trazado 815156" d="M462.593,338.988c.769-.01.959.121,1.177.84a12.769,12.769,0,0,0,6.158,7.725,1.072,1.072,0,0,1,.625,1.287c-.511.576-.8.636-1.464.261a14.525,14.525,0,0,1-7.01-8.805A.962.962,0,0,1,462.593,338.988Z" transform="translate(-446.078 -315.699)" fill="#040303"/>
        <path id="Trazado_815157" data-name="Trazado 815157" d="M420.482,328.947a2.609,2.609,0,0,1-2.617-2.65,2.633,2.633,0,1,1,2.617,2.65Zm.889-2.645a.886.886,0,0,0-.928-.846.871.871,0,0,0-.82.891.859.859,0,0,0,.923.838A.87.87,0,0,0,421.371,326.3Z" transform="translate(-408.849 -302.794)" fill="#040303"/>
        <path id="Trazado_815158" data-name="Trazado 815158" d="M442.924,404.521a2.609,2.609,0,0,1-2.613-2.654,2.633,2.633,0,1,1,2.613,2.654Zm.893-2.622a.886.886,0,0,0-.905-.871.874.874,0,0,0-.843.87.858.858,0,0,0,.9.863A.87.87,0,0,0,443.818,401.9Z" transform="translate(-427.782 -366.541)" fill="#040303"/>
        <path id="Trazado_815159" data-name="Trazado 815159" d="M394.293,371.6a2.61,2.61,0,0,1-2.617-2.65,2.633,2.633,0,1,1,2.617,2.65Zm.89-2.608a.886.886,0,0,0-.833-.884.872.872,0,0,0-.915.855.857.857,0,0,0,.828.876A.871.871,0,0,0,395.183,368.99Z" transform="translate(-386.759 -338.77)" fill="#040303"/>
        <path id="Trazado_815160" data-name="Trazado 815160" d="M392.426,439.3a2.633,2.633,0,1,1,2.635,2.632A2.61,2.61,0,0,1,392.426,439.3Zm3.506.017a.887.887,0,0,0-.9-.879.875.875,0,0,0-.851.863.857.857,0,0,0,.835.87A.871.871,0,0,0,395.932,439.32Z" transform="translate(-387.391 -398.098)" fill="#040303"/>
        <path id="Trazado_815161" data-name="Trazado 815161" d="M474.342,445.675a2.609,2.609,0,0,1-2.606-2.661,2.633,2.633,0,1,1,2.606,2.661Zm.9-2.619a.886.886,0,0,0-.9-.874.874.874,0,0,0-.846.868.858.858,0,0,0,.9.866A.87.87,0,0,0,475.243,443.056Z" transform="translate(-454.289 -401.254)" fill="#040303"/>
        <path id="Trazado_815162" data-name="Trazado 815162" d="M541.6,430.684c.3.166.641.029.963.152a2.684,2.684,0,0,1,1.739,2.758,2.631,2.631,0,0,1-2.329,2.333l-.348.04a2.643,2.643,0,0,1-2.331-3.758A2.607,2.607,0,0,1,541.6,430.684Zm.953,2.637a.887.887,0,0,0-.906-.873.875.875,0,0,0-.844.871.861.861,0,0,0,.9.866A.872.872,0,0,0,542.554,433.321Z" transform="translate(-511.059 -393.043)" fill="#040303"/>
        <path id="Trazado_815163" data-name="Trazado 815163" d="M397.431,323.092a.852.852,0,0,1,.844.918.862.862,0,0,1-.887.822.877.877,0,0,1-.852-.865A.866.866,0,0,1,397.431,323.092Z" transform="translate(-390.858 -302.29)" fill="#070604"/>
        <path id="Trazado_815164" data-name="Trazado 815164" d="M512.007,428.724a.86.86,0,0,1-.848.862.876.876,0,0,1-.892-.883.866.866,0,0,1,.913-.857A.851.851,0,0,1,512.007,428.724Z" transform="translate(-486.789 -390.649)" fill="#070604"/>
        <path id="Trazado_815165" data-name="Trazado 815165" d="M457.289,375.47a.852.852,0,0,1,.844.918.862.862,0,0,1-.887.822.876.876,0,0,1-.852-.865A.866.866,0,0,1,457.289,375.47Z" transform="translate(-441.348 -346.47)" fill="#070604"/>
        <path id="Trazado_815166" data-name="Trazado 815166" d="M413.242,413.758a.86.86,0,0,1-.848.862.876.876,0,0,1-.892-.883.866.866,0,0,1,.913-.857A.851.851,0,0,1,413.242,413.758Z" transform="translate(-403.481 -378.026)" fill="#070604"/>
        <path id="Trazado_815167" data-name="Trazado 815167" d="M442.276,457.777a.852.852,0,0,1,.9.868.861.861,0,0,1-.838.872.876.876,0,0,1-.9-.873A.864.864,0,0,1,442.276,457.777Z" transform="translate(-428.727 -415.895)" fill="#070604"/>
        <path id="Trazado_815168" data-name="Trazado 815168" d="M671.176,316.234a2.628,2.628,0,1,1-.022-5.257,2.628,2.628,0,0,1,.022,5.257Zm-.028-3.5a.877.877,0,0,0-.871.906.866.866,0,0,0,.874.835.878.878,0,0,0,.876-.839A.892.892,0,0,0,671.148,312.736Z" transform="translate(-620.274 -292.072)" fill="#040403"/>
        <path id="Trazado_815169" data-name="Trazado 815169" d="M678.632,415a2.628,2.628,0,1,1,.029-5.257,2.628,2.628,0,0,1-.029,5.257Zm.878-2.648a.887.887,0,0,0-.931-.845.871.871,0,0,0-.819.894.861.861,0,0,0,.926.838A.872.872,0,0,0,679.51,412.357Z" transform="translate(-626.585 -375.383)" fill="#040403"/>
        <path id="Trazado_815170" data-name="Trazado 815170" d="M641.2,376.095a2.628,2.628,0,0,1,.016-5.257,2.628,2.628,0,1,1-.016,5.257Zm.9-2.65a.887.887,0,0,0-.933-.843.871.871,0,0,0-.817.9.862.862,0,0,0,.928.836A.873.873,0,0,0,642.1,373.445Z" transform="translate(-595.028 -342.564)" fill="#040403"/>
        <path id="Trazado_815171" data-name="Trazado 815171" d="M621.738,428.473a2.628,2.628,0,0,1,.024-5.257,2.628,2.628,0,1,1-.024,5.257Zm.033-3.5a.878.878,0,0,0-.879.9.864.864,0,0,0,.866.843.877.877,0,0,0,.884-.83A.892.892,0,0,0,621.771,424.975Z" transform="translate(-578.618 -386.744)" fill="#040403"/>
        <path id="Trazado_815172" data-name="Trazado 815172" d="M679.617,355.384a.86.86,0,0,1-.886.88.872.872,0,0,1-.851-.863.862.862,0,0,1,.893-.875A.846.846,0,0,1,679.617,355.384Z" transform="translate(-628.169 -328.804)" fill="#070604"/>
        <path id="Trazado_815173" data-name="Trazado 815173" d="M702.062,451.9a.859.859,0,0,1-.874.893.873.873,0,0,1-.864-.851.862.862,0,0,1,.88-.887A.846.846,0,0,1,702.062,451.9Z" transform="translate(-647.1 -410.223)" fill="#070604"/>
        <path id="Trazado_815174" data-name="Trazado 815174" d="M702.063,386.092a.858.858,0,0,1-.861.848.872.872,0,0,1-.877-.9.863.863,0,0,1,.925-.842A.848.848,0,0,1,702.063,386.092Z" transform="translate(-647.101 -354.679)" fill="#070604"/>
        <path id="Trazado_815175" data-name="Trazado 815175" d="M657.17,415.262a.857.857,0,0,1-.849.859.872.872,0,0,1-.889-.884.862.862,0,0,1,.913-.854A.848.848,0,0,1,657.17,415.262Z" transform="translate(-609.235 -379.293)" fill="#070604"/>
        <path id="Trazado_815176" data-name="Trazado 815176" d="M596.465,447.31a.849.849,0,0,1,.845.915.858.858,0,0,1-.884.823.872.872,0,0,1-.853-.862A.862.862,0,0,1,596.465,447.31Z" transform="translate(-558.744 -407.067)" fill="#070604"/>
        <path id="Trazado_815177" data-name="Trazado 815177" d="M586.776,395.2a.885.885,0,0,1,.347-1.219c.5-.288.889-.043,1.222.341.111.48.1.934-.407,1.186A.878.878,0,0,1,586.776,395.2Z" transform="translate(-551.236 -361.975)" fill="#040403"/>
        <path id="Trazado_815178" data-name="Trazado 815178" d="M524.508,325.076a5.723,5.723,0,0,1,3.132,2.722,3.831,3.831,0,0,1,.37,2.818,2.791,2.791,0,0,1-3.408,2.154c-.42-.067-.841-.131-1.262-.2a4.3,4.3,0,0,0-2.134.139c-2.692.463-4.46-1.553-3.641-4.175a5.479,5.479,0,0,1,6.546-3.545C524.242,325.025,524.375,325.048,524.508,325.076Zm-1.751,1.517a3.658,3.658,0,0,0-3.563,2.663c-.294,1.188.428,2.008,1.594,1.739a8.614,8.614,0,0,1,3.925,0c1.169.267,1.894-.545,1.6-1.731A3.654,3.654,0,0,0,522.756,326.593Z" transform="translate(-492.774 -303.759)" fill="#e85a6f"/>
        <path id="Trazado_815179" data-name="Trazado 815179" d="M491.019,325.7a.828.828,0,0,1-.433.8.851.851,0,0,1-.936-.046c-1.241-.82-1.242-.818-2.389-.025a.872.872,0,0,1-1.2-1.248,3.175,3.175,0,0,1,4.774.008A.8.8,0,0,1,491.019,325.7Z" transform="translate(-466.183 -303.142)" fill="#e85a6f"/>
        <path id="Trazado_815180" data-name="Trazado 815180" d="M620.28,521.147a4.064,4.064,0,0,1-2.478-.719,2.66,2.66,0,0,1,0-4.512,4.438,4.438,0,0,1,4.746-.078,2.7,2.7,0,0,1-.2,4.8A4,4,0,0,1,620.28,521.147Zm-.063-1.759a2.254,2.254,0,0,0,1.571-.51.857.857,0,0,0,.006-1.4,2.6,2.6,0,0,0-3.087-.022.857.857,0,0,0-.006,1.437A2.23,2.23,0,0,0,620.217,519.388Z" transform="translate(-576.439 -464.322)" fill="#040403"/>
        <path id="Trazado_815181" data-name="Trazado 815181" d="M670.306,498.5a4,4,0,0,1-2.368-.693,2.651,2.651,0,0,1,.029-4.571,4.18,4.18,0,0,1,4.638-.059,2.666,2.666,0,0,1,.032,4.7A4.048,4.048,0,0,1,670.306,498.5Zm-.1-1.757a2.538,2.538,0,0,0,1.691-.513.865.865,0,0,0-.007-1.406,2.6,2.6,0,0,0-3.133.023.85.85,0,0,0,.006,1.365A2.136,2.136,0,0,0,670.2,496.74Z" transform="translate(-618.693 -445.186)" fill="#040403"/>
        <path id="Trazado_815182" data-name="Trazado 815182" d="M570.847,497.749a4.026,4.026,0,0,1-2.426-.695,2.651,2.651,0,0,1,.035-4.57,4.18,4.18,0,0,1,4.637-.056,2.665,2.665,0,0,1,.026,4.7A4.021,4.021,0,0,1,570.847,497.749Zm-.061-1.759a2.269,2.269,0,0,0,1.588-.51.857.857,0,0,0,0-1.4,2.6,2.6,0,0,0-3.133.016.849.849,0,0,0,0,1.365A2.2,2.2,0,0,0,570.786,495.99Z" transform="translate(-534.754 -444.555)" fill="#040403"/>
        <path id="Trazado_815183" data-name="Trazado 815183" d="M580.517,541.373c-.331,0-.664.021-.994,0a.785.785,0,0,1-.763-.75.766.766,0,0,1,.621-.923,6.252,6.252,0,0,1,2.207-.009.77.77,0,0,1,.657.9.8.8,0,0,1-.793.787c-.31.022-.624,0-.935,0Z" transform="translate(-544.556 -484.907)" fill="#070604"/>
        <path id="Trazado_815184" data-name="Trazado 815184" d="M674.044,541.393c-.312,0-.625.014-.936,0a.8.8,0,0,1-.813-.765.782.782,0,0,1,.684-.934,7.029,7.029,0,0,1,2.1,0,.785.785,0,0,1,.7.922.812.812,0,0,1-.857.786c-.292.01-.585,0-.878,0Z" transform="translate(-623.452 -484.921)" fill="#070604"/>
        <path id="Trazado_815185" data-name="Trazado 815185" d="M630.64,493.49c-.312,0-.625.015-.936,0a.8.8,0,0,1-.811-.768.765.765,0,0,1,.632-.915,6.255,6.255,0,0,1,2.207,0,.769.769,0,0,1,.646.907.8.8,0,0,1-.8.777C631.265,493.505,630.952,493.489,630.64,493.49Z" transform="translate(-586.843 -444.514)" fill="#070604"/>
        <path id="Trazado_815186" data-name="Trazado 815186" d="M587.275,324.032a3.011,3.011,0,0,1,2.206.991.877.877,0,1,1-1.2,1.279c-.895-.71-1.293-.708-2.206.01a.88.88,0,0,1-1.215,0,.87.87,0,0,1,0-1.255A3.1,3.1,0,0,1,587.275,324.032Z" transform="translate(-549.485 -303.083)" fill="#fc8d9c"/>
        <path id="Trazado_815187" data-name="Trazado 815187" d="M410.44,521.734a3.061,3.061,0,0,1-2.058-.679,1.3,1.3,0,0,1-.026-2.109,3.474,3.474,0,0,1,4.212.017,1.3,1.3,0,0,1-.019,2.072A3.167,3.167,0,0,1,410.44,521.734Z" transform="translate(-400.383 -466.899)" fill="#f8df9e"/>
        <path id="Trazado_815188" data-name="Trazado 815188" d="M475.6,519.191a2.239,2.239,0,0,1-1.517-.492.857.857,0,0,1-.011-1.436,2.6,2.6,0,0,1,3.086.009.858.858,0,0,1,.01,1.4A2.242,2.242,0,0,1,475.6,519.191Z" transform="translate(-455.935 -465.648)" fill="#f8df9e"/>
        <path id="Trazado_815189" data-name="Trazado 815189" d="M532.056,528.853a1.242,1.242,0,1,1-.028-2.443,1.355,1.355,0,0,1,1.448,1.216A1.316,1.316,0,0,1,532.056,528.853Z" transform="translate(-503.923 -473.787)" fill="#f8df9e"/>
        <path id="Trazado_815190" data-name="Trazado 815190" d="M430.846,335.814a.87.87,0,0,1-.825.883.859.859,0,0,1-.923-.838.871.871,0,0,1,.82-.891A.886.886,0,0,1,430.846,335.814Z" transform="translate(-418.323 -312.307)" fill="#fab2bc"/>
        <path id="Trazado_815191" data-name="Trazado 815191" d="M453.294,411.405a.869.869,0,0,1-.848.862.858.858,0,0,1-.9-.862.874.874,0,0,1,.843-.87A.886.886,0,0,1,453.294,411.405Z" transform="translate(-437.258 -376.047)" fill="#fab2bc"/>
        <path id="Trazado_815192" data-name="Trazado 815192" d="M404.658,378.5a.871.871,0,0,1-.92.847.857.857,0,0,1-.828-.876.872.872,0,0,1,.915-.855A.886.886,0,0,1,404.658,378.5Z" transform="translate(-396.234 -348.279)" fill="#fab2bc"/>
        <path id="Trazado_815193" data-name="Trazado 815193" d="M405.407,448.823a.871.871,0,0,1-.914.854.857.857,0,0,1-.835-.87.875.875,0,0,1,.851-.863A.887.887,0,0,1,405.407,448.823Z" transform="translate(-396.866 -407.601)" fill="#fab2bc"/>
        <path id="Trazado_815194" data-name="Trazado 815194" d="M484.719,452.562a.87.87,0,0,1-.851.859.858.858,0,0,1-.9-.866.874.874,0,0,1,.846-.868A.886.886,0,0,1,484.719,452.562Z" transform="translate(-463.765 -410.76)" fill="#fab2bc"/>
        <path id="Trazado_815195" data-name="Trazado 815195" d="M552.055,442.824a.872.872,0,0,1-.849.864.861.861,0,0,1-.9-.865.875.875,0,0,1,.844-.871A.887.887,0,0,1,552.055,442.824Z" transform="translate(-520.56 -402.547)" fill="#f6d4d8"/>
        <path id="Trazado_815196" data-name="Trazado 815196" d="M680.616,322.217a.892.892,0,0,1,.879.9.879.879,0,0,1-.876.839.866.866,0,0,1-.874-.835A.877.877,0,0,1,680.616,322.217Z" transform="translate(-629.742 -301.552)" fill="#f6d4d8"/>
        <path id="Trazado_815197" data-name="Trazado 815197" d="M688.979,421.855a.872.872,0,0,1-.824.887.861.861,0,0,1-.926-.838.871.871,0,0,1,.819-.894A.887.887,0,0,1,688.979,421.855Z" transform="translate(-636.054 -384.882)" fill="#f6d4d8"/>
        <path id="Trazado_815198" data-name="Trazado 815198" d="M651.567,382.944a.873.873,0,0,1-.822.889.862.862,0,0,1-.928-.836.871.871,0,0,1,.817-.9A.887.887,0,0,1,651.567,382.944Z" transform="translate(-604.498 -352.063)" fill="#f6d4d8"/>
        <path id="Trazado_815199" data-name="Trazado 815199" d="M631.242,434.453a.893.893,0,0,1,.871.91.877.877,0,0,1-.884.83.864.864,0,0,1-.866-.843A.878.878,0,0,1,631.242,434.453Z" transform="translate(-588.089 -396.222)" fill="#f6d4d8"/>
        <path id="Trazado_815200" data-name="Trazado 815200" d="M532.265,336.078a3.654,3.654,0,0,1,3.558,2.67c.292,1.187-.433,2-1.6,1.731a8.615,8.615,0,0,0-3.925,0c-1.166.268-1.888-.551-1.594-1.739A3.657,3.657,0,0,1,532.265,336.078Z" transform="translate(-502.283 -313.244)" fill="#e85a6f"/>
        <path id="Trazado_815201" data-name="Trazado 815201" d="M629.716,528.914a2.23,2.23,0,0,1-1.516-.5.857.857,0,0,1,.006-1.437,2.6,2.6,0,0,1,3.087.022.857.857,0,0,1-.006,1.4A2.253,2.253,0,0,1,629.716,528.914Z" transform="translate(-585.938 -473.848)" fill="#faecd0"/>
        <path id="Trazado_815202" data-name="Trazado 815202" d="M679.742,506.477a2.136,2.136,0,0,1-1.443-.531.85.85,0,0,1-.006-1.365,2.6,2.6,0,0,1,3.133-.023.865.865,0,0,1,.007,1.406A2.538,2.538,0,0,1,679.742,506.477Z" transform="translate(-628.23 -454.923)" fill="#faecd0"/>
        <path id="Trazado_815203" data-name="Trazado 815203" d="M580.323,505.727a2.2,2.2,0,0,1-1.543-.533.849.849,0,0,1,0-1.365,2.6,2.6,0,0,1,3.133-.016.857.857,0,0,1,0,1.4A2.269,2.269,0,0,1,580.323,505.727Z" transform="translate(-544.29 -454.292)" fill="#faecd0"/>
      </g>
      <path id="Trazado_815204" data-name="Trazado 815204" d="M555.782,324.458a11.681,11.681,0,0,0-1.063,7.748l4.766,1.612,1.615-4.68.937-3.591-2.877-.734-1.853-.712Z" transform="translate(-163.791 -112.959)" fill="#fc8d9c"/>
    </g>
  </g>
</svg>
