<svg id="Grupo_1076896" data-name="Grupo 1076896" xmlns="http://www.w3.org/2000/svg" xmlns:xlink="http://www.w3.org/1999/xlink" width="210" height="204.928" viewBox="0 0 210 204.928">
  <defs>
    <clipPath id="clip-path">
      <rect id="Rectángulo_379048" data-name="Rectángulo 379048" width="210" height="204.928" fill="none"/>
    </clipPath>
    <clipPath id="clip-path-3">
      <rect id="Rectángulo_379038" data-name="Rectángulo 379038" width="34.481" height="20.683" fill="none"/>
    </clipPath>
    <clipPath id="clip-path-4">
      <rect id="Rectángulo_379041" data-name="Rectángulo 379041" width="23.022" height="7.446" fill="none"/>
    </clipPath>
    <clipPath id="clip-path-5">
      <rect id="Rectángulo_379042" data-name="Rectángulo 379042" width="23.027" height="8.403" fill="none"/>
    </clipPath>
    <clipPath id="clip-path-6">
      <rect id="Rectángulo_379043" data-name="Rectángulo 379043" width="23.087" height="37.103" fill="none"/>
    </clipPath>
    <clipPath id="clip-path-7">
      <rect id="Rectángulo_379044" data-name="Rectángulo 379044" width="22.65" height="13.715" fill="none"/>
    </clipPath>
    <clipPath id="clip-path-8">
      <rect id="Rectángulo_379045" data-name="Rectángulo 379045" width="21.205" height="12.78" fill="none"/>
    </clipPath>
    <clipPath id="clip-path-9">
      <rect id="Rectángulo_379046" data-name="Rectángulo 379046" width="3.538" height="27.294" fill="none"/>
    </clipPath>
  </defs>
  <g id="Grupo_1076895" data-name="Grupo 1076895" clip-path="url(#clip-path)">
    <path id="Trazado_822922" data-name="Trazado 822922" d="M130.723,183.788l21.246-12.347,73.038,42.168-21.246,12.347Z" transform="translate(-59.115 -77.529)" fill="#f2f2f2"/>
    <path id="Trazado_822923" data-name="Trazado 822923" d="M234.448,184.219l15.629-9.083-.087,30.494-15.629,9.083Z" transform="translate(-105.983 -79.2)" fill="#205abf"/>
    <path id="Trazado_822924" data-name="Trazado 822924" d="M117.111,36.781,132.74,27.7,159.278,43.02,143.648,52.1Z" transform="translate(-52.96 -12.526)" fill="#3064bf"/>
    <path id="Trazado_822925" data-name="Trazado 822925" d="M283.106,132.677l15.629-9.083-.124,43.561-15.629,9.082Z" transform="translate(-127.97 -55.892)" fill="#205abf"/>
    <path id="Trazado_822926" data-name="Trazado 822926" d="M234.745,104.7l15.629-9.083,26.547,15.327-15.629,9.083Z" transform="translate(-106.156 -43.239)" fill="#3064bf"/>
    <path id="Trazado_822927" data-name="Trazado 822927" d="M234.832,49.028l15.629-9.083-.087,30.494-15.629,9.083Z" transform="translate(-106.156 -18.064)" fill="#205abf"/>
    <path id="Trazado_822928" data-name="Trazado 822928" d="M181.344,0,165.715,9.083l37.9,21.881,15.629-9.082Z" transform="translate(-74.94 0)" fill="#3064bf"/>
    <path id="Trazado_822929" data-name="Trazado 822929" d="M181.533,38.462l-.087,30.494,26.547,15.327-.124,43.56-26.547-15.327-.087,30.494-37.9-21.881.086-30.494L116.885,75.314l.124-43.56,26.538,15.321.087-30.494Z" transform="translate(-52.858 -7.498)" fill="#3772db"/>
    <g id="Grupo_1076894" data-name="Grupo 1076894">
      <g id="Grupo_1076893" data-name="Grupo 1076893" clip-path="url(#clip-path)">
        <path id="Trazado_822930" data-name="Trazado 822930" d="M220.987,295.571l-6.315-4.038L192.6,302.583s-30.617,16.856-31.036,17.688c-.345.683.181,1.812,1.288,2.619l-.75.52a.847.847,0,0,0-.345.587,1.02,1.02,0,0,0,.012.271l-18.793,11.122-1.529,1.374,20.782-11.7a1.088,1.088,0,0,0,.23.145.856.856,0,0,0,.7-.008h0l2.2-1.035a6.77,6.77,0,0,0,3.676.594,32.907,32.907,0,0,0,5-1.141l28.79-16.427a40.344,40.344,0,0,0,5.666-.22c1.129-.3,3.218-.944,3.357-1.619s-3.562-1.988-3.562-1.988l7.4-5.468s3.792.822,5.3.086a10.162,10.162,0,0,0,2.043-1.209Z" transform="translate(-63.966 -131.837)" fill="#c1c8e0"/>
        <path id="Trazado_822931" data-name="Trazado 822931" d="M271.968,278.336a11.806,11.806,0,0,0,5.358,9.242c2.959,1.709,5.358.341,5.358-3.055a11.806,11.806,0,0,0-5.358-9.242c-2.959-1.708-5.358-.341-5.358,3.055" transform="translate(-122.989 -124.155)" fill="#f4f6fa"/>
        <path id="Trazado_822932" data-name="Trazado 822932" d="M270.817,279a11.806,11.806,0,0,0,5.358,9.242c2.959,1.708,5.358.341,5.358-3.055a11.807,11.807,0,0,0-5.358-9.242c-2.959-1.708-5.358-.341-5.358,3.055" transform="translate(-122.469 -124.455)" fill="#d3dbec"/>
        <path id="Trazado_822933" data-name="Trazado 822933" d="M280.712,281.24a5.165,5.165,0,0,0-.6-.406,3.91,3.91,0,0,0-.6-.282Z" transform="translate(-126.404 -126.871)" fill="#c5cfe5"/>
        <path id="Trazado_822934" data-name="Trazado 822934" d="M274.661,283.34l.019-.011-.016-.01c0,.007,0,.014,0,.021" transform="translate(-124.207 -128.122)" fill="#c5cfe5"/>
        <path id="Trazado_822935" data-name="Trazado 822935" d="M286.55,291.549a3.7,3.7,0,0,0,.054-.653,4.853,4.853,0,0,0-.054-.715Z" transform="translate(-129.583 -131.225)" fill="#c5cfe5"/>
        <path id="Trazado_822936" data-name="Trazado 822936" d="M257.186,281.808v3.051l-27.874,16.093-1.816-2Z" transform="translate(-102.878 -127.439)" fill="#d3dbec"/>
        <path id="Trazado_822937" data-name="Trazado 822937" d="M262.294,290.181v1.368L233.5,308.171l-.593-1.026Z" transform="translate(-105.327 -131.225)" fill="#d3dbec"/>
        <path id="Trazado_822938" data-name="Trazado 822938" d="M255.5,280.552l1.193.689L227,298.382l-.6-1.033Z" transform="translate(-102.386 -126.871)" fill="#f4f6fa"/>
        <path id="Trazado_822939" data-name="Trazado 822939" d="M259.248,287.379l2.659,1.535-29.382,16.964-.469-2.8Z" transform="translate(-104.94 -129.958)" fill="#f4f6fa"/>
        <path id="Trazado_822940" data-name="Trazado 822940" d="M258.465,299.613a9.968,9.968,0,0,0-3.995-7.416l-3.993-2.8a5.972,5.972,0,0,0-.968-.559l-3.993-1.808a2.863,2.863,0,0,0-2.72-.032l-.012-.013-1.03.594.245.265a3.944,3.944,0,0,0-.478,1.989,9.969,9.969,0,0,0,4,7.416l3.993,2.8a6.069,6.069,0,0,0,.968.559l3.993,1.808a3.771,3.771,0,0,0,1.374.342l.294.317,1.177-.689.006,0h0a3.234,3.234,0,0,0,1.143-2.769" transform="translate(-109.22 -129.637)" fill="#5475d5"/>
        <path id="Trazado_822941" data-name="Trazado 822941" d="M247.552,301.172l-3.993-2.8a9.97,9.97,0,0,1-3.995-7.416c0-2.623,1.722-3.832,3.995-2.8l3.993,1.808a6.02,6.02,0,0,1,.968.559l3.993,2.8a9.97,9.97,0,0,1,3.995,7.416c0,2.623-1.722,3.832-3.995,2.8l-3.993-1.808a5.979,5.979,0,0,1-.968-.559" transform="translate(-108.335 -130.141)" fill="#728edc"/>
        <path id="Trazado_822942" data-name="Trazado 822942" d="M221.976,292.1l-33.449,19.311,6.421,11.121,33.521-19.354Z" transform="translate(-85.256 -132.095)" fill="#8f9afc"/>
        <path id="Trazado_822943" data-name="Trazado 822943" d="M256.315,300.014a10.034,10.034,0,0,0-4.554-7.855c-2.515-1.452-4.554-.29-4.554,2.6a10.036,10.036,0,0,0,4.554,7.855c2.515,1.452,4.554.29,4.554-2.6" transform="translate(-111.792 -131.837)" fill="#6f8bdb"/>
        <path id="Trazado_822944" data-name="Trazado 822944" d="M245.889,295.515a6.865,6.865,0,0,0,.068.943,8.446,8.446,0,0,0,.268,1.222,10.631,10.631,0,0,0,1.075,2.431,10.492,10.492,0,0,0,1.655,2.114,8.19,8.19,0,0,0,.967.81q.257.182.521.335c2.516,1.453,4.554.29,4.554-2.6q0-.32-.033-.65a7.965,7.965,0,0,0-.225-1.238,10.422,10.422,0,0,0-1.021-2.481,10.693,10.693,0,0,0-1.584-2.137,8.541,8.541,0,0,0-.933-.839,6.946,6.946,0,0,0-.759-.51c-2.515-1.452-4.554-.29-4.554,2.6" transform="translate(-111.196 -132.181)" fill="#aabbea"/>
        <path id="Trazado_822945" data-name="Trazado 822945" d="M196.457,334.572a10.034,10.034,0,0,0-4.554-7.855c-2.515-1.452-4.554-.29-4.554,2.6a10.036,10.036,0,0,0,4.554,7.855c2.515,1.452,4.554.29,4.554-2.6" transform="translate(-84.722 -147.465)" fill="#6f8bdb"/>
        <path id="Trazado_822946" data-name="Trazado 822946" d="M195.139,335.332a10.034,10.034,0,0,0-4.554-7.855c-2.515-1.452-4.554-.29-4.554,2.6a10.036,10.036,0,0,0,4.554,7.855c2.515,1.452,4.554.29,4.554-2.6" transform="translate(-84.127 -147.808)" fill="#aabbea"/>
        <path id="Trazado_822947" data-name="Trazado 822947" d="M227.5,305.321l1.816,2,.681-.393,8.989-5.19,6.419-3.707a10.724,10.724,0,0,0-1.584-2.137l-5.911,3.413Z" transform="translate(-102.878 -133.81)" fill="#afbddb"/>
        <path id="Trazado_822948" data-name="Trazado 822948" d="M232.911,313.543l.592,1.026,10.55-6.091,5.043-2.911a7.968,7.968,0,0,0-.226-1.238l-5.785,3.34Z" transform="translate(-105.327 -137.623)" fill="#c5cfe5"/>
        <path id="Trazado_822949" data-name="Trazado 822949" d="M226.407,303.6l.6,1.033,10.411-6.011,5.911-3.413a8.525,8.525,0,0,0-.932-.838l-5.246,3.029Z" transform="translate(-102.386 -133.118)" fill="#c5cfe5"/>
        <path id="Trazado_822950" data-name="Trazado 822950" d="M232.054,308.7l.469,2.8,10.174-5.874,5.785-3.34a10.421,10.421,0,0,0-1.02-2.481l-6.419,3.707Z" transform="translate(-104.939 -135.575)" fill="#8da1cc"/>
        <path id="Trazado_822951" data-name="Trazado 822951" d="M221.152,310.953a9.122,9.122,0,0,0,4.14,7.141c2.286,1.32,4.14.263,4.14-2.36a9.122,9.122,0,0,0-4.14-7.141c-2.286-1.32-4.14-.264-4.14,2.36" transform="translate(-100.009 -139.294)" fill="#fff"/>
        <path id="Trazado_822952" data-name="Trazado 822952" d="M220.262,311.466a9.122,9.122,0,0,0,4.14,7.141c2.286,1.32,4.14.263,4.14-2.36a9.122,9.122,0,0,0-4.14-7.141c-2.286-1.32-4.14-.263-4.14,2.36" transform="translate(-99.607 -139.526)" fill="#c5cfe5"/>
        <path id="Trazado_822953" data-name="Trazado 822953" d="M205.346,333.429a10.552,10.552,0,0,0-2.137-4.508l.3-.174a10.657,10.657,0,0,1,2.137,4.508Z" transform="translate(-91.895 -148.666)" fill="#4a5188"/>
        <path id="Trazado_822954" data-name="Trazado 822954" d="M206.943,330.138a11.015,11.015,0,0,0-1.512-2.508l.3-.174a11.023,11.023,0,0,1,1.512,2.508Z" transform="translate(-92.9 -148.082)" fill="#4a5188"/>
        <path id="Trazado_822955" data-name="Trazado 822955" d="M209.162,328.848a11,11,0,0,0-1.512-2.508l.3-.174a11.02,11.02,0,0,1,1.512,2.508Z" transform="translate(-93.903 -147.498)" fill="#4a5188"/>
        <path id="Trazado_822956" data-name="Trazado 822956" d="M211.383,327.557a11.037,11.037,0,0,0-1.512-2.508l.3-.174a11.008,11.008,0,0,1,1.512,2.508Z" transform="translate(-94.908 -146.915)" fill="#4a5188"/>
        <path id="Trazado_822957" data-name="Trazado 822957" d="M213.6,326.266a11.015,11.015,0,0,0-1.512-2.508l.3-.174a11.01,11.01,0,0,1,1.512,2.509Z" transform="translate(-95.912 -146.331)" fill="#4a5188"/>
        <path id="Trazado_822958" data-name="Trazado 822958" d="M216.449,326.976a10.552,10.552,0,0,0-2.137-4.508l.3-.174a10.653,10.653,0,0,1,2.137,4.508Z" transform="translate(-96.916 -145.748)" fill="#4a5188"/>
        <path id="Trazado_822959" data-name="Trazado 822959" d="M218.046,323.685a11.015,11.015,0,0,0-1.512-2.508l.3-.174a11,11,0,0,1,1.512,2.509Z" transform="translate(-97.921 -145.164)" fill="#4a5188"/>
        <path id="Trazado_822960" data-name="Trazado 822960" d="M220.266,322.4a11.016,11.016,0,0,0-1.512-2.508l.3-.174a11.008,11.008,0,0,1,1.512,2.508Z" transform="translate(-98.925 -144.58)" fill="#4a5188"/>
        <path id="Trazado_822961" data-name="Trazado 822961" d="M222.487,321.1a11.014,11.014,0,0,0-1.512-2.508l.3-.174a10.993,10.993,0,0,1,1.512,2.509Z" transform="translate(-99.929 -143.997)" fill="#4a5188"/>
        <path id="Trazado_822962" data-name="Trazado 822962" d="M224.708,319.814a11.014,11.014,0,0,0-1.512-2.508l.3-.174a11.007,11.007,0,0,1,1.512,2.508Z" transform="translate(-100.934 -143.413)" fill="#4a5188"/>
        <path id="Trazado_822963" data-name="Trazado 822963" d="M227.553,320.523a10.552,10.552,0,0,0-2.137-4.508l.3-.174a10.659,10.659,0,0,1,2.137,4.508Z" transform="translate(-101.937 -142.829)" fill="#4a5188"/>
        <path id="Trazado_822964" data-name="Trazado 822964" d="M242.473,309.49a11.014,11.014,0,0,0-1.512-2.508l.3-.174a10.976,10.976,0,0,1,1.512,2.508Z" transform="translate(-108.967 -138.744)" fill="#4a5188"/>
        <path id="Trazado_822965" data-name="Trazado 822965" d="M244.694,308.2a11.014,11.014,0,0,0-1.512-2.508l.3-.174a11.007,11.007,0,0,1,1.512,2.508Z" transform="translate(-109.972 -138.161)" fill="#4a5188"/>
        <path id="Trazado_822966" data-name="Trazado 822966" d="M246.915,306.909A11.015,11.015,0,0,0,245.4,304.4l.3-.174a10.989,10.989,0,0,1,1.512,2.508Z" transform="translate(-110.976 -137.577)" fill="#4a5188"/>
        <path id="Trazado_822967" data-name="Trazado 822967" d="M249.76,307.618a10.552,10.552,0,0,0-2.137-4.508l.3-.174a10.657,10.657,0,0,1,2.137,4.508Z" transform="translate(-111.98 -136.993)" fill="#4a5188"/>
        <path id="Trazado_822968" data-name="Trazado 822968" d="M229.149,317.233a11.016,11.016,0,0,0-1.512-2.508l.3-.174a11.007,11.007,0,0,1,1.512,2.508Z" transform="translate(-102.942 -142.246)" fill="#4a5188"/>
        <path id="Trazado_822969" data-name="Trazado 822969" d="M231.369,315.943a11.015,11.015,0,0,0-1.512-2.508l.3-.174a11.008,11.008,0,0,1,1.512,2.508Z" transform="translate(-103.946 -141.662)" fill="#4a5188"/>
        <path id="Trazado_822970" data-name="Trazado 822970" d="M233.591,314.652a11.015,11.015,0,0,0-1.512-2.508l.3-.174a11.018,11.018,0,0,1,1.512,2.508Z" transform="translate(-104.951 -141.079)" fill="#4a5188"/>
        <path id="Trazado_822971" data-name="Trazado 822971" d="M235.811,313.361a11.014,11.014,0,0,0-1.512-2.508l.3-.174a11.008,11.008,0,0,1,1.512,2.508Z" transform="translate(-105.955 -140.495)" fill="#4a5188"/>
        <path id="Trazado_822972" data-name="Trazado 822972" d="M238.657,314.071a10.557,10.557,0,0,0-2.137-4.508l.3-.174a10.657,10.657,0,0,1,2.137,4.508Z" transform="translate(-106.959 -139.912)" fill="#4a5188"/>
        <path id="Trazado_822973" data-name="Trazado 822973" d="M240.252,310.78a11.014,11.014,0,0,0-1.512-2.508l.3-.174a11.007,11.007,0,0,1,1.512,2.508Z" transform="translate(-107.963 -139.328)" fill="#4a5188"/>
        <g id="Grupo_1076874" data-name="Grupo 1076874" transform="translate(106.458 160.667)" style="mix-blend-mode: screen;isolation: isolate">
          <g id="Grupo_1076873" data-name="Grupo 1076873">
            <g id="Grupo_1076872" data-name="Grupo 1076872" clip-path="url(#clip-path-3)">
              <path id="Trazado_822974" data-name="Trazado 822974" d="M194.345,311.035a7.316,7.316,0,0,1,3.493,2.953c3.608-1.912,30.988-17.847,30.988-17.847s-1.477-2.6-3.489-2.836c-1.11.522-30.992,17.73-30.992,17.73" transform="translate(-194.345 -293.305)" fill="#4851a1"/>
            </g>
          </g>
        </g>
        <path id="Trazado_822975" data-name="Trazado 822975" d="M191.064,335.664a3.448,3.448,0,0,0,1.566,2.7c.864.5,1.565.1,1.565-.892a3.449,3.449,0,0,0-1.565-2.7c-.865-.5-1.566-.1-1.566.892" transform="translate(-86.403 -151.293)" fill="#3281c2"/>
        <path id="Trazado_822976" data-name="Trazado 822976" d="M188.387,334.776l2.2,3.816-4.418,1.913a.958.958,0,0,1-.875-.122,2.471,2.471,0,0,1-1.115-1.922.951.951,0,0,1,.32-.8h0Z" transform="translate(-83.291 -151.392)" fill="#3281c2"/>
        <path id="Trazado_822977" data-name="Trazado 822977" d="M166.768,341.8l.026.044a.707.707,0,0,1-.268.971l-24.434,13.623,1.656-1.737,22.026-13.16a.72.72,0,0,1,.993.258" transform="translate(-64.257 -154.405)" fill="#b6b6b6"/>
        <path id="Trazado_822978" data-name="Trazado 822978" d="M167.578,342.236c-.209-.366-.446-.337-.446-.337L144.67,355.283l-.431.431,23.26-13.452Z" transform="translate(-65.228 -154.613)" fill="#e0e0e0"/>
        <path id="Trazado_822979" data-name="Trazado 822979" d="M123.551,271.8l1.718-.992c6.062-3.5,5.294-9.669-1.7-13.71L63.178,222.237c-7-4.042-17.686-4.484-23.747-.984l-1.718.991c-6.061,3.5-5.294,9.669,1.705,13.711L99.8,270.819c7,4.041,17.686,4.484,23.747.984" transform="translate(-15.205 -98.987)" fill="#f2f2f2"/>
        <path id="Trazado_822980" data-name="Trazado 822980" d="M64.684,135.739a4.653,4.653,0,0,0-1.992-.244,10.9,10.9,0,0,0-5.4,1.69,12.381,12.381,0,0,0-2.427,2.116,13.484,13.484,0,0,0-1.087,1.4c-.212.314-.478,1.093-.771,1.3l2.352-1.641a15.327,15.327,0,0,0-3.312,7.219c-.24,1.277-.062,2.624-.633,3.788-.553,1.126-1.233,2.167-1.828,3.265-.51.941-1.224,1.749-1.77,2.679a9.813,9.813,0,0,0,1.946-2.126,8.47,8.47,0,0,1-1.432,3.368,14.276,14.276,0,0,0-1.768,7.14,34.209,34.209,0,0,0,1.109-3.564c0,1.923-.427,3.931-.086,5.82a9.185,9.185,0,0,1-.341,5.353c.248-.56.773-.892,1.088-1.4a12.225,12.225,0,0,0,.846-1.644A5.45,5.45,0,0,1,49.5,171.8a3.549,3.549,0,0,1-.064,1.392,6.455,6.455,0,0,0,.789-3.022,16.749,16.749,0,0,1,.227,8.126,7.936,7.936,0,0,1,.737-1.256c.217-.448.365-.92.561-1.373a10.639,10.639,0,0,0,.888-2.9,12.655,12.655,0,0,1,.4-1.424c.2-.811.77-6.4.885-7.231a25.3,25.3,0,0,1,1.4-5.72c.349-.9.773-6.076,1.295-6.884.463-.718,1.244-1.375,1.315-2.284a19.833,19.833,0,0,0-.015,2.875,21.423,21.423,0,0,0,1.371-4.56,13.32,13.32,0,0,1,1.133-4.3,6.4,6.4,0,0,1,3.674-2.993,3.563,3.563,0,0,1,2.341.095c.85.38,1.251,1.293,2.071,1.71,1.688.858,2.6-1.528,1.475-2.655a6.72,6.72,0,0,0-2.122-1.171,1.79,1.79,0,0,1-.623-.4,6.9,6.9,0,0,0-2.555-2.094" transform="translate(-21.054 -61.267)" fill="#28304a"/>
        <path id="Trazado_822981" data-name="Trazado 822981" d="M70.075,140.069c-.029-.034-.059-.067-.091-.1a6.705,6.705,0,0,0-2.121-1.171,1.789,1.789,0,0,1-.623-.4,10.244,10.244,0,0,0-1.752-1.667,2.318,2.318,0,0,1-1.608,1.523,6.531,6.531,0,0,1-1,.148,8.232,8.232,0,0,0-3.15.532,5.52,5.52,0,0,0-1.759,1.58,22.231,22.231,0,0,0-3.656,6.608l1.275.04a13.776,13.776,0,0,1-3.674,7.313c.524,1.391-.589,2.9-1.891,3.619a10.6,10.6,0,0,1-1.482.643c-.072.125-.144.249-.212.374a14.27,14.27,0,0,0-1.768,7.14,34.476,34.476,0,0,0,1.109-3.564c0,1.923-.427,3.931-.087,5.82a9.189,9.189,0,0,1-.341,5.353c.248-.56.772-.892,1.088-1.4a12.291,12.291,0,0,0,.847-1.644,5.449,5.449,0,0,1,.322,1.549,3.539,3.539,0,0,1-.064,1.392,6.452,6.452,0,0,0,.789-3.022,16.749,16.749,0,0,1,.227,8.126,7.965,7.965,0,0,1,.738-1.256c.217-.447.364-.92.561-1.373a10.658,10.658,0,0,0,.887-2.9,12.658,12.658,0,0,1,.4-1.424c.2-.811.769-6.4.885-7.231a25.3,25.3,0,0,1,1.4-5.72c.349-.9.773-6.075,1.295-6.883.463-.718,1.245-1.375,1.315-2.284a19.911,19.911,0,0,0-.015,2.875,21.393,21.393,0,0,0,1.371-4.56,13.31,13.31,0,0,1,1.133-4.3,6.4,6.4,0,0,1,3.673-2.993,3.566,3.566,0,0,1,2.341.095c.85.38,1.251,1.293,2.072,1.71a1.591,1.591,0,0,0,.591.178,6.091,6.091,0,0,0,.975-2.733" transform="translate(-21.054 -61.833)" fill="#1c2134"/>
        <path id="Trazado_822982" data-name="Trazado 822982" d="M61.194,161.287a3.688,3.688,0,0,0,.631-1.266c.026-.129.053-.481-.094-.555a.261.261,0,0,0-.1-.021,1.008,1.008,0,0,0-.57.068,3.592,3.592,0,0,1-.4.238,2.724,2.724,0,0,0-.947.837c-.579.675-1.087,5.724-1.516,6.5a13.067,13.067,0,0,0-1.57,5.122c-.107,1.207-.045,2.422-.122,3.631a74.361,74.361,0,0,1-2.721,13.422c2.262-3.282,3.012-7.345,3.642-11.28a10.641,10.641,0,0,0,.111,1.467,12.97,12.97,0,0,1-.1,1.57c-.129,1.078-.379,2.131-.6,3.192a18.689,18.689,0,0,0,2.124-4.841,13.728,13.728,0,0,0,.108-5.5A7.822,7.822,0,0,1,60,176.762a14.333,14.333,0,0,0-.251-4.177,17.842,17.842,0,0,1-.415-4.594,12.531,12.531,0,0,1,.6-2.986c.211-.692.353-1.424.629-2.094a9.165,9.165,0,0,1,.632-1.625" transform="translate(-24.323 -72.1)" fill="#1c2134"/>
        <path id="Trazado_822983" data-name="Trazado 822983" d="M107.994,197.8c-.329,1.625-5.049.512-5.345-.87-.274-1.27.179-2.088-.231-3.257h0a2.4,2.4,0,0,0-.127-.316c-.626-1.345-1.626-8.16-2.023-10.545s-3.838-9.274-2.818-11.408-1.075-8.827-.847-10.437-5.059-6.16-5.059-17.939c0-1.854,3.792-6.717,8.144-.349s4.678,7.4,5.039,12.721a57.6,57.6,0,0,1-1.426,17.987,46.591,46.591,0,0,0,.857,7.717c.661,2.2-.508,7.072,1.238,10.239.43.778.828,1.469,1.176,2.088l0,0c1.059,1.893,1.671,3.14,1.423,4.365" transform="translate(-41.396 -63.084)" fill="#82260a"/>
        <path id="Trazado_822984" data-name="Trazado 822984" d="M183.26,188.59c.066.252.135.513.2.775a46.717,46.717,0,0,1,1.167,5.831c.748,6.061.712,15.9-.782,18.9s-1.444,17.373-1.5,18.46a25.5,25.5,0,0,0,1.54,4.817c.107.294-.347,1.17-.209,1.452a18.469,18.469,0,0,1,1.621,3.542c.174,2.652-6.448,1.585-6.533.22-.009-.134-.013-.278-.015-.425-.033-1.35.135-3.128.135-3.128l-.075-.377,0,0a20.891,20.891,0,0,0-.5-3.948c-.624-1.724.352-2.973.44-6.463,0-.13-.248-6.931-.248-7.093,0-1.593-1.693-5.338-1.6-8.738a64.347,64.347,0,0,0-1.119-11.483,64.355,64.355,0,0,0-2.956-8.1s-.033-2.677.238-5.791c.333-3.877,1.139-8.427,3.06-9.33,3.644-1.709.113.957,2.176,1.671a25.329,25.329,0,0,0,3.323.81s.8,5.323,1.638,8.406" transform="translate(-78.154 -80.106)" fill="#942f11"/>
        <path id="Trazado_822985" data-name="Trazado 822985" d="M170.568,246.631c-.755.066-1.494.122-2.216.176-.032-1.351.135-3.128.135-3.128s-.028-.141-.076-.377l0,0a20.882,20.882,0,0,0-.5-3.948c-.625-1.724.352-2.973.44-6.463,0-.13-.248-6.93-.249-7.093,0-1.593-1.693-5.338-1.6-8.738a64.4,64.4,0,0,0-1.119-11.483c-1.487-.46-3.225-1.072-5.262-1.852a38.115,38.115,0,0,1-10.292-5.572c3.452,1.94,11.339,2.954,11.18-.761-.154-3.568,1.519-8.509,2.048-9.968a14.072,14.072,0,0,0-.392,4.261c.016.73.065,1.557.156,2.5.38,3.888,9.536-.3,9.913,3.522a44.285,44.285,0,0,1-1.639,17.577c-1.195,3.048-3.117,3.284-1.73,8.154s.084,12.039.276,13.081-.437,1.4-.21,3.017.624,3.052,1.139,7.1" transform="translate(-67.755 -84.755)" fill="#82260a"/>
        <path id="Trazado_822986" data-name="Trazado 822986" d="M190.186,293.143c.174,2.652-6.448,1.585-6.533.22a29.77,29.77,0,0,1,.12-3.552s-.027-.141-.075-.378c.737,1.339,4.234.971,4.867.168a18.421,18.421,0,0,1,1.621,3.542" transform="translate(-83.042 -130.887)" fill="#222021"/>
        <path id="Trazado_822987" data-name="Trazado 822987" d="M166.151,170.731c-.352.082-1.482-.73-1.482-.73s0,.632-1.1.02c-.114-.062-.238-.137-.375-.228-1.482-.978-.935-2.066-1.182-2.454s-1.8-4.029-3.137-5.247-3.391-5.929-3.886-6.173-1.479.56-1.87,1.834a23.258,23.258,0,0,1-2.5,3.876c-.277.391-.564.792-.851,1.189-.971,1.365-1.922,2.73-2.485,3.742-1.215,2.189-1.355,2.942-1.368,3.773-.006.159,0,.319,0,.5,0,.277-.026.886-.085,1.661-.176,2.274.863,7.346-.137,8.551-1.277,1.54-3.619,1.876-12.639-2.759-.427-.218-.87-.45-1.326-.691-.055-.029-.111-.059-.163-.084-2.4-1.271-4.609-2.332-6.629-3.281-6.408-3.016-10.932-4.889-13.867-8.511-3.88-4.789-5.186-8.01-6.981-9.7a42.115,42.115,0,0,0-3.515-2.456,36.82,36.82,0,0,1-3.609-2.743c-2.045-1.792-3.856-3.958-4.407-6.473-1.306-5.974-1.586-4.006.632-5.437s5.362-2.45,14.988,4.4c0,0,9.381,5.754,12.344,6.748s10.116-.578,12.195-1.233,13.353-6.072,15.506-7.095,6.593-1.453,8.427-.6,3.14,1.651,4.9,6.153.368,6.13,2.026,9.26,2.856,8.678,3.214,10.867-.283,3.239-.635,3.317" transform="translate(-41.397 -62.347)" fill="#ad4929"/>
        <path id="Trazado_822988" data-name="Trazado 822988" d="M215.6,164.645c-.884,2.524-1.1,4.619.268,5.238s2.467,7.19,4.181,7.238c-.428-3.857-2.619-7-2.381-7.762s.005-2.524-2.069-4.714" transform="translate(-97.176 -74.456)" fill="#ffe5b8"/>
        <path id="Trazado_822989" data-name="Trazado 822989" d="M107.1,162.4s.194.87.508,2.251a42.471,42.471,0,0,1,3.512,2.458c1.8,1.685,3.1,4.909,6.982,9.7s10.54,6.52,20.66,11.877,12.624,5.061,13.964,3.449c1-1.2-.039-6.277.136-8.552,0,0-1.538,5.428-4.68,6.229s-7.482-2.517-7.482-2.517l-3.716-9.364a52.346,52.346,0,0,0,.7,6.229c.341.851-1.642.564-1.642.564s-7.923-.555-13.776-5.958-8.675-11.483-10.015-12.256A60.721,60.721,0,0,1,107.1,162.4" transform="translate(-48.43 -73.442)" fill="#942f11"/>
        <path id="Trazado_822990" data-name="Trazado 822990" d="M210.236,142.7s1.682-4.226,1.642-4.383c-.3-1.168-2.567.735-3.108,1.167-.367.293-1.61,1.374-2.372,2.039a.969.969,0,0,0-.177,1.252c.167.262.291.614.508.743.931.553,1.6.622,2.136.227a9.261,9.261,0,0,0,1.371-1.045" transform="translate(-93.188 -62.381)" fill="#82260a"/>
        <path id="Trazado_822991" data-name="Trazado 822991" d="M172.681,199.045c-1.049,2.512-9.147,8.29-16.31,10.642a22.9,22.9,0,0,1-2.886.759.034.034,0,0,1-.013,0c-.186.036-.368.065-.547.095L151.7,192.566l-.967-14.144s10.121,3.876,16.587,6.6q.283.118.557.234c2.768,1.176,4.739,2.091,4.717,2.316a7.9,7.9,0,0,0,.088,1.1c.267,2.423,1,8,0,10.372" transform="translate(-68.163 -80.686)" fill="#ad4929"/>
        <path id="Trazado_822992" data-name="Trazado 822992" d="M116.973,242.317c-.329,1.625-5.049.512-5.345-.87-.274-1.27.179-2.088-.231-3.257,2.56,1.472,4.247,1.733,4.149-.242l0,0c1.059,1.893,1.671,3.14,1.423,4.365" transform="translate(-50.376 -107.605)" fill="#222021"/>
        <path id="Trazado_822993" data-name="Trazado 822993" d="M87.35,137.815c-14.387-.993-15.175,9.322-15.175,9.322s-4.406,15.174,5.8,13.3S92.051,149.607,91.3,147.246s-3.952-9.431-3.952-9.431" transform="translate(-32.211 -62.292)" fill="#ad4929"/>
        <path id="Trazado_822994" data-name="Trazado 822994" d="M80.672,141.468c-12.732-1.325-14.118,8.613-14.071,14.05.029,3.329,7.818,11.022,9.578,10.819,10.313-1.189,5.959-10.588,5.21-12.95s-.717-11.92-.717-11.92" transform="translate(-30.118 -63.92)" fill="#ad4929"/>
        <path id="Trazado_822995" data-name="Trazado 822995" d="M153,176.127a3.855,3.855,0,0,1-1.225,2.912c-.352.082-1.482-.733-1.482-.733s0,.5-.778.182a4.394,4.394,0,0,1-.7-.391,6.627,6.627,0,0,1-2.153-1.889,45.715,45.715,0,0,0-4.108-4.687c-.641-.587-2.026-1.636-3.352-2.6-1.44-1.049-2.8-1.99-3.062-2.117-.492-.244-1.479.56-1.87,1.834a30.766,30.766,0,0,1-3.727,4.378c-.306.333-.626.674-.955,1.023-2.514,2.7-5.472,5.815-7.31,7.975a.728.728,0,0,0-.052.059c-.036.039-.072.081-.1.121-.462.547-.85,1.029-1.127,1.417a5.716,5.716,0,0,0-.358.548c-1.449,2.606-1.375,3.176-1.375,4.267,0,.28-.026.886-.084,1.661-.176,2.273-.645,6.01-1.645,7.215a2.635,2.635,0,0,1-1.378.909.039.039,0,0,1-.013,0c-1.14.3-2.2,1.523-5.575.985-.5-.077-1.471-2.633-2-2.874-1.42-.635-3.072-1.453-5-2.473a38.1,38.1,0,0,1-9.544-6.772.014.014,0,0,0-.007,0c-2.645-2.661-4.18-5.219-6.323-7.867-3.876-4.785-5.183-8.01-6.981-9.695a42.51,42.51,0,0,0-3.511-2.459c-3.127-2.131-7.15-.072-8.017-4.049-1.306-5.974-1.59-9.173.632-10.6s5.358-2.45,14.987,4.4c0,0,.635.026,1.59.111,2.118.2,5.8.7,7.577,1.918,2.577,1.772,8.505,6.9,10.584,6.245s22.662-11.444,24.816-12.466,6.593-1.456,8.427-.6,3.14,1.652,4.9,6.15,4.3,6.828,5.951,9.958,3.935,4.739,4.29,6.929a5.227,5.227,0,0,1,.059,1.068" transform="translate(-30.828 -68.451)" fill="#ad4929"/>
        <path id="Trazado_822996" data-name="Trazado 822996" d="M205.955,165.044a5.163,5.163,0,0,1,1.4,1.869,16.522,16.522,0,0,1,.75,2.361,28.472,28.472,0,0,0,2.043,5.246q.638,1.256,1.4,2.446a3.784,3.784,0,0,0,.744.983c.351.277.8.415,1.156.7.719.574,1.577,2.385,1.05,3.281-.5.843-1.907.917-2.759,1.06a10.569,10.569,0,0,1-4.14-.4c-.92-.259-2.055-2.1-2.7-2.794l-3.031-3.251a5.49,5.49,0,0,1-1.587-2.488c-.045-.223,1.538.235,1.64.278a2.576,2.576,0,0,1,.679.395,26.535,26.535,0,0,0,2.754,1.759.437.437,0,0,0,.137.065.349.349,0,0,0,.335-.194,1.631,1.631,0,0,0,.1-1.078,8.677,8.677,0,0,0-1.907-4.885,17.114,17.114,0,0,1-2.934-3.77,3.292,3.292,0,0,1-.388-1.77,1.652,1.652,0,0,1,1.03-1.4,2.389,2.389,0,0,1,1.52.158,8.48,8.48,0,0,1,2.707,1.435" transform="translate(-90.569 -73.884)" fill="#a63513"/>
        <path id="Trazado_822997" data-name="Trazado 822997" d="M126.232,198.558c-5.434.362-11.337.335-15.728-2.887-1.193-.875-5.619-1.405-7.516-4.114-2.392-3.415-5.225-8.848-7.227-12.5a17.954,17.954,0,0,1-1.575-5.615c-.347-2.1-1.656-4.278-2.212-6.339-.481-1.782-1.182-4.642-3.245-6.569.312,1.534.746,4.917.136,6.325-.2.45-2.008-.165-2.165.3a3.169,3.169,0,0,0-.116,1.176c.088,1.712,1,2.924,1.405,4.532a9.669,9.669,0,0,1,1.043.8c1.8,1.684,3.1,4.909,6.981,9.694s5.756,9.284,15.874,14.643c13.977,7.392,6.006,6.11,12.574,4.361a.014.014,0,0,0,.01,0,2.5,2.5,0,0,0,.918-.463,3.923,3.923,0,0,0,.845-3.334" transform="translate(-39.151 -72.594)" fill="#942f11"/>
        <path id="Trazado_822998" data-name="Trazado 822998" d="M192.375,188.515a1.547,1.547,0,0,1-.873.863,4.484,4.484,0,0,1-.7-.391,6.626,6.626,0,0,1-2.153-1.89,45.763,45.763,0,0,0-4.108-4.687c-.641-.587-2.026-1.635-3.352-2.6-.971,1.365-1.922,2.73-2.485,3.742-1.215,2.189-1.355,2.942-1.368,3.773.267,2.423,1,8,0,10.372-1.049,2.512-9.147,8.29-16.31,10.642.437-2.245,1.049-4.456,1.655-6.665.15-.534-1.452-1.312-1.207-1.811a11.4,11.4,0,0,0,1.279-5.675c.461.563,2.812,1.249,3.483,1.531a2.926,2.926,0,0,0,2.371.059,2.674,2.674,0,0,0,.85-.678,3.605,3.605,0,0,0,.784-3.011c-.3-1.5-1.515-2.626-2.658-3.646-.147-.131-.307-.3-.277-.492s.243-.307.428-.385a11.361,11.361,0,0,0,2.521-1.371,5.077,5.077,0,0,0,1.476-1.722c.343-.687.819-1.285,1.19-1.969.8-1.486,1.312-3.111,2.125-4.594.654-1.192,2-2.874,3.528-2.374,1.443.472,2.527,1.974,3.464,3.085a12.567,12.567,0,0,0,1.091,1.2,13.242,13.242,0,0,1,1.316,1.131,12.6,12.6,0,0,1,1.133,1.971,10.807,10.807,0,0,0,.965,1.306,8.458,8.458,0,0,0,2.241,2.134,6.715,6.715,0,0,0,3.146.7c-.163.365.381.658.476,1.046a.681.681,0,0,1-.033.4" transform="translate(-72.82 -79.342)" fill="#942f11"/>
        <path id="Trazado_822999" data-name="Trazado 822999" d="M152.941,201.117c-.007.261-.013.531-.02.8-.055,1.912.167,10.152-.143,12.071-.971,6.029-1.954,11.71-3.108,14.85s-.954,15.886-.982,16.973a11.007,11.007,0,0,0,1.563,4.378c.158.27-.114.869.01,1.156a18.448,18.448,0,0,1,1.475,3.605c.065,2.658-6.508,1.319-6.537-.049,0-.134,0-.278,0-.425.023-1.351.263-3.119.263-3.119s-.021-.142-.059-.381l0,0a11.167,11.167,0,0,0-.689-2.9c-.674-1.705.267-2.982.257-6.473,0-.13-.443-5.4-.448-5.562-.044-1.592-1.661-4.719-1.948-8.108-.174-2.044-1.9-11.48-2.281-13.907a64.428,64.428,0,0,0-1.957-8.4s.289-2.661.935-5.72c.8-3.808,2.146-8.229,4.163-8.893a9.36,9.36,0,0,1,8.59,1.316,9.7,9.7,0,0,1,1.861,1.681,41.286,41.286,0,0,0-.944,7.106" transform="translate(-62.559 -86.15)" fill="#ad4929"/>
        <path id="Trazado_823000" data-name="Trazado 823000" d="M137.031,258.7c-.757.035-1.5.061-2.221.085.023-1.351.263-3.119.263-3.119s-.022-.142-.06-.381l0,0a11.127,11.127,0,0,0-.689-2.9c-.673-1.705.268-2.982.259-6.473,0-.13-.443-5.4-.448-5.562-.044-1.592-1.661-4.719-1.948-8.108-.174-2.044-1.9-11.48-2.28-13.907-1.42-.635-3.072-1.453-5-2.473a38.084,38.084,0,0,1-9.544-6.772c3.192,2.342,10.9,4.3,11.19.593.277-3.56,2.534-8.264,3.235-9.649a14.1,14.1,0,0,0-.9,4.183c-.071.726-.124,1.554-.146,2.5a41.4,41.4,0,0,0,3.168,14.493,9.756,9.756,0,0,1,1.127,3.891,42.861,42.861,0,0,0,2.294,12.855c1.52,4.829.423,10.511.644,11.547s-.4,1.412-.124,3.021a30.951,30.951,0,0,1,1.188,6.183" transform="translate(-52.168 -90.459)" fill="#942f11"/>
        <path id="Trazado_823001" data-name="Trazado 823001" d="M157.332,148.522a5.163,5.163,0,0,0,2.675-.26c-.213.081-.483.432-.714.559-.265.144-.543.276-.815.405a11.759,11.759,0,0,1-6.344,1.08l1.1.567c-.083.236-.39.284-.64.292l-2.726.091c.082.071.165.14.251.207a7.731,7.731,0,0,0,6.976,1.056,5.41,5.41,0,0,1-2.079,1.188,5.542,5.542,0,0,0,2.141-.227,23.109,23.109,0,0,0,2.983-.566c.712-.254,1.444-.663,2.142-.982a15.118,15.118,0,0,0,4.526-3.169,27.7,27.7,0,0,1-2.386,2.831,12.1,12.1,0,0,0,4.679-3.983,7.508,7.508,0,0,1,.8-1.053c1.485-1.486,4.067-1.989,6.081-2.072a5.041,5.041,0,0,1,1.3.154c.377.083.742-.016,1.1.212a2.352,2.352,0,0,1,.658.726,8.375,8.375,0,0,1,.788,1.539q.075-.8.22-1.591c-.009.05.268.3.309.348.116.133.23.267.341.4a7.354,7.354,0,0,1,.607.856,4.895,4.895,0,0,1,.418.931,5.777,5.777,0,0,1,.176,1.076,4.833,4.833,0,0,0,.578-1.912c.3.64.8,1.167,1.152,1.78a9.015,9.015,0,0,1,.832,2.377,1.086,1.086,0,0,1,.073-.319c.028-.128.053-.256.077-.385q.07-.386.115-.776a5.351,5.351,0,0,0,.054-1.433,13.684,13.684,0,0,1,1.169,1.683,8.67,8.67,0,0,0-.74-3.1,6.781,6.781,0,0,0-.658-1.332,3.921,3.921,0,0,0-.865-.914,1.819,1.819,0,0,1,.573.054,4.628,4.628,0,0,1,1,.506.251.251,0,0,1,.1.1.094.094,0,0,1,0,.049c.014-.073-.129-.277-.163-.346q-.092-.186-.194-.366c-.133-.237-.289-.448-.437-.674a16.69,16.69,0,0,0-1.142-1.72,6.8,6.8,0,0,0-4.177-2.3,20.947,20.947,0,0,0-5.275-.171l2.741.8a25.81,25.81,0,0,0-8.553,1.073l2.713-.205a39.3,39.3,0,0,1-6.052,2.277,11.844,11.844,0,0,0-2.92,1.082,4.465,4.465,0,0,0,1.777-.14,6.806,6.806,0,0,0-1.048.626,9.265,9.265,0,0,0-1.086.59c-1.342.974-2.555,2.1-4.206,2.472" transform="translate(-67.774 -63.248)" fill="#28304a"/>
        <path id="Trazado_823002" data-name="Trazado 823002" d="M205.106,168.572s.989-.961,1.722-.575c1.464.772,1.3,1.847,1.3,1.847a3.218,3.218,0,0,1-1.51-.1,4.074,4.074,0,0,1-1.516-1.176" transform="translate(-92.753 -75.93)" fill="#22222c"/>
        <path id="Trazado_823003" data-name="Trazado 823003" d="M213.963,190.778s2.244,4.331,2.392,4.739a.514.514,0,0,1-.135.61l-1.163-2.291-1.093-2.816Z" transform="translate(-96.758 -86.273)" fill="#050507"/>
        <path id="Trazado_823004" data-name="Trazado 823004" d="M182.751,147.758c-.139-1.879-2.059-3.035-3.749-3.868a4.741,4.741,0,0,1,2.246.638c-2.492-1.958-6.056-1.414-9.16-.771a2.27,2.27,0,0,1,2.022-1.1,12.786,12.786,0,0,0-2.594-.673,15.961,15.961,0,0,0-3.362.794l2.713-.2a39.429,39.429,0,0,1-6.052,2.277,11.814,11.814,0,0,0-2.92,1.081,4.453,4.453,0,0,0,1.776-.14,6.8,6.8,0,0,0-1.047.627,9.092,9.092,0,0,0-1.086.589c-1.342.974-2.555,2.105-4.207,2.472a5.16,5.16,0,0,0,2.675-.26c-.213.081-.484.433-.715.559-.264.144-.543.276-.815.406a11.769,11.769,0,0,1-6.343,1.08l1.1.566c-.083.236-.391.284-.641.292l-2.726.092c.082.071.166.14.251.206a7.731,7.731,0,0,0,6.976,1.056,5.407,5.407,0,0,1-2.079,1.188,5.539,5.539,0,0,0,2.14-.227,23.089,23.089,0,0,0,2.983-.566c.712-.254,1.444-.663,2.142-.981a15.136,15.136,0,0,0,4.526-3.169,27.752,27.752,0,0,1-2.386,2.831,12.11,12.11,0,0,0,4.679-3.983,7.4,7.4,0,0,1,.8-1.054c1.484-1.486,4.067-1.989,6.08-2.072a4.992,4.992,0,0,1,1.3.154c.377.083.742-.016,1.1.211a2.359,2.359,0,0,1,.658.726,8.373,8.373,0,0,1,.787,1.539c.05-.533.124-1.064.221-1.591-.009.051.268.3.309.348.116.133.23.267.341.4a7.313,7.313,0,0,1,.607.856,4.842,4.842,0,0,1,.418.931,5.734,5.734,0,0,1,.176,1.076,4.825,4.825,0,0,0,.578-1.912,3.967,3.967,0,0,0,.223.4,3.262,3.262,0,0,0,.054-.833" transform="translate(-67.774 -64.21)" fill="#1c2134"/>
        <path id="Trazado_823005" data-name="Trazado 823005" d="M195.263,150.709s2.009-4.211,1.343-5.139c-.432-.6-2.763,1.421-3.169,1.982s-2.777,2.438-2.9,3.515c-.088.742,1.466,1.4,2.077,1.48.678.083.758-.857,1.195-1.222.56-.468,1.392-.419,1.46-.616" transform="translate(-86.16 -65.78)" fill="#82260a"/>
        <path id="Trazado_823006" data-name="Trazado 823006" d="M66.842,184.513c0,1.926,1.421,11.5,1.421,12.211s-.438,5.693-.365,6.908a6.378,6.378,0,0,0,.949,2.558,16.245,16.245,0,0,1,.4,2.954,6.106,6.106,0,0,0,1.184,2.673,22.2,22.2,0,0,1,1.081,2.567s3.825-.6,3.825-1.305a26.311,26.311,0,0,0-1.371-4.682c-.28-.752-.49-1.312-.531-1.429a9.509,9.509,0,0,1-.219-2.682,22.3,22.3,0,0,0-.583-3.727,28.773,28.773,0,0,1-.108-6.343A23.28,23.28,0,0,0,73.8,189a17.435,17.435,0,0,1,2.006-5.542,50.418,50.418,0,0,0,3.03-4.575,26.823,26.823,0,0,0,2.3-4.7c.2-1.027.187-9.919-1.93-14.156s-8.3-7.148-10.31-6.046a3.91,3.91,0,0,0-2.078,3.071,44.159,44.159,0,0,0,.631,13.313c.4,2.311,1.257,7.067,1.006,8.514-.5,2.9-1.612,4.349-1.612,5.634" transform="translate(-30.107 -69.527)" fill="#ad4929"/>
        <path id="Trazado_823007" data-name="Trazado 823007" d="M82.231,167.962a2.117,2.117,0,0,0-.061.239,11.427,11.427,0,0,0,.2,1.985c.024,1.044-.05,2.1-.076,3.145a58.874,58.874,0,0,1-.948,7.086c-.6,3.172-3.385,6.352-5.172,9.044-1.125,1.694-2.565,3.23-3.078,5.248-.249.981,1.275.262,1.213,1.236a7.346,7.346,0,0,1-.947,2.842,6.565,6.565,0,0,0-.838,3.55,17.033,17.033,0,0,0,.043,3.011c.21,1.28.663,2.5.9,3.758a17.55,17.55,0,0,1,.11,3.807c-.019.654.861,5.534-1.113,4.215-.156.572-.33,1.14-.515,1.706a8.126,8.126,0,0,0,1.993,1.976s3.825-.6,3.825-1.305a26.307,26.307,0,0,0-1.371-4.683c-.28-.752-.491-1.311-.531-1.429a9.467,9.467,0,0,1-.219-2.682,22.375,22.375,0,0,0-.584-3.728,28.773,28.773,0,0,1-.108-6.343,23.272,23.272,0,0,0,1.276-5.209,17.43,17.43,0,0,1,2.005-5.542,50.577,50.577,0,0,0,3.03-4.575,29.911,29.911,0,0,0,2.3-4.7c1.046-4.588.093-8.119-1.336-12.65" transform="translate(-32.538 -75.956)" fill="#a63513"/>
        <path id="Trazado_823008" data-name="Trazado 823008" d="M71.337,257.166c-.267.641.255,1.569,2.3,2.333,2.27.848,3.825-.6,3.825-1.305a26.309,26.309,0,0,0-1.371-4.683s-.482,1.493-2.8,1.395a2.782,2.782,0,0,1-1.921-.647,18.043,18.043,0,0,1-.035,2.908" transform="translate(-32.231 -114.643)" fill="#222021"/>
        <path id="Trazado_823009" data-name="Trazado 823009" d="M214.8,190.722c-1.323-.4-1.568,1.061-2,2.567s-.114,1.629.543,2.322,1.364,1.111,3.2.977,3.665-2.708,3.665-2.708Z" transform="translate(-96.148 -86.217)" fill="#7d341e"/>
        <path id="Trazado_823010" data-name="Trazado 823010" d="M216.767,194.053a7.883,7.883,0,0,0,4.544-2.535c.624-.638.817-1.142.6-3.246a7.649,7.649,0,0,0-1.658-3.7c.283.9.124,1.234-.429,1.6a5.52,5.52,0,0,1-4.928.784c-1.173-.19-1.954-.329-2.487.882s1.247,2.142,1.56,3.12,1.05,2.885,2.8,3.092" transform="translate(-96.011 -83.468)" fill="#7d341e"/>
        <path id="Trazado_823011" data-name="Trazado 823011" d="M220.648,193.79a.452.452,0,0,1,.7.482c-.052.2-.113.445-.182.742-.074.317.457.817.468,1.041.032.606-.236.687-.64.707-.647.031-1.835-.995-1.687-1.381a4.727,4.727,0,0,1,1.342-1.591" transform="translate(-99.168 -87.598)" fill="#1e1d1b"/>
        <path id="Trazado_823012" data-name="Trazado 823012" d="M157.4,304.877c.065,2.657-6.508,1.318-6.536-.049a29.718,29.718,0,0,1,.266-3.544s-.022-.142-.06-.38c.681,1.368,4.19,1.144,4.856.367a18.464,18.464,0,0,1,1.474,3.606" transform="translate(-68.222 -136.075)" fill="#222021"/>
        <path id="Trazado_823013" data-name="Trazado 823013" d="M190.781,283.17a1.5,1.5,0,0,0,0-.216c.06.012.055.074,0,.216" transform="translate(-86.274 -127.957)" fill="#222021"/>
        <path id="Trazado_823014" data-name="Trazado 823014" d="M113.991,215.341a3.814,3.814,0,0,1-.512-.554,2.159,2.159,0,0,1,.512.554" transform="translate(-51.317 -97.131)" fill="#9a4025"/>
        <path id="Trazado_823015" data-name="Trazado 823015" d="M141.913,199.344l-.156.306a2.735,2.735,0,0,1,.156-.306" transform="translate(-64.105 -90.147)" fill="#9a4025"/>
        <path id="Trazado_823016" data-name="Trazado 823016" d="M132.245,182.492a1.636,1.636,0,0,1-.822-.211,2.951,2.951,0,0,1-1.085-3.424,2.067,2.067,0,0,1,1.821-1.581l.507-.009a2.067,2.067,0,0,0-1.82,1.582,2.95,2.95,0,0,0,1.085,3.423,1.636,1.636,0,0,0,.822.211l-.508.009" transform="translate(-58.87 -80.164)" fill="#6a7dc4"/>
        <path id="Trazado_823017" data-name="Trazado 823017" d="M134.992,180.9c-.43,1.324-1.613,1.938-2.643,1.371a2.95,2.95,0,0,1-1.085-3.423c.43-1.324,1.613-1.937,2.642-1.371a2.951,2.951,0,0,1,1.085,3.424" transform="translate(-59.29 -80.164)" fill="#6a7dc4"/>
        <path id="Trazado_823018" data-name="Trazado 823018" d="M134.065,180.917c-.43,1.323-1.613,1.938-2.643,1.371a2.951,2.951,0,0,1-1.085-3.424c.43-1.323,1.613-1.937,2.643-1.371a2.951,2.951,0,0,1,1.085,3.424m-.419-.231a2.288,2.288,0,0,0-.841-2.655,1.451,1.451,0,0,0-2.049,1.063,2.288,2.288,0,0,0,.841,2.655,1.451,1.451,0,0,0,2.049-1.063" transform="translate(-58.87 -80.171)" fill="#7185d1"/>
        <path id="Trazado_823019" data-name="Trazado 823019" d="M133.554,181.342a1.179,1.179,0,0,1-1.664.863,1.858,1.858,0,0,1-.683-2.156,1.178,1.178,0,0,1,1.664-.863,1.858,1.858,0,0,1,.684,2.156m-.885-.487a.457.457,0,0,0-.168-.531.29.29,0,0,0-.41.213.457.457,0,0,0,.168.531.29.29,0,0,0,.41-.213" transform="translate(-59.29 -80.971)" fill="#6a7dc4"/>
        <path id="Trazado_823020" data-name="Trazado 823020" d="M132.865,182.126a.257.257,0,0,1-.128-.033.457.457,0,0,1-.168-.531.321.321,0,0,1,.282-.245l.172,0a.321.321,0,0,0-.283.245.458.458,0,0,0,.169.531.255.255,0,0,0,.128.033l-.171,0" transform="translate(-59.939 -81.994)" fill="#6a7dc4"/>
        <path id="Trazado_823021" data-name="Trazado 823021" d="M133.3,182.587l-.172,0a.319.319,0,0,0,.283-.245l.171,0a.321.321,0,0,1-.282.245" transform="translate(-60.203 -82.459)" fill="#6a7dc4"/>
        <path id="Trazado_823022" data-name="Trazado 823022" d="M133.1,181.317l.171,0a.249.249,0,0,1,.128.032.458.458,0,0,1,.168.531l-.171,0a.457.457,0,0,0-.168-.531.255.255,0,0,0-.128-.033" transform="translate(-60.193 -81.994)" fill="#6a7dc4"/>
        <path id="Trazado_823023" data-name="Trazado 823023" d="M131.092,182.4a1.217,1.217,0,0,1-.61-.156,2.187,2.187,0,0,1-.8-2.536,1.531,1.531,0,0,1,1.349-1.171l.45-.008a1.531,1.531,0,0,0-1.349,1.172,2.186,2.186,0,0,0,.8,2.536,1.213,1.213,0,0,0,.609.156l-.45.008" transform="translate(-58.591 -80.735)" fill="#6a7dc4"/>
        <path id="Trazado_823024" data-name="Trazado 823024" d="M133.51,181.026l.513.146a1.451,1.451,0,0,1-2.049,1.063,2.288,2.288,0,0,1-.841-2.655,1.45,1.45,0,0,1,2.049-1.063,2.288,2.288,0,0,1,.842,2.655l-.513-.146a1.858,1.858,0,0,0-.683-2.156,1.178,1.178,0,0,0-1.664.863,1.858,1.858,0,0,0,.683,2.156,1.178,1.178,0,0,0,1.664-.863" transform="translate(-59.245 -80.655)" fill="#6a7dc4"/>
        <path id="Trazado_823025" data-name="Trazado 823025" d="M133.262,181.223a1.386,1.386,0,0,1-1.957,1.016,2.185,2.185,0,0,1-.8-2.536,1.386,1.386,0,0,1,1.957-1.016,2.185,2.185,0,0,1,.8,2.536m-1.091-.6a.457.457,0,0,0-.168-.531.29.29,0,0,0-.41.213.457.457,0,0,0,.168.531.29.29,0,0,0,.41-.213" transform="translate(-58.963 -80.735)" fill="#6a7dc4"/>
        <path id="Trazado_823026" data-name="Trazado 823026" d="M132.673,181.894a.286.286,0,0,1-.4.209.451.451,0,0,1-.166-.523.286.286,0,0,1,.4-.209.451.451,0,0,1,.166.523" transform="translate(-59.729 -82.005)" fill="#6a7dc4"/>
        <path id="Trazado_823027" data-name="Trazado 823027" d="M134.457,185.484l-.508.009a2.067,2.067,0,0,0,1.82-1.581l.508-.009a2.067,2.067,0,0,1-1.82,1.581" transform="translate(-60.574 -83.164)" fill="#6a7dc4"/>
        <path id="Trazado_823028" data-name="Trazado 823028" d="M133.791,177.276l.508-.009a1.641,1.641,0,0,1,.822.211,2.95,2.95,0,0,1,1.085,3.424l-.507.009a2.951,2.951,0,0,0-1.085-3.424,1.641,1.641,0,0,0-.822-.211" transform="translate(-60.503 -80.163)" fill="#6a7dc4"/>
        <path id="Trazado_823029" data-name="Trazado 823029" d="M131.9,181.1l.5.383a.979.979,0,0,1-1.383.717,1.543,1.543,0,0,1-.567-1.791.979.979,0,0,1,1.382-.717,1.545,1.545,0,0,1,.568,1.791l-.5-.383a.451.451,0,0,0-.166-.523.286.286,0,0,0-.4.209.451.451,0,0,0,.166.523.286.286,0,0,0,.4-.209" transform="translate(-58.954 -81.21)" fill="#7d94e8"/>
        <path id="Trazado_823030" data-name="Trazado 823030" d="M132.8,184.617l-.45.008a1.531,1.531,0,0,0,1.348-1.172l.451-.008a1.531,1.531,0,0,1-1.349,1.172" transform="translate(-59.853 -82.957)" fill="#6a7dc4"/>
        <path id="Trazado_823031" data-name="Trazado 823031" d="M132.236,178.539l.45-.008a1.215,1.215,0,0,1,.609.156,2.185,2.185,0,0,1,.8,2.536l-.45.008a2.186,2.186,0,0,0-.8-2.536,1.217,1.217,0,0,0-.609-.156" transform="translate(-59.8 -80.735)" fill="#6a7dc4"/>
        <path id="Trazado_823032" data-name="Trazado 823032" d="M132.44,181.236a1.386,1.386,0,0,1-1.957,1.015,2.185,2.185,0,0,1-.8-2.536,1.386,1.386,0,0,1,1.957-1.016,2.186,2.186,0,0,1,.8,2.536m-.405-.223a1.544,1.544,0,0,0-.567-1.791.979.979,0,0,0-1.383.718,1.543,1.543,0,0,0,.567,1.791.979.979,0,0,0,1.383-.717" transform="translate(-58.591 -80.741)" fill="#7185d1"/>
        <path id="Trazado_823033" data-name="Trazado 823033" d="M85.864,302.458a14.417,14.417,0,0,1-13.044-.024c-3.613-2.086-3.631-5.458-.041-7.531a14.414,14.414,0,0,1,13.044.024c3.614,2.086,3.632,5.458.041,7.531" transform="translate(-31.7 -132.661)" fill="#f2f2f2"/>
        <path id="Trazado_823034" data-name="Trazado 823034" d="M87.1,305.8c-.071-.007-1.3.7-1.4,1.164a4.85,4.85,0,0,0,.134,1.96,10.042,10.042,0,0,0,2.865.765,6.283,6.283,0,0,0,2.23-.462,22.709,22.709,0,0,0,4.278.409c1.6-.1,3.814-.872,4.192-1.783a2.9,2.9,0,0,0,.2-1.639s-.065-.167-.206-.181-12.3-.232-12.3-.232" transform="translate(-38.735 -138.287)" fill="#161b29"/>
        <path id="Trazado_823035" data-name="Trazado 823035" d="M68.078,293.886a2.756,2.756,0,0,1-.717.8,1.308,1.308,0,0,0-.4.9,3.78,3.78,0,0,0,0,1.637,3.557,3.557,0,0,0,2.826.452,7.661,7.661,0,0,0,2.027-1.5l.518-.9a2.5,2.5,0,0,0,1.309-.033,13.316,13.316,0,0,0,2.986-1.359,2.32,2.32,0,0,0,.932-1.235,2.083,2.083,0,0,0-.134-1.082s-2.835.4-3.147.441-6.2,1.889-6.2,1.889" transform="translate(-30.239 -131.847)" fill="#161b29"/>
        <path id="Trazado_823036" data-name="Trazado 823036" d="M94.935,171.809c-.349-.071-8.861,1.025-9.669,1.264s-4.59-1.07-4.59-1.07a4.884,4.884,0,0,0-4.94,4.476c-.72,4.67,8.47,2.147,9.4,1.742s9.656-2.191,10.312-2.694-.514-3.719-.514-3.719" transform="translate(-34.231 -77.694)" fill="#dadaf0"/>
        <path id="Trazado_823037" data-name="Trazado 823037" d="M109.669,205.828c-3.568,0-5.547-2.2-6.916-4.306-1.188-1.827-1.428-6.062-1.638-9.8a38.537,38.537,0,0,0-.583-5.833,13.254,13.254,0,0,0-.54-1.78l.521-.222a13.383,13.383,0,0,1,.568,1.866,38.625,38.625,0,0,1,.6,5.937c.208,3.666.443,7.82,1.549,9.521,1.767,2.719,4.317,5.254,9.874,3.439a8.879,8.879,0,0,0,4.937-4.9,19.578,19.578,0,0,0,.271-14.923l.529-.2A20.167,20.167,0,0,1,118.55,200a9.435,9.435,0,0,1-5.272,5.195,11.651,11.651,0,0,1-3.609.637" transform="translate(-45.218 -83.158)" fill="#28304a"/>
        <path id="Trazado_823038" data-name="Trazado 823038" d="M97.842,178.865l-.252-.881a36.894,36.894,0,0,0-1.8-4.384,14.976,14.976,0,0,1-1.08-2.7l.547-.145a14.635,14.635,0,0,0,1.045,2.606,37.1,37.1,0,0,1,1.834,4.459l.255.893Z" transform="translate(-42.828 -77.216)" fill="#e6ebff"/>
        <path id="Trazado_823039" data-name="Trazado 823039" d="M87.289,299.919s-.4,3.5-.348,4.379a1.965,1.965,0,0,0,.9,1.4,14,14,0,0,0,3,0c.756-.209,4.212.592,5.894.383s2.9-1.248,2.968-1.894a5.711,5.711,0,0,0-.06-1.2.767.767,0,0,0-.618-.652c-1.536-.29-5.888-1.117-5.92-1.179s-5.809-1.229-5.809-1.229" transform="translate(-39.314 -135.629)" fill="#404759"/>
        <path id="Trazado_823040" data-name="Trazado 823040" d="M67.862,290.12c-.007.071-.394,3.425-.416,4.111s1.867,1.02,2.79.8,1.869-1.816,2.646-1.992a17.9,17.9,0,0,0,2.62-.56,3.954,3.954,0,0,0,2.006-1.767c.224-.571-.911-1.4-.977-1.449s-3.528.472-3.528.472Z" transform="translate(-30.5 -130.81)" fill="#404759"/>
        <path id="Trazado_823041" data-name="Trazado 823041" d="M72.374,218.157a17.686,17.686,0,0,0-1.888,5.291c-.73,5.251.911,8.367.848,15.774-.012,1.421,4.051,3.353,5.128,3.035s1.148-4.773,1.148-4.773,1.162-17.113.865-18.163-6.1-1.163-6.1-1.163" transform="translate(-31.79 -98.655)" fill="#295ea9"/>
        <path id="Trazado_823042" data-name="Trazado 823042" d="M72.009,251.879c-.836.058-1.67-1.789-1.977-.4s-1.81,8.035-2.236,10.365-.239,11.51-.173,12.49,2.913.77,3.735.616a2.676,2.676,0,0,0,1.8-1.621c.076-.514,2.628-16.845,2.751-17.347s-3.9-4.106-3.9-4.106" transform="translate(-30.536 -113.49)" fill="#295ea9"/>
        <path id="Trazado_823043" data-name="Trazado 823043" d="M75.881,219.727a15.954,15.954,0,0,0-1.572,6.92c-.026,4.008,2.5,8.548,2.5,8.548s2.158,11,2.707,11.909,7.427-.32,7.433-2.564c.013-4.764.382-15.56.208-17.832s-.942-6.171-.942-6.171Z" transform="translate(-33.604 -99.365)" fill="#2c6bb8"/>
        <path id="Trazado_823044" data-name="Trazado 823044" d="M83.857,260.286a24.462,24.462,0,0,0-.584,4.682c-.085,2.869-.487,4.49.118,7.66s1.683,10.691,1.794,11.7,3.013,1.42,4.3.886,1.938-1.323,1.914-1.562-.46-21.133-.524-21.614-7.02-1.75-7.02-1.75" transform="translate(-37.563 -117.706)" fill="#2c6bb8"/>
        <path id="Trazado_823045" data-name="Trazado 823045" d="M92.529,269.361c-.117-14.148-.147-18.3-.018-19.516,0-.08-.009-.132-.013-.158l.035-.005c.007-.039.013-.073.019-.1.084-3.7.2-22.652-1.38-24.187l.4-.405c1.858,1.812,1.629,21.918,1.518,24.968,0,.068.007.145.011.227h-.02a1.3,1.3,0,0,1-.013.157l-.042.018c-.038,2.653.019,12.325.075,19Z" transform="translate(-41.23 -101.743)" fill="#3279d1"/>
        <path id="Trazado_823046" data-name="Trazado 823046" d="M71.846,221.087a14.283,14.283,0,0,0-.7,2.338c-.057.219.308,1.168,2.292,2.072a16.339,16.339,0,0,0,7.544,1.382c2.9-.159,4.506-.882,4.5-1.627a18.95,18.95,0,0,0-.305-2.34Z" transform="translate(-32.172 -99.98)" fill="#1d2329"/>
        <rect id="Rectángulo_379039" data-name="Rectángulo 379039" width="0.851" height="3.843" transform="translate(52.089 123.11) rotate(-4.235)" fill="#2c6bb8"/>
        <path id="Trazado_823047" data-name="Trazado 823047" d="M87.294,229.3l-.578-.622.289.311-.342-.243a11.32,11.32,0,0,0,.114-1.985,7.522,7.522,0,0,1,.32-2.984l.714.46a11.184,11.184,0,0,0-.185,2.536c-.021,1.7-.051,2.268-.331,2.528" transform="translate(-39.19 -101.194)" fill="#2c6bb8"/>
        <rect id="Rectángulo_379040" data-name="Rectángulo 379040" width="4.111" height="0.849" transform="translate(41.365 126.89) rotate(-85.077)" fill="#2c6bb8"/>
        <path id="Trazado_823048" data-name="Trazado 823048" d="M85.686,201.879c-3.35,1.87-8.345.77-10.788-.184-1.936-.755-2.378-1.171-2.819-2.01s1.4-13.8,1.1-18.208,1.063-7.689,3.2-8.754a3.869,3.869,0,0,1,4.974.789,36.357,36.357,0,0,0,2.874,3.537c.753.646,3.7,2.547,3.691,5.674s-1.68,14.067-1.744,14.7-.486,4.455-.486,4.455" transform="translate(-32.565 -77.861)" fill="#4280ff"/>
        <path id="Trazado_823049" data-name="Trazado 823049" d="M95.505,186.018c-.807-.712-3.57.182-4.418,2.37-1.607,4.144,1.452,5.685,2.162,6.5s7.673,7.209,8.781,7.047.951-5.678.469-6.2-6.351-9.151-6.993-9.717" transform="translate(-40.983 -84.012)" fill="#dadaf0"/>
        <path id="Trazado_823050" data-name="Trazado 823050" d="M126.875,191.485c.5-.975,1.448-2.7,1.756-3.276a32.854,32.854,0,0,1,2.063-2.639,11.708,11.708,0,0,1,2.088-.394.42.42,0,0,1-.073.722,11.687,11.687,0,0,1-1.143.383,15.769,15.769,0,0,0-1.072,1.262,10.031,10.031,0,0,0,1.675-.881l1.268.129,0,.925-.679-.193-1.1.85a3.067,3.067,0,0,1,1.134-.473c.335.034.7.142.76.575a.4.4,0,0,1-.351.481l-.945.545s.721-.265,1-.024a.914.914,0,0,1,.191.749l-1.515.9a12.6,12.6,0,0,1-1.575,1.5c-.513.322-1.61.959-1.61.959Z" transform="translate(-57.375 -83.735)" fill="#ffa399"/>
        <path id="Trazado_823051" data-name="Trazado 823051" d="M109.735,204.435c.031.395-.133,1.34,1.119,1.289s3.97-1.554,6.031-3.383c2.255-2,4.636-3.988,4.912-4.6s-1.384-3.379-2.222-3.535-8.8,5.375-9.248,5.544-.591,4.686-.591,4.686" transform="translate(-49.624 -87.822)" fill="#dadaf0"/>
        <path id="Trazado_823052" data-name="Trazado 823052" d="M117.792,169.186c.11-.2-.144-.335-.144-.335l-1.618.157-2.971,1.035a19.065,19.065,0,0,0-2.107.851,4.392,4.392,0,0,0-.062,2.115c.126.512.841.477.841.477a2.738,2.738,0,0,1,.849.584,8.614,8.614,0,0,0,3.365.519c.157-.144-.19-.945-.19-.945l-1.679-.294,1.279-.672s2.976-.388,3.242-.729-.152-.614-.152-.614l-2.789.234s3.362-.977,3.5-1.283-.382-.448-.382-.448l-.416.065s.328-.429.257-.615-.826-.1-.826-.1" transform="translate(-50.104 -76.358)" fill="#ffa399"/>
        <path id="Trazado_823053" data-name="Trazado 823053" d="M84.314,165.483c.164.387.782,1.982-.372,4.6-.512,1.16,5.217,3.18,5.362,2.293a8.354,8.354,0,0,1,1.326-3.4c.7-.831-1.445-5.653-1.445-5.653s-4.643-3.6-4.871,2.165" transform="translate(-37.946 -73.353)" fill="#ffa399"/>
        <path id="Trazado_823054" data-name="Trazado 823054" d="M91.052,157.8c-.01,1.043-.531,4.076-.557,5.5a5.283,5.283,0,0,0,.636,3.031c.42.612,3.942,1.681,4.572,1.555s.779-1.132.779-1.132.026-2.371.471-2.54,1.1-.5.546-.938a3.762,3.762,0,0,1-.847-2.652c.153-.578.28-3.01-.353-3.786s-4.453-1.021-4.453-1.021Z" transform="translate(-40.923 -70.463)" fill="#ffa399"/>
        <path id="Trazado_823055" data-name="Trazado 823055" d="M92.735,156.449a5.335,5.335,0,0,1-2.313.938s-.328,1.521-.4,1.67c-.222.468-1.08.507-1.08.507l-.425,1.364-.855-.193s.085-1.943-1.04-1.914-.986,1.272-1.163,1.848a8.507,8.507,0,0,1-.847,2.464c-.4.387-1.526-.553-1.526-.553a8.007,8.007,0,0,1-1.2-2.065c-.783-3.085-.8-4.561.048-6.482.655-1.487,1.573-1.63,2.993-1.818a5.971,5.971,0,0,1,6.376.584c1.757,1.412,1.541,1.842,1.533,2.771a3.784,3.784,0,0,1-.1.879" transform="translate(-36.764 -68.533)" fill="#1c2134"/>
        <path id="Trazado_823056" data-name="Trazado 823056" d="M95.926,177.615c-4.611-.8-5.365-8.1-5.4-8.409l.565-.055c.007.072.742,7.182,4.926,7.905Z" transform="translate(-40.94 -76.493)" fill="#e6ebff"/>
        <path id="Trazado_823057" data-name="Trazado 823057" d="M91.142,168.656c.066.4-.126.95-.463,1.006s-.693-.4-.759-.806.185-.594.522-.649a.534.534,0,0,1,.7.45" transform="translate(-40.659 -76.06)" fill="#28304a"/>
        <path id="Trazado_823058" data-name="Trazado 823058" d="M95.164,185.723a4.04,4.04,0,0,0-4.674,3.529c-.432,2.479-.015,3.324,1.247,4.549s2.972,2.961,3.253,3.137,1.231.776,3.569-.956c2.184-1.618,1.59-3.554,1.334-4-.193-.339-4.73-6.256-4.73-6.256" transform="translate(-40.847 -83.957)" fill="#5c92ff"/>
        <path id="Trazado_823059" data-name="Trazado 823059" d="M348.352,312.229a13.461,13.461,0,0,0,12.178-.022c3.374-1.948,3.391-5.1.038-7.031a13.459,13.459,0,0,0-12.178.022c-3.374,1.948-3.391,5.1-.038,7.031" transform="translate(-156.399 -137.353)" fill="#f2f2f2"/>
        <path id="Trazado_823060" data-name="Trazado 823060" d="M322.131,328.769a10.875,10.875,0,0,0,9.842-.018c2.726-1.574,2.74-4.118.031-5.682a10.877,10.877,0,0,0-9.842.018c-2.726,1.574-2.74,4.118-.031,5.682" transform="translate(-144.759 -145.57)" fill="#f2f2f2"/>
        <path id="Trazado_823061" data-name="Trazado 823061" d="M348.941,306.43l.418.224.055,1.381-.278,1.793a19.9,19.9,0,0,1-.419,3.024,1.621,1.621,0,0,1-1.665,1.063,3.76,3.76,0,0,1-2.414-.7,2.17,2.17,0,0,1-.769-1.761,9.074,9.074,0,0,1,.336-2.273c.5-1.3,4.736-2.754,4.736-2.754" transform="translate(-155.504 -138.574)" fill="#080a0f"/>
        <path id="Trazado_823062" data-name="Trazado 823062" d="M361.857,302.287c-.233.031-1.05.649-1.047.931s-.119,1.113-.1,1.311a6.349,6.349,0,0,0,2.089,1.366,5.932,5.932,0,0,1,.645.032,28.517,28.517,0,0,0,1.986,2.466,9.973,9.973,0,0,0,4.417,1.552c1.323-.05,1.767-.686,1.729-.926s.452-1.213-.461-1.774-9.256-4.957-9.256-4.957" transform="translate(-163.119 -136.7)" fill="#080a0f"/>
        <path id="Trazado_823063" data-name="Trazado 823063" d="M348.708,300.81c-.016.2.634,2.807.634,2.807a30.343,30.343,0,0,1-.146,3.221,13.455,13.455,0,0,1-.627,2.991c-.383.675-1.766.525-2.424.34s-1.752-.77-1.91-1.553a7.424,7.424,0,0,1,.289-3.1c.274-.666.614-1.957.614-1.957s.525-1.886.577-2.045.6-1.779.6-1.779Z" transform="translate(-155.643 -135.546)" fill="#404759"/>
        <path id="Trazado_823064" data-name="Trazado 823064" d="M366.531,300a7.08,7.08,0,0,0,.783,1.747s3.839,3.369,4.169,3.849a2.356,2.356,0,0,1,.127,1.449,1.578,1.578,0,0,1-1.737.9,14.8,14.8,0,0,1-4.026-1.491,19.871,19.871,0,0,0-2.215-2.491,4.6,4.6,0,0,1-2.448-1.893c-.081-.414.518-2.363.422-2.444a15.048,15.048,0,0,1,2.062-.468Z" transform="translate(-163.331 -135.287)" fill="#404759"/>
        <path id="Trazado_823065" data-name="Trazado 823065" d="M366.509,230.736a6.27,6.27,0,0,1,.935,2.193,33.777,33.777,0,0,1,.692,8.923,131.569,131.569,0,0,1-1.275,13.771c-.24.932-2.242,1.307-4.077.89s-2.331-2.3-2.473-3.057-.2-8.532-.152-10.065.408-10.3.408-10.3Z" transform="translate(-162.864 -104.343)" fill="#295ea9"/>
        <path id="Trazado_823066" data-name="Trazado 823066" d="M366.579,269.012c.106.455.611-.961.723.5s-.768,16.711-.787,17.509-5.261,1.538-5.42-.528-.908-11-.948-12.721.182-5.238.182-5.238Z" transform="translate(-162.864 -121.438)" fill="#295ea9"/>
        <path id="Trazado_823067" data-name="Trazado 823067" d="M354.808,235.151c.067,1.012.388,6.693-.319,7.973s-1.47,1.18-1.872,2.9-1.178,12.042-2.065,13.536-5.949-.064-5.883-2.593-.179-9.759-.265-11.366a47.022,47.022,0,0,1,.877-12.5c.222-.882,9.527,2.05,9.527,2.05" transform="translate(-155.712 -105.338)" fill="#2c6bb8"/>
        <path id="Trazado_823068" data-name="Trazado 823068" d="M351.4,271.9c-.605,4.846-1.634,15.987-1.749,16.948s-1.65,1.1-2.472,1.036c-2.014-.146-1.837-1.523-1.837-1.523s-.918-8.882-.97-12a53.8,53.8,0,0,1,.856-7.862c.025-.467,6.171,3.4,6.171,3.4" transform="translate(-155.732 -121.406)" fill="#2c6bb8"/>
        <path id="Trazado_823069" data-name="Trazado 823069" d="M374.142,210.447c-.451-1.111-.946-1.2-.938-3.127s-.574-8.093-.341-9.221-1.231-5.285-.794-5.248c2.547.217,3.871,2.864,4,3.848s2.166,9.534,2.147,10.056-4.076,3.691-4.076,3.691" transform="translate(-168.22 -87.211)" fill="#ff4f4f"/>
        <path id="Trazado_823070" data-name="Trazado 823070" d="M360.7,199.743c.362-1.24.085-6.809-.722-7.3a19.519,19.519,0,0,0-4.2-1.049,24.408,24.408,0,0,0-5.561-.094c-2.249.126-5.352.595-5.585,1.213s-1.381,10.978-1.061,13.362.915,8.927,1.051,9.712.778,1.79,4.926,2.5c5.423.933,10.122-1.785,10.4-2.673s-.068-8.215.008-9.373.744-6.307.744-6.307" transform="translate(-155.346 -86.465)" fill="#ff3535"/>
        <path id="Trazado_823071" data-name="Trazado 823071" d="M351.363,209.217l-.056,4.852-2.4.41-1.764-1.007-.021-4.778Z" transform="translate(-156.973 -94.375)" fill="#ff4f4f"/>
        <path id="Trazado_823072" data-name="Trazado 823072" d="M360.171,225.141c.084-6.377-.371-10.094.055-12.248-1.531-.765-1.171-1.8-2.263-1.823a61.306,61.306,0,0,1-10.32-.214,1.432,1.432,0,0,0-1.445.944c-.612,1.5-.646,2.192-1.3,2.5-.788.375-1.37-1.3-1.37-1.3s.311,11.118,1.088,12.384,5.286,2.263,8.792,1.963a18.388,18.388,0,0,0,6.759-2.212" transform="translate(-155.352 -95.349)" fill="#2c6bb8"/>
        <path id="Trazado_823073" data-name="Trazado 823073" d="M351.688,191.5c-.234,2.392-.2,14-.334,14.542s-2.679.412-2.778,0,.02-11.4.331-12.813l.311-1.415a9.277,9.277,0,0,1,2.47-.315" transform="translate(-157.618 -86.598)" fill="#2c6bb8"/>
        <path id="Trazado_823074" data-name="Trazado 823074" d="M337.077,192.8s-.847.412-.7,3.056c.091,1.666.109,4.86-.486,5.56-.152.689-5.273,4.033-6.264,4.487s-4.527.358-4.314-1.149,8.664-9.74,9.8-10.769a4.582,4.582,0,0,1,1.968-1.185" transform="translate(-147.108 -87.188)" fill="#ff4f4f"/>
        <path id="Trazado_823075" data-name="Trazado 823075" d="M329.1,213.224c.275.135,1.532.87,1.532.87l4.826,8.8s.514.885-3.058,2.87c-.41.228-3.506-3.876-4.214-4.782-2.887-3.691-3.644-5.861-2.9-7.221.428-.787,3.819-.538,3.819-.538" transform="translate(-146.979 -96.407)" fill="#5c92ff"/>
        <path id="Trazado_823076" data-name="Trazado 823076" d="M340.7,231.116a6.534,6.534,0,0,0,1.117,1.027,10.319,10.319,0,0,1,1.046.4s1.866,1.69,2.044,1.928-.1.522-.278.518a23.746,23.746,0,0,1-2.154-1.451l-.052.239s2.3,2.382,2.4,2.523-.077.558-.253.542a2.412,2.412,0,0,1-.359-.065.394.394,0,0,1-.211.391c-.258.165-2.667-1.849-2.667-1.849a16.631,16.631,0,0,1,1.745,1.769c.036.213-.274.474-.555.394a22.535,22.535,0,0,1-2.1-1.789,10.173,10.173,0,0,1-1.322-.824c-.422-.358-1.289-1.564-1.157-1.928.442-1.223,2.76-1.827,2.76-1.827" transform="translate(-152.817 -104.515)" fill="#ffa399"/>
        <path id="Trazado_823077" data-name="Trazado 823077" d="M359.636,196.873c-.214.019-1.375-1.489-1.48-1.546s-.425.07-.425.07l-1.411,1.518A18.552,18.552,0,0,1,354.969,194a11.145,11.145,0,0,1,.364-3.235,22.79,22.79,0,0,0,1.479,3.621c.421.445,1.706.334,1.706.334a5.688,5.688,0,0,0,1.789-2.316c.3-1.155.463-1.716.463-1.716a5.091,5.091,0,0,1,.493,1.832c-.015.781.363,1.677-1.626,4.358" transform="translate(-160.503 -86.231)" fill="#ff4f4f"/>
        <path id="Trazado_823078" data-name="Trazado 823078" d="M357.506,187.321a2.674,2.674,0,0,0,1.984-1.1,6.745,6.745,0,0,0,1.592-2.646,38.283,38.283,0,0,0,1.265-5.7,6.93,6.93,0,0,0-.713-2.944s-7.431-2.424-7.911.274a31.413,31.413,0,0,0-.134,8.244,7.235,7.235,0,0,0,2.147,3.583,5.078,5.078,0,0,0,1.769.294" transform="translate(-159.806 -78.652)" fill="#ffa399"/>
        <path id="Trazado_823079" data-name="Trazado 823079" d="M355.684,176.713a12.978,12.978,0,0,0,4.865.347.649.649,0,0,1,.613.093l-.11,1.643.408.128-.233,1.331.348-.013.969-1.92a19.122,19.122,0,0,0,.713-5.1c-.014-1.885-2.227-3.788-5.33-3.1-3.284-.921-4.289,1.914-4.445,2.924s-.179,4.123-.179,4.123l.043,1.721.094-1.263.468-.742.194-.991a3.451,3.451,0,0,0,1.582.813" transform="translate(-159.77 -76.853)" fill="#1c2134"/>
        <path id="Trazado_823080" data-name="Trazado 823080" d="M368.721,184.979c.03-.059.627-.828.885-.676s.294,1.145-.237,1.873-.878,1.161-1.157.958.239-1.523.239-1.523Z" transform="translate(-166.474 -83.336)" fill="#ffa399"/>
        <path id="Trazado_823081" data-name="Trazado 823081" d="M361,222.94c.923.5.547.261,1.529.241s8.494-2.586,9.106-3.186a4.618,4.618,0,0,0,1.05-2.88c.087-.388-3.7-1.809-4.7-1.212s-8.363,2.792-8.234,3.958A15,15,0,0,0,361,222.94" transform="translate(-162.686 -97.57)" fill="#ff4f4f"/>
        <path id="Trazado_823082" data-name="Trazado 823082" d="M356.547,225.154l-1.023,1.461a6.123,6.123,0,0,1-.512,1.483.453.453,0,0,1-.721-.4c.076-.4.512-1.992.512-1.992s1.174-2.006,1.312-2.195a14.114,14.114,0,0,1,1.893-1.383c.318-.16,1.894.652,1.894.652a2.716,2.716,0,0,1,.562,1.611c-.089.76-.095.938-.095.938a11.672,11.672,0,0,1-1.037,2.06c-.27.2-.778-.043-.778-.043s-.233.375-.5.4a2.236,2.236,0,0,1-.766-.2s-.134.278-.665.28a.5.5,0,0,1-.549-.461Z" transform="translate(-160.214 -100.44)" fill="#ffa399"/>
        <path id="Trazado_823083" data-name="Trazado 823083" d="M336.771,250.249c.934,1.1,1.1,6.448.986,8.97a123.161,123.161,0,0,1-2.272,14.255c-.44,1-5.374,3.342-6.217,2.3s.33-15.394.347-16.594,2.816-5.858,2.816-5.858Z" transform="translate(-148.764 -113.167)" fill="#295ea9"/>
        <path id="Trazado_823084" data-name="Trazado 823084" d="M329.885,319.9c-.387.295-1.265,1.035-1.277,1.593a2.8,2.8,0,0,0,.093,1,10.917,10.917,0,0,0,2.116.949c.415.146.615-.157,1.067.167s1.6,1.209,2.174,1.63a5.335,5.335,0,0,0,3.351.629c1.269-.2,1.395-.639,1.487-1.167a2.2,2.2,0,0,0-.359-1.375,4.279,4.279,0,0,0-2.483-.991c-1.508-.216-6.168-2.438-6.168-2.438" transform="translate(-148.602 -144.664)" fill="#2e3442"/>
        <path id="Trazado_823085" data-name="Trazado 823085" d="M333,317.481a5.363,5.363,0,0,0,.571,1.362s4.129,2.027,4.725,2.753a2.83,2.83,0,0,1,.584,1.652s-.243.844-1.85.852a4.6,4.6,0,0,1-3.185-.983,5.83,5.83,0,0,0-2.184-1.258c-1.462-.343-2.676-.85-2.657-1.579.02-.75.139-2.364.139-2.364Z" transform="translate(-148.78 -143.571)" fill="#40485c"/>
        <path id="Trazado_823086" data-name="Trazado 823086" d="M320.839,323.919s-.434.071-.576.759a1.932,1.932,0,0,0,.038,1.177,5.483,5.483,0,0,0,.876,1.295c.282.165.356.146.356.146a15.129,15.129,0,0,0,1.653,2.7,5.85,5.85,0,0,0,3.788,1.445c1.618,0,1.986-1.038,1.992-1.189s-.081-.8-1.529-1.786-6.6-4.548-6.6-4.548" transform="translate(-144.8 -146.482)" fill="#2e3442"/>
        <path id="Trazado_823087" data-name="Trazado 823087" d="M324.951,321.658a6.934,6.934,0,0,0,.894,2.246,33.7,33.7,0,0,1,2.869,3.637,5.471,5.471,0,0,1,.053,1.436,2.63,2.63,0,0,1-2.918.88,6.211,6.211,0,0,1-3.558-3.226c-.624-1.128-1.57-2.1-1.726-2.668a8.823,8.823,0,0,1,.174-2.289c0-.028,4.212-.015,4.212-.015" transform="translate(-144.947 -145.459)" fill="#40485c"/>
        <path id="Trazado_823088" data-name="Trazado 823088" d="M336.158,287.019c-.289,2.148-2.01,16.387-2.476,17.379s-4.585.651-4.7.018.381-6.79.34-8.329,1.5-8.374,1.5-8.374Z" transform="translate(-148.767 -129.795)" fill="#295ea9"/>
        <path id="Trazado_823089" data-name="Trazado 823089" d="M348.33,237.012c.024.044-.131.105.627.535a4.822,4.822,0,0,0,2.087.595,4.265,4.265,0,0,0,1.858-.534,9.434,9.434,0,0,1,1.383-1.009s2.093-.143,2.342-.237.412-.025.274.318a1.2,1.2,0,0,1-.5.534s-.232,3.167-.687,3.455a2.421,2.421,0,0,1-1.35.137l-.89-.083a55.4,55.4,0,0,1-6.016,1.317c-1.07,0-1.419-1.983-1.427-2.321a18.706,18.706,0,0,1,2.3-2.707" transform="translate(-156.483 -106.87)" fill="#ffa399"/>
        <path id="Trazado_823090" data-name="Trazado 823090" d="M328.892,254.8c.019.873-.353,6.9-1.284,7.936a7.015,7.015,0,0,0-1.1,1.424s-.83,11.224-2.186,13.756-4.614-1.947-4.887-3.048-2.408-9.908-2.369-13.62a26.555,26.555,0,0,1,1.3-7.648c.169-.385,10.526,1.2,10.526,1.2" transform="translate(-143.383 -114.655)" fill="#2c6bb8"/>
        <path id="Trazado_823091" data-name="Trazado 823091" d="M318.42,254.576c.43,1.157,3.214,2.47,7.62,2.155s5.673-1.6,6.214-2.155l.542-.557a16.192,16.192,0,0,0-.406-2.618c-.18-.226-13.508,1.085-13.592,1.562s-.378,1.613-.378,1.613" transform="translate(-143.996 -113.676)" fill="#1d2329"/>
        <path id="Trazado_823092" data-name="Trazado 823092" d="M336.58,256.839l1.987-.65c.156-.05.283.081.283.294v1.248a.512.512,0,0,1-.283.478l-1.987.649c-.156.051-.282-.081-.282-.294v-1.248a.512.512,0,0,1,.282-.478" transform="translate(-152.08 -115.849)" fill="#dadaf0"/>
        <path id="Trazado_823093" data-name="Trazado 823093" d="M320.771,196.6s-3.328-1.942-4.836.879,1.774,6.47.425,8.222a6.313,6.313,0,0,1-3.977,1.993s.2,3.5,5.6,4.234,5.926-13.142,2.793-15.327" transform="translate(-141.266 -88.61)" fill="#443a5c"/>
        <path id="Trazado_823094" data-name="Trazado 823094" d="M324.586,195.358c-1.635.116-2.42,1.8-2.42,3.3s3.648,1.922,3.879,1.238-1.46-4.54-1.46-4.54" transform="translate(-145.69 -88.345)" fill="#4280ff"/>
        <path id="Trazado_823095" data-name="Trazado 823095" d="M338.267,214.95c1.115-.587,2.535.512,3.184,2a46.413,46.413,0,0,1,2.231,5.945c.289.953,1.065,4.5,1.758,5.307s-.357,4.13-1.629,4.1-2.694-4.92-3.581-5.517-1.962-11.831-1.962-11.831" transform="translate(-152.971 -97.132)" fill="#dadaf0"/>
        <path id="Trazado_823096" data-name="Trazado 823096" d="M338.061,214.7c1.86-.486,3.017.56,4.311,3.81a24.482,24.482,0,0,1,1.323,3.661s.027.994-2.7,1.283-2.934-8.755-2.934-8.755" transform="translate(-152.878 -97.038)" fill="#5c92ff"/>
        <path id="Trazado_823097" data-name="Trazado 823097" d="M328.068,237.792c.732-.142,2.888-.846,3.207-2.106.093-.449.128-.74.313-1.509.219-.909.3-1.619.455-2.543.254-1.548.594-3.085.795-4.641a15.987,15.987,0,0,0-.76-6.872c-.694-1.71-1.623-4.453-2.812-5.364-.62-.474-1.629-.258-2.42-.645s-1.751.444-3.155.75a15.328,15.328,0,0,0-3.614.823,17.087,17.087,0,0,0-3.321,2.846c-.438.5.481,8.141,1.127,11.544a13.72,13.72,0,0,1,.135,3.727c-.046.53-.022,1.079-.038,1.613a2.13,2.13,0,0,0,.051.8,4.132,4.132,0,0,0,1.123,1.022,15.871,15.871,0,0,0,8.914.557" transform="translate(-143.192 -96.78)" fill="#4280ff"/>
        <path id="Trazado_823098" data-name="Trazado 823098" d="M328.786,215.929c1.565,1.323,2.116,6.966,1.984,8.995-5.4-3.858-8.494-7.285-8.465-7.826s.33-.793,1.642-1.344,4.84.176,4.84.176" transform="translate(-145.752 -97.474)" fill="#fff"/>
        <path id="Trazado_823099" data-name="Trazado 823099" d="M320.531,236.811a6.189,6.189,0,0,0-.118-1.99c-.215-1.033-1.065-5.722-1.495-6.937s-1.065-3.065-2.108-3.646-.763-.939-.929-.863-.489.537-.576,2.463-.624,3.61-.162,5.673,1.425,7.174,3.5,8.678c1.734-.335,1.884-3.378,1.884-3.378" transform="translate(-142.43 -101.01)" fill="#dadaf0"/>
        <path id="Trazado_823100" data-name="Trazado 823100" d="M315.86,222.112c1.7.051,2.967,2.338,3.6,6.494l.634,4.156s-4.9,1.542-5.508-.276-.208-9.9,1.275-10.374" transform="translate(-142.139 -100.443)" fill="#5c92ff"/>
        <path id="Trazado_823101" data-name="Trazado 823101" d="M330.064,208.082a7.773,7.773,0,0,0-.72,3.646c.158.923-1.058,1.351-2.116,1.283s-4.522-2.311-4.479-2.461,1.486-.488,1.688-1.726a8,8,0,0,0,.225-3.061c-.225-.743-.7-3.016,1.351-3.624a4.417,4.417,0,0,1,3.826.99Z" transform="translate(-145.953 -91.349)" fill="#ffa698"/>
        <path id="Trazado_823102" data-name="Trazado 823102" d="M327.539,202.175c-.045,1.193-.056,4.108.315,4.715a11.176,11.176,0,0,0,4.232,2.24c.765.033,1.08-.043,1.407-.663a15.475,15.475,0,0,0,1.519-3.951,8.931,8.931,0,0,0,0-3.151c-.146-1.148-.214-1.89-.686-2.251a7.769,7.769,0,0,0-4.591-.652c-1.733.382-2.194,3.713-2.194,3.713" transform="translate(-148.109 -89.697)" fill="#ffa698"/>
        <path id="Trazado_823103" data-name="Trazado 823103" d="M331.392,197.621c-.754.236-1.508-.383-2.318.1s-.99,1.789-1.542,2.183a2.559,2.559,0,0,0-1.159,1.35,7.345,7.345,0,0,0,.056,3.376,18.2,18.2,0,0,1-.979-3.162c-.169-.428-.3-.786-.859-.719s.244,1.693.287,2.135a5.166,5.166,0,0,1-.168,1.276,3.2,3.2,0,0,0-.588-1.442,5.537,5.537,0,0,1-1.069-3.23c.068-1.193-.135-3.466,1.779-4.974s3.511-1.069,5.03-.563a4.319,4.319,0,0,1,3.117,2.892c.574,1.666-.016,2.1-.016,2.1a10.994,10.994,0,0,0-.367-1.462c-.112-.169-.371-.259-1.2.135" transform="translate(-146.088 -87.494)" fill="#443a5c"/>
        <path id="Trazado_823104" data-name="Trazado 823104" d="M326.005,208.007c-.011-.42-.065-1.4-.667-1.581s-.85.183-.818.57a1.643,1.643,0,0,0,.623,1.43c.646.516.764.4.861.161a1.078,1.078,0,0,0,0-.581" transform="translate(-146.753 -93.328)" fill="#ffa698"/>
        <path id="Trazado_823105" data-name="Trazado 823105" d="M324.989,289.747c.1-.152,1.059-1.05.836.838s-1.425,15.957-1.482,16.539-2.672.644-3.38.316c-1.6-.745-1.323-1.635-1.323-1.635s-1.158-8.187-.9-10.861.917-7.924.917-7.924Z" transform="translate(-144.124 -129.795)" fill="#2c6bb8"/>
        <path id="Trazado_823106" data-name="Trazado 823106" d="M344.212,245.143c.131-.065.841-.223,1.169-.395s.56-.437.408-.576a12.988,12.988,0,0,0-3.006.511,3.262,3.262,0,0,0-.605.411Z" transform="translate(-154.739 -110.408)" fill="#ffa399"/>
        <path id="Trazado_823107" data-name="Trazado 823107" d="M340.491,253.595l.514.628c-.014-.018-.005-.055.032-.112l-.515-.628c-.037.056-.046.094-.031.112" transform="translate(-153.974 -114.63)" fill="#303344"/>
        <path id="Trazado_823108" data-name="Trazado 823108" d="M368.443,229.8l-.514-.628c-.022-.027-.1-.009-.217.059l.514.628c.118-.068.2-.087.217-.059" transform="translate(-166.286 -103.632)" fill="#303344"/>
        <path id="Trazado_823109" data-name="Trazado 823109" d="M345.874,240.829l-.514-.628-4.8,7.276.514.628Z" transform="translate(-154.006 -108.623)" fill="#303344"/>
        <path id="Trazado_823110" data-name="Trazado 823110" d="M360.348,229.921l-.514-.628-9.542,5.508.515.628Z" transform="translate(-158.409 -103.691)" fill="#303344"/>
        <path id="Trazado_823111" data-name="Trazado 823111" d="M350.37,239.977l-.514-.628a1.872,1.872,0,0,0-.53.466l.514.628a1.856,1.856,0,0,1,.53-.467" transform="translate(-157.972 -108.238)" fill="#303344"/>
        <path id="Trazado_823112" data-name="Trazado 823112" d="M346.8,235.888a1.857,1.857,0,0,0-.53.467l-4.8,7.276c-.094.142-.008.165.187.052l9.542-5.509a1.854,1.854,0,0,0,.527-.464l4.8-7.276c.094-.143.011-.167-.185-.054Z" transform="translate(-154.399 -104.15)" fill="#303344"/>
        <path id="Trazado_823113" data-name="Trazado 823113" d="M362.678,237.793s-.568.064-.67.3a.712.712,0,0,0,.056.534s-.037-.079-.218.422.007.551.007.551-.231.368-.058.575l.173.207s-.291.263-.165.5a1.516,1.516,0,0,0,.545.443,2.859,2.859,0,0,0,.58-.055c.082-.047.706-.18.807-.345a1.288,1.288,0,0,0,.036-.606.667.667,0,0,0,.376-.575,4.133,4.133,0,0,0-.087-.664,1.68,1.68,0,0,0,.145-.675c-.051-.2.106-.5-.028-.7a1.048,1.048,0,0,0-.451-.307Z" transform="translate(-163.581 -107.355)" fill="#ffa399"/>
        <path id="Trazado_823114" data-name="Trazado 823114" d="M333.038,245.412c.423.2,2.622-.4,2.848-.358s.191.591.119.679.407.284.418.56a2.022,2.022,0,0,1-.157.672s.223.484.1.629a3.585,3.585,0,0,1-.379.349s.083.492-.159.655a11.985,11.985,0,0,1-2.365.874,16.958,16.958,0,0,0-2.247-.094c-1.161.135-9.266,1.638-10.219.923s-1.777-1.932-1.461-2.4a5.426,5.426,0,0,1,2.89-1.418c.7.074,3.781.323,5.132.359s3.526-.15,3.654-.421a5.146,5.146,0,0,1,.878-1.056c.176-.139.951.042.951.042" transform="translate(-144.468 -110.817)" fill="#ffa399"/>
        <path id="Trazado_823115" data-name="Trazado 823115" d="M329.1,247.133a2.272,2.272,0,0,0,0,1.489c.288.75.456,1.262.6,1.24s-.243.193-.53.369-7.077,1.4-9.1.675-2.859-4.942-2.859-4.942,3.99.623,4.371.806a65.1,65.1,0,0,0,6.6.308,4.364,4.364,0,0,1,.924.054" transform="translate(-143.447 -111.23)" fill="#dadaf0"/>
        <path id="Trazado_823116" data-name="Trazado 823116" d="M368.605,204.53c.309-4.145.316-10.893.2-11.618l-.118-.725-1.711-.337c-.2-.04-.466,3.266-.443,6.089s0,6.591,0,6.591Z" transform="translate(-165.752 -86.758)" fill="#2c6bb8"/>
        <path id="Trazado_823117" data-name="Trazado 823117" d="M3.406,280.811c-4.678,2.816-4.518,7.3.358,10.021s12.621,2.641,17.3-.175,4.518-7.3-.358-10.021-12.621-2.641-17.3.175" transform="translate(0 -126.009)" fill="#c1c8e0"/>
        <g id="Grupo_1076877" data-name="Grupo 1076877" transform="translate(0.626 157.885)" opacity="0.69">
          <g id="Grupo_1076876" data-name="Grupo 1076876">
            <g id="Grupo_1076875" data-name="Grupo 1076875" clip-path="url(#clip-path-4)">
              <path id="Trazado_823118" data-name="Trazado 823118" d="M20.592,293.7c2.34-1.447,3.542-3.267,3.573-5.41,0,1.656-1.068,3.312-3.2,4.6-4.4,2.649-11.688,2.722-16.276.164-2.361-1.316-3.546-3.073-3.541-4.83a5.742,5.742,0,0,0,1.963,4.235,11.155,11.155,0,0,0,4.836,2.586c4.238,1.193,9.439.641,12.649-1.343" transform="translate(-1.143 -288.226)" fill="#4561ff"/>
            </g>
          </g>
        </g>
        <g id="Grupo_1076880" data-name="Grupo 1076880" transform="translate(0.626 156.183)" opacity="0.69">
          <g id="Grupo_1076879" data-name="Grupo 1076879">
            <g id="Grupo_1076878" data-name="Grupo 1076878" clip-path="url(#clip-path-5)">
              <path id="Trazado_823119" data-name="Trazado 823119" d="M24.164,286.889l0-1.7c0,1.656-1.069,3.312-3.2,4.6-4.4,2.649-11.688,2.722-16.276.164-2.361-1.316-3.547-3.073-3.542-4.83l0,1.7c0,1.757,1.181,3.513,3.542,4.83,4.588,2.558,11.874,2.485,16.276-.164,2.136-1.286,3.2-2.942,3.2-4.6" transform="translate(-1.142 -285.12)" fill="#4561ff"/>
            </g>
          </g>
        </g>
        <g id="Grupo_1076883" data-name="Grupo 1076883" transform="translate(0.631 125.781)" opacity="0.85">
          <g id="Grupo_1076882" data-name="Grupo 1076882">
            <g id="Grupo_1076881" data-name="Grupo 1076881" clip-path="url(#clip-path-6)">
              <path id="Trazado_823120" data-name="Trazado 823120" d="M1.214,238.085c0-.487,0-.823,0-.97.071-3.15,2.719-4.86,3.716-5.5.692-.417.692-.417.16-.095a14.582,14.582,0,0,1,5.886-1.809,17.077,17.077,0,0,1,6.3.539,11.583,11.583,0,0,1,4.908,2.639,6.762,6.762,0,0,1,1.644,2.3,5.375,5.375,0,0,1,.409,2c0,.147-.064,22.649-.065,22.907,0,1.656-1.069,3.312-3.2,4.6-4.4,2.649-11.688,2.722-16.276.165-2.361-1.317-3.546-3.074-3.541-4.83,0-.107.06-21.451.062-21.938" transform="translate(-1.152 -229.62)" fill="#8f9afc"/>
            </g>
          </g>
        </g>
        <path id="Trazado_823121" data-name="Trazado 823121" d="M5.242,277.615c-4.183,2.518-4.039,6.529.32,8.96s11.284,2.361,15.467-.156,4.039-6.529-.32-8.96-11.284-2.361-15.467.157" transform="translate(-0.993 -124.668)" fill="#4280ff"/>
        <path id="Trazado_823122" data-name="Trazado 823122" d="M2.2,275.452v-14.2l21.878.1v14.143Z" transform="translate(-0.993 -118.143)" fill="#4280ff"/>
        <path id="Trazado_823123" data-name="Trazado 823123" d="M5.242,251.723c-4.183,2.518-4.039,6.529.32,8.96s11.284,2.361,15.467-.156,4.039-6.529-.32-8.96-11.284-2.36-15.467.157" transform="translate(-0.993 -112.959)" fill="#5c92ff"/>
        <g id="Grupo_1076886" data-name="Grupo 1076886" transform="translate(0.91 126.125)" opacity="0.56">
          <g id="Grupo_1076885" data-name="Grupo 1076885">
            <g id="Grupo_1076884" data-name="Grupo 1076884" clip-path="url(#clip-path-7)">
              <path id="Trazado_823124" data-name="Trazado 823124" d="M4.814,232.341c-4.331,2.725-4.182,7.066.332,9.7s11.681,2.555,16.012-.169,4.182-7.066-.331-9.7-11.683-2.555-16.012.169" transform="translate(-1.661 -230.248)" fill="#e2e5fc"/>
            </g>
          </g>
        </g>
        <g id="Grupo_1076889" data-name="Grupo 1076889" transform="translate(1.632 126.041)" opacity="0.85">
          <g id="Grupo_1076888" data-name="Grupo 1076888">
            <g id="Grupo_1076887" data-name="Grupo 1076887" clip-path="url(#clip-path-8)">
              <path id="Trazado_823125" data-name="Trazado 823125" d="M5.931,232.044c-4.054,2.538-3.915,6.584.311,9.035s10.938,2.381,14.991-.158,3.916-6.584-.311-9.035-10.937-2.381-14.991.158" transform="translate(-2.98 -230.093)" fill="#8f9afc"/>
            </g>
          </g>
        </g>
        <path id="Trazado_823126" data-name="Trazado 823126" d="M23.715,236.384l.008-2.863a3.98,3.98,0,0,1-2.262,3.246,12.658,12.658,0,0,1-11.489.116c-1.667-.929-2.5-2.17-2.5-3.409l-.008,2.863c0,1.24.833,2.48,2.5,3.41a12.658,12.658,0,0,0,11.489-.116,3.98,3.98,0,0,0,2.262-3.246" transform="translate(-3.375 -105.581)" fill="#6b73bd"/>
        <path id="Trazado_823127" data-name="Trazado 823127" d="M12.053,220.546a3.331,3.331,0,0,1,1.441-1.53,8.9,8.9,0,0,1,8.084-.082c1.733.966,2.191,2.41,1.35,3.625l-.421.607c.775-1.119.353-2.449-1.243-3.339a8.2,8.2,0,0,0-7.446.075,3.068,3.068,0,0,0-1.327,1.41,1.882,1.882,0,0,0,.232,1.827l-.417-.61a2.043,2.043,0,0,1-.252-1.984" transform="translate(-5.382 -98.586)" fill="#cbd8d9"/>
        <path id="Trazado_823128" data-name="Trazado 823128" d="M14.188,220.7c-2.014,1.212-1.945,3.143.154,4.313a8.2,8.2,0,0,0,7.447-.075c2.014-1.212,1.945-3.143-.154-4.314a8.2,8.2,0,0,0-7.446.076" transform="translate(-5.753 -99.384)" fill="#778a96"/>
        <path id="Trazado_823129" data-name="Trazado 823129" d="M16.488,225.12a2.052,2.052,0,0,1-1.227-1.676,1.963,1.963,0,0,1,1.114-1.652,5.967,5.967,0,0,1,5.409-.056,2.053,2.053,0,0,1,1.226,1.676,1.963,1.963,0,0,1-1.114,1.653,5.458,5.458,0,0,1-2.75.676,5.578,5.578,0,0,1-2.658-.62m.061-3.038h0a1.647,1.647,0,0,0-.95,1.357,1.738,1.738,0,0,0,1.054,1.385,5.591,5.591,0,0,0,5.069-.05,1.647,1.647,0,0,0,.949-1.356,1.736,1.736,0,0,0-1.053-1.386,5.24,5.24,0,0,0-2.5-.582,5.1,5.1,0,0,0-2.574.633" transform="translate(-6.901 -99.993)" fill="#93a3b0"/>
        <path id="Trazado_823130" data-name="Trazado 823130" d="M19.23,225.226a1.128,1.128,0,0,1-.671-.93,1.083,1.083,0,0,1,.611-.919,3.1,3.1,0,0,1,2.855-.03,1.126,1.126,0,0,1,.671.93,1.084,1.084,0,0,1-.61.919,2.867,2.867,0,0,1-1.452.363,2.94,2.94,0,0,1-1.4-.333m.114-1.559a.765.765,0,0,0-.446.623.813.813,0,0,0,.5.639,2.772,2.772,0,0,0,2.515-.024.767.767,0,0,0,.448-.623.814.814,0,0,0-.5-.639,2.6,2.6,0,0,0-1.239-.29,2.534,2.534,0,0,0-1.277.314" transform="translate(-8.393 -100.851)" fill="#93a3b0"/>
        <path id="Trazado_823131" data-name="Trazado 823131" d="M6.316,217.261l.552-.314c-3.668,2.208-3.542,5.725.281,7.856a15.2,15.2,0,0,0,10.573,1.08,11.3,11.3,0,0,0,2.989-1.217c2.2-1.325,3.035-3.121,2.525-4.806a5.466,5.466,0,0,0-2.684-2.982l.535.309a5.9,5.9,0,0,1,2.9,3.218c.551,1.819-.351,3.758-2.726,5.187a12.169,12.169,0,0,1-3.226,1.314A16.4,16.4,0,0,1,6.62,225.742c-4.126-2.3-4.262-6.1-.3-8.48" transform="translate(-1.553 -98.077)" fill="#d3dfe0"/>
        <path id="Trazado_823132" data-name="Trazado 823132" d="M21.061,215.465c3.822,2.132,3.948,5.649.281,7.856a14.942,14.942,0,0,1-13.563.137c-3.822-2.131-3.948-5.649-.281-7.856a14.942,14.942,0,0,1,13.563-.138m-10.767,1.7c-2.186,1.316-2.111,3.412.168,4.683a8.906,8.906,0,0,0,8.084-.082c2.186-1.316,2.111-3.412-.168-4.682a8.9,8.9,0,0,0-8.084.082" transform="translate(-2.183 -96.732)" fill="#e3ebed"/>
        <path id="Trazado_823133" data-name="Trazado 823133" d="M24.121,229.12l.011-3.933c0,1.49-.961,2.98-2.882,4.136-3.959,2.382-10.513,2.449-14.639.148-2.124-1.184-3.191-2.765-3.186-4.344l-.012,3.933c0,1.58,1.062,3.16,3.186,4.344,4.126,2.3,10.681,2.234,14.64-.148,1.922-1.156,2.878-2.646,2.882-4.136" transform="translate(-1.543 -101.807)" fill="#cbd8d9"/>
        <g id="Grupo_1076892" data-name="Grupo 1076892" transform="translate(2.377 136.223)" opacity="0.25">
          <g id="Grupo_1076891" data-name="Grupo 1076891">
            <g id="Grupo_1076890" data-name="Grupo 1076890" clip-path="url(#clip-path-9)">
              <path id="Trazado_823134" data-name="Trazado 823134" d="M7.878,251.279v24.7A16.5,16.5,0,0,1,4.34,273.9V248.682s.528,1.131,3.538,2.6" transform="translate(-4.34 -248.682)" fill="#e2e5fc"/>
            </g>
          </g>
        </g>
        <path id="Trazado_823135" data-name="Trazado 823135" d="M1.494,254.467a6.6,6.6,0,0,0,3.385,3.723c4.585,2.557,11.87,2.483,16.269-.165a9.435,9.435,0,0,0,.943-.647v12.71a9.551,9.551,0,0,1-.955.657c-4.4,2.647-11.684,2.721-16.27.164a6.64,6.64,0,0,1-3.372-3.678Z" transform="translate(-0.676 -115.075)" fill="#fff"/>
        <path id="Trazado_823136" data-name="Trazado 823136" d="M1.494,268.393a6.632,6.632,0,0,0,3.372,3.683c4.586,2.557,11.87,2.484,16.269-.164a9.587,9.587,0,0,0,.955-.656v2.4a9.5,9.5,0,0,1-.955.656c-4.4,2.648-11.683,2.721-16.269.165A6.642,6.642,0,0,1,1.494,270.8Z" transform="translate(-0.676 -121.372)" fill="#3246fa"/>
      </g>
    </g>
  </g>
</svg>
