<svg xmlns="http://www.w3.org/2000/svg" xmlns:xlink="http://www.w3.org/1999/xlink" width="201" height="189" viewBox="0 0 201 189">
  <defs>
    <clipPath id="clip-path">
      <rect id="Rect치ngulo_379404" data-name="Rect치ngulo 379404" width="135.943" height="123.138" fill="none"/>
    </clipPath>
  </defs>
  <g id="Grupo_1077193" data-name="Grupo 1077193" transform="translate(-703 -2369)">
    <g id="Grupo_1077118" data-name="Grupo 1077118" transform="translate(0 91)">
      <rect id="Rect치ngulo_379368" data-name="Rect치ngulo 379368" width="16" height="5" transform="translate(888 2370)" fill="#dbf9bd"/>
      <g id="Grupo_161158" data-name="Grupo 161158" transform="translate(703 2278)">
        <circle id="Elipse_1142" data-name="Elipse 1142" cx="94.5" cy="94.5" r="94.5" fill="#dbf9bd"/>
      </g>
    </g>
    <g id="Grupo_1077129" data-name="Grupo 1077129" transform="translate(730.028 2401.932)">
      <g id="Grupo_1077065" data-name="Grupo 1077065" clip-path="url(#clip-path)">
        <path id="Trazado_823262" data-name="Trazado 823262" d="M138.129,60.245A59.245,59.245,0,1,1,78.884,1a59.245,59.245,0,0,1,59.245,59.245" transform="translate(-9.151 -0.466)" fill="#65add7"/>
        <path id="Trazado_823263" data-name="Trazado 823263" d="M78.418,119.559A59.779,59.779,0,1,1,138.2,59.779a59.847,59.847,0,0,1-59.779,59.779m0-118.49a58.711,58.711,0,1,0,58.711,58.711A58.778,58.778,0,0,0,78.418,1.068" transform="translate(-8.684)" fill="#020202"/>
        <path id="Trazado_823264" data-name="Trazado 823264" d="M135.874,191.265c0,7.708-30.192,13.956-67.437,13.956S1,198.973,1,191.265s30.193-13.956,67.438-13.956,67.437,6.248,67.437,13.956" transform="translate(-0.466 -82.617)" fill="#039314"/>
        <path id="Trazado_823265" data-name="Trazado 823265" d="M67.971,205.289C29.857,205.289,0,198.924,0,190.8s29.857-14.49,67.971-14.49,67.971,6.365,67.971,14.49-29.857,14.49-67.971,14.49m0-27.912c-40.02,0-66.9,6.94-66.9,13.422s26.883,13.422,66.9,13.422,66.9-6.94,66.9-13.422-26.883-13.422-66.9-13.422" transform="translate(0 -82.151)" fill="#020202"/>
        <path id="Trazado_823266" data-name="Trazado 823266" d="M69.14,117.741l-1.682.333-2.091-1.47L64,114.923l-.409-.409.773-2.136-.045-2.636-1.773-4.09L61.5,101.914l-.449-2.308.727-4.864-1.43-6L58.959,82.2l-.591-5.727.545-5.817-.545-4.114L57.1,60.34l.289-3.526,2.028-4.341,3.454-2.227,2.228-.818,3.673-2.23,2.6-.636,5,.911,5.045.045,5.772.227,3.737-.693,5.944-2.671-3.636-1.545-3.454-2.228-.982-1.685L90.82,36.52l2.227-1,2.409-.4,2.636.541,3.362.727,2.183-4,2.272-3.636,2.818-1.637,2.772.091,2.864,1.454,2.272,3.636,2.091,3.5,1.091.637,1.654-1.9,1.891-.647,3.318.409,1.045.409.461,2.454-1.461,2.954-2.545,1.864-2.364.454-1.409-.045,1.195,4.67.351,4.011,3,7.091,1.15,6.636v3.818l-.332,2.591-1.23,5.454-.706,4.233-.609,9.265-1.091,5.591-1.273,8.317-.525,7.747.979,7.343,1.363,3.546.682,2.182-.273,1.227-3.129.655-1.234-.609L118,124.241l-1.454-.681.045-1.727L117,120.65l-1.319-2.576-.363-1.879.454-4.045-.591-6.545L114,97.312l-2.318-.205-6.318-1.926V97.47l-.227,6.317L103,110.833l-.364,2.272,1.318,7.272.591,3.318,1.114,2.091-.75,1.682-1.409.487-2.182-.577-1.636-2.637-.545-5.408-.454-5.59-1.545-5.318-1.414-4.545-.087-2.682.273-6.954-4.272,1.318-5.181.818H83.82L76,93.029l-2.41-1.008L70,102.515l-1.115,8.363.934,4.091.409,1.681Z" transform="translate(-26.604 -12.633)" fill="#fff"/>
        <path id="Trazado_823267" data-name="Trazado 823267" d="M142.33,84.207l-2.039-.409-1.313,2.83.131,2.624,2.455,2.34,3.635.338,2.684-1.3,1.861-.514,1.545-.084-.174-2.255-2.1-3.752-1.816-1.3Z" transform="translate(-64.757 -38.548)" fill="#ff88b7"/>
        <path id="Trazado_823268" data-name="Trazado 823268" d="M99.091,57.2c-3.6.755-6.649,3.047-10.235,3.832a20.775,20.775,0,0,1-5.88.144c-.955-.066-1.911-.131-2.868-.137-.83,0-1.656.081-2.486.035-1.533-.085-3.045-.391-4.567-.583a10.939,10.939,0,0,0-4.335.092c-1.48.422-2.51,1.589-3.876,2.225-.772.359-1.633.52-2.429.818a8.408,8.408,0,0,0-2.245,1.24c-2.786,2.17-3.675,5.886-3.622,9.265a29.115,29.115,0,0,0,.836,5.51c.181.856.354,1.715.452,2.584a18.111,18.111,0,0,1,.053,2.843,54.923,54.923,0,0,0,.354,11.552c.646,3.857,1.779,7.6,2.545,11.429.35,1.752-.169,3.492-.3,5.237a11.986,11.986,0,0,0,.971,5.047c.53,1.451,1.03,2.918,1.54,4.377a15.507,15.507,0,0,1,.6,2.068,3.589,3.589,0,0,1-.217,2.068,6.627,6.627,0,0,0-.6,2.3.539.539,0,0,0,.392.515c.961.157,1.363.874,1.917,1.586a3.5,3.5,0,0,0,2.673,1.362,2.314,2.314,0,0,0,2.3-1.049,3.738,3.738,0,0,0,.026-2.792,67.056,67.056,0,0,1-2.273-8.23c-.23-1.533-.387-3.106-.481-4.654a20.938,20.938,0,0,1,.288-4.6,23.729,23.729,0,0,0,.31-2.561c.039-.8,0-1.6.033-2.393a16.456,16.456,0,0,1,.211-2.105c.143-.84.388-1.659.523-2.5a.551.551,0,0,0-.373-.657.537.537,0,0,0-.657.373c-.216,1.34-.6,2.629-.717,3.989s-.008,2.709-.148,4.056c-.158,1.507-.511,2.987-.567,4.506a30.017,30.017,0,0,0,.269,4.432,34.768,34.768,0,0,0,.659,4.333c.31,1.284.731,2.553,1.116,3.76.219.685.438,1.369.64,2.059a6.722,6.722,0,0,1,.357,1.581c.029.691-.184,1.233-.89,1.361a3.022,3.022,0,0,1-1.572-.183,2.415,2.415,0,0,1-.97-.843,3.818,3.818,0,0,0-2.4-1.868l.392.515a7.76,7.76,0,0,1,.678-2.355,4.243,4.243,0,0,0,.133-2.113,25.14,25.14,0,0,0-1.331-4.16c-.26-.723-.479-1.459-.741-2.181-.276-.762-.567-1.519-.777-2.3a8.041,8.041,0,0,1-.276-2.543c.05-.892.21-1.772.324-2.657a9.639,9.639,0,0,0,.039-2.523c-.128-.961-.395-1.912-.618-2.854-.445-1.871-.913-3.736-1.327-5.614a47.963,47.963,0,0,1-.993-5.814,46.586,46.586,0,0,1-.142-5.582,54.7,54.7,0,0,0,.127-5.7,47.673,47.673,0,0,0-.946-5.337c-.65-3.338-.66-7.224,1.338-10.142a7.357,7.357,0,0,1,3.864-2.8,15.6,15.6,0,0,0,2.38-.85A18.519,18.519,0,0,0,67.428,62.4a5.4,5.4,0,0,1,1.9-.874,7.963,7.963,0,0,1,2.056-.124c1.533.068,3.046.364,4.565.566a18.249,18.249,0,0,0,2.185.187c.85.01,1.7-.066,2.55-.042,1.958.055,3.911.317,5.873.253a15.259,15.259,0,0,0,5.232-1.154c1.671-.671,3.271-1.509,4.947-2.167a16.448,16.448,0,0,1,2.641-.819c.672-.142.388-1.171-.284-1.03" transform="translate(-26.347 -26.645)"/>
        <path id="Trazado_823269" data-name="Trazado 823269" d="M98.948,135.9c-2.965.719-5.885,1.919-8.966,2.015a11.442,11.442,0,0,1-4.091-.643,33,33,0,0,1-3.669-1.633c-1.285-.625-2.6-1.174-3.9-1.766a15.728,15.728,0,0,1-3.242-1.862,21.229,21.229,0,0,1-3.132-3.226,34.8,34.8,0,0,1-2.388-3.241,52.451,52.451,0,0,1-4.254-8.278.537.537,0,0,0-.731-.192.549.549,0,0,0-.192.731,54.673,54.673,0,0,0,3.82,7.6,37.549,37.549,0,0,0,2.39,3.4,27.2,27.2,0,0,0,3.1,3.431c2.1,1.886,4.725,2.781,7.236,3.964,2.536,1.2,5,2.552,7.851,2.762,3.6.264,7.028-1.2,10.459-2.029.668-.162.385-1.193-.284-1.03" transform="translate(-29.969 -54.517)"/>
        <path id="Trazado_823270" data-name="Trazado 823270" d="M83.147,147.917a43.5,43.5,0,0,0-4.62,15.674,38.721,38.721,0,0,0-.35,4.382.534.534,0,0,0,1.068,0,36.7,36.7,0,0,1,.287-3.8q.2-1.937.546-3.855a43.4,43.4,0,0,1,2.1-7.712,35.048,35.048,0,0,1,1.893-4.147c.325-.605-.6-1.146-.922-.539" transform="translate(-36.427 -68.798)"/>
        <path id="Trazado_823271" data-name="Trazado 823271" d="M119.946,114.38a25.108,25.108,0,0,0,.442,10.625,23.3,23.3,0,0,0,2.1,4.959,13.549,13.549,0,0,1,1.821,5.089,46.1,46.1,0,0,1-.1,5.519,21.119,21.119,0,0,0,.689,5.457c.845,3.5,2.15,6.905,2.631,10.492.217,1.62.252,3.262.4,4.889a15.418,15.418,0,0,0,.9,4.632,4.951,4.951,0,0,0,2.822,2.785,2.66,2.66,0,0,0,3.368-1.5c.339-1.23-.379-2.551-.817-3.661a23.273,23.273,0,0,1-1.007-4.558,50.089,50.089,0,0,1-.7-5.3,12.577,12.577,0,0,1,.834-4.892,24.885,24.885,0,0,0,1.321-4.967,46.891,46.891,0,0,0,.113-5.76,25.554,25.554,0,0,1,.114-2.779c.1-.974.315-1.929.386-2.908.134-1.847-.023-3.695-.07-5.542a27.066,27.066,0,0,1,.058-2.785c.054-.685-1.015-.681-1.068,0a49.717,49.717,0,0,0,.045,5.485c.029.905.036,1.812-.023,2.716-.061.938-.253,1.852-.366,2.783-.438,3.606.322,7.278-.673,10.825-.44,1.568-1.088,3.073-1.459,4.662a10.778,10.778,0,0,0-.307,2.473,21.92,21.92,0,0,0,.206,2.542c.213,1.767.52,3.519.842,5.269a20.592,20.592,0,0,0,.433,2.187c.179.6.436,1.168.665,1.747.342.867.953,2.216-.1,2.8-1.18.654-2.406-.176-3.112-1.132a8.206,8.206,0,0,1-1.205-3.9c-.2-1.565-.265-3.142-.39-4.714a53.384,53.384,0,0,0-2.281-10.152,30.344,30.344,0,0,1-1.117-5.142,41.445,41.445,0,0,1,.093-5.358,12.951,12.951,0,0,0-.8-5.323c-.656-1.619-1.606-3.092-2.328-4.679a21.552,21.552,0,0,1-1.606-10.124,23.856,23.856,0,0,1,.281-2.472.55.55,0,0,0-.373-.657.538.538,0,0,0-.657.373" transform="translate(-55.719 -53.114)"/>
        <path id="Trazado_823272" data-name="Trazado 823272" d="M146.887,149.007c1.452.453,2.867,1.016,4.325,1.452a11.774,11.774,0,0,0,4.586.661c2.819-.318,4.463-2.758,5.742-5.037a27.167,27.167,0,0,1,2.181-3.647.551.551,0,0,0,0-.755.538.538,0,0,0-.756,0c-1.568,1.983-2.384,4.459-4,6.405a5.231,5.231,0,0,1-2.817,1.9,8.942,8.942,0,0,1-4.253-.444c-1.6-.451-3.138-1.073-4.722-1.567-.658-.2-.939.826-.284,1.03" transform="translate(-68.268 -65.944)"/>
        <path id="Trazado_823273" data-name="Trazado 823273" d="M170.376,69.445a22.689,22.689,0,0,0,1.676,4.691,31.009,31.009,0,0,1,1.746,5.091,30.01,30.01,0,0,1,.354,12.273c-.381,2.023-.923,4.011-1.343,6.026a50.662,50.662,0,0,0-.85,6.4c-.167,2.154-.275,4.315-.517,6.463-.221,1.958-.65,3.868-1.031,5.8a80.44,80.44,0,0,0-1.519,11.354,37.248,37.248,0,0,0,.922,11.245,15.258,15.258,0,0,0,.7,2.186c.248.579.53,1.143.775,1.723a5.224,5.224,0,0,1,.528,1.8.934.934,0,0,1-.017.255c-.031.132-.03.117-.064.145a1.946,1.946,0,0,1-.492.26,6.032,6.032,0,0,1-1.813.307,4.4,4.4,0,0,1-.723-.027c-.244-.035-.4-.045-.538-.222a1.893,1.893,0,0,1-.181-.881,1.7,1.7,0,0,0-.448-1,2.057,2.057,0,0,0-.926-.438,2.516,2.516,0,0,1-.416-.117c-.019-.009-.1-.059-.068-.028.079.08-.037-.185-.04-.2a2.922,2.922,0,0,1,.177-1.173,3.643,3.643,0,0,0,.153-1.274,6.441,6.441,0,0,0-.966-2.277c-.92-1.737-.291-3.635-.191-5.481a35.258,35.258,0,0,0-.362-6.36c-.277-2.142-.655-4.267-1.029-6.393-.177-1-.351-2.009-.512-3.015a.539.539,0,0,0-.657-.373.547.547,0,0,0-.373.657c.693,4.334,1.667,8.646,1.855,13.044a20.991,20.991,0,0,1-.047,3.126,18.484,18.484,0,0,0-.246,3.054,5.809,5.809,0,0,0,.806,2.582,2.952,2.952,0,0,1,.582,2.259c-.186.771-.546,1.847.057,2.538a1.594,1.594,0,0,0,.821.419c.24.065.574.084.7.323a3.406,3.406,0,0,1,.158.972,1.568,1.568,0,0,0,.687,1.044,2.965,2.965,0,0,0,1.551.316,7.493,7.493,0,0,0,2-.265,2.32,2.32,0,0,0,1.4-.835,2.268,2.268,0,0,0,.11-1.7,11.652,11.652,0,0,0-.783-2.075,16.945,16.945,0,0,1-.7-1.611,24.793,24.793,0,0,1-.713-2.642,32.815,32.815,0,0,1-.669-5.713,60.076,60.076,0,0,1,.907-11.821c.3-1.849.663-3.688,1.053-5.52a49.318,49.318,0,0,0,.866-6.459c.171-2.2.279-4.407.533-6.6a56.5,56.5,0,0,1,1.236-6.437,39.607,39.607,0,0,0,1.108-6.331,33.173,33.173,0,0,0-.211-6.258,27.578,27.578,0,0,0-1.426-6.2c-.244-.66-.6-1.509-.915-2.251-.342-.8-.687-1.6-.995-2.42a13.093,13.093,0,0,1-.666-2.232c-.124-.675-1.154-.389-1.03.284" transform="translate(-75.636 -32.046)"/>
        <path id="Trazado_823274" data-name="Trazado 823274" d="M138.343,36.152a23.647,23.647,0,0,0,2.323-4.229,10.9,10.9,0,0,1,2.347-3.623,5.436,5.436,0,0,1,4.383-1.057,4.848,4.848,0,0,1,2.526,1.077,8.777,8.777,0,0,1,1.756,2.145c1.293,2.088,2.227,4.554,4.332,5.986a.54.54,0,0,0,.731-.192c.715-1.2,1.673-2.278,3.086-2.313a17.116,17.116,0,0,1,4.3.882l-.373-.373a4.626,4.626,0,0,1,.117,3.025,5.425,5.425,0,0,1-1.537,2.341,6.023,6.023,0,0,1-5.213,1.56.539.539,0,0,0-.657.657,25.463,25.463,0,0,1,1.176,5.774,19.61,19.61,0,0,1-.168,6.055,5.546,5.546,0,0,1-1.119,2.488,8.614,8.614,0,0,1-2.035,1.571c-.427.267-.865.527-1.268.83a6.573,6.573,0,0,0-1.264,1.3,14.592,14.592,0,0,1-1.921,2.469,2.513,2.513,0,0,1-1.361.605,7.264,7.264,0,0,0-1.8.253c-1.021.382-1.824,1.163-2.9,1.407-1.623.368-3.677.4-4.982-.8a3.735,3.735,0,0,1-1.2-2.754,6.733,6.733,0,0,1,.9-2.617,8.484,8.484,0,0,0,.89-3.314,21.659,21.659,0,0,0-.384-4.12c-.189-1.269-.336-2.543-.629-3.794a6.366,6.366,0,0,0-.643-1.759c-.281-.488-.643-.924-.927-1.411a4.953,4.953,0,0,1-.48-2.662,5.808,5.808,0,0,1,.518-2.479,1.516,1.516,0,0,1,.6-.671c.6-.331.065-1.253-.539-.922a3.254,3.254,0,0,0-1.385,2.137,9.123,9.123,0,0,0-.236,2.935,5.753,5.753,0,0,0,.26,1.463,6.746,6.746,0,0,0,.892,1.562,5.191,5.191,0,0,1,.8,1.64c.173.65.3,1.312.411,1.975.227,1.377.441,2.77.593,4.157a8.3,8.3,0,0,1-.317,3.933c-.372.958-.933,1.842-1.216,2.835a4.543,4.543,0,0,0,.4,3.376,5.266,5.266,0,0,0,5.1,2.568,7.209,7.209,0,0,0,3.112-.721c.494-.262.947-.595,1.45-.842a4.787,4.787,0,0,1,1.716-.307,4.191,4.191,0,0,0,2.927-1.8,13.953,13.953,0,0,1,2.176-2.731c.771-.6,1.671-1.031,2.457-1.617a5.882,5.882,0,0,0,1.852-2.16,13.616,13.616,0,0,0,.911-6.3,30.112,30.112,0,0,0-.939-6.514c-.116-.444-.247-.883-.4-1.317l-.657.657a7.112,7.112,0,0,0,8.147-4.947,5.567,5.567,0,0,0-.022-2.735,2.147,2.147,0,0,0-.274-.74,1.062,1.062,0,0,0-.645-.281c-.362-.091-.723-.187-1.084-.283a9.291,9.291,0,0,0-3.721-.492,5.133,5.133,0,0,0-3.421,2.788l.731-.192c-1.879-1.278-2.736-3.616-3.879-5.489a7.355,7.355,0,0,0-4.51-3.743,6.867,6.867,0,0,0-5.3.776,9.09,9.09,0,0,0-2.778,3.61,30.063,30.063,0,0,1-2.662,4.932.537.537,0,0,0,.192.731.547.547,0,0,0,.731-.192" transform="translate(-63.031 -12.159)"/>
        <path id="Trazado_823275" data-name="Trazado 823275" d="M128.65,42.344c-2.366-.169-4.6-1.408-7.005-1.218a7.144,7.144,0,0,0-2.521.752,11.009,11.009,0,0,0-2.307,1.449,3.51,3.51,0,0,0-1.323,1.864,2.289,2.289,0,0,0,.809,2.03,16.061,16.061,0,0,0,4.247,2.714,12.586,12.586,0,0,0,2.738,1.215,6.845,6.845,0,0,0,3.556-.329.534.534,0,0,0-.284-1.03,6.062,6.062,0,0,1-2.767.375,8.442,8.442,0,0,1-2.3-.949,23.83,23.83,0,0,1-3.848-2.236,5.363,5.363,0,0,1-.769-.716,1.387,1.387,0,0,1-.338-.589.917.917,0,0,1,.176-.675,3.477,3.477,0,0,1,.673-.759A9.263,9.263,0,0,1,119.4,42.93a6.51,6.51,0,0,1,2.048-.717,9.216,9.216,0,0,1,3.483.44,20.59,20.59,0,0,0,3.72.759c.686.049.683-1.02,0-1.068" transform="translate(-53.799 -19.153)"/>
        <path id="Trazado_823276" data-name="Trazado 823276" d="M180.657,45.817a6.6,6.6,0,0,1-6.547-.453l.191.731c1.218-2.721,3.809-5.782,7.135-4.817a.535.535,0,0,0,.284-1.03c-3.8-1.1-6.916,2.123-8.342,5.308a.557.557,0,0,0,.192.731,7.55,7.55,0,0,0,7.37.561.553.553,0,0,0,.373-.657.537.537,0,0,0-.657-.373" transform="translate(-80.756 -18.65)"/>
        <path id="Trazado_823277" data-name="Trazado 823277" d="M116.356,47.346a6.568,6.568,0,0,1,4.583-1.9,10.332,10.332,0,0,1,4.671,1.712.535.535,0,0,0,.539-.922,11.273,11.273,0,0,0-5.3-1.861,7.716,7.716,0,0,0-5.246,2.217c-.516.456.241,1.209.755.755" transform="translate(-53.784 -20.675)"/>
        <path id="Trazado_823278" data-name="Trazado 823278" d="M138.676,48.087a1.532,1.532,0,0,1,1.564.1,3.679,3.679,0,0,1,1.065,1.662,16,16,0,0,1,.661,2.4,5.533,5.533,0,0,0,.957,2.06c.444.635.948,1.226,1.384,1.868.082.12.161.242.232.369a1.234,1.234,0,0,1,.136.294c.017.05.074.148.017.049.032.056-.032.109.007,0-.023.064.05-.074-.02.029l-.038.058c-.089.13.033-.038-.032.04a19.252,19.252,0,0,1-1.51,1.463,4.05,4.05,0,0,0-.628.724A3.992,3.992,0,0,0,142,60.624a6.915,6.915,0,0,1-.876,3.089,4.433,4.433,0,0,1-.767.773c-.284.237-.831.522-.831.935a.534.534,0,0,0,1.068,0v-.005l-.156.378a8.712,8.712,0,0,0,1.609-1.541,6.418,6.418,0,0,0,.926-2.953,4.227,4.227,0,0,1,.4-1.525,1.2,1.2,0,0,1,.213-.268c.122-.134.252-.26.382-.385a11.63,11.63,0,0,0,1.585-1.593,1.446,1.446,0,0,0-.152-1.64c-.417-.688-.956-1.3-1.426-1.95a8.593,8.593,0,0,1-.671-1.052,3.813,3.813,0,0,1-.323-1.016,14.907,14.907,0,0,0-.72-2.505,4.443,4.443,0,0,0-1.528-2.137,2.675,2.675,0,0,0-2.592-.063.537.537,0,0,0-.192.731.548.548,0,0,0,.731.192" transform="translate(-64.244 -21.835)"/>
        <path id="Trazado_823279" data-name="Trazado 823279" d="M162.283,37.862c-3.948.471-4.911,5.2-5.7,8.378-.206.833-.408,1.669-.671,2.487a14.371,14.371,0,0,1-1.354,2.813,4.385,4.385,0,0,0-.8,3.025,6.971,6.971,0,0,0,.786,1.927,17.042,17.042,0,0,1,.869,2.075c.282.789.539,1.588.847,2.367a7.5,7.5,0,0,0,1.095,2.077,10.257,10.257,0,0,0,1.562,1.407A7.23,7.23,0,0,1,160.444,66c.383.566,1.308.032.922-.539a7.25,7.25,0,0,0-1.272-1.453c-.448-.386-.928-.731-1.368-1.125a4.307,4.307,0,0,1-1.059-1.379,19.2,19.2,0,0,1-.782-1.971c-.246-.7-.481-1.409-.754-2.1s-.614-1.36-.951-2.033a3.194,3.194,0,0,1-.405-1.538,2.885,2.885,0,0,1,.385-1.2,30.054,30.054,0,0,0,1.555-2.991,19.688,19.688,0,0,0,.681-2.26,37.74,37.74,0,0,1,1.508-5.217c.636-1.531,1.674-3.06,3.38-3.263a.551.551,0,0,0,.534-.534.537.537,0,0,0-.534-.534" transform="translate(-71.624 -17.64)"/>
        <path id="Trazado_823280" data-name="Trazado 823280" d="M140.791,83.888c.566.045,1.113.225,1.679.283a3.465,3.465,0,0,0,1.605-.292,17.927,17.927,0,0,1,2.945-1.026,1.9,1.9,0,0,1,1.813.553,8.169,8.169,0,0,1,1.788,2.457,5.738,5.738,0,0,1,.7,3.31.551.551,0,0,0,.373.657.538.538,0,0,0,.657-.373,8.119,8.119,0,0,0-2.307-6.346,3.618,3.618,0,0,0-2.4-1.379,4.339,4.339,0,0,0-1.314.186,12.226,12.226,0,0,0-1.642.545,6.431,6.431,0,0,1-1.826.649,12.542,12.542,0,0,1-2.078-.292c-.685-.054-.682,1.015,0,1.068" transform="translate(-65.363 -38.081)"/>
        <path id="Trazado_823281" data-name="Trazado 823281" d="M153.627,86.176a5.744,5.744,0,0,0-1.311,1.966,3.048,3.048,0,0,0,.079,2.358.538.538,0,0,0,.731.192.547.547,0,0,0,.192-.731,1.683,1.683,0,0,1-.14-.773c0-.02.015-.219.006-.144a2.188,2.188,0,0,1,.043-.227,3.082,3.082,0,0,1,.141-.445l.016-.036c.016-.036.033-.072.051-.108.035-.072.073-.143.112-.212.08-.14.167-.277.26-.409a5.691,5.691,0,0,1,.577-.676.534.534,0,1,0-.755-.755" transform="translate(-70.879 -40.082)"/>
        <path id="Trazado_823282" data-name="Trazado 823282" d="M141.581,90.021l.036.026c-.06-.044.008.007.019.017.044.036.087.072.129.11q.127.113.244.237t.225.257s.08.1.029.035.023.033.027.037c.034.046.067.092.1.139a4.975,4.975,0,0,1,.341.586c.025.05.049.1.072.151a.485.485,0,0,0,.03.068c-.064-.1-.02-.048,0-.009q.064.16.117.324a.534.534,0,1,0,1.03-.284A5.232,5.232,0,0,0,142.12,89.1a.536.536,0,0,0-.731.192.55.55,0,0,0,.192.731" transform="translate(-65.849 -41.48)"/>
        <path id="Trazado_823283" data-name="Trazado 823283" d="M89.885,63.93c-1.462,1.613-2.426,3.6-3.926,5.186A4.578,4.578,0,0,1,83.6,70.569a20.188,20.188,0,0,1-2.489.229,6.867,6.867,0,0,0-4.719,1.974,4.239,4.239,0,0,0-.624,4.189c.315.914.91,1.681,1.254,2.577a3.489,3.489,0,0,1,.176,2.151,11.027,11.027,0,0,1-.849,1.994,11.374,11.374,0,0,0-.924,2.529,3.239,3.239,0,0,0,.05,2.225A1.32,1.32,0,0,0,76.794,89c.555-.049,1.09-.215,1.641-.291a5.514,5.514,0,0,1,.7-.019,1.274,1.274,0,0,1,.673.266c.992.783.587,2.2.285,3.3-.358,1.3-.829,2.758-.224,4.063a3.014,3.014,0,0,0,3.592,1.593c1.267-.371,2.371-1.328,3.679-1.51,1.669-.233,2.545,1.369,3.878,2.021,1.791.877,3.709-.695,4.146-2.429a10.654,10.654,0,0,0,.184-2.632,6.544,6.544,0,0,1,.373-2.414,9.639,9.639,0,0,1,2.939-3.617,31.551,31.551,0,0,0,3.653-3.344,8.368,8.368,0,0,0,1.47-2.412,7.462,7.462,0,0,0,.394-2.924,19.084,19.084,0,0,1,0-3.183,8.958,8.958,0,0,1,.922-2.838c.485-.961,1.077-1.861,1.6-2.8.57-1.029,1.1-2.082,1.637-3.126.52-1,1.056-2,1.661-2.951.368-.583-.555-1.119-.922-.539-1.214,1.917-2.15,3.989-3.242,5.974-1.006,1.828-2.24,3.552-2.628,5.646A13.663,13.663,0,0,0,103.08,78a8.787,8.787,0,0,1-.159,2.778,8.829,8.829,0,0,1-2.954,4.046c-2.386,2.111-5.381,4.1-5.659,7.574-.122,1.538.347,3.512-.978,4.656a1.61,1.61,0,0,1-1.971.342c-.682-.4-1.221-1.007-1.877-1.447a3.524,3.524,0,0,0-2.206-.627,5.753,5.753,0,0,0-2.03.612c-.575.272-1.145.614-1.729.835a1.943,1.943,0,0,1-2.763-1.1,3.424,3.424,0,0,1,.009-1.741c.272-1.28.872-2.589.715-3.923a2.607,2.607,0,0,0-2.66-2.389,9.987,9.987,0,0,0-1.7.265,2.267,2.267,0,0,1-.587.061c-.108,0-.04,0-.034,0-.021,0-.187-.024-.028,0a.243.243,0,0,1-.091-.052c.122.137-.059-.1.041.037-.012-.017-.069-.137-.047-.082s-.021-.091-.026-.116c-.015-.073-.007,0-.012-.111,0-.091,0-.181,0-.272a5.912,5.912,0,0,1,.229-1.3,12.785,12.785,0,0,1,.921-2.265,8.573,8.573,0,0,0,.793-2.024,4.457,4.457,0,0,0-.174-2.372c-.531-1.511-1.782-2.828-1.536-4.524a3.521,3.521,0,0,1,2.725-2.652A11.3,11.3,0,0,1,82,71.8a8.685,8.685,0,0,0,2.458-.368c1.99-.715,3.27-2.679,4.4-4.355a20.979,20.979,0,0,1,1.782-2.4c.461-.508-.292-1.266-.755-.755" transform="translate(-35.064 -29.337)"/>
        <path id="Trazado_823284" data-name="Trazado 823284" d="M58.443,75.678a11.345,11.345,0,0,1,2.626-3.117,32.257,32.257,0,0,0,2.978-2.885.549.549,0,0,0,0-.755.539.539,0,0,0-.756,0,33.544,33.544,0,0,1-3.048,2.95,11.956,11.956,0,0,0-2.723,3.268c-.307.613.615,1.155.922.539" transform="translate(-26.773 -32.042)"/>
        <path id="Trazado_823285" data-name="Trazado 823285" d="M57.55,89.007a3.709,3.709,0,0,1,.889-.683,2.41,2.41,0,0,1,.431-.178c.081-.025.163-.045.246-.063.05-.011.1-.021.151-.029.084,0,.085-.009,0-.017.005.061-.088-.119-.058-.023.009.028.082.081.1.1.075.078.145.162.221.239a1.542,1.542,0,0,0,.771.459c.671.138,1.146-.339,1.516-.825a3.064,3.064,0,0,1,.41-.5c.085-.072.01-.024.089-.025a1.051,1.051,0,0,1,.395.05.486.486,0,0,1,.3.287,1.711,1.711,0,0,1,.119.6,7.358,7.358,0,0,1-.232,1.909c-.253,1.115-.847,2.215-.708,3.385a13.593,13.593,0,0,0,.714,2.412,23.59,23.59,0,0,1,.6,2.3,7.717,7.717,0,0,1,.214,2.177c0,.035-.006.07-.01.1-.01.085.025-.13,0,0-.012.061-.023.122-.04.183s-.074.19-.013.065c-.017.036-.119.2-.064.128s0,0-.013.009c-.064.065-.044,0,.025-.014a.308.308,0,0,0-.046.028c-.074.058.122-.028.027-.012a.446.446,0,0,0-.054.013l.084-.01c-.02,0-.041,0-.061,0l-.081,0s.1.033-.016-.007a1.476,1.476,0,0,1-.426-.189,3.207,3.207,0,0,1-.59-.424,3.139,3.139,0,0,1-.577-1.274,1.9,1.9,0,0,0-1.172-1.245,2.8,2.8,0,0,0-2.514.68c-.56.39-.027,1.316.539.922.5-.345,1.252-.941,1.86-.478a1.107,1.107,0,0,1,.234.347c.1.233.157.483.241.722a3.111,3.111,0,0,0,2.155,1.977c1.927.427,1.614-2.319,1.433-3.407a21.318,21.318,0,0,0-.6-2.524c-.226-.765-.578-1.515-.746-2.293a2.847,2.847,0,0,1,.1-1.5c.2-.672.435-1.329.577-2.018.221-1.076.552-2.7-.386-3.55a1.669,1.669,0,0,0-2.027-.162,4.222,4.222,0,0,0-.623.736c-.1.128-.291.377-.394.382-.159.009-.353-.277-.482-.41a.982.982,0,0,0-.841-.37,4.055,4.055,0,0,0-2.432,1.261.534.534,0,0,0,.755.755" transform="translate(-26.391 -40.248)"/>
        <path id="Trazado_823286" data-name="Trazado 823286" d="M126.755,105.549a7.135,7.135,0,0,0-3.051,3.546,15.9,15.9,0,0,0-1.33,5.367,11.9,11.9,0,0,0,.546,5.015c.562,1.5,2.117,3.768,3.865,2.328a6.6,6.6,0,0,0,1.516-2.189c.209-.414.413-.833.608-1.253.209-.449.352-.929.581-1.367a1.615,1.615,0,0,1,.93-.853c.471-.15,1,.174,1.455.27a2.429,2.429,0,0,0,2.5-1.124c.3-.63.085-1.37.206-1.982a1.274,1.274,0,0,1,.593-.937c.345-.164.749-.169,1.1-.352a2.279,2.279,0,0,0,.99-2.456,5.573,5.573,0,0,0-1.172-2.57,2.823,2.823,0,0,0-2.205-1.227,1.9,1.9,0,0,0-1.674.943c-.062.1-.025.046-.015.028-.039.075-.132.064-.012.029-.043.012.069-.012.1-.014-.128.007.05.032-.07-.006a2.135,2.135,0,0,1-.394-.2c-.232-.144-.449-.31-.669-.47a4.23,4.23,0,0,0-2.549-.983,4.866,4.866,0,0,0-1.845.456.537.537,0,0,0-.192.731.548.548,0,0,0,.731.192,2.811,2.811,0,0,1,2.62.059,8.073,8.073,0,0,0,2.079,1.26.962.962,0,0,0,.883-.223,1.776,1.776,0,0,0,.217-.264c.023-.033.046-.068.069-.1s.108-.153.068-.1.215-.193.121-.129a.6.6,0,0,1,.313-.127,1.2,1.2,0,0,1,.854.141,3.749,3.749,0,0,1,1.415,1.8,2.324,2.324,0,0,1,.131,1.985c-.205.33-.493.378-.848.464a2.015,2.015,0,0,0-1.118.648,3.156,3.156,0,0,0-.61,2.2c0,.149.006.3,0,.447q0,.04-.006.08c-.011.089.014-.073,0,.013-.006.027-.067.218-.033.143a1.177,1.177,0,0,1-.732.522,1.092,1.092,0,0,1-.508.1,5.313,5.313,0,0,1-.757-.217,2.232,2.232,0,0,0-1.58.045,3.515,3.515,0,0,0-1.72,2.231,19.039,19.039,0,0,1-1.121,2.3,5.653,5.653,0,0,1-.66.98,1.333,1.333,0,0,1-.664.479.468.468,0,0,1-.242-.019,1.131,1.131,0,0,1-.358-.214,4.018,4.018,0,0,1-.874-1.171,8.932,8.932,0,0,1-.833-4.217,15.486,15.486,0,0,1,.837-4.954,8.11,8.11,0,0,1,2.315-3.685,4.211,4.211,0,0,1,.746-.474c.615-.308.075-1.229-.539-.922" transform="translate(-56.997 -48.968)"/>
        <path id="Trazado_823287" data-name="Trazado 823287" d="M172.481,81.974c0-.051-.091.175-.1.206-.042.113-.085.226-.132.338-.1.233-.206.462-.324.685a8.162,8.162,0,0,1-.763,1.181c-.564.727-1.222,1.377-1.846,2.051a12.361,12.361,0,0,0-1.735,2.241,7.416,7.416,0,0,0-.865,2.51c-.134.842-.172,1.7-.3,2.539a3.946,3.946,0,0,1-.178.825c.052-.135-.038.069-.064.114-.05.091-.1.179-.161.265a23.076,23.076,0,0,1-1.946,2.354,17.049,17.049,0,0,0-2.1,2.748,2.362,2.362,0,0,0-.23,2.5,2.232,2.232,0,0,0,2.734.61,10.17,10.17,0,0,0,2.352-1.868,4.895,4.895,0,0,1,1.149-.8,1.667,1.667,0,0,1,1.11-.12c1.268.331,1.543,1.922,2.739,2.444a2.548,2.548,0,0,0,1.351.183.548.548,0,0,0,.534-.534v-.005a.534.534,0,0,0-1.068,0v.005l.534-.534a1.642,1.642,0,0,1-1.692-.811,4.524,4.524,0,0,0-1.361-1.465,2.884,2.884,0,0,0-3.029.1,21.787,21.787,0,0,0-2.341,1.969,4.151,4.151,0,0,1-.475.335,1.573,1.573,0,0,1-.468.218c-.046.013-.294.056-.189.046a1.688,1.688,0,0,1-.289,0c.093.008-.154-.037-.2-.051a.977.977,0,0,1-.282-.132.632.632,0,0,1-.236-.209c-.019-.033-.037-.066-.054-.1.062.124.008.02,0-.013s-.018-.074-.026-.111c.032.149,0-.012,0-.051s0-.081,0-.121c0-.138-.025.114,0-.026a2.459,2.459,0,0,1,.063-.262,2.18,2.18,0,0,1,.227-.531,14.182,14.182,0,0,1,1.927-2.575c.7-.8,1.429-1.581,2.044-2.447a3.323,3.323,0,0,0,.525-.994,15.137,15.137,0,0,0,.339-2.488,7.666,7.666,0,0,1,.657-2.617,10.53,10.53,0,0,1,1.831-2.461,27.591,27.591,0,0,0,2.028-2.3,8.315,8.315,0,0,0,.809-1.329c.124-.257.237-.521.342-.787a2.158,2.158,0,0,0,.228-.716.534.534,0,0,0-1.068,0" transform="translate(-75.232 -37.955)"/>
      </g>
    </g>
  </g>
</svg>
