<svg xmlns="http://www.w3.org/2000/svg" xmlns:xlink="http://www.w3.org/1999/xlink" width="203" height="189" viewBox="0 0 203 189">
  <defs>
    <clipPath id="clip-path">
      <rect id="Rect치ngulo_379403" data-name="Rect치ngulo 379403" width="148.002" height="124.418" fill="none"/>
    </clipPath>
  </defs>
  <g id="Grupo_1077192" data-name="Grupo 1077192" transform="translate(-697 -2133)">
    <g id="Grupo_1077123" data-name="Grupo 1077123" transform="translate(0 91)">
      <g id="Grupo_161157" data-name="Grupo 161157" transform="translate(711 2042)">
        <circle id="Elipse_1146" data-name="Elipse 1146" cx="94.5" cy="94.5" r="94.5" fill="#e8e8e8"/>
      </g>
      <rect id="Rect치ngulo_379367" data-name="Rect치ngulo 379367" width="16" height="5" transform="translate(697 2134)" fill="#e8e8e8"/>
    </g>
    <g id="Grupo_1077128" data-name="Grupo 1077128" transform="translate(725.999 2160.582)">
      <g id="Grupo_1077063" data-name="Grupo 1077063" clip-path="url(#clip-path)">
        <path id="Trazado_823208" data-name="Trazado 823208" d="M155.905,60.861A59.861,59.861,0,1,1,96.044,1a59.861,59.861,0,0,1,59.861,59.861" transform="translate(-16.659 -0.46)" fill="#65add7"/>
        <path id="Trazado_823209" data-name="Trazado 823209" d="M95.583,120.8a60.4,60.4,0,1,1,60.4-60.4,60.469,60.469,0,0,1-60.4,60.4m0-119.722A59.322,59.322,0,1,0,154.9,60.4,59.389,59.389,0,0,0,95.583,1.079" transform="translate(-16.198)" fill="#020202"/>
        <path id="Trazado_823210" data-name="Trazado 823210" d="M153.821,191.41c0,7.788-30.506,14.1-68.138,14.1s-68.139-6.313-68.139-14.1,30.507-14.1,68.139-14.1,68.138,6.313,68.138,14.1" transform="translate(-8.077 -81.633)" fill="#039314"/>
        <path id="Trazado_823211" data-name="Trazado 823211" d="M85.222,205.59c-38.511,0-68.678-6.431-68.678-14.641s30.167-14.64,68.678-14.64,68.678,6.431,68.678,14.64S123.733,205.59,85.222,205.59m0-28.2c-40.436,0-67.6,7.012-67.6,13.561s27.162,13.562,67.6,13.562,67.6-7.012,67.6-13.562-27.162-13.561-67.6-13.561" transform="translate(-7.617 -81.172)" fill="#020202"/>
        <path id="Trazado_823212" data-name="Trazado 823212" d="M59.972,96.4a4,4,0,0,0-1.291.869,3.438,3.438,0,0,0-.824,1.412.545.545,0,0,0,.377.664.551.551,0,0,0,.664-.377c.017-.055.035-.11.054-.165.01-.027.02-.053.03-.08.036-.1-.051.112-.011.024a3.264,3.264,0,0,1,.152-.3c.056-.094.12-.182.183-.271-.105.15,0,0,.036-.038s.079-.087.121-.13a3.059,3.059,0,0,1,.244-.221c.016-.013.1-.078.022-.018s.006,0,.023-.016c.046-.033.092-.065.139-.1a4.178,4.178,0,0,1,.626-.331.54.54,0,0,0,.248-.323.55.55,0,0,0-.054-.415.542.542,0,0,0-.322-.248.632.632,0,0,0-.416.055" transform="translate(-26.628 -44.349)"/>
        <path id="Trazado_823213" data-name="Trazado 823213" d="M49.747,99.886c2.62-.684,6.365-2.962,4.978-6.179a5.76,5.76,0,0,0-2.495-2.56,10.852,10.852,0,0,0-3.87-1.314,8.186,8.186,0,0,0-4.3.363l.416.054a14.8,14.8,0,0,1-3.432-3.327,11.006,11.006,0,0,0-3.493-2.87c-2.509-1.2-5.583-1.621-8.045-.067a16.435,16.435,0,0,0-3.059,3.074,12.271,12.271,0,0,0-2.852,3.882c-.516,1.452-.03,3.054-.281,4.547a7.329,7.329,0,0,0-.147,2.091,7.045,7.045,0,0,0,.51,1.759,9.978,9.978,0,0,1,.689,2.342,13.19,13.19,0,0,1,.062,2.238c-.028.8-.069,1.6-.038,2.4a14.887,14.887,0,0,0,.39,2.51,3.357,3.357,0,0,1-.157,2.226c-.336.717-.818,1.355-1.134,2.083a6.627,6.627,0,0,0-.477,2.123,4.3,4.3,0,0,0,.151,1.626c.651,2.032,3.054,2.471,4.85,2.955,1.592.429,3.25,1.189,4.931.809a3.149,3.149,0,0,0,1.843-1.183,4.987,4.987,0,0,0,.615-1.556,3.245,3.245,0,0,1,1.035-1.6,16.982,16.982,0,0,1,1.588-1.066,5.913,5.913,0,0,0,1.552-1.427A9.823,9.823,0,0,0,40.69,111.6a18.352,18.352,0,0,0,.791-2.449,15.845,15.845,0,0,0,.33-2.62c.051-.853.079-1.711.214-2.556a13.446,13.446,0,0,1,.694-2.477c.292-.8.6-1.6.833-2.424l-.664.377c2.278.542,4.539,1.053,6.859.437a.54.54,0,0,0-.287-1.041c-2.127.564-4.2.059-6.285-.437a.55.55,0,0,0-.664.377c-.283,1.023-.7,2-1.038,3.005a13.193,13.193,0,0,0-.641,3.164c-.088,1.037-.087,2.084-.241,3.115a15.223,15.223,0,0,1-.836,2.962,7.22,7.22,0,0,1-1.379,2.55A11.167,11.167,0,0,1,36.411,115a4.748,4.748,0,0,0-1.743,1.823c-.3.618-.354,1.352-.706,1.939a2.35,2.35,0,0,1-2.215.9,13.51,13.51,0,0,1-3-.735,14.452,14.452,0,0,1-3.67-1.251,2.144,2.144,0,0,1-.819-.909A3.436,3.436,0,0,1,24.115,115a5.678,5.678,0,0,1,.277-1.242,7.906,7.906,0,0,1,.67-1.27,5.1,5.1,0,0,0,.926-2.72c-.028-1.011-.418-1.965-.493-2.968a27.3,27.3,0,0,1,.012-2.934,12.878,12.878,0,0,0-.161-2.823,21.086,21.086,0,0,0-.912-2.743,4.331,4.331,0,0,1-.166-1.992c.062-.48.167-.95.194-1.434s.006-.982-.008-1.472a4.93,4.93,0,0,1,.41-2.666,12.592,12.592,0,0,1,1.764-2.284c.621-.684,1.267-1.347,1.842-2.07a6.307,6.307,0,0,1,1.9-1.654,6.457,6.457,0,0,1,4.577-.47A9.222,9.222,0,0,1,39.6,86.937c1.326,1.4,2.421,3.036,4.073,4.091a.813.813,0,0,0,.7.2c.143-.043.281-.11.425-.155a5.855,5.855,0,0,1,.926-.212,8.449,8.449,0,0,1,1.995-.023,9.854,9.854,0,0,1,3.963,1.245,4.3,4.3,0,0,1,2.21,2.536c.345,1.509-1.034,2.644-2.2,3.3a9.344,9.344,0,0,1-2.24.926.54.54,0,0,0,.287,1.041" transform="translate(-10.586 -38.203)"/>
        <path id="Trazado_823214" data-name="Trazado 823214" d="M12.974,97.964a6.479,6.479,0,0,1-3.442.748,7.6,7.6,0,0,1-3.287-.8,14.522,14.522,0,0,1-3.905-3.2A5.109,5.109,0,0,1,1.1,92.678a1.173,1.173,0,0,1-.04-.4.935.935,0,0,1,.007-.1c-.012.1,0,.01,0-.009.009-.037.078-.24.043-.162a1.627,1.627,0,0,1,.611-.676,6.947,6.947,0,0,1,2.494-.963A9.048,9.048,0,0,1,6.8,90.152l.146.013a.274.274,0,0,1,.074.01c.081.013.163.029.243.05a2.857,2.857,0,0,1,.773.34,16.623,16.623,0,0,1,1.57,1.272,9.3,9.3,0,0,0,4.25,1.63c.678.131.969-.909.287-1.041a8.246,8.246,0,0,1-3.975-1.516A6.2,6.2,0,0,0,7.2,89.119a9.139,9.139,0,0,0-2.957.145,8.565,8.565,0,0,0-2.87,1.008c-4,2.434,1.79,7.05,4.016,8.395a8.464,8.464,0,0,0,3.732,1.1,7.693,7.693,0,0,0,4.394-.873.54.54,0,0,0-.544-.932" transform="translate(0 -41)"/>
        <path id="Trazado_823215" data-name="Trazado 823215" d="M47.9,113.189c-.754.516-1.543.982-2.281,1.522a4.41,4.41,0,0,0-1.222,1.317c-.295.481-.547.987-.846,1.466a2.524,2.524,0,0,1-.928.994,1.791,1.791,0,0,1-1.2.013,1.663,1.663,0,0,1-.8-.6,4.614,4.614,0,0,1-.767-2.353,6.735,6.735,0,0,1,.264-2.642,28.525,28.525,0,0,1,1.664-2.874,8.707,8.707,0,0,0,.52-4.1,3.084,3.084,0,0,1,.466-1.762,8.564,8.564,0,0,1,1.41-1.611,12.783,12.783,0,0,0,3.262-3.916c.765-1.713,1.039-3.629,2.185-5.158a.543.543,0,0,0-.194-.738.552.552,0,0,0-.738.194c-1.081,1.442-1.4,3.207-2.055,4.849a7.132,7.132,0,0,1-1.2,2.03,19.857,19.857,0,0,1-1.657,1.631c-1.081,1-2.3,2.152-2.513,3.68-.2,1.413.229,2.844-.353,4.212-.472,1.109-1.374,1.979-1.787,3.121a7.461,7.461,0,0,0-.37,2.885c.1,1.892.95,4.321,3.217,4.321a2.451,2.451,0,0,0,1.721-.631,6.638,6.638,0,0,0,1.191-1.7,5.494,5.494,0,0,1,.976-1.463,23.929,23.929,0,0,1,2.576-1.75c.57-.39.031-1.326-.544-.932" transform="translate(-17.839 -42.665)"/>
        <path id="Trazado_823216" data-name="Trazado 823216" d="M32.381,145.608a8.013,8.013,0,0,0,.5-3.169,6.974,6.974,0,0,1,.124-1.263,2.525,2.525,0,0,0,.041-1.1c-.225-.887-1.221-1.325-2.033-1.509a13.587,13.587,0,0,0-3.037-.182,4.993,4.993,0,0,1-1.556-.156,15.045,15.045,0,0,0-1.6-.575c-.678-.135-.968.9-.287,1.041a7.356,7.356,0,0,1,1.243.445,4.355,4.355,0,0,0,1.361.306c.883.052,1.768-.016,2.652.038a5.365,5.365,0,0,1,1.233.2,1.789,1.789,0,0,1,.912.508.728.728,0,0,1,.055.585,9.829,9.829,0,0,0-.173,1.106,9.19,9.19,0,0,1-.364,3.179.558.558,0,0,0,.194.738.544.544,0,0,0,.738-.194" transform="translate(-11.115 -63.37)"/>
        <path id="Trazado_823217" data-name="Trazado 823217" d="M34.722,143.616a8.474,8.474,0,0,0-.852,1.123,1.823,1.823,0,0,0-.233,1.5.54.54,0,1,0,1.04-.287,1.458,1.458,0,0,1-.041-.141c-.018-.074,0,.049.006.058a.224.224,0,0,1,0-.071,1.265,1.265,0,0,1,0-.128c.006-.093-.021.109-.005.043,0-.019.007-.038.011-.057a1.477,1.477,0,0,1,.041-.142c.006-.019.013-.038.02-.057.032-.085.009,0-.013.03a.784.784,0,0,0,.062-.126c.024-.047.051-.093.078-.138.05-.083.1-.164.161-.243.029-.04.058-.079.087-.118.068-.091-.057.071-.015.019l.05-.063c.12-.15.246-.3.367-.445a.581.581,0,0,0,.158-.382.54.54,0,0,0-.921-.381" transform="translate(-15.45 -66.049)"/>
        <path id="Trazado_823218" data-name="Trazado 823218" d="M80.878,104.865c4.491.494,9.022.091,13.521.479,4.456.384,8.857,1.262,13.325,1.53,2.238.135,4.479.168,6.717.324,2.255.158,4.509.34,6.769.4s4.508.035,6.762.134c2.276.1,4.55.271,6.813.539,2.2.26,4.368.712,6.56,1.031a17.592,17.592,0,0,0,3.316.22c1.093-.049,2.172-.258,3.26-.359a7.372,7.372,0,0,1,3.23.282,8.1,8.1,0,0,1,2.338,1.449c.706.584,1.379,1.2,2.113,1.752a30.04,30.04,0,0,0,2.616,1.715c1.729,1.031,3.465,2.076,5.29,2.93,1.875.878,3.813,1.611,5.725,2.4.976.4,1.944.827,2.891,1.293.215.106.428.213.641.324.186.1.416.15.59.241-.233-.122.061.1.125.139.1.058.207.116.31.175.251.145.5.292.745.447a10.845,10.845,0,0,1,3.611,3.82q.168.3.32.6c.021.042.18.308.1.139s.025.092.042.143c.174.533.45,1.036.626,1.572a17.9,17.9,0,0,1,.673,2.864,9.033,9.033,0,0,1-1.384,5.795,27.187,27.187,0,0,1-3.689,5.063,11.835,11.835,0,0,1-.96.93c-.2.168-.4.329-.6.48a5.246,5.246,0,0,0-.623.415c-.265.264.061.038-.093.106-.086.038-.186.06-.275.106-.229.115-.451.241-.686.347a7.765,7.765,0,0,1-1.518.493c-.968.214-1.959.3-2.924.537-.675.163-.389,1.2.287,1.04,1.021-.248,2.072-.331,3.094-.575a8.788,8.788,0,0,0,1.448-.494,3.912,3.912,0,0,0,.621-.295c.191-.128.132-.144.031-.09.121-.065.286-.083.418-.158a14.96,14.96,0,0,0,4.3-4.232,20.453,20.453,0,0,0,3.2-5.491,8.738,8.738,0,0,0,.534-2.928,14.035,14.035,0,0,0-.462-2.993,13.588,13.588,0,0,0-.456-1.544q-.118-.333-.253-.659c-.04-.1-.081-.195-.122-.291,0-.007-.258-.486-.144-.213a11.405,11.405,0,0,0-1.292-2.352A12.944,12.944,0,0,0,174.1,120.8c-.2-.11-.4-.2-.6-.31l-.144-.019c.134.007.144-.011.029-.052-.1-.058-.212-.111-.319-.165-.505-.257-1.017-.5-1.534-.735-.965-.437-1.944-.841-2.926-1.239-2-.81-4.008-1.593-5.919-2.594-1.841-.964-3.674-2.037-5.41-3.179a23.292,23.292,0,0,1-2.432-1.868,14.886,14.886,0,0,0-2.22-1.68c-1.964-1.14-4.061-.969-6.229-.692a16.909,16.909,0,0,1-3.381.148,30.908,30.908,0,0,1-3.387-.5,87.7,87.7,0,0,0-13.73-1.336c-2.342-.059-4.681-.032-7.021-.165-2.32-.132-4.635-.337-6.956-.46-2.348-.124-4.689-.158-7.03-.406-2.22-.236-4.429-.57-6.643-.859a67.92,67.92,0,0,0-6.94-.6c-2.333-.064-4.669-.01-7-.079-1.147-.034-2.292-.1-3.433-.227-.69-.076-.684,1,0,1.079" transform="translate(-36.999 -47.781)"/>
        <path id="Trazado_823219" data-name="Trazado 823219" d="M207.808,127.375a10.021,10.021,0,0,1,5.946,2.818,3.311,3.311,0,0,1,.469,4.5c-1.309,1.7-3.529,2.477-5.47,3.193a24.124,24.124,0,0,0-5.332,2.377,5.071,5.071,0,0,0-2.488,4.367,9.774,9.774,0,0,0,1.074,3.682,23.143,23.143,0,0,0,2.434,4.012,21.892,21.892,0,0,0,2.976,3.4c1.086.97,2.262,1.836,3.327,2.83a11.252,11.252,0,0,1,1.411,1.54,4.362,4.362,0,0,1,.744,1.358.9.9,0,0,1,.049.435c-.006.106,0,.014,0-.007-.009.044-.019.086-.032.128-.008.025-.039.094.008-.009-.018.039-.039.075-.06.112-.066.119.033,0-.072.092-.023.02-.187.154-.094.088a1.822,1.822,0,0,1-.2.124c-.029.016-.058.03-.087.045l-.092.042c.042-.017.045-.019.009,0a7.306,7.306,0,0,1-2.4.374c-.959.045-1.92.037-2.873.162a8.939,8.939,0,0,0-3.475,1.155A9.118,9.118,0,0,0,201,166.62a14.1,14.1,0,0,0-1.107,1.762.556.556,0,0,0,.084.654,6.561,6.561,0,0,0,3.429,1.7,11.417,11.417,0,0,0,4.223.141,10.593,10.593,0,0,0,3.825-1.788,8.063,8.063,0,0,1,2.166-.993,29.905,29.905,0,0,1,2.99-.572,40.114,40.114,0,0,0,5.143-1.069,8.36,8.36,0,0,0,3.478-1.7,2.632,2.632,0,0,0,.849-1.668,5.059,5.059,0,0,0-.865-2.684c-.461-.846-.909-1.7-1.434-2.508-.544-.837-1.129-1.65-1.611-2.526a9.261,9.261,0,0,1-1.053-5.337c.187-1.715,1.664-2.768,2.5-4.163a.54.54,0,0,0-.931-.545c-.752,1.254-1.946,2.193-2.428,3.61a8.921,8.921,0,0,0,.083,4.712,15.99,15.99,0,0,0,2.543,4.847c.489.757.9,1.554,1.338,2.341.366.663.956,1.579.751,2.376-.275,1.064-1.688,1.595-2.608,1.918a26.562,26.562,0,0,1-4.4,1.095c-.944.159-1.892.293-2.835.459a13.005,13.005,0,0,0-2.638.657c-1.421.576-2.576,1.664-4,2.207a8.359,8.359,0,0,1-4.046.284,6.244,6.244,0,0,1-3.7-1.553l.084.654a10.862,10.862,0,0,1,2.321-3.083,7.109,7.109,0,0,1,3.019-1.545c1.931-.477,3.951-.137,5.885-.584a2.5,2.5,0,0,0,1.82-1.2,2.887,2.887,0,0,0-.613-2.71c-1.685-2.484-4.432-3.917-6.4-6.14a27.781,27.781,0,0,1-2.8-3.8,15.4,15.4,0,0,1-1.879-4.105,4.159,4.159,0,0,1,.063-2.6,4.339,4.339,0,0,1,1.4-1.729,19.322,19.322,0,0,1,5.217-2.431c2.091-.768,4.366-1.576,5.9-3.273a4.529,4.529,0,0,0,1.243-2.763,4.408,4.408,0,0,0-.786-2.639,9.754,9.754,0,0,0-5.573-3.66,13.421,13.421,0,0,0-1.841-.362.542.542,0,0,0-.54.54.554.554,0,0,0,.54.54" transform="translate(-92 -58.145)"/>
        <path id="Trazado_823220" data-name="Trazado 823220" d="M248.554,178.749h-.005a.528.528,0,0,0-.466.267,8.43,8.43,0,0,0-.569,1.634c-.111.54-.156,1.091-.273,1.629a3.6,3.6,0,0,1-1.712,2.306c-.583.373-.042,1.308.545.931a4.731,4.731,0,0,0,2.113-2.578,13.623,13.623,0,0,0,.306-1.667,7.3,7.3,0,0,1,.521-1.711l-.466.267h.005a.54.54,0,0,0,0-1.079" transform="translate(-112.926 -82.296)"/>
        <path id="Trazado_823221" data-name="Trazado 823221" d="M197.119,193.026c-1.605-.348-3.189-.779-4.814-1.032a34.327,34.327,0,0,0-5.042-.442,18.415,18.415,0,0,0-4.118.328,16.71,16.71,0,0,0-2.7.875,11.752,11.752,0,0,0-2.908,1.619c-.9.718-1.733,1.909-1.18,3.091a2.437,2.437,0,0,0,1.957,1.128,13.983,13.983,0,0,0,2.882.061c.473-.026.945-.063,1.418-.085a14.023,14.023,0,0,1,1.452.044,50.514,50.514,0,0,0,5.883-.193c.69-.043.695-1.122,0-1.079-1.625.1-3.251.24-4.881.224-.966-.01-1.911-.111-2.876-.052-.867.053-1.734.119-2.6.1a4.129,4.129,0,0,1-2.07-.405c-.011-.006-.167-.168-.168-.169a.6.6,0,0,1-.044-.08c.044.091.01.024,0,0a1.012,1.012,0,0,1-.025-.5,2.128,2.128,0,0,1,.756-1.105,9.184,9.184,0,0,1,2.542-1.5,16.922,16.922,0,0,1,2.566-.87,15.022,15.022,0,0,1,3.336-.351,31.186,31.186,0,0,1,5.277.36c1.713.256,3.378.705,5.068,1.071.677.146.966-.894.287-1.041" transform="translate(-81.113 -88.189)"/>
        <path id="Trazado_823222" data-name="Trazado 823222" d="M245.447,135.8a9.044,9.044,0,0,1,4.768,1.608A13.235,13.235,0,0,1,254,141.183a11.831,11.831,0,0,1,1.892,4.931,17.534,17.534,0,0,1-.325,6.138,28.042,28.042,0,0,1-2.02,5.879c-.375.8-.782,1.583-1.092,2.416-.3.8-.537,1.626-.763,2.451-.824,3.007-1.463,6.566-4.194,8.477a18.947,18.947,0,0,1-4.356,2.148,32.554,32.554,0,0,1-4.787,1.368q-.5.1-1.007.179l.683.52a3.538,3.538,0,0,1,.969-2.5,8.5,8.5,0,0,1,2.472-1.7c1.938-.972,4.1-1.594,5.874-2.877a7.945,7.945,0,0,0,2.479-3.135,23.331,23.331,0,0,0,1.334-4.628,46.411,46.411,0,0,1,1.682-5.1,34.577,34.577,0,0,0,1.569-5.376,12.311,12.311,0,0,0-.075-6.023,8.564,8.564,0,0,0-2.762-3.685l.158.381v-.005a.54.54,0,0,0-1.079,0c0,.369.411.6.656.826s.485.455.711.7a6.135,6.135,0,0,1,1.091,1.6,9.333,9.333,0,0,1,.408,4.988,27.116,27.116,0,0,1-1.39,5.387c-.6,1.727-1.33,3.424-1.8,5.192-.732,2.734-1,6.018-3.432,7.88-1.666,1.273-3.872,1.92-5.773,2.849a9.54,9.54,0,0,0-2.926,2.008,4.653,4.653,0,0,0-1.243,3.215.549.549,0,0,0,.683.52,29.141,29.141,0,0,0,4.72-1.173,24.9,24.9,0,0,0,4.908-2.131,8.783,8.783,0,0,0,3.358-3.4,22.835,22.835,0,0,0,1.794-5.042,25.8,25.8,0,0,1,1.646-4.926,31.156,31.156,0,0,0,2.312-6.025c1.038-3.974,1.146-8.355-.919-12.024-1.8-3.2-5-6.009-8.694-6.638a7.9,7.9,0,0,0-1.309-.134.54.54,0,0,0,0,1.079" transform="translate(-109.09 -62.024)"/>
        <path id="Trazado_823223" data-name="Trazado 823223" d="M104.9,193.777c5.145.262,10.249.848,15.346,1.585,2.55.37,5.1.75,7.65,1.089,1.265.168,2.533.326,3.8.467s2.539.3,3.811.345c2.826.1,5.625-.458,8.448-.476a.54.54,0,0,0,0-1.079c-2.5.016-4.98.452-7.483.485a32.553,32.553,0,0,1-3.787-.248q-1.908-.2-3.81-.445c-5.1-.655-10.173-1.527-15.284-2.1q-4.334-.484-8.692-.705c-.694-.036-.692,1.044,0,1.079" transform="translate(-48.059 -88.718)"/>
        <path id="Trazado_823224" data-name="Trazado 823224" d="M65.5,195.924c1.7.6,3.524-.371,5.071-1a16.3,16.3,0,0,1,5.67-1.224c1.218-.037,2.437.035,3.654.085.694.029.693-1.051,0-1.079a24.257,24.257,0,0,0-7.674.508,35.09,35.09,0,0,0-3.306,1.238,4.6,4.6,0,0,1-3.127.432c-.656-.231-.938.811-.287,1.041" transform="translate(-29.985 -88.688)"/>
        <path id="Trazado_823225" data-name="Trazado 823225" d="M104.007,167.3a5.039,5.039,0,0,0,2.779-1.762,8.045,8.045,0,0,0,1.23-2.757,39.022,39.022,0,0,0,.867-6.375c.215-2.21.546-4.429.962-6.61a27.978,27.978,0,0,1,2.093-6.884,13.063,13.063,0,0,1,5.165-5.825.54.54,0,0,0-.545-.932c-4.315,2.486-6.376,7.168-7.437,11.831-.533,2.341-.849,4.724-1.161,7.1-.262,2-.324,4.018-.678,6a10.6,10.6,0,0,1-1.015,3.258,4.094,4.094,0,0,1-.866,1.118,4.49,4.49,0,0,1-1.681.792c-.662.2-.38,1.244.287,1.041" transform="translate(-47.579 -62.653)"/>
        <path id="Trazado_823226" data-name="Trazado 823226" d="M69.2,158.046a10.786,10.786,0,0,1-1.6,3.568,11.466,11.466,0,0,1-2.784,2.7c-1.208.853-2.518,1.557-3.765,2.35a22.4,22.4,0,0,0-3.292,2.471,17.006,17.006,0,0,0-4.667,8.033,8.372,8.372,0,0,0-.385,4.221,3.493,3.493,0,0,0,1.961,2.259,10.375,10.375,0,0,0,4.085.734,30.866,30.866,0,0,0,5.154-.37c3.443-.49,6.845-1.329,10.331-1.464a20.375,20.375,0,0,1,3.241.123c.8.1,1.6.2,2.4.28a16.092,16.092,0,0,0,2.445.092,3.79,3.79,0,0,0,1.931-.493c1.7-1.181-.251-3.369-1.166-4.333-1.9-2.005-4.9-4.084-7.741-2.72a5.383,5.383,0,0,0-1.713,1.381c-.449.524.31,1.291.763.763a3.73,3.73,0,0,1,3.267-1.49,6.874,6.874,0,0,1,3.491,1.724,9.959,9.959,0,0,1,2.5,2.827,1.245,1.245,0,0,1,.154.378,1.788,1.788,0,0,1,.042.183c.014.08,0-.134,0-.01,0,.034,0,.073,0,.107,0,.015-.012.128,0,.03s0,.012-.008.025a.278.278,0,0,0-.017.061c-.025.108.058-.112.007-.015-.013.025-.093.15-.039.076s-.061.057-.085.084c-.075.08.079-.054.019-.012-.023.016-.046.033-.07.047l-.156.085c-.025.013-.094.041.026-.009-.03.012-.06.025-.091.035-.071.023-.142.047-.215.067a4.073,4.073,0,0,1-.44.09c-.021,0-.1.014,0,0l-.122.013c-.093.009-.187.017-.28.023a15.223,15.223,0,0,1-2.315-.072c-1.635-.148-3.247-.441-4.894-.439a60.189,60.189,0,0,0-9.832,1.253,41.182,41.182,0,0,1-4.866.578,15.214,15.214,0,0,1-4.4-.282,3.12,3.12,0,0,1-2.151-1.445,5.166,5.166,0,0,1,.047-3.418,16.344,16.344,0,0,1,4.1-7.792c1.883-1.914,4.263-3.156,6.511-4.574A12.48,12.48,0,0,0,69.6,160.2a13.046,13.046,0,0,0,.632-1.871.54.54,0,0,0-1.041-.287" transform="translate(-24.196 -72.587)"/>
        <path id="Trazado_823227" data-name="Trazado 823227" d="M45.913,176.157a18.718,18.718,0,0,1-5.366-.669,4.6,4.6,0,0,1-1.882-1.038,2.389,2.389,0,0,1-.671-1.917,9.54,9.54,0,0,1,1.18-3.229,19.146,19.146,0,0,0,1.218-3.122c.639-2.41.242-4.9-.044-7.332-.15-1.277-.231-2.538-.264-3.822a13.27,13.27,0,0,0-.472-3.745c-.212-.658-1.255-.377-1.04.287a11.876,11.876,0,0,1,.43,3.343c.032,1.188.086,2.359.221,3.54.282,2.47.776,5.047.113,7.5a19.9,19.9,0,0,1-1.276,3.2,9.456,9.456,0,0,0-1.149,3.432,3.446,3.446,0,0,0,.753,2.367,4.843,4.843,0,0,0,2,1.364,17.442,17.442,0,0,0,6.251.925.54.54,0,0,0,0-1.079" transform="translate(-16.992 -69.478)"/>
        <path id="Trazado_823228" data-name="Trazado 823228" d="M37.8,176.651a21.742,21.742,0,0,0-3.745,3.225c-.986,1.235-1.682,3.108-.792,4.589a3.736,3.736,0,0,0,2.331,1.6.54.54,0,0,0,.287-1.04A2.412,2.412,0,0,1,34,183.467a3.187,3.187,0,0,1,.493-2.361c.956-1.564,2.66-2.581,4.067-3.692a.542.542,0,0,0,0-.763.553.553,0,0,0-.763,0" transform="translate(-15.126 -81.259)"/>
        <path id="Trazado_823229" data-name="Trazado 823229" d="M61.835,136.633c-.5,4.944-4.11,8.84-5.058,13.651a11.243,11.243,0,0,0-.039,4.228c.125.682,1.166.393,1.041-.287-.9-4.928,2.465-9.165,4.137-13.522a15.767,15.767,0,0,0,1-4.07.543.543,0,0,0-.54-.54.551.551,0,0,0-.54.54" transform="translate(-26.038 -62.657)"/>
        <path id="Trazado_823230" data-name="Trazado 823230" d="M60.586,161.456a6.119,6.119,0,0,0-.484,2.383,4.053,4.053,0,0,0,.88,2.3.557.557,0,0,0,.738.193.543.543,0,0,0,.194-.738,4.021,4.021,0,0,1-.55-.915,3.142,3.142,0,0,1-.139-.473c-.008-.039-.016-.079-.022-.119-.016-.1.006.063-.005-.035s-.016-.179-.018-.269a5.429,5.429,0,0,1,.448-2.036.544.544,0,0,0-.377-.664.551.551,0,0,0-.664.377" transform="translate(-27.669 -74.151)"/>
        <path id="Trazado_823231" data-name="Trazado 823231" d="M122.126,106.969a1.636,1.636,0,0,0-.78.383,6.92,6.92,0,0,0-.726.563,5.53,5.53,0,0,0-1.139,1.415,3.645,3.645,0,0,0-.467,3.04,2.734,2.734,0,0,0,2.309,1.5,29.814,29.814,0,0,0,4.1-.041,12.45,12.45,0,0,0,2.031-.065,8.542,8.542,0,0,0,1.708-.5,13.979,13.979,0,0,1,3.291-1.058,3.458,3.458,0,0,1,1.018.006c.072.017.143.037.214.059a.8.8,0,0,1,.087.032c-.1-.043-.026-.01-.008,0,.056.031.11.062.163.1s-.07-.06-.013-.01c.03.026.058.055.087.082s.035.039.052.058c.053.059-.067-.108,0,0,.028.045.054.091.08.136.073.124,0-.025.026.056s.043.132.059.2c.006.027.038.2.03.143s.011.126.013.156a3.823,3.823,0,0,1,0,.438,10.556,10.556,0,0,1-.324,1.869c-.153.652-.324,1.3-.427,1.965a3.833,3.833,0,0,0,.117,2c.28.748,1.354,2.232.452,2.917a6.219,6.219,0,0,1-1.36.615,4.093,4.093,0,0,0-1.372.971,8.374,8.374,0,0,0-1.859,3.323,11.1,11.1,0,0,0-.156,7.029,8.074,8.074,0,0,0,5.152,4.727,6.141,6.141,0,0,0,3.684.2,4.091,4.091,0,0,0,2.219-1.991,3.942,3.942,0,0,1,.854-1.047,4.685,4.685,0,0,1,1.249-.619,24.037,24.037,0,0,0,2.558-.944,3.948,3.948,0,0,0,2.008-4.528,9.471,9.471,0,0,0-2.714-3.915,31.583,31.583,0,0,1-3.365-3.51,5.81,5.81,0,0,1-.528-.882,2.12,2.12,0,0,1-.125-.334c-.022-.072-.041-.145-.057-.219-.007-.032-.013-.065-.019-.1-.023-.118,0,.079-.008-.051a2.81,2.81,0,0,1,0-.387c.008-.149-.009,0,.018-.122.018-.081.04-.161.064-.241a.5.5,0,0,1,.05-.137,2.436,2.436,0,0,1,.116-.22,1.7,1.7,0,0,1,.417-.464,13.941,13.941,0,0,1,2.811-1.169,4.277,4.277,0,0,0,1.181-.859c.128-.127.25-.259.376-.387a3.952,3.952,0,0,1,.334-.307.737.737,0,0,1,.084-.05c.081-.045-.115.046.021-.01.023-.009.092-.05-.01-.008a.305.305,0,0,1,.093,0c-.109-.022.072.021.106.036,0,0,.158.1.214.142a4.851,4.851,0,0,1,1.009,1.159,14.929,14.929,0,0,0,1.414,2.142,2.2,2.2,0,0,0,2.253.613,4.425,4.425,0,0,0,2.776-2.128c.921-2.029-1.121-3.912-2.744-4.776-.755-.4-1.578-.667-2.311-1.115a2.169,2.169,0,0,1-.735-.651.959.959,0,0,1-.067-.855c.143-.453.548-.61.909-.873a2.452,2.452,0,0,0,.949-1.463.54.54,0,0,0-1.04-.287,1.6,1.6,0,0,1-.308.687,2.934,2.934,0,0,1-.577.419,2.215,2.215,0,0,0-.973,1.23,2.119,2.119,0,0,0,.69,2.285,8.693,8.693,0,0,0,2.217,1.222,7.263,7.263,0,0,1,2.292,1.51,2.116,2.116,0,0,1,.767,2.11,2.421,2.421,0,0,1-.979,1.078,3.6,3.6,0,0,1-1.368.617.974.974,0,0,1-.784-.192,2.865,2.865,0,0,1-.622-.753,16.58,16.58,0,0,0-1.52-2.26c-.584-.653-1.429-1.312-2.3-.759-.679.43-1.078,1.154-1.816,1.517a24.974,24.974,0,0,0-2.751,1.112,2.865,2.865,0,0,0-1.323,2.111c-.15,1.4.832,2.658,1.71,3.634,1.109,1.233,2.383,2.306,3.5,3.536a8.88,8.88,0,0,1,1.324,1.807,3.166,3.166,0,0,1,.409,1.746,4.069,4.069,0,0,1-.12.618,2.862,2.862,0,0,1-.254.64,2.422,2.422,0,0,1-.716.8,8.509,8.509,0,0,1-2.3.959,5.823,5.823,0,0,0-2.562,1.386c-.6.665-.926,1.631-1.67,2.161a3.936,3.936,0,0,1-3.159.256,8.09,8.09,0,0,1-3.032-1.51,6.911,6.911,0,0,1-2.354-6.02,12.746,12.746,0,0,1,.726-3.464,6.266,6.266,0,0,1,1.929-2.894c.781-.6,1.934-.592,2.531-1.453.782-1.128.127-2.311-.352-3.4a5.045,5.045,0,0,1-.243-.7c-.006-.025-.01-.05-.015-.075-.016-.074.011.1,0,.027s-.012-.137-.015-.206a3.74,3.74,0,0,1,.01-.381c0-.064.011-.128.018-.192a.831.831,0,0,1,.021-.156c.106-.653.269-1.293.42-1.937.269-1.144.683-2.611.093-3.723-.8-1.509-3.008-1.053-4.3-.632a31.754,31.754,0,0,1-3.34,1.181,8.314,8.314,0,0,1-1.831.075c-.682-.01-1.361.042-2.041.078-.985.052-2.364.226-3.208-.423-.632-.486-.438-1.4-.149-2.09a4.931,4.931,0,0,1,2.2-2.338l-.273.074h.005a.54.54,0,0,0,0-1.079" transform="translate(-54.715 -49.248)"/>
        <path id="Trazado_823232" data-name="Trazado 823232" d="M194.839,112.376c.65,1.12,2.012,2.3,1.531,3.741-.311.931-1.5,1.028-2.357.853a8.576,8.576,0,0,1-2.37-.991,14.591,14.591,0,0,1-2.826-1.956,6.434,6.434,0,0,1-1.127-1.272,2.193,2.193,0,0,1-.414-1.246.54.54,0,0,0-1.079,0,4.29,4.29,0,0,0,1.517,2.959,14.7,14.7,0,0,0,3.247,2.373,9.837,9.837,0,0,0,2.8,1.183c1.24.24,2.827.053,3.472-1.194a3.138,3.138,0,0,0,.13-2.383,15.892,15.892,0,0,0-1.6-2.61.54.54,0,0,0-.932.544" transform="translate(-85.724 -51.097)"/>
        <path id="Trazado_823233" data-name="Trazado 823233" d="M130.341,122.818a4.756,4.756,0,0,0-3.1,1.075,3.916,3.916,0,0,0-1.108,2.42c-.269,2.066.471,4.151.035,6.2a10.9,10.9,0,0,1-1.761,3.715,7.708,7.708,0,0,0-.885,1.669,20.662,20.662,0,0,0-1.021,4.478,13.111,13.111,0,0,0,.065,4.737c.29,1.2,1.062,2.349,2.422,2.322a4.064,4.064,0,0,0,2.341-.911,4.692,4.692,0,0,0,1.522-2.856,22.107,22.107,0,0,0,.263-3.41,14.726,14.726,0,0,1,.743-3.93c.236-.757.487-1.511.68-2.281a14.87,14.87,0,0,0,.366-2.417,12.3,12.3,0,0,1,1-3.835,8.95,8.95,0,0,0,1.129-3.53,3.7,3.7,0,0,0-1.171-2.868,2.655,2.655,0,0,0-1.527-.578c-.693-.049-.69,1.031,0,1.079a1.85,1.85,0,0,1,1.553,1.68,4.425,4.425,0,0,1-.537,2.816,17.539,17.539,0,0,0-1.306,3.634,19.448,19.448,0,0,0-.263,2.143,11.812,11.812,0,0,1-.438,2.151,33.985,33.985,0,0,0-1.184,4.371c-.148,1.026-.127,2.062-.181,3.1a7.4,7.4,0,0,1-.6,2.966,3,3,0,0,1-1.824,1.5c-.078.024-.156.045-.235.063-.038.008-.21.038-.152.03s-.108.009-.14.01c-.073,0-.146,0-.219,0-.128,0,.085.03-.063-.009-.058-.015-.117-.028-.175-.045s-.141-.062-.036-.01c-.063-.031-.123-.064-.183-.1s-.121-.093-.032-.018c-.045-.039-.09-.077-.132-.119s-.073-.08-.11-.121c-.023-.025-.071-.1,0,.007-.022-.031-.045-.062-.065-.094-.063-.1-.121-.2-.175-.31-.016-.031-.03-.063-.044-.094-.036-.078.046.123,0-.008-.026-.068-.052-.137-.075-.206a5.859,5.859,0,0,1-.215-.905c-.007-.042-.013-.084-.019-.127,0,.023.012.1,0-.011-.011-.088-.02-.176-.029-.264-.017-.183-.029-.366-.037-.549a16.34,16.34,0,0,1,.076-2.257,21.862,21.862,0,0,1,.849-4.277c.084-.271.174-.54.277-.8.024-.062.048-.122.073-.182-.058.139.011-.025.026-.057.046-.1.092-.2.144-.292.215-.4.5-.754.742-1.133a14.245,14.245,0,0,0,.965-1.716,8.4,8.4,0,0,0,.806-3.994c-.046-.873-.166-1.74-.212-2.613a6.387,6.387,0,0,1,.214-2.4,2.486,2.486,0,0,1,.5-.857,2.368,2.368,0,0,1,.907-.6,4.954,4.954,0,0,1,1.554-.287c.692-.032.7-1.112,0-1.079" transform="translate(-56.316 -56.544)"/>
        <path id="Trazado_823234" data-name="Trazado 823234" d="M70.677,109.013a7.775,7.775,0,0,0,.471,3.807c.221.656.457,1.307.649,1.973a5.764,5.764,0,0,1,.319,2.04,8.243,8.243,0,0,1-1.259,3.092,5.98,5.98,0,0,0-.937,3.427c.307,2.471,3.058,3.342,4.58,4.928a7.366,7.366,0,0,1,1.564,3.016,9.391,9.391,0,0,0,.72,1.929,6.053,6.053,0,0,0,1.2,1.448,5.02,5.02,0,0,0,2.86,1.371A2.623,2.623,0,0,0,83.4,134.48a4.774,4.774,0,0,0,.081-3.2,22.748,22.748,0,0,0-1.118-3.272,15.929,15.929,0,0,0-1.5-2.961,9.427,9.427,0,0,1-1.566-2.761,3.316,3.316,0,0,1,1.08-2.988c.748-.807,1.694-1.552,1.718-2.75a3.635,3.635,0,0,0-1.907-3.043c-.981-.589-2.238-.828-3.091-1.613-1.734-1.6.454-4.175,1.6-5.411.433-.465.889-.906,1.359-1.332.516-.467-.249-1.228-.763-.763a18.434,18.434,0,0,0-2.612,2.849,6.17,6.17,0,0,0-1.3,3.069,3.011,3.011,0,0,0,1.323,2.657c.934.687,2.111.94,3.082,1.57.788.511,1.572,1.626,1.073,2.58a5.016,5.016,0,0,1-.946,1.109,7.621,7.621,0,0,0-1.21,1.522,3.744,3.744,0,0,0-.338,3.2,13.992,13.992,0,0,0,1.662,2.8,15.284,15.284,0,0,1,1.389,2.809A19.969,19.969,0,0,1,82.5,131.83a2.953,2.953,0,0,1-.344,2.614,1.748,1.748,0,0,1-2.177.277,5.082,5.082,0,0,1-2.374-2.238A12.338,12.338,0,0,1,77,130.7a11.691,11.691,0,0,0-.651-1.645,7.507,7.507,0,0,0-2.392-2.628,11.451,11.451,0,0,1-2.469-2.026c-1.465-1.9.605-4.189,1.32-5.965a5.289,5.289,0,0,0,.389-1.688,6.373,6.373,0,0,0-.3-2.014c-.342-1.249-.889-2.445-1.142-3.718a4.812,4.812,0,0,1-.04-1.711.556.556,0,0,0-.377-.664.543.543,0,0,0-.664.377" transform="translate(-32.179 -47.993)"/>
        <path id="Trazado_823235" data-name="Trazado 823235" d="M260.372,151.429v-.005a.549.549,0,0,0-.4-.52,5.856,5.856,0,0,0-3.59.119,6.908,6.908,0,0,0-1.692.932,3.29,3.29,0,0,0-1.055,1.127,2.276,2.276,0,0,0,.424,2.271,13.116,13.116,0,0,1,.723,1.23,7.363,7.363,0,0,1,.553,1.765,8.124,8.124,0,0,0,1.312,3.674.543.543,0,0,0,.763,0,.553.553,0,0,0,0-.763,6.14,6.14,0,0,1-.951-2.771,9.127,9.127,0,0,0-1.017-2.953c-.2-.345-.429-.673-.631-1.017a3.287,3.287,0,0,1-.2-.39c-.011-.028-.037-.115-.051-.167a.314.314,0,0,1-.019-.142.442.442,0,0,1,.06-.25,1.555,1.555,0,0,1,.339-.423,5.547,5.547,0,0,1,1.354-.912,4.776,4.776,0,0,1,3.4-.287l-.4-.52v.005a.54.54,0,0,0,1.079,0" transform="translate(-116.699 -69.373)"/>
        <path id="Trazado_823236" data-name="Trazado 823236" d="M23.862,132.484l-.207,1.7-2.546,1.961-2.035,2.02-.348,2.224,1.081,1.853,1.087.4,2.037,2.137,4.27.949h2.159v1.739l3.007,2.305h4.753l6.449-.948,6.092-.849,5.993.312,3.44.248,1.523-.689.165-1.136-1.412-1.93-1.946-1.64,2.738-.109,7.37.82,10.839,1.593,9.62,1.085h4.753l3.6-.487-.29.84.29,1.205,2.707.551,3.676-.292,3.451.043,3.1-.189-.377.922,1.532.972,3.841.74,2.732-.383,2.869-1.617,2.159-.925,6.055-1.1,4.371-1.368,1.532-1.593-.676-2.585,1.376-1.1,1.285-4.461,2.727-2.337,3.227-3.776,1.643-3.582.562-3.72-.93-3.858,2.067,2.136.413,3.1-.777,4.532-1.954,5.856-1.588,5.789-1.323,3.034a18.935,18.935,0,0,1-1.67,1.9c-.139-.013-5.741,2.692-5.741,2.692l-2.895,1.718-.9,2.721,2.475-.249,5.177-1.576,3.567-2.419,2.185-3.587,1.333-3.569.562-3.533,2.259-4.569,1.358-4.207.159-3.981-1.06-4.945-2.969-4.2-4.258-3.043-3.369-.564L122.1,104.725l-6.954-4.9s-3.372-.5-3.432-.495l-6.839.4L93.852,98.062l-23.006-1.02L56.288,95.421l-11.623-.135-1.448-2.3L40.05,91.023,36.3,90.564l-2.382.459-5.256-5.251L24.742,84l-2.853-.355L17.8,86.021l-1.753,2.417L14.174,90.4l-3.4-.939-2.8-2.214-3.408.094L1.378,88.813.956,89.947l1.215,2.392L6.18,95.754l2.905,1.01,2.877-.175,1.557-.558.036,1.8,1.317,3.34-.1,4.856.529,4.031-1.7,4.287.09,2.566,2.09,2.058,5.461,1.5,1.518.045.235,3.592.144,4.377Z" transform="translate(-0.44 -38.51)" fill="#fff"/>
        <path id="Trazado_823237" data-name="Trazado 823237" d="M29.693,145.264l-4.792-1.77-.908-1.895.383-2.709.459-.261,2.481.742,4.124.373,1.055.8s-.01,2.664,0,2.8-.994,2.49-.994,2.49Z" transform="translate(-11.046 -63.825)" fill="#ff88b7"/>
        <path id="Trazado_823238" data-name="Trazado 823238" d="M59.972,96.4a4,4,0,0,0-1.291.869,3.438,3.438,0,0,0-.824,1.412.545.545,0,0,0,.377.664.551.551,0,0,0,.664-.377c.017-.055.035-.11.054-.165.01-.027.02-.053.03-.08.036-.1-.051.112-.011.024a3.264,3.264,0,0,1,.152-.3c.056-.094.12-.182.183-.271-.105.15,0,0,.036-.038s.079-.087.121-.13a3.059,3.059,0,0,1,.244-.221c.016-.013.1-.078.022-.018s.006,0,.023-.016c.046-.033.092-.065.139-.1a4.178,4.178,0,0,1,.626-.331.54.54,0,0,0,.248-.323.55.55,0,0,0-.054-.415.542.542,0,0,0-.322-.248.632.632,0,0,0-.416.055" transform="translate(-26.628 -44.349)"/>
        <path id="Trazado_823239" data-name="Trazado 823239" d="M49.747,99.886c2.62-.684,6.365-2.962,4.978-6.179a5.76,5.76,0,0,0-2.495-2.56,10.852,10.852,0,0,0-3.87-1.314,8.186,8.186,0,0,0-4.3.363l.416.054a14.8,14.8,0,0,1-3.432-3.327,11.006,11.006,0,0,0-3.493-2.87c-2.509-1.2-5.583-1.621-8.045-.067a16.435,16.435,0,0,0-3.059,3.074,12.271,12.271,0,0,0-2.852,3.882c-.516,1.452-.03,3.054-.281,4.547a7.329,7.329,0,0,0-.147,2.091,7.045,7.045,0,0,0,.51,1.759,9.978,9.978,0,0,1,.689,2.342,13.19,13.19,0,0,1,.062,2.238c-.028.8-.069,1.6-.038,2.4a14.887,14.887,0,0,0,.39,2.51,3.357,3.357,0,0,1-.157,2.226c-.336.717-.818,1.355-1.134,2.083a6.627,6.627,0,0,0-.477,2.123,4.3,4.3,0,0,0,.151,1.626c.651,2.032,3.054,2.471,4.85,2.955,1.592.429,3.25,1.189,4.931.809a3.149,3.149,0,0,0,1.843-1.183,4.987,4.987,0,0,0,.615-1.556,3.245,3.245,0,0,1,1.035-1.6,16.982,16.982,0,0,1,1.588-1.066,5.913,5.913,0,0,0,1.552-1.427A9.823,9.823,0,0,0,40.69,111.6a18.352,18.352,0,0,0,.791-2.449,15.845,15.845,0,0,0,.33-2.62c.051-.853.079-1.711.214-2.556a13.446,13.446,0,0,1,.694-2.477c.292-.8.6-1.6.833-2.424l-.664.377c2.278.542,4.539,1.053,6.859.437a.54.54,0,0,0-.287-1.041c-2.127.564-4.2.059-6.285-.437a.55.55,0,0,0-.664.377c-.283,1.023-.7,2-1.038,3.005a13.193,13.193,0,0,0-.641,3.164c-.088,1.037-.087,2.084-.241,3.115a15.223,15.223,0,0,1-.836,2.962,7.22,7.22,0,0,1-1.379,2.55A11.167,11.167,0,0,1,36.411,115a4.748,4.748,0,0,0-1.743,1.823c-.3.618-.354,1.352-.706,1.939a2.35,2.35,0,0,1-2.215.9,13.51,13.51,0,0,1-3-.735,14.452,14.452,0,0,1-3.67-1.251,2.144,2.144,0,0,1-.819-.909A3.436,3.436,0,0,1,24.115,115a5.678,5.678,0,0,1,.277-1.242,7.906,7.906,0,0,1,.67-1.27,5.1,5.1,0,0,0,.926-2.72c-.028-1.011-.418-1.965-.493-2.968a27.3,27.3,0,0,1,.012-2.934,12.878,12.878,0,0,0-.161-2.823,21.086,21.086,0,0,0-.912-2.743,4.331,4.331,0,0,1-.166-1.992c.062-.48.167-.95.194-1.434s.006-.982-.008-1.472a4.93,4.93,0,0,1,.41-2.666,12.592,12.592,0,0,1,1.764-2.284c.621-.684,1.267-1.347,1.842-2.07a6.307,6.307,0,0,1,1.9-1.654,6.457,6.457,0,0,1,4.577-.47A9.222,9.222,0,0,1,39.6,86.937c1.326,1.4,2.421,3.036,4.073,4.091a.813.813,0,0,0,.7.2c.143-.043.281-.11.425-.155a5.855,5.855,0,0,1,.926-.212,8.449,8.449,0,0,1,1.995-.023,9.854,9.854,0,0,1,3.963,1.245,4.3,4.3,0,0,1,2.21,2.536c.345,1.509-1.034,2.644-2.2,3.3a9.344,9.344,0,0,1-2.24.926.54.54,0,0,0,.287,1.041" transform="translate(-10.586 -38.203)"/>
        <path id="Trazado_823240" data-name="Trazado 823240" d="M12.974,97.964a6.479,6.479,0,0,1-3.442.748,7.6,7.6,0,0,1-3.287-.8,14.522,14.522,0,0,1-3.905-3.2A5.109,5.109,0,0,1,1.1,92.678a1.173,1.173,0,0,1-.04-.4.935.935,0,0,1,.007-.1c-.012.1,0,.01,0-.009.009-.037.078-.24.043-.162a1.627,1.627,0,0,1,.611-.676,6.947,6.947,0,0,1,2.494-.963A9.048,9.048,0,0,1,6.8,90.152l.146.013a.274.274,0,0,1,.074.01c.081.013.163.029.243.05a2.857,2.857,0,0,1,.773.34,16.623,16.623,0,0,1,1.57,1.272,9.3,9.3,0,0,0,4.25,1.63c.678.131.969-.909.287-1.041a8.246,8.246,0,0,1-3.975-1.516A6.2,6.2,0,0,0,7.2,89.119a9.139,9.139,0,0,0-2.957.145,8.565,8.565,0,0,0-2.87,1.008c-4,2.434,1.79,7.05,4.016,8.395a8.464,8.464,0,0,0,3.732,1.1,7.693,7.693,0,0,0,4.394-.873.54.54,0,0,0-.544-.932" transform="translate(0 -41)"/>
        <path id="Trazado_823241" data-name="Trazado 823241" d="M47.9,113.189c-.754.516-1.543.982-2.281,1.522a4.41,4.41,0,0,0-1.222,1.317c-.295.481-.547.987-.846,1.466a2.524,2.524,0,0,1-.928.994,1.791,1.791,0,0,1-1.2.013,1.663,1.663,0,0,1-.8-.6,4.614,4.614,0,0,1-.767-2.353,6.735,6.735,0,0,1,.264-2.642,28.525,28.525,0,0,1,1.664-2.874,8.707,8.707,0,0,0,.52-4.1,3.084,3.084,0,0,1,.466-1.762,8.564,8.564,0,0,1,1.41-1.611,12.783,12.783,0,0,0,3.262-3.916c.765-1.713,1.039-3.629,2.185-5.158a.543.543,0,0,0-.194-.738.552.552,0,0,0-.738.194c-1.081,1.442-1.4,3.207-2.055,4.849a7.132,7.132,0,0,1-1.2,2.03,19.857,19.857,0,0,1-1.657,1.631c-1.081,1-2.3,2.152-2.513,3.68-.2,1.413.229,2.844-.353,4.212-.472,1.109-1.374,1.979-1.787,3.121a7.461,7.461,0,0,0-.37,2.885c.1,1.892.95,4.321,3.217,4.321a2.451,2.451,0,0,0,1.721-.631,6.638,6.638,0,0,0,1.191-1.7,5.494,5.494,0,0,1,.976-1.463,23.929,23.929,0,0,1,2.576-1.75c.57-.39.031-1.326-.544-.932" transform="translate(-17.839 -42.665)"/>
        <path id="Trazado_823242" data-name="Trazado 823242" d="M32.381,145.608a8.013,8.013,0,0,0,.5-3.169,6.974,6.974,0,0,1,.124-1.263,2.525,2.525,0,0,0,.041-1.1c-.225-.887-1.221-1.325-2.033-1.509a13.587,13.587,0,0,0-3.037-.182,4.993,4.993,0,0,1-1.556-.156,15.045,15.045,0,0,0-1.6-.575c-.678-.135-.968.9-.287,1.041a7.356,7.356,0,0,1,1.243.445,4.355,4.355,0,0,0,1.361.306c.883.052,1.768-.016,2.652.038a5.365,5.365,0,0,1,1.233.2,1.789,1.789,0,0,1,.912.508.728.728,0,0,1,.055.585,9.829,9.829,0,0,0-.173,1.106,9.19,9.19,0,0,1-.364,3.179.558.558,0,0,0,.194.738.544.544,0,0,0,.738-.194" transform="translate(-11.115 -63.37)"/>
        <path id="Trazado_823243" data-name="Trazado 823243" d="M34.722,143.616a8.474,8.474,0,0,0-.852,1.123,1.823,1.823,0,0,0-.233,1.5.54.54,0,1,0,1.04-.287,1.458,1.458,0,0,1-.041-.141c-.018-.074,0,.049.006.058a.224.224,0,0,1,0-.071,1.265,1.265,0,0,1,0-.128c.006-.093-.021.109-.005.043,0-.019.007-.038.011-.057a1.477,1.477,0,0,1,.041-.142c.006-.019.013-.038.02-.057.032-.085.009,0-.013.03a.784.784,0,0,0,.062-.126c.024-.047.051-.093.078-.138.05-.083.1-.164.161-.243.029-.04.058-.079.087-.118.068-.091-.057.071-.015.019l.05-.063c.12-.15.246-.3.367-.445a.581.581,0,0,0,.158-.382.54.54,0,0,0-.921-.381" transform="translate(-15.45 -66.049)"/>
        <path id="Trazado_823244" data-name="Trazado 823244" d="M80.878,104.865c4.491.494,9.022.091,13.521.479,4.456.384,8.857,1.262,13.325,1.53,2.238.135,4.479.168,6.717.324,2.255.158,4.509.34,6.769.4s4.508.035,6.762.134c2.276.1,4.55.271,6.813.539,2.2.26,4.368.712,6.56,1.031a17.592,17.592,0,0,0,3.316.22c1.093-.049,2.172-.258,3.26-.359a7.372,7.372,0,0,1,3.23.282,8.1,8.1,0,0,1,2.338,1.449c.706.584,1.379,1.2,2.113,1.752a30.04,30.04,0,0,0,2.616,1.715c1.729,1.031,3.465,2.076,5.29,2.93,1.875.878,3.813,1.611,5.725,2.4.976.4,1.944.827,2.891,1.293.215.106.428.213.641.324.186.1.416.15.59.241-.233-.122.061.1.125.139.1.058.207.116.31.175.251.145.5.292.745.447a10.845,10.845,0,0,1,3.611,3.82q.168.3.32.6c.021.042.18.308.1.139s.025.092.042.143c.174.533.45,1.036.626,1.572a17.9,17.9,0,0,1,.673,2.864,9.033,9.033,0,0,1-1.384,5.795,27.187,27.187,0,0,1-3.689,5.063,11.835,11.835,0,0,1-.96.93c-.2.168-.4.329-.6.48a5.246,5.246,0,0,0-.623.415c-.265.264.061.038-.093.106-.086.038-.186.06-.275.106-.229.115-.451.241-.686.347a7.765,7.765,0,0,1-1.518.493c-.968.214-1.959.3-2.924.537-.675.163-.389,1.2.287,1.04,1.021-.248,2.072-.331,3.094-.575a8.788,8.788,0,0,0,1.448-.494,3.912,3.912,0,0,0,.621-.295c.191-.128.132-.144.031-.09.121-.065.286-.083.418-.158a14.96,14.96,0,0,0,4.3-4.232,20.453,20.453,0,0,0,3.2-5.491,8.738,8.738,0,0,0,.534-2.928,14.035,14.035,0,0,0-.462-2.993,13.588,13.588,0,0,0-.456-1.544q-.118-.333-.253-.659c-.04-.1-.081-.195-.122-.291,0-.007-.258-.486-.144-.213a11.405,11.405,0,0,0-1.292-2.352A12.944,12.944,0,0,0,174.1,120.8c-.2-.11-.4-.2-.6-.31l-.144-.019c.134.007.144-.011.029-.052-.1-.058-.212-.111-.319-.165-.505-.257-1.017-.5-1.534-.735-.965-.437-1.944-.841-2.926-1.239-2-.81-4.008-1.593-5.919-2.594-1.841-.964-3.674-2.037-5.41-3.179a23.292,23.292,0,0,1-2.432-1.868,14.886,14.886,0,0,0-2.22-1.68c-1.964-1.14-4.061-.969-6.229-.692a16.909,16.909,0,0,1-3.381.148,30.908,30.908,0,0,1-3.387-.5,87.7,87.7,0,0,0-13.73-1.336c-2.342-.059-4.681-.032-7.021-.165-2.32-.132-4.635-.337-6.956-.46-2.348-.124-4.689-.158-7.03-.406-2.22-.236-4.429-.57-6.643-.859a67.92,67.92,0,0,0-6.94-.6c-2.333-.064-4.669-.01-7-.079-1.147-.034-2.292-.1-3.433-.227-.69-.076-.684,1,0,1.079" transform="translate(-36.999 -47.781)"/>
        <path id="Trazado_823245" data-name="Trazado 823245" d="M207.808,127.375a10.021,10.021,0,0,1,5.946,2.818,3.311,3.311,0,0,1,.469,4.5c-1.309,1.7-3.529,2.477-5.47,3.193a24.124,24.124,0,0,0-5.332,2.377,5.071,5.071,0,0,0-2.488,4.367,9.774,9.774,0,0,0,1.074,3.682,23.143,23.143,0,0,0,2.434,4.012,21.892,21.892,0,0,0,2.976,3.4c1.086.97,2.262,1.836,3.327,2.83a11.252,11.252,0,0,1,1.411,1.54,4.362,4.362,0,0,1,.744,1.358.9.9,0,0,1,.049.435c-.006.106,0,.014,0-.007-.009.044-.019.086-.032.128-.008.025-.039.094.008-.009-.018.039-.039.075-.06.112-.066.119.033,0-.072.092-.023.02-.187.154-.094.088a1.822,1.822,0,0,1-.2.124c-.029.016-.058.03-.087.045l-.092.042c.042-.017.045-.019.009,0a7.306,7.306,0,0,1-2.4.374c-.959.045-1.92.037-2.873.162a8.939,8.939,0,0,0-3.475,1.155A9.118,9.118,0,0,0,201,166.62a14.1,14.1,0,0,0-1.107,1.762.556.556,0,0,0,.084.654,6.561,6.561,0,0,0,3.429,1.7,11.417,11.417,0,0,0,4.223.141,10.593,10.593,0,0,0,3.825-1.788,8.063,8.063,0,0,1,2.166-.993,29.905,29.905,0,0,1,2.99-.572,40.114,40.114,0,0,0,5.143-1.069,8.36,8.36,0,0,0,3.478-1.7,2.632,2.632,0,0,0,.849-1.668,5.059,5.059,0,0,0-.865-2.684c-.461-.846-.909-1.7-1.434-2.508-.544-.837-1.129-1.65-1.611-2.526a9.261,9.261,0,0,1-1.053-5.337c.187-1.715,1.664-2.768,2.5-4.163a.54.54,0,0,0-.931-.545c-.752,1.254-1.946,2.193-2.428,3.61a8.921,8.921,0,0,0,.083,4.712,15.99,15.99,0,0,0,2.543,4.847c.489.757.9,1.554,1.338,2.341.366.663.956,1.579.751,2.376-.275,1.064-1.688,1.595-2.608,1.918a26.562,26.562,0,0,1-4.4,1.095c-.944.159-1.892.293-2.835.459a13.005,13.005,0,0,0-2.638.657c-1.421.576-2.576,1.664-4,2.207a8.359,8.359,0,0,1-4.046.284,6.244,6.244,0,0,1-3.7-1.553l.084.654a10.862,10.862,0,0,1,2.321-3.083,7.109,7.109,0,0,1,3.019-1.545c1.931-.477,3.951-.137,5.885-.584a2.5,2.5,0,0,0,1.82-1.2,2.887,2.887,0,0,0-.613-2.71c-1.685-2.484-4.432-3.917-6.4-6.14a27.781,27.781,0,0,1-2.8-3.8,15.4,15.4,0,0,1-1.879-4.105,4.159,4.159,0,0,1,.063-2.6,4.339,4.339,0,0,1,1.4-1.729,19.322,19.322,0,0,1,5.217-2.431c2.091-.768,4.366-1.576,5.9-3.273a4.529,4.529,0,0,0,1.243-2.763,4.408,4.408,0,0,0-.786-2.639,9.754,9.754,0,0,0-5.573-3.66,13.421,13.421,0,0,0-1.841-.362.542.542,0,0,0-.54.54.554.554,0,0,0,.54.54" transform="translate(-92 -58.145)"/>
        <path id="Trazado_823246" data-name="Trazado 823246" d="M248.554,178.749h-.005a.528.528,0,0,0-.466.267,8.43,8.43,0,0,0-.569,1.634c-.111.54-.156,1.091-.273,1.629a3.6,3.6,0,0,1-1.712,2.306c-.583.373-.042,1.308.545.931a4.731,4.731,0,0,0,2.113-2.578,13.623,13.623,0,0,0,.306-1.667,7.3,7.3,0,0,1,.521-1.711l-.466.267h.005a.54.54,0,0,0,0-1.079" transform="translate(-112.926 -82.296)"/>
        <path id="Trazado_823247" data-name="Trazado 823247" d="M197.119,193.026c-1.605-.348-3.189-.779-4.814-1.032a34.327,34.327,0,0,0-5.042-.442,18.415,18.415,0,0,0-4.118.328,16.71,16.71,0,0,0-2.7.875,11.752,11.752,0,0,0-2.908,1.619c-.9.718-1.733,1.909-1.18,3.091a2.437,2.437,0,0,0,1.957,1.128,13.983,13.983,0,0,0,2.882.061c.473-.026.945-.063,1.418-.085a14.023,14.023,0,0,1,1.452.044,50.514,50.514,0,0,0,5.883-.193c.69-.043.695-1.122,0-1.079-1.625.1-3.251.24-4.881.224-.966-.01-1.911-.111-2.876-.052-.867.053-1.734.119-2.6.1a4.129,4.129,0,0,1-2.07-.405c-.011-.006-.167-.168-.168-.169a.6.6,0,0,1-.044-.08c.044.091.01.024,0,0a1.012,1.012,0,0,1-.025-.5,2.128,2.128,0,0,1,.756-1.105,9.184,9.184,0,0,1,2.542-1.5,16.922,16.922,0,0,1,2.566-.87,15.022,15.022,0,0,1,3.336-.351,31.186,31.186,0,0,1,5.277.36c1.713.256,3.378.705,5.068,1.071.677.146.966-.894.287-1.041" transform="translate(-81.113 -88.189)"/>
        <path id="Trazado_823248" data-name="Trazado 823248" d="M245.447,135.8a9.044,9.044,0,0,1,4.768,1.608A13.235,13.235,0,0,1,254,141.183a11.831,11.831,0,0,1,1.892,4.931,17.534,17.534,0,0,1-.325,6.138,28.042,28.042,0,0,1-2.02,5.879c-.375.8-.782,1.583-1.092,2.416-.3.8-.537,1.626-.763,2.451-.824,3.007-1.463,6.566-4.194,8.477a18.947,18.947,0,0,1-4.356,2.148,32.554,32.554,0,0,1-4.787,1.368q-.5.1-1.007.179l.683.52a3.538,3.538,0,0,1,.969-2.5,8.5,8.5,0,0,1,2.472-1.7c1.938-.972,4.1-1.594,5.874-2.877a7.945,7.945,0,0,0,2.479-3.135,23.331,23.331,0,0,0,1.334-4.628,46.411,46.411,0,0,1,1.682-5.1,34.577,34.577,0,0,0,1.569-5.376,12.311,12.311,0,0,0-.075-6.023,8.564,8.564,0,0,0-2.762-3.685l.158.381v-.005a.54.54,0,0,0-1.079,0c0,.369.411.6.656.826s.485.455.711.7a6.135,6.135,0,0,1,1.091,1.6,9.333,9.333,0,0,1,.408,4.988,27.116,27.116,0,0,1-1.39,5.387c-.6,1.727-1.33,3.424-1.8,5.192-.732,2.734-1,6.018-3.432,7.88-1.666,1.273-3.872,1.92-5.773,2.849a9.54,9.54,0,0,0-2.926,2.008,4.653,4.653,0,0,0-1.243,3.215.549.549,0,0,0,.683.52,29.141,29.141,0,0,0,4.72-1.173,24.9,24.9,0,0,0,4.908-2.131,8.783,8.783,0,0,0,3.358-3.4,22.835,22.835,0,0,0,1.794-5.042,25.8,25.8,0,0,1,1.646-4.926,31.156,31.156,0,0,0,2.312-6.025c1.038-3.974,1.146-8.355-.919-12.024-1.8-3.2-5-6.009-8.694-6.638a7.9,7.9,0,0,0-1.309-.134.54.54,0,0,0,0,1.079" transform="translate(-109.09 -62.024)"/>
        <path id="Trazado_823249" data-name="Trazado 823249" d="M104.9,193.777c5.145.262,10.249.848,15.346,1.585,2.55.37,5.1.75,7.65,1.089,1.265.168,2.533.326,3.8.467s2.539.3,3.811.345c2.826.1,5.625-.458,8.448-.476a.54.54,0,0,0,0-1.079c-2.5.016-4.98.452-7.483.485a32.553,32.553,0,0,1-3.787-.248q-1.908-.2-3.81-.445c-5.1-.655-10.173-1.527-15.284-2.1q-4.334-.484-8.692-.705c-.694-.036-.692,1.044,0,1.079" transform="translate(-48.059 -88.718)"/>
        <path id="Trazado_823250" data-name="Trazado 823250" d="M65.5,195.924c1.7.6,3.524-.371,5.071-1a16.3,16.3,0,0,1,5.67-1.224c1.218-.037,2.437.035,3.654.085.694.029.693-1.051,0-1.079a24.257,24.257,0,0,0-7.674.508,35.09,35.09,0,0,0-3.306,1.238,4.6,4.6,0,0,1-3.127.432c-.656-.231-.938.811-.287,1.041" transform="translate(-29.985 -88.688)"/>
        <path id="Trazado_823251" data-name="Trazado 823251" d="M104.007,167.3a5.039,5.039,0,0,0,2.779-1.762,8.045,8.045,0,0,0,1.23-2.757,39.022,39.022,0,0,0,.867-6.375c.215-2.21.546-4.429.962-6.61a27.978,27.978,0,0,1,2.093-6.884,13.063,13.063,0,0,1,5.165-5.825.54.54,0,0,0-.545-.932c-4.315,2.486-6.376,7.168-7.437,11.831-.533,2.341-.849,4.724-1.161,7.1-.262,2-.324,4.018-.678,6a10.6,10.6,0,0,1-1.015,3.258,4.094,4.094,0,0,1-.866,1.118,4.49,4.49,0,0,1-1.681.792c-.662.2-.38,1.244.287,1.041" transform="translate(-47.579 -62.653)"/>
        <path id="Trazado_823252" data-name="Trazado 823252" d="M69.2,158.046a10.786,10.786,0,0,1-1.6,3.568,11.466,11.466,0,0,1-2.784,2.7c-1.208.853-2.518,1.557-3.765,2.35a22.4,22.4,0,0,0-3.292,2.471,17.006,17.006,0,0,0-4.667,8.033,8.372,8.372,0,0,0-.385,4.221,3.493,3.493,0,0,0,1.961,2.259,10.375,10.375,0,0,0,4.085.734,30.866,30.866,0,0,0,5.154-.37c3.443-.49,6.845-1.329,10.331-1.464a20.375,20.375,0,0,1,3.241.123c.8.1,1.6.2,2.4.28a16.092,16.092,0,0,0,2.445.092,3.79,3.79,0,0,0,1.931-.493c1.7-1.181-.251-3.369-1.166-4.333-1.9-2.005-4.9-4.084-7.741-2.72a5.383,5.383,0,0,0-1.713,1.381c-.449.524.31,1.291.763.763a3.73,3.73,0,0,1,3.267-1.49,6.874,6.874,0,0,1,3.491,1.724,9.959,9.959,0,0,1,2.5,2.827,1.245,1.245,0,0,1,.154.378,1.788,1.788,0,0,1,.042.183c.014.08,0-.134,0-.01,0,.034,0,.073,0,.107,0,.015-.012.128,0,.03s0,.012-.008.025a.278.278,0,0,0-.017.061c-.025.108.058-.112.007-.015-.013.025-.093.15-.039.076s-.061.057-.085.084c-.075.08.079-.054.019-.012-.023.016-.046.033-.07.047l-.156.085c-.025.013-.094.041.026-.009-.03.012-.06.025-.091.035-.071.023-.142.047-.215.067a4.073,4.073,0,0,1-.44.09c-.021,0-.1.014,0,0l-.122.013c-.093.009-.187.017-.28.023a15.223,15.223,0,0,1-2.315-.072c-1.635-.148-3.247-.441-4.894-.439a60.189,60.189,0,0,0-9.832,1.253,41.182,41.182,0,0,1-4.866.578,15.214,15.214,0,0,1-4.4-.282,3.12,3.12,0,0,1-2.151-1.445,5.166,5.166,0,0,1,.047-3.418,16.344,16.344,0,0,1,4.1-7.792c1.883-1.914,4.263-3.156,6.511-4.574A12.48,12.48,0,0,0,69.6,160.2a13.046,13.046,0,0,0,.632-1.871.54.54,0,0,0-1.041-.287" transform="translate(-24.196 -72.587)"/>
        <path id="Trazado_823253" data-name="Trazado 823253" d="M45.913,176.157a18.718,18.718,0,0,1-5.366-.669,4.6,4.6,0,0,1-1.882-1.038,2.389,2.389,0,0,1-.671-1.917,9.54,9.54,0,0,1,1.18-3.229,19.146,19.146,0,0,0,1.218-3.122c.639-2.41.242-4.9-.044-7.332-.15-1.277-.231-2.538-.264-3.822a13.27,13.27,0,0,0-.472-3.745c-.212-.658-1.255-.377-1.04.287a11.876,11.876,0,0,1,.43,3.343c.032,1.188.086,2.359.221,3.54.282,2.47.776,5.047.113,7.5a19.9,19.9,0,0,1-1.276,3.2,9.456,9.456,0,0,0-1.149,3.432,3.446,3.446,0,0,0,.753,2.367,4.843,4.843,0,0,0,2,1.364,17.442,17.442,0,0,0,6.251.925.54.54,0,0,0,0-1.079" transform="translate(-16.992 -69.478)"/>
        <path id="Trazado_823254" data-name="Trazado 823254" d="M37.8,176.651a21.742,21.742,0,0,0-3.745,3.225c-.986,1.235-1.682,3.108-.792,4.589a3.736,3.736,0,0,0,2.331,1.6.54.54,0,0,0,.287-1.04A2.412,2.412,0,0,1,34,183.467a3.187,3.187,0,0,1,.493-2.361c.956-1.564,2.66-2.581,4.067-3.692a.542.542,0,0,0,0-.763.553.553,0,0,0-.763,0" transform="translate(-15.126 -81.259)"/>
        <path id="Trazado_823255" data-name="Trazado 823255" d="M61.835,136.633c-.5,4.944-4.11,8.84-5.058,13.651a11.243,11.243,0,0,0-.039,4.228c.125.682,1.166.393,1.041-.287-.9-4.928,2.465-9.165,4.137-13.522a15.767,15.767,0,0,0,1-4.07.543.543,0,0,0-.54-.54.551.551,0,0,0-.54.54" transform="translate(-26.038 -62.657)"/>
        <path id="Trazado_823256" data-name="Trazado 823256" d="M60.586,161.456a6.119,6.119,0,0,0-.484,2.383,4.053,4.053,0,0,0,.88,2.3.557.557,0,0,0,.738.193.543.543,0,0,0,.194-.738,4.021,4.021,0,0,1-.55-.915,3.142,3.142,0,0,1-.139-.473c-.008-.039-.016-.079-.022-.119-.016-.1.006.063-.005-.035s-.016-.179-.018-.269a5.429,5.429,0,0,1,.448-2.036.544.544,0,0,0-.377-.664.551.551,0,0,0-.664.377" transform="translate(-27.669 -74.151)"/>
        <path id="Trazado_823257" data-name="Trazado 823257" d="M122.126,106.969a1.636,1.636,0,0,0-.78.383,6.92,6.92,0,0,0-.726.563,5.53,5.53,0,0,0-1.139,1.415,3.645,3.645,0,0,0-.467,3.04,2.734,2.734,0,0,0,2.309,1.5,29.814,29.814,0,0,0,4.1-.041,12.45,12.45,0,0,0,2.031-.065,8.542,8.542,0,0,0,1.708-.5,13.979,13.979,0,0,1,3.291-1.058,3.458,3.458,0,0,1,1.018.006c.072.017.143.037.214.059a.8.8,0,0,1,.087.032c-.1-.043-.026-.01-.008,0,.056.031.11.062.163.1s-.07-.06-.013-.01c.03.026.058.055.087.082s.035.039.052.058c.053.059-.067-.108,0,0,.028.045.054.091.08.136.073.124,0-.025.026.056s.043.132.059.2c.006.027.038.2.03.143s.011.126.013.156a3.823,3.823,0,0,1,0,.438,10.556,10.556,0,0,1-.324,1.869c-.153.652-.324,1.3-.427,1.965a3.833,3.833,0,0,0,.117,2c.28.748,1.354,2.232.452,2.917a6.219,6.219,0,0,1-1.36.615,4.093,4.093,0,0,0-1.372.971,8.374,8.374,0,0,0-1.859,3.323,11.1,11.1,0,0,0-.156,7.029,8.074,8.074,0,0,0,5.152,4.727,6.141,6.141,0,0,0,3.684.2,4.091,4.091,0,0,0,2.219-1.991,3.942,3.942,0,0,1,.854-1.047,4.685,4.685,0,0,1,1.249-.619,24.037,24.037,0,0,0,2.558-.944,3.948,3.948,0,0,0,2.008-4.528,9.471,9.471,0,0,0-2.714-3.915,31.583,31.583,0,0,1-3.365-3.51,5.81,5.81,0,0,1-.528-.882,2.12,2.12,0,0,1-.125-.334c-.022-.072-.041-.145-.057-.219-.007-.032-.013-.065-.019-.1-.023-.118,0,.079-.008-.051a2.81,2.81,0,0,1,0-.387c.008-.149-.009,0,.018-.122.018-.081.04-.161.064-.241a.5.5,0,0,1,.05-.137,2.436,2.436,0,0,1,.116-.22,1.7,1.7,0,0,1,.417-.464,13.941,13.941,0,0,1,2.811-1.169,4.277,4.277,0,0,0,1.181-.859c.128-.127.25-.259.376-.387a3.952,3.952,0,0,1,.334-.307.737.737,0,0,1,.084-.05c.081-.045-.115.046.021-.01.023-.009.092-.05-.01-.008a.305.305,0,0,1,.093,0c-.109-.022.072.021.106.036,0,0,.158.1.214.142a4.851,4.851,0,0,1,1.009,1.159,14.929,14.929,0,0,0,1.414,2.142,2.2,2.2,0,0,0,2.253.613,4.425,4.425,0,0,0,2.776-2.128c.921-2.029-1.121-3.912-2.744-4.776-.755-.4-1.578-.667-2.311-1.115a2.169,2.169,0,0,1-.735-.651.959.959,0,0,1-.067-.855c.143-.453.548-.61.909-.873a2.452,2.452,0,0,0,.949-1.463.54.54,0,0,0-1.04-.287,1.6,1.6,0,0,1-.308.687,2.934,2.934,0,0,1-.577.419,2.215,2.215,0,0,0-.973,1.23,2.119,2.119,0,0,0,.69,2.285,8.693,8.693,0,0,0,2.217,1.222,7.263,7.263,0,0,1,2.292,1.51,2.116,2.116,0,0,1,.767,2.11,2.421,2.421,0,0,1-.979,1.078,3.6,3.6,0,0,1-1.368.617.974.974,0,0,1-.784-.192,2.865,2.865,0,0,1-.622-.753,16.58,16.58,0,0,0-1.52-2.26c-.584-.653-1.429-1.312-2.3-.759-.679.43-1.078,1.154-1.816,1.517a24.974,24.974,0,0,0-2.751,1.112,2.865,2.865,0,0,0-1.323,2.111c-.15,1.4.832,2.658,1.71,3.634,1.109,1.233,2.383,2.306,3.5,3.536a8.88,8.88,0,0,1,1.324,1.807,3.166,3.166,0,0,1,.409,1.746,4.069,4.069,0,0,1-.12.618,2.862,2.862,0,0,1-.254.64,2.422,2.422,0,0,1-.716.8,8.509,8.509,0,0,1-2.3.959,5.823,5.823,0,0,0-2.562,1.386c-.6.665-.926,1.631-1.67,2.161a3.936,3.936,0,0,1-3.159.256,8.09,8.09,0,0,1-3.032-1.51,6.911,6.911,0,0,1-2.354-6.02,12.746,12.746,0,0,1,.726-3.464,6.266,6.266,0,0,1,1.929-2.894c.781-.6,1.934-.592,2.531-1.453.782-1.128.127-2.311-.352-3.4a5.045,5.045,0,0,1-.243-.7c-.006-.025-.01-.05-.015-.075-.016-.074.011.1,0,.027s-.012-.137-.015-.206a3.74,3.74,0,0,1,.01-.381c0-.064.011-.128.018-.192a.831.831,0,0,1,.021-.156c.106-.653.269-1.293.42-1.937.269-1.144.683-2.611.093-3.723-.8-1.509-3.008-1.053-4.3-.632a31.754,31.754,0,0,1-3.34,1.181,8.314,8.314,0,0,1-1.831.075c-.682-.01-1.361.042-2.041.078-.985.052-2.364.226-3.208-.423-.632-.486-.438-1.4-.149-2.09a4.931,4.931,0,0,1,2.2-2.338l-.273.074h.005a.54.54,0,0,0,0-1.079" transform="translate(-54.715 -49.248)"/>
        <path id="Trazado_823258" data-name="Trazado 823258" d="M194.839,112.376c.65,1.12,2.012,2.3,1.531,3.741-.311.931-1.5,1.028-2.357.853a8.576,8.576,0,0,1-2.37-.991,14.591,14.591,0,0,1-2.826-1.956,6.434,6.434,0,0,1-1.127-1.272,2.193,2.193,0,0,1-.414-1.246.54.54,0,0,0-1.079,0,4.29,4.29,0,0,0,1.517,2.959,14.7,14.7,0,0,0,3.247,2.373,9.837,9.837,0,0,0,2.8,1.183c1.24.24,2.827.053,3.472-1.194a3.138,3.138,0,0,0,.13-2.383,15.892,15.892,0,0,0-1.6-2.61.54.54,0,0,0-.932.544" transform="translate(-85.724 -51.097)"/>
        <path id="Trazado_823259" data-name="Trazado 823259" d="M130.341,122.818a4.756,4.756,0,0,0-3.1,1.075,3.916,3.916,0,0,0-1.108,2.42c-.269,2.066.471,4.151.035,6.2a10.9,10.9,0,0,1-1.761,3.715,7.708,7.708,0,0,0-.885,1.669,20.662,20.662,0,0,0-1.021,4.478,13.111,13.111,0,0,0,.065,4.737c.29,1.2,1.062,2.349,2.422,2.322a4.064,4.064,0,0,0,2.341-.911,4.692,4.692,0,0,0,1.522-2.856,22.107,22.107,0,0,0,.263-3.41,14.726,14.726,0,0,1,.743-3.93c.236-.757.487-1.511.68-2.281a14.87,14.87,0,0,0,.366-2.417,12.3,12.3,0,0,1,1-3.835,8.95,8.95,0,0,0,1.129-3.53,3.7,3.7,0,0,0-1.171-2.868,2.655,2.655,0,0,0-1.527-.578c-.693-.049-.69,1.031,0,1.079a1.85,1.85,0,0,1,1.553,1.68,4.425,4.425,0,0,1-.537,2.816,17.539,17.539,0,0,0-1.306,3.634,19.448,19.448,0,0,0-.263,2.143,11.812,11.812,0,0,1-.438,2.151,33.985,33.985,0,0,0-1.184,4.371c-.148,1.026-.127,2.062-.181,3.1a7.4,7.4,0,0,1-.6,2.966,3,3,0,0,1-1.824,1.5c-.078.024-.156.045-.235.063-.038.008-.21.038-.152.03s-.108.009-.14.01c-.073,0-.146,0-.219,0-.128,0,.085.03-.063-.009-.058-.015-.117-.028-.175-.045s-.141-.062-.036-.01c-.063-.031-.123-.064-.183-.1s-.121-.093-.032-.018c-.045-.039-.09-.077-.132-.119s-.073-.08-.11-.121c-.023-.025-.071-.1,0,.007-.022-.031-.045-.062-.065-.094-.063-.1-.121-.2-.175-.31-.016-.031-.03-.063-.044-.094-.036-.078.046.123,0-.008-.026-.068-.052-.137-.075-.206a5.859,5.859,0,0,1-.215-.905c-.007-.042-.013-.084-.019-.127,0,.023.012.1,0-.011-.011-.088-.02-.176-.029-.264-.017-.183-.029-.366-.037-.549a16.34,16.34,0,0,1,.076-2.257,21.862,21.862,0,0,1,.849-4.277c.084-.271.174-.54.277-.8.024-.062.048-.122.073-.182-.058.139.011-.025.026-.057.046-.1.092-.2.144-.292.215-.4.5-.754.742-1.133a14.245,14.245,0,0,0,.965-1.716,8.4,8.4,0,0,0,.806-3.994c-.046-.873-.166-1.74-.212-2.613a6.387,6.387,0,0,1,.214-2.4,2.486,2.486,0,0,1,.5-.857,2.368,2.368,0,0,1,.907-.6,4.954,4.954,0,0,1,1.554-.287c.692-.032.7-1.112,0-1.079" transform="translate(-56.316 -56.544)"/>
        <path id="Trazado_823260" data-name="Trazado 823260" d="M70.677,109.013a7.775,7.775,0,0,0,.471,3.807c.221.656.457,1.307.649,1.973a5.764,5.764,0,0,1,.319,2.04,8.243,8.243,0,0,1-1.259,3.092,5.98,5.98,0,0,0-.937,3.427c.307,2.471,3.058,3.342,4.58,4.928a7.366,7.366,0,0,1,1.564,3.016,9.391,9.391,0,0,0,.72,1.929,6.053,6.053,0,0,0,1.2,1.448,5.02,5.02,0,0,0,2.86,1.371A2.623,2.623,0,0,0,83.4,134.48a4.774,4.774,0,0,0,.081-3.2,22.748,22.748,0,0,0-1.118-3.272,15.929,15.929,0,0,0-1.5-2.961,9.427,9.427,0,0,1-1.566-2.761,3.316,3.316,0,0,1,1.08-2.988c.748-.807,1.694-1.552,1.718-2.75a3.635,3.635,0,0,0-1.907-3.043c-.981-.589-2.238-.828-3.091-1.613-1.734-1.6.454-4.175,1.6-5.411.433-.465.889-.906,1.359-1.332.516-.467-.249-1.228-.763-.763a18.434,18.434,0,0,0-2.612,2.849,6.17,6.17,0,0,0-1.3,3.069,3.011,3.011,0,0,0,1.323,2.657c.934.687,2.111.94,3.082,1.57.788.511,1.572,1.626,1.073,2.58a5.016,5.016,0,0,1-.946,1.109,7.621,7.621,0,0,0-1.21,1.522,3.744,3.744,0,0,0-.338,3.2,13.992,13.992,0,0,0,1.662,2.8,15.284,15.284,0,0,1,1.389,2.809A19.969,19.969,0,0,1,82.5,131.83a2.953,2.953,0,0,1-.344,2.614,1.748,1.748,0,0,1-2.177.277,5.082,5.082,0,0,1-2.374-2.238A12.338,12.338,0,0,1,77,130.7a11.691,11.691,0,0,0-.651-1.645,7.507,7.507,0,0,0-2.392-2.628,11.451,11.451,0,0,1-2.469-2.026c-1.465-1.9.605-4.189,1.32-5.965a5.289,5.289,0,0,0,.389-1.688,6.373,6.373,0,0,0-.3-2.014c-.342-1.249-.889-2.445-1.142-3.718a4.812,4.812,0,0,1-.04-1.711.556.556,0,0,0-.377-.664.543.543,0,0,0-.664.377" transform="translate(-32.179 -47.993)"/>
        <path id="Trazado_823261" data-name="Trazado 823261" d="M260.372,151.429v-.005a.549.549,0,0,0-.4-.52,5.856,5.856,0,0,0-3.59.119,6.908,6.908,0,0,0-1.692.932,3.29,3.29,0,0,0-1.055,1.127,2.276,2.276,0,0,0,.424,2.271,13.116,13.116,0,0,1,.723,1.23,7.363,7.363,0,0,1,.553,1.765,8.124,8.124,0,0,0,1.312,3.674.543.543,0,0,0,.763,0,.553.553,0,0,0,0-.763,6.14,6.14,0,0,1-.951-2.771,9.127,9.127,0,0,0-1.017-2.953c-.2-.345-.429-.673-.631-1.017a3.287,3.287,0,0,1-.2-.39c-.011-.028-.037-.115-.051-.167a.314.314,0,0,1-.019-.142.442.442,0,0,1,.06-.25,1.555,1.555,0,0,1,.339-.423,5.547,5.547,0,0,1,1.354-.912,4.776,4.776,0,0,1,3.4-.287l-.4-.52v.005a.54.54,0,0,0,1.079,0" transform="translate(-116.699 -69.373)"/>
      </g>
    </g>
  </g>
</svg>
