<svg xmlns="http://www.w3.org/2000/svg" xmlns:xlink="http://www.w3.org/1999/xlink" width="190" height="125" viewBox="0 0 190 125">
  <defs>
    <clipPath id="clip-path">
      <rect id="Rectángulo_378743" data-name="Rectángulo 378743" width="110.899" height="106.076" fill="none"/>
    </clipPath>
  </defs>
  <g id="Grupo_1076252" data-name="Grupo 1076252" transform="translate(-179.664 -368)">
    <rect id="Rectángulo_378744" data-name="Rectángulo 378744" width="190" height="125" transform="translate(179.664 368)" fill="#fff"/>
    <g id="Grupo_1076251" data-name="Grupo 1076251" transform="translate(221.5 376.962)">
      <g id="Grupo_1076250" data-name="Grupo 1076250" transform="translate(0 0)" clip-path="url(#clip-path)">
        <rect id="Rectángulo_378742" data-name="Rectángulo 378742" width="72.518" height="91.611" rx="3.428" transform="translate(19.093 13.308)" fill="#ecebed"/>
        <path id="Trazado_822093" data-name="Trazado 822093" d="M56.995,11.393a5.979,5.979,0,1,1-5.98,5.98,6.011,6.011,0,0,1,5.98-5.98" transform="translate(46.574 10.401)" fill="#fc974d"/>
        <path id="Trazado_822094" data-name="Trazado 822094" d="M5.426,42.244a4.823,4.823,0,1,1,0,9.645,4.823,4.823,0,0,1,0-9.645" transform="translate(0.552 38.566)" fill="#fc974d"/>
        <path id="Trazado_822095" data-name="Trazado 822095" d="M57.234,12.756c0,.386.193.771.193,1.157a6.009,6.009,0,0,1-5.98,5.978H24.833a5.671,5.671,0,0,1-4.243-1.735,5.672,5.672,0,0,1-1.737-4.243,2.443,2.443,0,0,1,.193-1.157,6.037,6.037,0,0,1,5.98-4.821h3.856A9.673,9.673,0,0,1,38.141.605,9.5,9.5,0,0,1,47.4,7.935h3.856A6.509,6.509,0,0,1,55.5,9.67a5.01,5.01,0,0,1,1.735,3.086" transform="translate(17.212 0.552)" fill="#414a56"/>
        <path id="Trazado_822096" data-name="Trazado 822096" d="M42.506,14.72a6.913,6.913,0,0,1,6.942,6.944c0,6.942-6.942,10.994-13.884,17.936C28.62,32.658,21.676,28.606,21.676,21.664A6.914,6.914,0,0,1,28.62,14.72c3.472,0,5.207,1.737,6.944,5.207,1.735-3.47,3.47-5.207,6.942-5.207" transform="translate(19.789 13.438)" fill="#ff5856"/>
        <path id="Trazado_822097" data-name="Trazado 822097" d="M54.062,47.286a1.735,1.735,0,1,1-1.735,1.735,1.735,1.735,0,0,1,1.735-1.735" transform="translate(47.771 43.169)"/>
        <path id="Trazado_822098" data-name="Trazado 822098" d="M53.357,22.08a1.735,1.735,0,1,1-1.737,1.735,1.735,1.735,0,0,1,1.737-1.735" transform="translate(47.126 20.158)"/>
        <path id="Trazado_822099" data-name="Trazado 822099" d="M49.627.706A1.736,1.736,0,1,1,47.89,2.441,1.735,1.735,0,0,1,49.627.706" transform="translate(43.721 0.644)"/>
        <path id="Trazado_822100" data-name="Trazado 822100" d="M16.255,1.311a1.736,1.736,0,1,1-1.737,1.735,1.735,1.735,0,0,1,1.737-1.735" transform="translate(13.254 1.197)"/>
        <path id="Trazado_822101" data-name="Trazado 822101" d="M3.651,15.829a1.735,1.735,0,1,1-1.735,1.735,1.735,1.735,0,0,1,1.735-1.735" transform="translate(1.749 14.451)"/>
        <path id="Trazado_822102" data-name="Trazado 822102" d="M2.945,32.767A1.736,1.736,0,1,1,1.21,34.5a1.735,1.735,0,0,1,1.735-1.735" transform="translate(1.105 29.914)"/>
        <path id="Trazado_822103" data-name="Trazado 822103" d="M52.091,21.794H25.476a7.8,7.8,0,0,1-5.207-2.121,7.123,7.123,0,0,1-2.121-5.207,2.857,2.857,0,0,1,.193-1.351,7.421,7.421,0,0,1,7.135-5.787h3.086A11.036,11.036,0,0,1,38.785,0,10.771,10.771,0,0,1,49.006,7.328h3.086A7.809,7.809,0,0,1,57.3,9.45a6.793,6.793,0,0,1,1.928,3.665c0,.386.193.964.193,1.351a7.586,7.586,0,0,1-7.33,7.328M25.476,9.643A4.939,4.939,0,0,0,20.654,13.5v.964a5.538,5.538,0,0,0,1.352,3.47,4.642,4.642,0,0,0,3.47,1.351H52.091a4.775,4.775,0,0,0,4.823-4.821V13.5a4.605,4.605,0,0,0-1.349-2.508,4.656,4.656,0,0,0-3.474-1.351H48.235a1.224,1.224,0,0,1-1.157-.964,8.451,8.451,0,0,0-8.1-6.364,8.243,8.243,0,0,0-8.1,6.364,1.224,1.224,0,0,1-1.157.964Z" transform="translate(16.568 0)"/>
        <path id="Trazado_822104" data-name="Trazado 822104" d="M76.493,100.278h-59.4a7.738,7.738,0,0,1-7.715-7.715v-78.5a7.738,7.738,0,0,1,7.715-7.715H27.5a1.245,1.245,0,0,1,1.157,1.157A1.08,1.08,0,0,1,27.7,8.666H17.284a5.39,5.39,0,0,0-5.4,5.4V92.757a5.39,5.39,0,0,0,5.4,5.4h59.4a5.391,5.391,0,0,0,5.4-5.4V14.066a5.391,5.391,0,0,0-5.4-5.4H66.271a1.243,1.243,0,0,1-1.155-1.157,1.244,1.244,0,0,1,1.155-1.157H76.687A7.738,7.738,0,0,1,84.4,14.066V92.757a8.008,8.008,0,0,1-7.908,7.522" transform="translate(8.56 5.798)"/>
        <path id="Trazado_822105" data-name="Trazado 822105" d="M5.978,53.6a5.979,5.979,0,0,1,0-11.958,5.979,5.979,0,1,1,0,11.958m0-9.643a3.662,3.662,0,0,0-3.663,3.663,3.545,3.545,0,0,0,3.663,3.665,3.547,3.547,0,0,0,3.665-3.665,3.663,3.663,0,0,0-3.665-3.663" transform="translate(0 38.014)"/>
        <path id="Trazado_822106" data-name="Trazado 822106" d="M57.638,25.244a7.328,7.328,0,1,1,7.328-7.328,7.326,7.326,0,0,1-7.328,7.328m0-11.958a4.822,4.822,0,1,0,4.823,4.823,4.773,4.773,0,0,0-4.823-4.823" transform="translate(45.93 9.665)"/>
        <path id="Trazado_822107" data-name="Trazado 822107" d="M68.714,81.981H15.675a1.245,1.245,0,0,1-1.157-1.157V16.985a1.244,1.244,0,0,1,1.157-1.155,1.243,1.243,0,0,1,1.157,1.155V79.669H67.556V16.985a1.157,1.157,0,0,1,2.315,0V80.824a1.243,1.243,0,0,1-1.157,1.157" transform="translate(13.254 14.452)"/>
        <path id="Trazado_822108" data-name="Trazado 822108" d="M36.115,41.309h0a1,1,0,0,1-.771-.385A54.677,54.677,0,0,0,30.329,36.3C25.313,31.859,21.072,28,21.072,22.216a8.149,8.149,0,0,1,8.1-8.1c3.472,0,5.4,1.544,6.944,4.052,1.542-2.508,3.47-4.052,6.942-4.052a8.151,8.151,0,0,1,8.1,8.1c0,5.785-4.243,9.643-9.259,14.079-1.542,1.542-3.279,2.892-5.014,4.629-.193.385-.386.385-.771.385M29.171,16.43a5.8,5.8,0,0,0-5.785,5.787c0,4.627,3.663,8.1,8.486,12.342,1.349,1.157,2.7,2.508,4.243,3.858,1.349-1.351,2.892-2.7,4.243-3.858,4.821-4.243,8.486-7.522,8.486-12.342a5.8,5.8,0,0,0-5.787-5.787c-2.7,0-4.243,1.157-5.978,4.629a1.166,1.166,0,0,1-1.157.578,1.372,1.372,0,0,1-1.157-.578c-1.544-3.472-2.892-4.629-5.593-4.629" transform="translate(19.237 12.886)"/>
        <path id="Trazado_822109" data-name="Trazado 822109" d="M35.672,33.267H18.7a1.157,1.157,0,1,1,0-2.315H35.672a1.245,1.245,0,0,1,1.157,1.157,1.113,1.113,0,0,1-1.157,1.157" transform="translate(16.016 28.257)"/>
        <path id="Trazado_822110" data-name="Trazado 822110" d="M58.532,35.788H18.8a1.157,1.157,0,1,1,0-2.315H58.532a1.157,1.157,0,1,1,0,2.315" transform="translate(16.107 30.559)"/>
        <path id="Trazado_822111" data-name="Trazado 822111" d="M35.672,39.518H18.7a1.157,1.157,0,1,1,0-2.315H35.672a1.245,1.245,0,0,1,1.157,1.157,1.112,1.112,0,0,1-1.157,1.157" transform="translate(16.016 33.964)"/>
        <path id="Trazado_822112" data-name="Trazado 822112" d="M58.532,42.039H18.8a1.157,1.157,0,0,1,0-2.315H58.532a1.157,1.157,0,1,1,0,2.315" transform="translate(16.107 36.265)"/>
        <path id="Trazado_822113" data-name="Trazado 822113" d="M35.672,45.87H18.7a1.157,1.157,0,1,1,0-2.315H35.672a1.245,1.245,0,0,1,1.157,1.157c.193.58-.386,1.157-1.157,1.157" transform="translate(16.016 39.763)"/>
        <path id="Trazado_822114" data-name="Trazado 822114" d="M58.532,48.391H18.8a1.157,1.157,0,0,1,0-2.315H58.532a1.157,1.157,0,0,1,0,2.315" transform="translate(16.107 42.064)"/>
      </g>
    </g>
  </g>
</svg>
