<svg xmlns="http://www.w3.org/2000/svg" xmlns:xlink="http://www.w3.org/1999/xlink" width="96" height="96" viewBox="0 0 96 96">
  <defs>
    <clipPath id="clip-path">
      <rect id="Rectángulo_378741" data-name="Rectángulo 378741" width="58.663" height="61.999" transform="translate(0 0)" fill="none"/>
    </clipPath>
  </defs>
  <g id="Grupo_1077110" data-name="Grupo 1077110" transform="translate(20490 12056)">
    <g id="Grupo_1077109" data-name="Grupo 1077109">
      <g id="Grupo_1075485" data-name="Grupo 1075485" transform="translate(-21841.332 -12351)">
        <circle id="Elipse_4282" data-name="Elipse 4282" cx="48" cy="48" r="48" transform="translate(1351.333 295)" fill="#fffad0"/>
      </g>
      <g id="Grupo_1076257" data-name="Grupo 1076257" transform="translate(-20473.332 -12037)">
        <g id="Grupo_1076248" data-name="Grupo 1076248" clip-path="url(#clip-path)">
          <path id="Trazado_822068" data-name="Trazado 822068" d="M49.094,32.9a11.678,11.678,0,0,0-1.477-5.073.682.682,0,0,0-1.261.36c0,.344-.483.781-1.292,1.17a9.437,9.437,0,0,1-1.552.567,10.908,10.908,0,0,0-7.4,5.153,16.491,16.491,0,0,0-5.455-.914h-.053a16.5,16.5,0,0,0-5.456.914,10.9,10.9,0,0,0-7.4-5.153c-1.173-.3-2.842-1.075-2.842-1.737a.682.682,0,0,0-1.261-.36A11.694,11.694,0,0,0,12.176,32.9c-.162,2.66.538,6.591,4.713,10.375a10,10,0,0,0-.36,2.519c-.382.937-2.356,6.292.433,10.566,2.223,3.407,6.823,5.134,13.673,5.134,6.929,0,11.562-1.736,13.771-5.159,2.754-4.27.731-9.6.336-10.545a10.024,10.024,0,0,0-.361-2.515C48.556,39.5,49.256,35.565,49.094,32.9Zm-35.56.143a10.932,10.932,0,0,1,.734-3.344,5.229,5.229,0,0,0,1.367.9,10.631,10.631,0,0,0,1.828.66c.023.006.046.01.069.014A9.55,9.55,0,0,1,23.861,35.6q-.418.19-.821.407c-.778-.869-2.859-2.971-4.9-3.122a3.189,3.189,0,0,1-2.29-1.135.682.682,0,0,0-1.289.081c-.05.184-1.125,4.425,3.327,9.04a10.755,10.755,0,0,0-.5,1C14.653,39.237,13.356,36.273,13.534,33.048ZM18.66,39.7a10.582,10.582,0,0,1-2.735-5.028,7.427,7.427,0,0,1-.14-1.168,5.339,5.339,0,0,0,2.254.741c1.2.089,2.672,1.323,3.584,2.249a8.608,8.608,0,0,0-2.843,3.049Zm24.6,15.9c-1.943,3-6.189,4.528-12.62,4.528-6.355,0-10.569-1.517-12.526-4.508-2.6-3.978-.3-9.361-.275-9.414a.681.681,0,0,0,.058-.274,8.816,8.816,0,0,1,1.227-4.456.678.678,0,0,0,.337-.329c0-.006.169-.353.459-.837a12.315,12.315,0,0,1,5.114-3.727.654.654,0,0,0,.135-.051l.011-.007a15.019,15.019,0,0,1,5.434-1h.053a15.027,15.027,0,0,1,5.434,1l.01.007a.641.641,0,0,0,.136.051,12.313,12.313,0,0,1,5.112,3.726c.29.483.458.832.46.838a.68.68,0,0,0,.338.329,8.826,8.826,0,0,1,1.227,4.456.678.678,0,0,0,.06.28C43.463,46.273,45.824,51.635,43.255,55.607Zm-.8-16.106c-.177-.288-.388-.612-.632-.943A7.076,7.076,0,0,0,39.647,36.5c.913-.926,2.382-2.159,3.584-2.248a5.353,5.353,0,0,0,2.257-.742,9.735,9.735,0,0,1-2.877,6.2C42.56,39.636,42.508,39.569,42.455,39.5Zm.927,1.373c4.453-4.615,3.377-8.856,3.328-9.04a.682.682,0,0,0-1.29-.081,3.187,3.187,0,0,1-2.29,1.135c-2.041.151-4.122,2.253-4.9,3.122q-.4-.216-.823-.408a9.514,9.514,0,0,1,6.331-4.327c.023,0,.046-.008.069-.014a10.6,10.6,0,0,0,1.828-.66A5.186,5.186,0,0,0,47,29.7a10.919,10.919,0,0,1,.729,3.286c.2,3.248-1.1,6.232-3.847,8.886A10.755,10.755,0,0,0,43.382,40.874Z" fill="none" stroke="#231f20" stroke-miterlimit="10" stroke-width="1"/>
          <path id="Trazado_822069" data-name="Trazado 822069" d="M34.857,48.093a6.446,6.446,0,0,0-3.977-1.048,6.829,6.829,0,0,0-3.961.912c-1.187.842-1.764,2.28-1.764,4.4,0,1.95,2.118,3.068,5.812,3.068,4.906,0,5.638-1.922,5.638-3.068A5.014,5.014,0,0,0,34.857,48.093Zm-3.89,5.963c-2.15,0-4.448-.448-4.448-1.7,0-2.439.9-3.074,1.19-3.283a5.683,5.683,0,0,1,3.171-.66c3.1,0,4.361,1.143,4.361,3.943C35.241,53.89,32.252,54.056,30.967,54.056Z" fill="none" stroke="#231f20" stroke-miterlimit="10" stroke-width="1"/>
          <circle id="Elipse_5970" data-name="Elipse 5970" cx="1.024" cy="1.024" r="1.024" transform="translate(27.623 50.208)" fill="none" stroke="#231f20" stroke-miterlimit="10" stroke-width="1"/>
          <circle id="Elipse_5971" data-name="Elipse 5971" cx="1.024" cy="1.024" r="1.024" transform="translate(32.09 50.208)" fill="none" stroke="#231f20" stroke-miterlimit="10" stroke-width="1"/>
          <path id="Trazado_822070" data-name="Trazado 822070" d="M26.262,43.965a1.848,1.848,0,1,0-1.848,1.847A1.85,1.85,0,0,0,26.262,43.965Zm-1.848.483a.484.484,0,1,1,.483-.483A.484.484,0,0,1,24.414,44.448Z" fill="none" stroke="#231f20" stroke-miterlimit="10" stroke-width="1"/>
          <path id="Trazado_822071" data-name="Trazado 822071" d="M36.856,42.117A1.847,1.847,0,1,0,38.7,43.965,1.85,1.85,0,0,0,36.856,42.117Zm0,2.331a.484.484,0,1,1,.483-.483A.484.484,0,0,1,36.856,44.448Z" fill="none" stroke="#231f20" stroke-miterlimit="10" stroke-width="1"/>
          <path id="Trazado_822072" data-name="Trazado 822072" d="M16.87,42.5l-3-4-1-5,.648-4.062.352-.938,3,1.789,4.753,1.383L23.37,34,24.9,35.788l5.737-.8,5.475.8,2.3-2.283,2.226-2.665,3.753-.594L47.37,28,48.5,33.506l-.743,5.25L43.962,42.95v2.862l1.526,5.42L43.37,57,38.7,59.82,31.37,61l-6.215-.6L20.37,59l-3.5-3.579-.548-3.164.256-4.365.292-2.079.793-2.862Z" fill="#ffb59b"/>
          <path id="Trazado_822073" data-name="Trazado 822073" d="M54.831,24.937a2.521,2.521,0,1,1-2.52,2.52,2.5,2.5,0,0,1,2.52-2.52" fill="#9e6133"/>
          <path id="Trazado_822074" data-name="Trazado 822074" d="M6.377,47.891a1.916,1.916,0,1,1-1.915,1.916,1.854,1.854,0,0,1,1.915-1.916" fill="#9e6133"/>
          <path id="Trazado_822075" data-name="Trazado 822075" d="M41.564,6.856,44.689,3.73,54.771,13.813l-9.578,9.679L21.7,20.971a3.4,3.4,0,0,1-2.017-.907,3.51,3.51,0,0,1-1.008-2.017,2.886,2.886,0,0,1,.2-1.613h-.1L7.385,27.927a3.5,3.5,0,0,1-2.52,1.009,3.5,3.5,0,0,1-2.521-1.009,3.649,3.649,0,0,1,0-5.141L19.081,6.049Z" fill="#ffd8a8"/>
          <path id="Trazado_822076" data-name="Trazado 822076" d="M53.561,2.522a1.335,1.335,0,0,1,1.311,1.311,1.311,1.311,0,0,1-2.622,0,1.4,1.4,0,0,1,1.311-1.311"/>
          <path id="Trazado_822077" data-name="Trazado 822077" d="M52.351,40.329A1.311,1.311,0,1,1,51.04,41.64a1.272,1.272,0,0,1,1.311-1.311"/>
          <path id="Trazado_822078" data-name="Trazado 822078" d="M35.918,0a1.335,1.335,0,0,1,1.311,1.312,1.311,1.311,0,0,1-2.622,0A1.4,1.4,0,0,1,35.918,0"/>
          <path id="Trazado_822079" data-name="Trazado 822079" d="M8.192,0A1.336,1.336,0,0,1,9.5,1.312a1.312,1.312,0,0,1-2.623,0A1.405,1.405,0,0,1,8.192,0"/>
          <path id="Trazado_822080" data-name="Trazado 822080" d="M6.982,37.809A1.311,1.311,0,1,1,5.671,39.12a1.336,1.336,0,0,1,1.311-1.311"/>
          <path id="Trazado_822081" data-name="Trazado 822081" d="M5.672,10.083A1.311,1.311,0,1,1,4.36,11.394a1.4,1.4,0,0,1,1.312-1.311"/>
          <path id="Trazado_822082" data-name="Trazado 822082" d="M47.21,13.814a1.236,1.236,0,0,1-.907-.4L40.656,7.764A1.283,1.283,0,1,1,42.472,5.95L48.117,11.6a1.278,1.278,0,0,1,0,1.816,1.1,1.1,0,0,1-.907.4"/>
          <path id="Trazado_822083" data-name="Trazado 822083" d="M4.865,30.247a4.84,4.84,0,0,1-3.428-8.268L18.174,5.243a1.5,1.5,0,0,1,.907-.4l21.979.806,2.823-2.823a1.506,1.506,0,0,1,.907-.4,1.233,1.233,0,0,1,.908.4L55.78,12.9a1.507,1.507,0,0,1,.4.908,1.234,1.234,0,0,1-.4.907L46.1,24.4a1.292,1.292,0,0,1-1.008.4L21.7,22.282a4.587,4.587,0,0,1-2.823-1.311,5.012,5.012,0,0,1-1.108-1.713L8.293,28.936a5.166,5.166,0,0,1-3.428,1.311M19.585,7.36,3.151,23.693a2.372,2.372,0,0,0,0,3.327,2.429,2.429,0,0,0,1.714.706,2.362,2.362,0,0,0,1.714-.706L17.972,15.426l.1-.1a4.58,4.58,0,0,1,4.134-2.319l12.905.605a1.261,1.261,0,1,1-.1,2.52l-12.905-.6a2.205,2.205,0,0,0-2.017,1.311,1.743,1.743,0,0,0-.1,1.007,2.3,2.3,0,0,0,.6,1.21,2.646,2.646,0,0,0,1.31.606l22.887,2.52,8.268-8.267L44.79,5.646,42.472,7.965a1.5,1.5,0,0,1-.908.4Z"/>
          <path id="Trazado_822084" data-name="Trazado 822084" d="M6.377,52.932A3.125,3.125,0,1,1,9.5,49.807a3.209,3.209,0,0,1-3.126,3.125m0-3.831a.605.605,0,0,0,0,1.21.6.6,0,1,0,0-1.21"/>
          <path id="Trazado_822085" data-name="Trazado 822085" d="M54.831,30.288a3.831,3.831,0,1,1,3.832-3.831,3.829,3.829,0,0,1-3.832,3.831m0-5.041a1.311,1.311,0,1,0,1.312,1.311,1.335,1.335,0,0,0-1.312-1.311"/>
          <path id="Trazado_822086" data-name="Trazado 822086" d="M30.37,54l3,1,1.872-1.2.677-1.542-.468-2.45-1.313-1.582-4.467-.333-2.305.518-1,1.59v2l-.108.778,1.361,1.279L29.37,55Z" fill="#bf8874"/>
          <path id="Trazado_822087" data-name="Trazado 822087" d="M49.094,32.9a11.678,11.678,0,0,0-1.477-5.073.682.682,0,0,0-1.261.36c0,.344-.483.781-1.292,1.17a9.437,9.437,0,0,1-1.552.567,10.908,10.908,0,0,0-7.4,5.153,16.491,16.491,0,0,0-5.455-.914h-.053a16.5,16.5,0,0,0-5.456.914,10.9,10.9,0,0,0-7.4-5.153c-1.173-.3-2.842-1.075-2.842-1.737a.682.682,0,0,0-1.261-.36A11.694,11.694,0,0,0,12.176,32.9c-.162,2.66.538,6.591,4.713,10.375a10,10,0,0,0-.36,2.519c-.382.937-2.356,6.292.433,10.566,2.223,3.407,6.823,5.134,13.673,5.134,6.929,0,11.562-1.736,13.771-5.159,2.754-4.27.731-9.6.336-10.545a10.024,10.024,0,0,0-.361-2.515c4.175-3.784,4.875-7.715,4.713-10.375m-35.56.143a10.932,10.932,0,0,1,.734-3.344,5.229,5.229,0,0,0,1.367.9,10.631,10.631,0,0,0,1.828.66c.023.006.046.01.069.014A9.55,9.55,0,0,1,23.861,35.6q-.418.19-.821.407c-.778-.869-2.859-2.971-4.9-3.122a3.189,3.189,0,0,1-2.29-1.135.682.682,0,0,0-1.289.081c-.05.184-1.125,4.425,3.327,9.04a10.755,10.755,0,0,0-.5,1c-2.731-2.637-4.028-5.6-3.85-8.826M18.66,39.7a10.582,10.582,0,0,1-2.735-5.028,7.427,7.427,0,0,1-.14-1.168,5.339,5.339,0,0,0,2.254.741c1.2.089,2.672,1.323,3.584,2.249a8.608,8.608,0,0,0-2.843,3.049l-.12.157m24.6,15.9c-1.943,3-6.189,4.528-12.62,4.528-6.355,0-10.569-1.517-12.526-4.508-2.6-3.978-.3-9.361-.275-9.414a.681.681,0,0,0,.058-.274,8.816,8.816,0,0,1,1.227-4.456.678.678,0,0,0,.337-.329c0-.006.169-.353.459-.837a12.315,12.315,0,0,1,5.114-3.727.654.654,0,0,0,.135-.051l.011-.007a15.019,15.019,0,0,1,5.434-1h.053a15.027,15.027,0,0,1,5.434,1l.01.007a.641.641,0,0,0,.136.051,12.313,12.313,0,0,1,5.112,3.726c.29.483.458.832.46.838a.68.68,0,0,0,.338.329,8.826,8.826,0,0,1,1.227,4.456.678.678,0,0,0,.06.28c.024.054,2.385,5.416-.184,9.388m-.8-16.106c-.177-.288-.388-.612-.632-.943A7.076,7.076,0,0,0,39.647,36.5c.913-.926,2.382-2.159,3.584-2.248a5.353,5.353,0,0,0,2.257-.742,9.735,9.735,0,0,1-2.877,6.2c-.051-.068-.1-.135-.156-.2m.927,1.373c4.453-4.615,3.377-8.856,3.328-9.04a.682.682,0,0,0-1.29-.081,3.187,3.187,0,0,1-2.29,1.135c-2.041.151-4.122,2.253-4.9,3.122q-.4-.216-.823-.408a9.514,9.514,0,0,1,6.331-4.327c.023,0,.046-.008.069-.014a10.6,10.6,0,0,0,1.828-.66A5.186,5.186,0,0,0,47,29.7a10.919,10.919,0,0,1,.729,3.286c.2,3.248-1.1,6.232-3.847,8.886a10.755,10.755,0,0,0-.5-1" fill="#231f20"/>
          <path id="Trazado_822088" data-name="Trazado 822088" d="M34.857,48.093a6.446,6.446,0,0,0-3.977-1.048,6.829,6.829,0,0,0-3.961.912c-1.187.842-1.764,2.28-1.764,4.4,0,1.95,2.118,3.068,5.812,3.068,4.906,0,5.638-1.922,5.638-3.068a5.014,5.014,0,0,0-1.748-4.259m-3.89,5.963c-2.15,0-4.448-.448-4.448-1.7,0-2.439.9-3.074,1.19-3.283a5.683,5.683,0,0,1,3.171-.66c3.1,0,4.361,1.143,4.361,3.943,0,1.538-2.989,1.7-4.274,1.7" fill="#231f20"/>
          <path id="Trazado_822089" data-name="Trazado 822089" d="M28.647,50.208a1.024,1.024,0,1,0,1.024,1.024,1.023,1.023,0,0,0-1.024-1.024" fill="#231f20"/>
          <path id="Trazado_822090" data-name="Trazado 822090" d="M33.114,50.208a1.024,1.024,0,1,0,1.024,1.024,1.023,1.023,0,0,0-1.024-1.024" fill="#231f20"/>
          <path id="Trazado_822091" data-name="Trazado 822091" d="M26.262,43.965a1.848,1.848,0,1,0-1.848,1.847,1.85,1.85,0,0,0,1.848-1.847m-1.848.483a.484.484,0,1,1,.483-.483.484.484,0,0,1-.483.483" fill="#231f20"/>
          <path id="Trazado_822092" data-name="Trazado 822092" d="M36.856,42.117A1.847,1.847,0,1,0,38.7,43.965a1.85,1.85,0,0,0-1.848-1.848m0,2.331a.484.484,0,1,1,.483-.483.484.484,0,0,1-.483.483" fill="#231f20"/>
        </g>
      </g>
    </g>
  </g>
</svg>
