<svg xmlns="http://www.w3.org/2000/svg" width="71" height="71" viewBox="0 0 71 71">
  <g id="Grupo_1077183" data-name="Grupo 1077183" transform="translate(-511 -3950.127)">
    <g id="Grupo_1075760" data-name="Grupo 1075760" transform="translate(511 3950.127)">
      <circle id="Elipse_4845" data-name="Elipse 4845" cx="35.5" cy="35.5" r="35.5" fill="#3b5620"/>
    </g>
    <g id="Grupo_1075765" data-name="Grupo 1075765" transform="translate(-287.877 3403.849)">
      <path id="Trazado_815081" data-name="Trazado 815081" d="M841.326,596.369c-1.292,1.455-2.7,2.1-4.42,1.455a3.594,3.594,0,0,1-2.383-3.62,3.8,3.8,0,0,1-3.95-3.947c-2.7-.383-3.648-1.329-3.9-3.931-2.481-.124-3.817-1.424-3.923-3.959a3.564,3.564,0,0,1-3.662-2.473c-.587-1.7.074-3.055,1.454-4.292-.938-.506-1.769-1.028-2.658-1.416a13.974,13.974,0,0,1-4.119-2.423c-2.46-2.3-3.567-5.115-2.531-8.4a7.9,7.9,0,0,1,13.593-3.019,12.438,12.438,0,0,1,2.215,3.511c.5,1.117,1.085,2.2,1.7,3.421,1.242-1.41,2.626-2.075,4.325-1.492a3.562,3.562,0,0,1,2.477,3.677c2.5.128,3.811,1.441,3.949,3.957a3.663,3.663,0,0,1,2.831,1.04,10.106,10.106,0,0,0,5.059,6.723c2.652.327,3.6,1.239,3.906,3.844.751.036,1.52.124,2.285.1.983-.034,1.967-.127,2.943-.253a2.826,2.826,0,0,1,3.36,2.362,2.777,2.777,0,0,1-2.5,3.145c-.781.122-1.569.2-2.472.311.213.151.357.25.5.352a8.458,8.458,0,0,1,3.748,5.884,7.626,7.626,0,0,1-3.21,7.422,7.829,7.829,0,0,1-11.054-1.54A22.681,22.681,0,0,1,843,599.65C842.426,598.607,841.915,597.53,841.326,596.369ZM827.692,568.33a21.686,21.686,0,0,1-2.478-4.517,7.665,7.665,0,0,0-3.622-3.847,5.79,5.79,0,0,0-6.574.749,5.918,5.918,0,0,0-2.246,6.337,7.257,7.257,0,0,0,4.038,4.762,25.126,25.126,0,0,1,4.761,2.577l2-1.972a12.631,12.631,0,0,0-3.664-2.371,8.43,8.43,0,0,1-3.462-2.435,3.142,3.142,0,0,1,4.8-4.055,9.879,9.879,0,0,1,1.985,3.03,12.515,12.515,0,0,0,2.254,3.488,2.668,2.668,0,0,0,.243.219Zm18.811,22.8a13.109,13.109,0,0,0,3.773,2.42,8.2,8.2,0,0,1,3.544,2.577,2.711,2.711,0,0,1,.629,2.168,3.462,3.462,0,0,1-2.245,2.662,2.938,2.938,0,0,1-3.111-.75,2.116,2.116,0,0,1-.439-.455c-.6-.929-1.241-1.834-1.745-2.812a14.378,14.378,0,0,0-2.526-3.689l-1.992,1.98a23.427,23.427,0,0,1,2.676,4.848,9.9,9.9,0,0,0,1.391,1.98,6.248,6.248,0,0,0,4.9,2.222,6.533,6.533,0,0,0,5.834-4.338,6.14,6.14,0,0,0-1.853-6.7,21.418,21.418,0,0,0-3.056-1.943c-.912-.522-1.881-.942-2.809-1.437a10.1,10.1,0,0,1-1.006-.693Zm-24.072-10.485a1.942,1.942,0,0,0,1.5-.649q4.683-4.69,9.37-9.375a2.735,2.735,0,0,0,.31-.359,1.892,1.892,0,0,0-.953-2.89,1.781,1.781,0,0,0-1.911.411q-4.846,4.825-9.672,9.67a1.675,1.675,0,0,0-.251.338A1.9,1.9,0,0,0,822.431,580.645Zm2.02,1.759a1.988,1.988,0,0,0,1.165,2.019,1.807,1.807,0,0,0,2.1-.39q4.79-4.768,9.558-9.559a1.905,1.905,0,1,0-2.7-2.686q-4.771,4.749-9.511,9.531A3.972,3.972,0,0,0,824.451,582.4Zm17.43-5.325-.13-.077a1.841,1.841,0,0,0-1.143-1.746,1.867,1.867,0,0,0-2.136.433q-4.767,4.754-9.521,9.522a1.9,1.9,0,1,0,2.7,2.684q4.772-4.749,9.512-9.531A5.543,5.543,0,0,0,841.88,577.079Zm3.9,3.895-.13-.076a1.851,1.851,0,0,0-1.149-1.741,1.9,1.9,0,0,0-2.176.465q-4.729,4.718-9.446,9.447a1.908,1.908,0,1,0,2.676,2.716q4.785-4.737,9.529-9.513A5.217,5.217,0,0,0,845.784,580.973Zm1.913,1.982a2.154,2.154,0,0,0-1.6.721q-4.594,4.591-9.2,9.17a3.81,3.81,0,0,0-.323.348,1.876,1.876,0,0,0,1.036,3.009,1.921,1.921,0,0,0,1.916-.6q4.661-4.635,9.322-9.272a2.487,2.487,0,0,0,.342-.4,1.827,1.827,0,0,0,.105-1.951A1.854,1.854,0,0,0,847.7,582.955Zm1.908,5.086a7.705,7.705,0,0,0,2,.87,18.838,18.838,0,0,0,5.522-.2,1.156,1.156,0,0,0,1.069-1.262,1.129,1.129,0,0,0-1.443-.874,19.827,19.827,0,0,1-5.681.119.548.548,0,0,0-.412.117C850.333,587.153,850.04,587.526,849.605,588.042Zm-2.4,5.854c.609,1.2,1.152,2.424,1.837,3.563a6.441,6.441,0,0,0,1.56,1.735c.641.494,1.212.274,1.849-.478a1.11,1.11,0,0,0-.023-1.615,4.363,4.363,0,0,0-1.115-1.026C849.96,595.31,848.57,594.615,847.2,593.9Zm-24.312-24.232c-.491-.991-.942-2.063-1.536-3.049a10.291,10.291,0,0,0-1.74-2.213c-.627-.584-1.122-.428-1.772.259-.588.621-.673,1.157-.111,1.766a7.685,7.685,0,0,0,1.691,1.4C820.562,568.506,821.767,569.078,822.889,569.664Z" transform="translate(0 0)" fill="#e8e8e8"/>
    </g>
  </g>
</svg>
