<svg xmlns="http://www.w3.org/2000/svg" xmlns:xlink="http://www.w3.org/1999/xlink" width="169" height="169" viewBox="0 0 169 169">
  <defs>
    <clipPath id="clip-path">
      <rect id="Rect치ngulo_379418" data-name="Rect치ngulo 379418" width="137" height="127.685" fill="none"/>
    </clipPath>
  </defs>
  <g id="Grupo_1077161" data-name="Grupo 1077161" transform="translate(-1061 -2925.061)">
    <g id="Grupo_1077158" data-name="Grupo 1077158" transform="translate(1061 2925.061)">
      <path id="Uni칩n_12" data-name="Uni칩n 12" d="M84.5,0A84.5,84.5,0,1,1,0,84.5,84.5,84.5,0,0,1,84.5,0Z" transform="translate(0 0)" fill="#fffad0"/>
    </g>
    <g id="Grupo_1077108" data-name="Grupo 1077108" transform="translate(1073 2945.719)">
      <path id="Trazado_823511" data-name="Trazado 823511" d="M162.885,65.287l3.459-6.376-2.048-6.72-6.7-8.438-5.562-17.122-4.061-6.913-9.174.311-3.248-8-7.107-.875-6.275-.517-7.865-5.571-7.13,2.705-2.839,4.743L103.3,17.552l-5.285,2.531L95.25,26.818l.606,9.982,4.256,8.635,5.791,5.39-1.024,7.7,4.374,7.543,4.3,2.128,4.3-4.13,2.192,1.252,3.423,4.905,1.253,6.31,4.757,4.056,5.755.06,2.58-.195,4.5,5.672,4.088-1.08,1.533-1.6,3.77-.807Z" transform="translate(-68.344 -3.635)" fill="#ff5856"/>
      <g id="Grupo_1077107" data-name="Grupo 1077107">
        <g id="Grupo_1077106" data-name="Grupo 1077106" clip-path="url(#clip-path)">
          <path id="Trazado_823512" data-name="Trazado 823512" d="M455.387,279.53a4.943,4.943,0,1,1-4.943-4.943,4.943,4.943,0,0,1,4.943,4.943" transform="translate(-319.658 -197.023)" fill="#ffdc67"/>
          <path id="Trazado_823513" data-name="Trazado 823513" d="M447.214,282.516a6.214,6.214,0,1,1,6.214-6.214,6.221,6.221,0,0,1-6.214,6.214m0-9.887a3.672,3.672,0,1,0,3.672,3.672,3.676,3.676,0,0,0-3.672-3.672" transform="translate(-316.429 -193.794)"/>
          <path id="Trazado_823514" data-name="Trazado 823514" d="M214.4,345.459a6.638,6.638,0,1,1,1.073-9.326,6.638,6.638,0,0,1-1.073,9.326" transform="translate(-146.111 -239.382)" fill="#ffdc67"/>
          <path id="Trazado_823515" data-name="Trazado 823515" d="M200.855,341.955a7.909,7.909,0,1,1,11.112,1.279,7.918,7.918,0,0,1-11.112-1.279m10.4-8.253a5.367,5.367,0,1,0-.868,7.54,5.373,5.373,0,0,0,.868-7.54" transform="translate(-142.891 -236.161)"/>
          <path id="Trazado_823516" data-name="Trazado 823516" d="M351.5,82.411a2.825,2.825,0,1,1,2.825,2.825,2.825,2.825,0,0,1-2.825-2.825" transform="translate(-252.21 -57.105)" fill="#ffdc67"/>
          <path id="Trazado_823517" data-name="Trazado 823517" d="M351.1,83.279a4.1,4.1,0,1,1,4.1-4.1,4.1,4.1,0,0,1-4.1,4.1m0-5.649a1.554,1.554,0,1,0,1.554,1.554,1.555,1.555,0,0,0-1.554-1.554" transform="translate(-248.981 -53.877)"/>
          <path id="Trazado_823518" data-name="Trazado 823518" d="M4.5,97.411a2.825,2.825,0,1,1,2.825,2.825A2.825,2.825,0,0,1,4.5,97.411" transform="translate(-3.229 -67.868)" fill="#ffdc67"/>
          <path id="Trazado_823519" data-name="Trazado 823519" d="M4.1,98.279a4.1,4.1,0,1,1,4.1-4.1,4.1,4.1,0,0,1-4.1,4.1m0-5.649a1.554,1.554,0,1,0,1.554,1.554A1.555,1.555,0,0,0,4.1,92.629" transform="translate(0 -64.64)"/>
          <path id="Trazado_823520" data-name="Trazado 823520" d="M205.455,407.564a1.977,1.977,0,1,1-1.977-1.977,1.977,1.977,0,0,1,1.977,1.977" transform="translate(-144.581 -291.019)"/>
          <path id="Trazado_823521" data-name="Trazado 823521" d="M460.455,234.564a1.977,1.977,0,1,1-1.977-1.977,1.977,1.977,0,0,1,1.977,1.977" transform="translate(-327.551 -166.887)"/>
          <path id="Trazado_823522" data-name="Trazado 823522" d="M65.455,234.564a1.977,1.977,0,1,1-1.977-1.977,1.977,1.977,0,0,1,1.977,1.977" transform="translate(-44.128 -166.887)"/>
          <path id="Trazado_823523" data-name="Trazado 823523" d="M332.454,283.6l-42.843-53.989a3.4,3.4,0,0,1,.548-4.762l2.877-2.283a3.4,3.4,0,0,1,4.762.548L340.641,277.1a3.4,3.4,0,0,1-.548,4.763l-2.877,2.283a3.4,3.4,0,0,1-4.762-.548" transform="translate(-207.28 -159.173)" fill="#fc974d"/>
          <path id="Trazado_823524" data-name="Trazado 823524" d="M330.091,281.832a5.36,5.36,0,0,1-4.21-2.028h0l-42.843-53.989a5.377,5.377,0,0,1,.868-7.54l2.876-2.283a5.377,5.377,0,0,1,7.54.868l42.843,53.989a5.377,5.377,0,0,1-.868,7.54l-2.876,2.283a5.341,5.341,0,0,1-3.331,1.161m-1.112-4.487a1.414,1.414,0,0,0,1.984.229l2.877-2.283a1.423,1.423,0,0,0,.229-1.984l-42.843-53.989a1.414,1.414,0,0,0-1.984-.228l-2.876,2.283a1.422,1.422,0,0,0-.229,1.984Z" transform="translate(-202.256 -154.148)"/>
          <path id="Trazado_823525" data-name="Trazado 823525" d="M267.752,101.138a19.359,19.359,0,0,1,1.441-2.29,16.943,16.943,0,0,0,1.533-3.1,18.14,18.14,0,0,0,1.681-7.392c-.182-5.074-4.166-7.884-6.7-11.819-2.479-3.85-3.677-8.312-5-12.647-1.306-4.273-2.714-9.028-5.62-12.526-1.475-1.776-3.328-2.134-5.515-1.937-1.051.095-2.1.244-3.151.3-.467.023-1.595.212-1.985-.142-1.613-1.462-4.018.928-2.4,2.4,2.617,2.371,6.169.311,9.182.767,1.643.249,2.663,2.852,3.313,4.169a43.947,43.947,0,0,1,2.376,6.176,97.354,97.354,0,0,0,4.2,12.1,26.531,26.531,0,0,0,3.485,5.507,26.844,26.844,0,0,1,3.761,4.976c1.214,2.5.556,5.27-.345,7.758a16.852,16.852,0,0,1-1.428,3.225,30,30,0,0,0-1.752,2.763c-.943,1.956,1.978,3.677,2.927,1.711" transform="translate(-173.281 -35.25)"/>
          <path id="Trazado_823526" data-name="Trazado 823526" d="M138.789,22.912a10.251,10.251,0,0,1-4.1-4.19,19.2,19.2,0,0,1-1.458-5.461c-.66-3.483-2.182-6.879-5.97-7.736-3.369-.762-6.821.887-10.133.092-1.859-.446-2.63-2.231-3.994-3.388a9.507,9.507,0,0,0-5.14-2.169,10.745,10.745,0,0,0-9.98,4.959,15.872,15.872,0,0,0-2.059,5.2c-.38,1.517-.7,3.3-2.386,3.8-1.943.566-3.383,1.137-4.577,2.874a14.973,14.973,0,0,0-2.07,5.643,24.015,24.015,0,0,0,.934,12.543A23.762,23.762,0,0,0,108.6,50.552c2.177.15,2.168-3.24,0-3.39A20.325,20.325,0,0,1,91.539,35.247a20.582,20.582,0,0,1-1.472-11.14,13.926,13.926,0,0,1,1.625-5.165c1.015-1.645,2.765-1.376,4.288-2.261,2.935-1.706,2.849-5.344,3.971-8.139,1.305-3.251,4.594-5.744,8.2-5.047,3.493.675,4.614,4.541,8.069,5.392,3.063.754,6.118-.363,9.2-.2,4.122.212,4.3,4.47,4.94,7.656a13.812,13.812,0,0,0,6.719,9.5c1.9,1.078,3.611-1.85,1.711-2.927" transform="translate(-62.055 0)"/>
          <path id="Trazado_823527" data-name="Trazado 823527" d="M121.171,163.217c-1.2,5.235.636,12.13,4.46,15.971,1.841,1.849,4.63,3.25,7.271,2.455,1.393-.42,2.09-1.466,3.168-2.322,1.192-.946,2.406.951,2.854,1.934,1.075,2.358,1.152,5.063,2.106,7.472a10.338,10.338,0,0,0,5.325,5.687,11,11,0,0,0,3.816.981,9.4,9.4,0,0,0,1.978-.086c.818-.113,1.621-.5,2.43-.569,1.19-.1,1.934,1.027,2.585,1.875a9.1,9.1,0,0,0,3.191,2.937,4.072,4.072,0,0,0,4.568-.521c.6-.533.9-1.171,1.731-1.308a14.277,14.277,0,0,0,2.121-.255c3.957-1.258,3.722-5.972,3.007-9.191-.473-2.128-3.742-1.228-3.269.9.3,1.341.777,3.045.016,4.318-.721,1.206-2.018.675-3.178.992a4.023,4.023,0,0,0-1.617.9c-.322.286-.777,1.058-1.174,1.2-1,.364-2.076-1.181-2.585-1.844-1.484-1.938-3.195-3.739-5.858-3.35a21.913,21.913,0,0,1-3.372.628,7.145,7.145,0,0,1-3.367-.879c-4.386-2.4-3.615-7.82-5.605-11.764-1.051-2.082-3.3-4.184-5.817-3.709-2.276.431-3.2,3.5-5.712,2.6s-3.941-3.571-4.831-5.905a14.484,14.484,0,0,1-.971-8.247c.487-2.123-2.78-3.03-3.269-.9" transform="translate(-86.682 -116.242)"/>
          <path id="Trazado_823528" data-name="Trazado 823528" d="M296.307,248.081l-.878-1.106a3.4,3.4,0,0,1,.548-4.762l9.072-7.2a3.4,3.4,0,0,1,4.762.548l.878,1.106a3.4,3.4,0,0,1-.548,4.763l-9.072,7.2a3.4,3.4,0,0,1-4.762-.548" transform="translate(-211.454 -168.104)" fill="#fc974d"/>
          <path id="Trazado_823529" data-name="Trazado 823529" d="M293.952,246.314a5.456,5.456,0,0,1-.628-.036,5.33,5.33,0,0,1-3.591-1.991h0l-.878-1.106a5.377,5.377,0,0,1,.868-7.54l9.072-7.2a5.378,5.378,0,0,1,7.541.868l.878,1.106a5.377,5.377,0,0,1-.868,7.54l-9.072,7.2a5.319,5.319,0,0,1-3.322,1.16m-1.121-4.486a1.422,1.422,0,0,0,1.984.228l9.072-7.2a1.422,1.422,0,0,0,.229-1.984l-.878-1.106a1.422,1.422,0,0,0-1.984-.229l-9.072,7.2a1.421,1.421,0,0,0-.229,1.984Z" transform="translate(-206.429 -163.08)"/>
          <path id="Trazado_823530" data-name="Trazado 823530" d="M279.523,226.932l-.878-1.106a3.4,3.4,0,0,1,.548-4.762l9.072-7.2a3.4,3.4,0,0,1,4.762.548l.878,1.106a3.4,3.4,0,0,1-.548,4.763l-9.072,7.2a3.4,3.4,0,0,1-4.762-.548" transform="translate(-199.411 -152.929)" fill="#fc974d"/>
          <path id="Trazado_823531" data-name="Trazado 823531" d="M277.168,225.165a5.454,5.454,0,0,1-.627-.036,5.329,5.329,0,0,1-3.591-1.991l-.878-1.106a5.377,5.377,0,0,1,.869-7.54l9.072-7.2a5.377,5.377,0,0,1,7.54.868l.878,1.106a5.378,5.378,0,0,1-.868,7.54L280.49,224a5.32,5.32,0,0,1-3.322,1.16m8.173-15.078a1.394,1.394,0,0,0-.871.3l-9.072,7.2a1.422,1.422,0,0,0-.229,1.984l.878,1.106a1.422,1.422,0,0,0,1.984.229l9.072-7.2a1.422,1.422,0,0,0,.229-1.984l-.878-1.106a1.4,1.4,0,0,0-.945-.521,1.537,1.537,0,0,0-.168-.01" transform="translate(-194.386 -147.905)"/>
        </g>
      </g>
    </g>
  </g>
</svg>
