<svg xmlns="http://www.w3.org/2000/svg" xmlns:xlink="http://www.w3.org/1999/xlink" width="295" height="219" viewBox="0 0 295 219">
  <defs>
    <clipPath id="clip-path">
      <rect id="Rectángulo_379031" data-name="Rectángulo 379031" width="213.507" height="143.543" fill="none"/>
    </clipPath>
    <clipPath id="clip-path-3">
      <rect id="Rectángulo_379029" data-name="Rectángulo 379029" width="86.017" height="49.662" fill="none"/>
    </clipPath>
  </defs>
  <g id="Grupo_1077021" data-name="Grupo 1077021" transform="translate(-180 -385)">
    <rect id="Rectángulo_379359" data-name="Rectángulo 379359" width="295" height="219" transform="translate(180 385)" fill="#fff"/>
    <g id="Grupo_1077020" data-name="Grupo 1077020">
      <g id="Elipse_5972" data-name="Elipse 5972" transform="translate(225.5 385)" fill="#1b3f5e" stroke="#707070" stroke-width="1">
        <circle cx="109.5" cy="109.5" r="109.5" stroke="none"/>
        <circle cx="109.5" cy="109.5" r="109" fill="none"/>
      </g>
      <g id="Grupo_1076863" data-name="Grupo 1076863" transform="translate(231.27 426.33)">
        <g id="Grupo_1076862" data-name="Grupo 1076862" transform="translate(0 0)" clip-path="url(#clip-path)">
          <g id="Grupo_1076861" data-name="Grupo 1076861" transform="translate(0 -0.001)">
            <g id="Grupo_1076860" data-name="Grupo 1076860" clip-path="url(#clip-path)">
              <g id="Grupo_1076859" data-name="Grupo 1076859" transform="translate(65.807 93.881)" style="mix-blend-mode: multiply;isolation: isolate">
                <g id="Grupo_1076858" data-name="Grupo 1076858">
                  <g id="Grupo_1076857" data-name="Grupo 1076857" clip-path="url(#clip-path-3)">
                    <path id="Trazado_822822" data-name="Trazado 822822" d="M52.07,105.178l-3.028-1.749c-10.688-6.17-9.335-17.046,3-24.171l23.7-13.682c12.34-7.125,31.179-7.9,41.866-1.735l3.03,1.748c10.686,6.17,9.333,17.048-3.006,24.171l-23.7,13.683c-12.34,7.125-31.179,7.9-41.866,1.735" transform="translate(-41.832 -59.677)" fill="#c1c8e0"/>
                  </g>
                </g>
              </g>
              <path id="Trazado_822823" data-name="Trazado 822823" d="M41.36,93.869s4.117.414,4.852.356c.149-.013.568,0,1.164,0,2.335.031,7.4.121,9.5-.437,2.644-.7,6.838-4.461,11.282-6.119s6.275-1.227,7.691-.933S82.216,85.663,83.886,83s7.469-11.943,7.77-13.359,9.355-3.529,14.82-9.385c4.79-5.136-3.146-10.947-7-15.185a12.589,12.589,0,0,1-1.323-1.674c-1.224-1.937-5.471,1.052-9.768,4.914C83.179,52.993,77.9,58.958,77.9,58.958a36.776,36.776,0,0,0-2.646,9.934,43.369,43.369,0,0,0,.3,8.964s-.247.1-.678.282l-.006,0C71.819,79.412,59.5,84.5,57.776,84.488a44.536,44.536,0,0,0-6.846,1.194s-2.239-2.438-3.362-2.187c-.327.079-.558.129-.727.162l-.4.091-2.1-.782S43.18,85.882,42.77,86.9a36.431,36.431,0,0,0-.909,4.129c-.278,1.513-.5,2.844-.5,2.844" transform="translate(23.705 24.522)" fill="#dadaf0"/>
              <path id="Trazado_822824" data-name="Trazado 822824" d="M41.361,79.228s4.118.414,4.852.356c.149-.013.568,0,1.163,0,.14-.475.26-.955.371-1.435.382-1.691-.4-3.126-.507-4.836-.083-1.4-.714-2.918-.4-4.295l-.4.09-2.1-.782s-1.163,2.915-1.573,3.928-1.41,6.974-1.41,6.974" transform="translate(23.705 39.16)" fill="#33373b"/>
              <path id="Trazado_822825" data-name="Trazado 822825" d="M41.36,93.038s4.117.414,4.852.356c.149-.013.568,0,1.164,0,2.335.031,7.4.121,9.5-.437,2.644-.7,6.838-4.461,11.282-6.119s6.275-1.227,7.691-.933,6.366-1.071,8.037-3.739,7.469-11.943,7.77-13.359,9.355-3.529,14.82-9.385c4.79-5.136-3.146-10.947-7-15.185-2.775.872-5.5,1.911-8.323,2.624-.909.228-1.836.425-2.767.617C83.179,52.162,77.9,58.127,77.9,58.127a36.776,36.776,0,0,0-2.646,9.934,43.369,43.369,0,0,0,.3,8.964s-.247.1-.678.282a9.63,9.63,0,0,1,1.734.354c.459-.736-.024-2.286.077-3.17.173-1.523.335-3.046.423-4.583a8.8,8.8,0,0,0,4.7-.214c2.734-.87,5.369-2.36,8.213-2.747-1.074,1.7-2.073,3.451-3,5.237-1.548,2.991-2.9,6.1-4.732,8.929-.909,1.4-2.224,2.88-3.9,2.766-1.655-.112-2.825-1.183-4.6-1.016a25.272,25.272,0,0,0-9.517,3.373c-1.505.812-2.986,1.68-4.49,2.486a15.186,15.186,0,0,1-6.565,2.217c-1.578.132-3.162.269-4.74.4a6.085,6.085,0,0,1-2.44-.121c-.8-.264-1.471-.911-2.262-1.161A1.646,1.646,0,0,0,43.572,90a3.167,3.167,0,0,0-1.712.193c-.278,1.513-.5,2.844-.5,2.844" transform="translate(23.705 25.353)" fill="#c0c0d4"/>
              <path id="Trazado_822826" data-name="Trazado 822826" d="M112.19,18.229q.347.142.694.285a30.975,30.975,0,0,1,11.083,8.465,39.682,39.682,0,0,1,5.448,8.781,73.078,73.078,0,0,1-8.347,1.391c-.886-4.561-4.174-8.377-7.218-11.707a45.1,45.1,0,0,0-10.468-8.078c-.845-.492-2.851-1.993-3.826-1.935,4.441-.269,8.592,1.155,12.634,2.8" transform="translate(57.058 8.825)" fill="#404759"/>
              <path id="Trazado_822827" data-name="Trazado 822827" d="M110.031,25.395a22.828,22.828,0,0,1,5.817.546c3.418.628,6.958,1.359,9.736,3.448a1.68,1.68,0,0,1,.835,1.249,1.684,1.684,0,0,1-.59,1.062,12.931,12.931,0,0,1-3.025,2.306,1.128,1.128,0,0,1-.714.2,1.293,1.293,0,0,1-.654-.478,9.09,9.09,0,0,0-3.063-2.083A33.506,33.506,0,0,0,101.5,28.816c2.657-1.189,5.6-3.2,8.534-3.422" transform="translate(58.171 14.535)" fill="#fffced"/>
              <path id="Trazado_822828" data-name="Trazado 822828" d="M12.414,81.73c0,1.065,2.056,3.269,4.2,4.57s2.857,1.984,4.279,1.381,1.575-2.824,2-3.673a2.241,2.241,0,0,0-.148-1.864l.22-.206c.1-.113.26-.271.5-.5.709-.709,2.657-6.255,2.407-8.36s-1.388-4.139-2.4-6.595-2.7-12.447-1.9-13.655,12.274-3.909,14.858-4.277,5.4-4.106,9.055-7.414-1.83-.431.022-6.949c0,0,10.038-15.662,3.072-21.074s-13.63-1.949-16.848.755-6.4,9-7.332,12.672a121.136,121.136,0,0,1-4.886,13.705c-.507.772-4.493,5.172-5.383,5.242a4.282,4.282,0,0,0-3.53,2.893c-.963,2.286.068,4,1.845,6.8s4.822,16.612,4.822,16.612l-1.531,3.39-.769.681c-.47.429-1.043.958-1.362,1.284-.606.617-.4,2.155-.354,2.722s-.838.8-.834,1.863" transform="translate(5.862 5.877)" fill="#c0c0d4"/>
              <path id="Trazado_822829" data-name="Trazado 822829" d="M11.618,57.827c0,1.065,2.056,3.269,4.2,4.57s2.857,1.984,4.279,1.381,1.575-2.824,2-3.673a2.241,2.241,0,0,0-.148-1.864l.22-.206a18.286,18.286,0,0,0-7.037-5.759,4.314,4.314,0,0,0-.96-.316c-.47.429-1.043.958-1.362,1.284-.606.617-.4,2.155-.354,2.722s-.838.8-.834,1.863" transform="translate(6.659 29.78)" fill="#33373b"/>
              <path id="Trazado_822830" data-name="Trazado 822830" d="M110.871,61.113c1.021,2.75,3.54,3.368,4.894,4.129,1.8,1,7.087-.31,7.087-.31s4.982-1.048,6.82-.54,4.266,1.3,5.72,3.143,2.426,2.75,4.4,2.921,3.873-1.612,4.509-1.826c.223-.077.283-.48.258-.967a12.443,12.443,0,0,0-.332-2.053s1.512,1.515,2.245,1.542,1.645-.934,1.645-.934,1.845-2.459,1.584-3.7.376-1.454.4-3.253-2.764-2.965-3.5-4.051S136.036,39.46,132.838,36.2s-5.2-6.864-7.656-7.977a10.859,10.859,0,0,0-6.044-.993c-1.949.154-4.491,2.073-5.909,3.82s-3.2,1.8-3.162,5.478a12.4,12.4,0,0,0,1.449,5.931s-.2,2.342-.429,5.407c-.208,2.755-.447,6.094-.6,8.832-.017.36-.036.709-.055,1.043a8.348,8.348,0,0,0,.436,3.371" transform="translate(63.082 15.57)" fill="#f7f7ff"/>
              <path id="Trazado_822831" data-name="Trazado 822831" d="M21.643,27.5a26.869,26.869,0,0,0,2.121,7.244c2.482,5.523,15.222,14.811,28.329,27.665s22.158,8.46,29.02,16.741c6.1,7.362,16.884,10.288,24.465,9.859a20.926,20.926,0,0,0,2.674-.315c.16-.033.329-.066.489-.1,7.279-1.6,13.534-8.056,15.2-9.226,1.7-1.194,16.26-2.017,22.474.107s18.358,1.734,23.874,1.057,3.063-3.431,4.134-4.334l-.387-1.008c-1.97-5.08-10.789-27.63-12.138-27.1-1.523.6-8.679,2.659-13.107,1.458S138.2,46.863,127.346,38.733s-16.3-4.674-22.206-6S83.874,21.009,80.635,19.3s-7.689-6.34-11.9-10.007S44.2.692,41.283,1.006,22.5,17.685,21.778,20.925a18.722,18.722,0,0,0-.135,6.573" transform="translate(12.277 0.569)" fill="#f7f7ff"/>
              <path id="Trazado_822832" data-name="Trazado 822832" d="M77.682,67.545c7.279-1.6,13.534-8.056,15.2-9.226,1.7-1.194,16.258-2.015,22.472.109s18.358,1.734,23.874,1.056,3.063-3.431,4.136-4.332c0,0-.14-.362-.387-1.008-7.331-1.7-15.538-.113-22.08-3.838-1.438-.821-2.731-1.877-4.122-2.78a24.346,24.346,0,0,0-17.842-3.467,6.8,6.8,0,0,1-2.4.216c-3.871-.675-1.935-6.867-5.9-6.554-3.429.271-8.069,3.84-9.807,6.67-1.545,2.528-1.878,5.592-2.806,8.405-.812,2.462-2.1,4.8-2.358,7.375a11.574,11.574,0,0,0,2.026,7.376" transform="translate(43.335 21.612)" fill="#c0c0d4"/>
              <path id="Trazado_822833" data-name="Trazado 822833" d="M21.562,17.844a26.869,26.869,0,0,0,2.121,7.244C26.165,30.611,38.9,39.9,52.011,52.753s22.158,8.46,29.02,16.741c6.1,7.362,16.884,10.288,24.465,9.859a2.769,2.769,0,0,1-.17-1.32l.127-2.852a5.244,5.244,0,0,1,.462-2.35c.456-.761.747-.47,1.325-.851.7-.447.634-.167.565-1.285-.061-.944-.2-1.886-.3-2.827a1.844,1.844,0,0,1,.832-2.032,73.737,73.737,0,0,0,5.846-5.762,12.072,12.072,0,0,0,2.605-3.846c.809-2.259.31-4.756-.2-7.1a2.127,2.127,0,0,0-1.982-2.1l-9.1-2.3c-1.6-.4-3.258-1.37-4.911-1.449a16.369,16.369,0,0,0-5.089.938c-4.8,1.5-8.026,6.628-13,7.34a1.138,1.138,0,0,0-.629.22,1,1,0,0,0-.234.75c-.065,2.331,2.128,6.016-1.255,6.621A13.913,13.913,0,0,1,70.9,57.412c-1.688-1.012-3.148-2.366-4.806-3.425-5.133-3.255-10.026-3.621-13.519-9.057C48.955,39.288,46.123,33.06,41.7,27.965c-4-4.6-10.765-7.117-16.373-9.275a9.267,9.267,0,0,0-3.766-.846" transform="translate(12.358 10.223)" fill="#dadaf0"/>
              <path id="Trazado_822834" data-name="Trazado 822834" d="M134.2,45.46c-.746.165-1.6.724-1.067,2.316a10.951,10.951,0,0,0,1.472,2.824l.179,2.273s-.343,1.09-.518,2,.923,1.375,1.24,1.238,2.006-2.72,1.765-3.6a8.227,8.227,0,0,1-.3-3.735c.33-1.007-.217-2.32-2.77-3.319" transform="translate(76.208 26.055)" fill="#33373b"/>
              <path id="Trazado_822835" data-name="Trazado 822835" d="M119.259,31.079a17.852,17.852,0,0,1,5.594,4.628c1.387,2.006,1.834,4.874.4,6.845-1.238,1.7-3.486,2.3-5.578,2.5a5.837,5.837,0,0,1-2.635-.2c-2.025-.768-2.8-3.217-3-5.374s-.162-4.5-1.468-6.233a4.5,4.5,0,0,1-.65-.944,2.105,2.105,0,0,1,.845-2.36c2.468-1.842,4.34-.192,6.5,1.144" transform="translate(64.076 16.687)" fill="#f7f7ff"/>
              <path id="Trazado_822836" data-name="Trazado 822836" d="M109.678,46.7a22.774,22.774,0,0,0,1.136,2.871c.039.1.08.2.115.305a8.545,8.545,0,0,1,.266,4.109c1.021,2.75,3.54,3.368,4.894,4.131,1.8,1,7.087-.311,7.087-.311s4.982-1.048,6.82-.54,4.266,1.3,5.72,3.143,2.426,2.75,4.4,2.921,3.873-1.612,4.509-1.826c.223-.077.283-.48.258-.967-1.59-.365-3.557.326-5.009-.521a11.384,11.384,0,0,1-1.735-1.608,16.959,16.959,0,0,0-2.962-1.844,10.328,10.328,0,0,1-.956-.618,28.781,28.781,0,0,0-4.734-2.58,26.2,26.2,0,0,0-8.122-2.789,10.914,10.914,0,0,1-3.579-.621,6.454,6.454,0,0,1-2.71-2.962,18.213,18.213,0,0,1-2.08-7.384,5.685,5.685,0,0,0-1.584,1.133,6.375,6.375,0,0,0-1.732,5.959" transform="translate(62.759 22.7)" fill="#dadaf0"/>
              <path id="Trazado_822837" data-name="Trazado 822837" d="M128.328,35.727a8.3,8.3,0,0,1,1.543,1.955q2.062,3.237,4.125,6.472a3.038,3.038,0,0,1,.6,1.439c-.395.313-.971.091-1.411-.153a22.052,22.052,0,0,1-2.838-1.872,13.183,13.183,0,0,0-2.775-1.9,29.571,29.571,0,0,0-4.125-.906,5.418,5.418,0,0,1-3.2-2.147,3.4,3.4,0,0,1-.068-3.716c.969-1.372,2.218-.991,3.535-.647,1.625.423,3.249.315,4.62,1.471" transform="translate(68.576 19.448)" fill="#dadaf0"/>
              <path id="Trazado_822838" data-name="Trazado 822838" d="M132.2,52.645a6.269,6.269,0,0,1,1.819,2.446c.255.722-.017,2.088.658,2.589,1,.744,3.669-.809,4.408-1.443.2-.17.4-.409.333-.662s-.341-.365-.58-.464a4.991,4.991,0,0,1-2.55-2.432c-.5-1.051-.45-1.94-1.49-2.707a8.1,8.1,0,0,0-3.456-.978,36.143,36.143,0,0,0-4.178-.51c.233,1.145.945,1.295,1.833,1.707a13.474,13.474,0,0,1,3.2,2.454" transform="translate(72.883 27.788)" fill="#33373b"/>
              <path id="Trazado_822839" data-name="Trazado 822839" d="M121.465,35.422a6.6,6.6,0,0,1,3.286.231c1.926.582,2.448,3.074,2.448,3.074s-2.5.362-3.562-.617a17.425,17.425,0,0,1-2.172-2.688" transform="translate(69.615 20.242)" fill="#33373b"/>
              <path id="Trazado_822840" data-name="Trazado 822840" d="M40.723,95.946a1.506,1.506,0,0,0,1-.282A18.755,18.755,0,0,0,45.074,92.7c.079-.085.121-.134.121-.134a12.334,12.334,0,0,1,1.688.684c1.019.494,3.612-1.836,6.341-3.442s10.188-3.418,14.891-4.935,5.71-.124,8.38-.171,5.808-2.256,7.921-4.461,7.751-14.586,10.353-17.9,9.87-3.308,13.5-4.921,5.345-5.717,5.239-9.14,3.717-8.791,5.688-11.8c1.183-1.819,1.837-3.3,1.741-4.765a5.6,5.6,0,0,0-1.207-2.957c-1.927-2.626-8.084-8.185-11.177-8.026s-11.68.975-15.939,7.14A27.314,27.314,0,0,0,88.384,38.1V38.1a19.074,19.074,0,0,0-.327,2.385s-9.991,7.979-10.708,10.244.37,7.814.37,7.814-1.095,2.7-1.922,5.622-.307,7.952-.044,10.873c0,0-.223.057-.6.157a71.4,71.4,0,0,1-7.669,1.639c-2.676.289-14.584,3.6-14.584,3.6l-2.435-.788L48.4,83.49l-3.228-.477L43.712,84.3l-.373.33s-2.74-.6-3.513-.05-.272,11.048.9,11.367" transform="translate(22.613 11.882)" fill="#f7f7ff"/>
              <path id="Trazado_822841" data-name="Trazado 822841" d="M40.724,72.785c1.035.278,3.744-2.583,4.351-3.245a2.186,2.186,0,0,1-.143-.329,6.981,6.981,0,0,1-.186-2.265,17.3,17.3,0,0,0-1.034-5.808l-.373.33s-2.74-.6-3.513-.05-.272,11.048.9,11.367" transform="translate(22.613 35.041)" fill="#33373b"/>
              <path id="Trazado_822842" data-name="Trazado 822842" d="M64.491,69.766a17.533,17.533,0,0,1,1.932-12.78,5.268,5.268,0,0,0,.914-2.171,5.661,5.661,0,0,0-.241-1.562,21.482,21.482,0,0,1-.368-4.337c-.042-2.931.083-6.215,2.185-8.251,1.493-1.45,3.738-1.981,5.076-3.576a7.654,7.654,0,0,0,1.391-5.312,18.668,18.668,0,0,0-.327,2.385s-9.991,7.977-10.708,10.244.368,7.814.368,7.814-1.093,2.7-1.921,5.622-.307,7.952-.044,10.872c0,0-.225.058-.6.159a10.191,10.191,0,0,1,2.346.894" transform="translate(35.617 18.213)" fill="#f7f7ff"/>
              <path id="Trazado_822843" data-name="Trazado 822843" d="M3.429,67.78c.016.025.038.057.052.08,1.057,1.623,2.607-2.166,3.914-3.165a5.142,5.142,0,0,1,.716-.455,13.114,13.114,0,0,1,2.92-1.093l4.32-4.309s1.391-6.156,1.019-7.785,2.555-12.1,2.555-12.1l4.7-.535c4.7-.533,13.773-3.538,17.251-6.1s14.923-4.446,19.095-6.494a34.214,34.214,0,0,1,4.3-1.666c4.8-1.556,11.275-2.9,15.222-2.49,5.358.558,11.6-2.059,10.6-3.706s-5.5-8.213-8.224-10.7S59.837.425,58.666.105s-2.448.03-6.736,1.6a17.8,17.8,0,0,0-3.313,1.752,0,0,0,0,1,0,.006C44.79,5.953,40.561,9.856,39,10.73c-2.034,1.141-8.759,10.169-12.3,13.957s-9.253,4.9-9.253,4.9-4.483,1.172-5.57,2.97a17.863,17.863,0,0,0-1.446,9.579c.554,2.884-1.966,12.344-2.778,12.407A23.616,23.616,0,0,0,3.421,56.59l-.168.1a16.6,16.6,0,0,0-2.866.952,1.277,1.277,0,0,0-.236.149s-1.218,3.05,3.278,9.989" transform="translate(0 0.001)" fill="#f7f7ff"/>
              <path id="Trazado_822844" data-name="Trazado 822844" d="M3.482,47.242c1.056,1.622,2.607-2.166,3.914-3.165a5,5,0,0,1,.716-.455c-.116-.227-.245-.445-.379-.656-.906-1.452-2.139-2.676-3.088-4.1A7.728,7.728,0,0,1,3.44,36.1a.743.743,0,0,1-.017-.131l-.168.1a13.23,13.23,0,0,0-3.1,1.1s-1.229,3.077,3.33,10.07" transform="translate(0.001 20.617)" fill="#33373b"/>
              <path id="Trazado_822845" data-name="Trazado 822845" d="M2.18,59.98c.016.025.038.057.052.08,1.057,1.623,2.607-2.166,3.914-3.165a5.142,5.142,0,0,1,.716-.455,13.115,13.115,0,0,1,2.92-1.093l4.32-4.309s1.391-6.156,1.019-7.785,2.555-12.1,2.555-12.1l4.7-.535c4.7-.533,13.773-3.538,17.251-6.1s14.923-4.446,19.095-6.494a34.213,34.213,0,0,1,4.3-1.666c.041-.063.088-.124.129-.187.374-.546.92-2.243,1.413-2.556a28.461,28.461,0,0,1-8.136,4c-3.7.919-7.856.4-11.1,2.4-.58.36-1.114.794-1.716,1.13A16.265,16.265,0,0,1,40.243,22.3c-2.438.735-5.8,1.823-7.715,3.524a14.8,14.8,0,0,1-9.709,3.753,3.928,3.928,0,0,1-5.1-1.439A84.53,84.53,0,0,0,14.156,45.53a16.114,16.114,0,0,1-1.04,5.2c-.791,1.741-2.517,1.485-4.041,2.377A8.9,8.9,0,0,0,7.5,54.384l-2.94,2.761A10.385,10.385,0,0,0,2.18,59.98" transform="translate(1.249 7.801)" fill="#dadaf0"/>
              <path id="Trazado_822846" data-name="Trazado 822846" d="M.246,56.38a4.881,4.881,0,0,0,.728.538c1.855,1.128,3.025-.508,4.373-1.4.348-.236,3.879-1.281,3.909-.9.193-1.6.809-3.1,1.051-4.658.261-1.661.258-3.433.433-5.119.2-1.9.027-3.878.283-5.755.2-1.388.728-2.783,1.018-4.159.283-1.31.395-2.959,1.505-3.87.761-.623,1.545-.305,2.4-.437a12.29,12.29,0,0,0,2.511-.977,53.189,53.189,0,0,0,9.184-4.463c3.162-2.086,5.8-4.856,8.844-7.1,1.532-1.128,3.344-2.421,3.378-4.325a8.481,8.481,0,0,1-.013-1.647,3.353,3.353,0,0,1,.9-1.43l3.821-4.262c1.273-1.422,2.558-2.857,3.9-4.211-3.824,2.492-8.051,6.395-9.61,7.269-2.034,1.141-8.759,10.167-12.3,13.957s-9.255,4.9-9.255,4.9-4.482,1.17-5.569,2.97A17.86,17.86,0,0,0,10.3,40.874c.554,2.885-1.966,12.344-2.78,12.409a23.655,23.655,0,0,0-4.236,2.047c-.107.061-.168.1-.168.1a16.6,16.6,0,0,0-2.866.952" transform="translate(0.141 1.262)" fill="#dadaf0"/>
              <path id="Trazado_822847" data-name="Trazado 822847" d="M48.771,13.044c1.067-.2,2.158-.227,3.226-.418a21.859,21.859,0,0,0,3.78-1.161,15.584,15.584,0,0,0,3.76-1.809,3.39,3.39,0,0,1,1.106-.645A2.15,2.15,0,0,1,61.488,9c2.89.448,4.612,3.34,6.725,5.36A13.193,13.193,0,0,0,74.6,17.721c-1.527.766-3.348.175-4.988-.3a32.442,32.442,0,0,0-27.865,5.1,12.414,12.414,0,0,1-2.179,1.441,5.283,5.283,0,0,1-4.814-.258c-.884-.525-1.757-1.35-2.769-1.174,3.129-.547,8.106-1.4,10.254-4,.752-.908.917-2.135,1.668-3.046a8.357,8.357,0,0,1,4.859-2.443" transform="translate(18.334 5.139)" fill="#dadaf0"/>
              <path id="Trazado_822848" data-name="Trazado 822848" d="M99,62.134c.429-.2,1.219.492,1.627,1.719a3.524,3.524,0,0,1-.116,2.363c-.409.37-1.869,2.055-6.827,3.156a39.41,39.41,0,0,1-9.617.788,16.954,16.954,0,0,1-5.707-1.438l2.895-4.741Z" transform="translate(44.909 35.591)" fill="#161b29"/>
              <path id="Trazado_822849" data-name="Trazado 822849" d="M45.669,79.022c.489,4.765.856,7.085,1.589,9.163s8.154,5.721,8.934,5.986,1.125-4.317-1.808-9.041-8.715-6.108-8.715-6.108" transform="translate(26.174 45.291)" fill="#0c0f17"/>
              <path id="Trazado_822850" data-name="Trazado 822850" d="M53.3,75.034c-.61-1.48-3.409-1.584-4.88-.952a8.761,8.761,0,0,0-2.994,1.812c-1.408,1.441.89,5.825,2.755,7.886s3.7,4.376,4.35,7.17,1.581,4.941,3.436,5.97c2.424,1.343,5.649.876,7.148-.991a5,5,0,0,0,.006-5.544c-.118-.124-2.481-1.1-3.131-1.954-2.224-2.921-5.155-9.67-6.691-13.4" transform="translate(25.785 42.249)" fill="#161b29"/>
              <path id="Trazado_822851" data-name="Trazado 822851" d="M46.775,75.134c2.973.691,3.042,4.082,3.8,6.9a20.774,20.774,0,0,1,.763,4.806S46.5,83.564,45.85,82.614s-.7-3.882-.812-5.377-.192-2.552,1.737-2.1" transform="translate(25.786 43.003)" fill="#0c0f17"/>
              <path id="Trazado_822852" data-name="Trazado 822852" d="M63.027,41.051c-1.528.614-5.034,6.681-5.89,10.279A14.655,14.655,0,0,0,60.93,65.806c5.116,5.267,14.61,8.52,14.61,8.52L93.349,56.891s16.519-8.725,17.382-11.585-.821-11.3-1.954-12.231-45.75,7.976-45.75,7.976" transform="translate(32.441 18.918)" fill="#295ea9"/>
              <path id="Trazado_822853" data-name="Trazado 822853" d="M89.312,61.256s2.405.746,2.972.8,6.978,1.188,7.845,1.521.7,1.839.7,1.839-.415,1.751-1.188,2.2c-2.1,1.23-6.876,3.233-9.354,2.654s-9.684.33-11.649-.115-.883-5.492-.883-5.492l2.021-5.77Z" transform="translate(44.391 33.758)" fill="#404759"/>
              <path id="Trazado_822854" data-name="Trazado 822854" d="M66.9,83.184A21.866,21.866,0,0,0,61.49,84.82c-.994.664-1.109,2.33-.925,3.222s1.413,3.192,1.466,4.288S60.754,95.88,59.149,96.1s-2.143-.162-3.7-1.52-2.934-4.735-2.593-6.448c.917-4.609-2.413-10.749-2.973-11.646a2.55,2.55,0,0,0-2.626-1.2c1.369-1.117,6.9-3.091,8.552-3.2s8.718,1.359,9.307,1.474S66.9,83.184,66.9,83.184" transform="translate(27.087 41.312)" fill="#404759"/>
              <path id="Trazado_822855" data-name="Trazado 822855" d="M84.167,44.164c-1.674,3.6-5.323,6.253-5.482,10.249a196.3,196.3,0,0,0,.9,20.054c.467,2.666,8.832,3.582,9.816.326s9.237-36.04,9.432-37.986-14.662,7.358-14.662,7.358" transform="translate(45.081 20.942)" fill="#295ea9"/>
              <path id="Trazado_822856" data-name="Trazado 822856" d="M115.247,43.185c.173.455-.98,5.427-3.774,6.072C108.045,47,98.158,42.235,95.556,39.9s-8.643-14.518-8.643-14.518,6.931-3.61,8.91-1.063,4.644,6.562,5.265,6.9,14.158,11.973,14.158,11.973" transform="translate(49.812 13.415)" fill="#dadaf0"/>
              <path id="Trazado_822857" data-name="Trazado 822857" d="M64.487,41.712c-.541,1.037-4.708,6.755-4.941,14.334s1.062,6.14,4.045,10.1,10.671,9.5,18.519,21.56c1.281,1.97,8.172,10.378,13,10.158s6.481-3.656,6.448-7.1S90.138,56.811,90.138,56.811s2.965-8.743,3.1-12.2-28.751-2.9-28.751-2.9" transform="translate(34.112 23.888)" fill="#2c6bb8"/>
              <path id="Trazado_822858" data-name="Trazado 822858" d="M59.8,39.435c-.077.256-1.45,3.656-1.776,4.389s-.805,4.065,3.521,7.4,9.008,5.7,16.949,6.676,13.115-2.125,13.548-3.565a68.108,68.108,0,0,0,1.479-6.746c.164-1.3-33.72-8.15-33.72-8.15" transform="translate(33.141 22.602)" fill="#1d2329"/>
              <path id="Trazado_822859" data-name="Trazado 822859" d="M74.551,58.879c-2.688,0-10.927-4.133-11.018-4.18-3.274-1.691-3.9-2.49-3.879-3.3.05-1.8,2.014-6.445,2.885-7.793l1.641,1.06a26.218,26.218,0,0,0-2.553,6.577c1.276,1.358,10.106,5.212,12.461,5.7a74.479,74.479,0,0,0,2.207-7.9l.123-.518.5-.178c2.286-.823,9.92-3.4,12.094-2.089a1.647,1.647,0,0,1,.809,1.2c.343,2.46-.294,9.116-.321,9.4l-1.946-.189a68.358,68.358,0,0,0,.351-8.78c-1-.371-5.408.582-9.829,2.125-1.9,7.992-2.6,8.512-2.86,8.71a1.115,1.115,0,0,1-.664.157" transform="translate(34.189 24.992)" fill="#2c6bb8"/>
              <path id="Trazado_822860" data-name="Trazado 822860" d="M86.971,68.938c-9.5-.2-24.67,3.3-34.371,4.76-1.771.266,5.273-.876,4.573,15.3,1.4.938,34.238-4.861,44.6-7.252-1-7.853-14.8-12.81-14.8-12.81" transform="translate(29.982 39.506)" fill="#2c6bb8"/>
              <path id="Trazado_822861" data-name="Trazado 822861" d="M103.737,15.038c-4.334-.848-5.448-2.349-11.978,2.311S75.4,33.373,71.994,37.039,59,51.217,58.928,55.176c-.057,2.961.719,4.546,3.426,6.8C68.749,67.313,82.1,71.661,89,67.264c4.288-2.734,8.432-7.447,10.768-9.5s15.882-18.549,15.83-22.894-3.96-10.516-3.96-10.516-3.055-7.022-7.9-9.313" transform="translate(33.772 8.091)" fill="#4280ff"/>
              <path id="Trazado_822862" data-name="Trazado 822862" d="M88.865,20.686c1.767-.842,2.693-1.894,3.365-4.487s11.927-8.657,14.891-7.62,7.2,2.039,7.32,5.325-2.218,8.57-3.086,9.058-1.576,3.445-1.436,4.482-2.058-.289-2.22.1-4.416,5.215-5.353,5.174-3.606-1.987-3.606-1.987l-2.844.6Z" transform="translate(50.931 4.85)" fill="#ffa399"/>
              <path id="Trazado_822863" data-name="Trazado 822863" d="M92.177,15.972a5.558,5.558,0,0,1-.859-.853l-4,1.1s1.9,2.813,3.846,5.3c5.613,7.167,6.977,7.889,6.868,6.854-.049-.472.717-1.35.244-2.748s-3.472-7.336-6.1-9.648" transform="translate(50.047 8.666)" fill="#5c92ff"/>
              <path id="Trazado_822864" data-name="Trazado 822864" d="M104.642,21.231c-.846-.714-3.574-.28-4.482.2s-3.326,2.119-4.274,2.187-3.563-2.243-4.309-2.646a2.724,2.724,0,0,1-1.414-1.465c-.149-.536,2.317-7.122,4.538-10.458s3.881-4.886,7.32-3.434c4.726.478,7.307.044,10.431,3.963s2.965,7.5,2.858,8.147-1.587-.488-2.309.176-1.763,4.078-1.938,4.183-2.534.768-2.534.768l-2.493,2-1.221-1.461s.543-1.554-.173-2.158" transform="translate(51.672 2.907)" fill="#1c2134"/>
              <path id="Trazado_822865" data-name="Trazado 822865" d="M99.915,15.512c-1.194.228-2.15,1.83-2.69,3.535s-.222,2.187.113,2.508,1.932-2.1,2.471-2.574,1.951-1.891,1.878-2.39a1.4,1.4,0,0,0-1.773-1.079" transform="translate(55.556 8.869)" fill="#ffa399"/>
              <path id="Trazado_822866" data-name="Trazado 822866" d="M99.576,27.222c-4.046-3.824-6.332.3-9.5,2.981S86.557,38.748,86.81,40.76s4.43,21.4,5.512,24.188,8.043-2.059,8.231-4.988.425-6.245.425-6.245Z" transform="translate(49.716 14.714)" fill="#dadaf0"/>
              <path id="Trazado_822867" data-name="Trazado 822867" d="M104.04,58.451a10.561,10.561,0,0,0,4.425,2.113c1.458.148,4.194.22,4.194.22a50.118,50.118,0,0,0,4.336,3.263c.934.462,1.142-.376,1.123-.582S115.2,59.58,115.2,59.58a38.835,38.835,0,0,0,4.617,2.909c.722.156.788-1.016.788-1.016l-4.572-3.664a50.956,50.956,0,0,0,5.157,2.036c.453-.035.192-1.9.192-1.9l-5.212-2.695s4.051,1.227,4.336.846-.563-2.078-.563-2.078l-5.331-1.521-5.254-1.063-3.2.453Z" transform="translate(59.628 29.477)" fill="#ffa399"/>
              <path id="Trazado_822868" data-name="Trazado 822868" d="M93.773,48.967c-.585,1.229-4.476,3.459-3.17,5.459s17.838,8.654,20.562,8.778,4.153-5.308,3.4-7.17S97.61,44.9,97.61,44.9Z" transform="translate(51.775 25.737)" fill="#dadaf0"/>
              <path id="Trazado_822869" data-name="Trazado 822869" d="M102.913,40.05a1.124,1.124,0,0,0,0,.75c.105.217.415.387.609.536.5.385,1.008.755,1.521,1.115q1.222.857,2.478,1.658c.1.064.2.127.3.19,0,0,5,2.635,5.4,3s2.371,1.932,3.118,1.271a1.357,1.357,0,0,0,.168-1.649l-4.1-2.9a.958.958,0,0,1,.552-1.417c1.106-.407,4.748.835,4.748.835s3.131,1.134,4.378.934.151-1.487.151-1.487l-2.789-1.019a11.647,11.647,0,0,0,3.222,0c.6-.294.151-1.633.151-1.633l-2.55-.879s-3.255-1.419-4-1.576-6.791-.305-6.791-.305c-.519-.189-1.664-.5-2.183-.689L105.95,36.3c-.51-.184-1.023.334-1.482.732a5.662,5.662,0,0,0-1.463,2.7c-.031.1-.065.2-.093.316" transform="translate(58.947 20.784)" fill="#ffa399"/>
              <path id="Trazado_822870" data-name="Trazado 822870" d="M98.822,25.565c-2.443-1.331-7.944-.643-11.465,5.906-1.458,5.246-1.309,6.609-1.057,8.943s1.174,9.612,1.718,11.457c.6,2.056,2.605,1.941,4.435,2.01a22.745,22.745,0,0,0,6.582-.709c1.177-.307,2.873-1,3.055-2.379a20.832,20.832,0,0,0-.069-3.269c-.1-3.311-.245-6.626-.488-9.931-.429-5.866-.321-10.534-2.711-12.028" transform="translate(49.368 14.331)" fill="#5c92ff"/>
            </g>
          </g>
        </g>
      </g>
    </g>
  </g>
</svg>
