<svg xmlns="http://www.w3.org/2000/svg" xmlns:xlink="http://www.w3.org/1999/xlink" width="169" height="169" viewBox="0 0 169 169">
  <defs>
    <clipPath id="clip-path">
      <rect id="Rectángulo_379415" data-name="Rectángulo 379415" width="116.873" height="122.657" fill="none"/>
    </clipPath>
    <clipPath id="clip-path-3">
      <rect id="Rectángulo_379411" data-name="Rectángulo 379411" width="73.814" height="12.701" fill="none"/>
    </clipPath>
    <clipPath id="clip-path-4">
      <rect id="Rectángulo_379412" data-name="Rectángulo 379412" width="63.917" height="6.351" fill="none"/>
    </clipPath>
  </defs>
  <g id="Grupo_1077165" data-name="Grupo 1077165" transform="translate(-4614 8481.646)">
    <g id="Grupo_1077160" data-name="Grupo 1077160" transform="translate(4614 -8481.646)">
      <path id="Unión_12" data-name="Unión 12" d="M84.5,0A84.5,84.5,0,1,1,0,84.5,84.5,84.5,0,0,1,84.5,0Z" transform="translate(0 0)" fill="#fffad0"/>
    </g>
    <g id="Grupo_1077099" data-name="Grupo 1077099" transform="translate(4644.214 -8458.476)">
      <g id="Grupo_1077098" data-name="Grupo 1077098" clip-path="url(#clip-path)">
        <g id="Grupo_1077097" data-name="Grupo 1077097">
          <g id="Grupo_1077096" data-name="Grupo 1077096" clip-path="url(#clip-path)">
            <path id="Trazado_823451" data-name="Trazado 823451" d="M406.687,175.623A5.623,5.623,0,1,1,401.064,170a5.623,5.623,0,0,1,5.623,5.623" transform="translate(-300.821 -129.323)" fill="#fc974d"/>
            <path id="Trazado_823452" data-name="Trazado 823452" d="M397.641,178.9a6.7,6.7,0,1,1,6.7-6.7,6.707,6.707,0,0,1-6.7,6.7m0-11.246a4.546,4.546,0,1,0,4.546,4.546,4.551,4.551,0,0,0-4.546-4.546" transform="translate(-297.398 -125.9)"/>
            <path id="Trazado_823453" data-name="Trazado 823453" d="M65.687,85.623A5.623,5.623,0,1,1,60.064,80a5.623,5.623,0,0,1,5.623,5.623" transform="translate(-41.414 -60.858)" fill="#fc974d"/>
            <path id="Trazado_823454" data-name="Trazado 823454" d="M56.641,88.9a6.7,6.7,0,1,1,6.7-6.7,6.707,6.707,0,0,1-6.7,6.7m0-11.246A4.546,4.546,0,1,0,61.187,82.2a4.551,4.551,0,0,0-4.546-4.546" transform="translate(-37.991 -57.435)"/>
            <path id="Trazado_823455" data-name="Trazado 823455" d="M11.441,273.393a2.393,2.393,0,1,1,2.393,2.393,2.393,2.393,0,0,1-2.393-2.393" transform="translate(-8.703 -206.156)" fill="#ffdc67"/>
            <path id="Trazado_823456" data-name="Trazado 823456" d="M10.411,273.439a3.47,3.47,0,1,1,3.47-3.47,3.474,3.474,0,0,1-3.47,3.47m0-4.786a1.316,1.316,0,1,0,1.316,1.316,1.318,1.318,0,0,0-1.316-1.316" transform="translate(-5.28 -202.732)"/>
            <path id="Trazado_823457" data-name="Trazado 823457" d="M385.791,261.675A1.675,1.675,0,1,1,384.116,260a1.675,1.675,0,0,1,1.675,1.675" transform="translate(-290.931 -197.788)"/>
            <path id="Trazado_823458" data-name="Trazado 823458" d="M17.791,121.675A1.675,1.675,0,1,1,16.116,120a1.675,1.675,0,0,1,1.675,1.675" transform="translate(-10.986 -91.287)"/>
            <path id="Trazado_823459" data-name="Trazado 823459" d="M477.791,386.675A1.675,1.675,0,1,1,476.116,385a1.675,1.675,0,0,1,1.675,1.675" transform="translate(-360.918 -292.878)"/>
            <path id="Trazado_823460" data-name="Trazado 823460" d="M222.961,52.755a2.338,2.338,0,0,1-2.061-3.432L243.372,6.906A2.336,2.336,0,0,1,247.5,9.092L225.028,51.51a2.336,2.336,0,0,1-2.067,1.245" transform="translate(-167.836 -4.308)" fill="#fbd3cd"/>
            <path id="Trazado_823461" data-name="Trazado 823461" d="M220.177,50.845a3.217,3.217,0,0,1-2.837-4.717l22.472-42.42a3.213,3.213,0,0,1,5.679,3.01L223.019,49.136a3.213,3.213,0,0,1-2.841,1.71M242.652,3.752a1.454,1.454,0,0,0-1.289.776L218.891,46.947a1.464,1.464,0,0,0,.607,1.976,1.488,1.488,0,0,0,1.973-.608L243.941,5.9a1.462,1.462,0,0,0-1.289-2.145" transform="translate(-165.052 -1.521)"/>
            <path id="Trazado_823462" data-name="Trazado 823462" d="M218.657,49.8a3.7,3.7,0,0,1-3.259-5.42L237.87,1.963A3.692,3.692,0,0,1,244.4,5.42L221.922,47.838a3.694,3.694,0,0,1-3.265,1.964M241.132.957a2.729,2.729,0,0,0-2.416,1.454L216.244,44.83a2.734,2.734,0,1,0,4.833,2.559L243.549,4.972A2.739,2.739,0,0,0,241.132.957m-22.5,47.084a1.884,1.884,0,0,1-.882-.216,1.946,1.946,0,0,1-.806-2.623L239.42,2.783A1.938,1.938,0,1,1,242.844,4.6L220.373,47.018a1.974,1.974,0,0,1-1.737,1.023m22.5-45.331a.976.976,0,0,0-.866.521L217.794,45.65a.986.986,0,0,0,.409,1.33,1.011,1.011,0,0,0,1.325-.411L242,4.152a.978.978,0,0,0-.405-1.326.988.988,0,0,0-.461-.117" transform="translate(-163.532)"/>
            <path id="Trazado_823463" data-name="Trazado 823463" d="M204.266,169.269a7.488,7.488,0,0,0-7.488,7.487v3.933a7.488,7.488,0,0,0,14.976,0v-3.933a7.488,7.488,0,0,0-7.488-7.487m4.885,10.737a4.885,4.885,0,0,1-9.77,0v-2.566a4.885,4.885,0,1,1,9.77,0Z" transform="translate(-149.693 -128.767)" fill="#fecd65"/>
            <path id="Trazado_823464" data-name="Trazado 823464" d="M201.481,186.268a8.374,8.374,0,0,1-8.364-8.365v-3.933a8.364,8.364,0,0,1,16.729,0V177.9a8.374,8.374,0,0,1-8.365,8.365m0-18.91a6.619,6.619,0,0,0-6.612,6.612V177.9a6.612,6.612,0,0,0,13.224,0v-3.933a6.619,6.619,0,0,0-6.612-6.612m0,15.623a5.767,5.767,0,0,1-5.76-5.761v-2.566a5.761,5.761,0,1,1,11.522,0v2.566a5.769,5.769,0,0,1-5.761,5.761m0-12.337a4.013,4.013,0,0,0-4.01,4.01v2.566a4.009,4.009,0,0,0,8.017,0v-2.566a4.012,4.012,0,0,0-4.007-4.01" transform="translate(-146.908 -125.98)"/>
            <path id="Trazado_823465" data-name="Trazado 823465" d="M135.29,224.095a29.641,29.641,0,0,0-24.1-17.333,2.725,2.725,0,0,0-.9,0,29.64,29.64,0,0,0-24.1,17.333c-7.947,17.132-12.353,42.249-12.353,42.249h73.814s-4.406-25.117-12.351-42.249" transform="translate(-56.162 -157.257)" fill="#fecd65"/>
            <path id="Trazado_823466" data-name="Trazado 823466" d="M144.859,264.432H71.045a.874.874,0,0,1-.862-1.026c.042-.254,4.516-25.428,12.42-42.469a30.414,30.414,0,0,1,24.745-17.83,2.3,2.3,0,0,1,.491-.052l.17.005.058-.005a2.253,2.253,0,0,1,.489.052,30.412,30.412,0,0,1,24.747,17.83c7.9,17.041,12.375,42.215,12.42,42.469a.876.876,0,0,1-.863,1.026M72.1,262.678h71.709c-.926-4.886-5.192-26.122-12.1-41a28.656,28.656,0,0,0-23.385-16.83.937.937,0,0,1-.2-.043c-.034,0-.183.009-.224.006l-.155.007a.634.634,0,0,1-.16.03,28.661,28.661,0,0,0-23.389,16.83c-6.9,14.887-11.169,36.119-12.094,41" transform="translate(-53.38 -154.468)"/>
            <path id="Trazado_823467" data-name="Trazado 823467" d="M142.2,262.606H68.383A1.711,1.711,0,0,1,66.7,260.6c.039-.237,4.558-25.586,12.485-42.675a31.288,31.288,0,0,1,25.38-18.307,3.12,3.12,0,0,1,.615-.06l.145,0,.082,0a3.112,3.112,0,0,1,.615.06,31.286,31.286,0,0,1,25.38,18.307c7.929,17.1,12.441,42.422,12.485,42.676a1.713,1.713,0,0,1-1.687,2.009m-37.028-61.377a1.438,1.438,0,0,0-.307.033l-.1.015A29.618,29.618,0,0,0,80.7,218.625c-7.845,16.915-12.312,42.008-12.354,42.254a.046.046,0,0,0,.009.041.041.041,0,0,0,.027.01H142.2a.038.038,0,0,0,.029-.014.038.038,0,0,0,.01-.026c-.045-.256-4.518-25.365-12.356-42.266a29.617,29.617,0,0,0-24.066-17.348l-.1-.016a1.4,1.4,0,0,0-.273-.032l-.083.008-.067,0-.12,0m36.987,59.623H68.425l.188-.993c1.127-5.946,5.334-26.487,12.158-41.2a29.486,29.486,0,0,1,24.073-17.312h0l.077-.024.322-.017.03,0c.037,0,.095,0,.118,0l.17-.011.169.055.023,0a29.476,29.476,0,0,1,24.052,17.31c6.824,14.707,11.032,35.253,12.159,41.2ZM70.45,259.177h69.68c-1.158-5.907-5.359-25.843-11.841-39.813a27.811,27.811,0,0,0-22.7-16.348,2.166,2.166,0,0,1-.219-.035c-.041,0-.084,0-.125,0l-.034,0a1.447,1.447,0,0,1-.172.027l-.042,0A27.816,27.816,0,0,0,82.29,219.364c-6.481,13.975-10.682,33.908-11.839,39.813" transform="translate(-50.718 -151.805)"/>
            <path id="Trazado_823468" data-name="Trazado 823468" d="M142.5,439.865c0,5.033-17.581,9.117-39.267,9.117s-39.266-4.084-39.266-9.117,17.579-9.119,39.266-9.119,39.267,4.082,39.267,9.119" transform="translate(-48.665 -327.678)" fill="#fecd65"/>
            <path id="Trazado_823469" data-name="Trazado 823469" d="M100.45,447.075c-19.459,0-40.142-3.5-40.142-9.991s20.683-9.995,40.142-9.995,40.142,3.5,40.142,9.995-20.683,9.991-40.142,9.991m0-18.234c-22.623,0-38.39,4.343-38.39,8.243s15.766,8.24,38.39,8.24,38.39-4.342,38.39-8.24-15.766-8.243-38.39-8.243" transform="translate(-45.878 -324.896)"/>
            <path id="Trazado_823470" data-name="Trazado 823470" d="M98.928,446.031c-16.328,0-40.621-2.788-40.621-10.47S82.6,425.088,98.928,425.088s40.621,2.789,40.621,10.473-24.293,10.47-40.621,10.47m0-19.986A133.561,133.561,0,0,0,71.663,428.6c-8,1.774-12.4,4.248-12.4,6.965s4.4,5.187,12.4,6.962a133.613,133.613,0,0,0,27.265,2.551,133.612,133.612,0,0,0,27.265-2.551c8-1.774,12.4-4.246,12.4-6.962s-4.4-5.19-12.4-6.965a133.56,133.56,0,0,0-27.265-2.551m0,18.235c-21.069,0-38.869-3.993-38.869-8.719s17.8-8.721,38.869-8.721,38.869,3.994,38.869,8.721S120,444.28,98.928,444.28m0-16.483c-10.435,0-20.227.94-27.571,2.646-7.633,1.774-10.341,3.865-10.341,5.118s2.708,3.342,10.341,5.116c7.344,1.706,17.136,2.646,27.571,2.646s20.227-.94,27.571-2.646c7.632-1.773,10.341-3.864,10.341-5.116s-2.708-3.344-10.341-5.118c-7.344-1.706-17.135-2.646-27.571-2.646" transform="translate(-44.355 -323.374)"/>
            <path id="Trazado_823471" data-name="Trazado 823471" d="M147.641,455.645c0,3.507-16.524,6.349-36.907,6.349s-36.907-2.842-36.907-6.349,16.524-6.351,36.907-6.351,36.907,2.843,36.907,6.351" transform="translate(-56.162 -341.788)" fill="#fecd65"/>
            <path id="Trazado_823472" data-name="Trazado 823472" d="M107.95,460.084c-15.187,0-37.783-1.925-37.783-7.227s22.6-7.228,37.783-7.228,37.783,1.925,37.783,7.228-22.6,7.227-37.783,7.227m0-12.7c-23.656,0-36.031,3.563-36.031,5.474s12.375,5.475,36.031,5.475,36.03-3.566,36.03-5.475-12.373-5.474-36.03-5.474" transform="translate(-53.378 -339)"/>
            <g id="Grupo_1077089" data-name="Grupo 1077089" transform="translate(17.665 107.506)" style="mix-blend-mode: multiply;isolation: isolate">
              <g id="Grupo_1077088" data-name="Grupo 1077088">
                <g id="Grupo_1077087" data-name="Grupo 1077087" clip-path="url(#clip-path-3)">
                  <path id="Trazado_823473" data-name="Trazado 823473" d="M147.641,455.645c0,3.507-16.524,6.349-36.907,6.349s-36.907-2.842-36.907-6.349,16.524-6.351,36.907-6.351,36.907,2.843,36.907,6.351" transform="translate(-73.827 -449.294)" fill="#fecd65"/>
                </g>
              </g>
            </g>
            <g id="Grupo_1077092" data-name="Grupo 1077092" transform="translate(22.614 107.506)" style="mix-blend-mode: multiply;isolation: isolate">
              <g id="Grupo_1077091" data-name="Grupo 1077091">
                <g id="Grupo_1077090" data-name="Grupo 1077090" clip-path="url(#clip-path-4)">
                  <path id="Trazado_823474" data-name="Trazado 823474" d="M158.427,452.47c-6.383-1.9-18.3-3.177-31.958-3.177s-25.577,1.278-31.959,3.177c6.382,1.9,18.3,3.174,31.959,3.174s25.575-1.278,31.958-3.174" transform="translate(-94.51 -449.293)" fill="#fecd65"/>
                </g>
              </g>
            </g>
            <g id="Grupo_1077095" data-name="Grupo 1077095" transform="translate(22.614 107.506)" style="mix-blend-mode: multiply;isolation: isolate">
              <g id="Grupo_1077094" data-name="Grupo 1077094">
                <g id="Grupo_1077093" data-name="Grupo 1077093" clip-path="url(#clip-path-4)">
                  <path id="Trazado_823475" data-name="Trazado 823475" d="M158.427,452.47c-6.383-1.9-18.3-3.177-31.958-3.177s-25.577,1.278-31.959,3.177c6.382,1.9,18.3,3.174,31.959,3.174s25.575-1.278,31.958-3.174" transform="translate(-94.51 -449.293)" fill="#fecd65"/>
                </g>
              </g>
            </g>
            <path id="Trazado_823476" data-name="Trazado 823476" d="M195.611,458.814c4.639,0,8.46-4.078,9.059-9.362-2.633-.1-5.367-.16-8.177-.16-3.442,0-6.769.083-9.933.235.627,5.246,4.435,9.286,9.052,9.286" transform="translate(-141.92 -341.787)" fill="#fecd65"/>
            <path id="Trazado_823477" data-name="Trazado 823477" d="M192.827,456.907c-4.971,0-9.237-4.324-9.921-10.057a.879.879,0,0,1,.2-.671.864.864,0,0,1,.627-.308c5.93-.286,12.157-.312,18.185-.078a.876.876,0,0,1,.837.974c-.654,5.781-4.923,10.14-9.929,10.14m-8.031-9.331c.89,4.381,4.212,7.579,8.031,7.579,3.846,0,7.174-3.226,8.044-7.646-5.344-.183-10.812-.157-16.075.068" transform="translate(-139.136 -339.004)"/>
            <path id="Trazado_823478" data-name="Trazado 823478" d="M191.306,455.867c-5.215,0-9.684-4.5-10.4-10.479a1.363,1.363,0,0,1,.312-1.037,1.345,1.345,0,0,1,.974-.477c5.906-.285,12.208-.312,18.222-.078a1.355,1.355,0,0,1,1.294,1.506c-.682,6.023-5.155,10.565-10.4,10.565M192.2,444.6c-3.363,0-6.721.078-9.96.235a.39.39,0,0,0-.284.138.4.4,0,0,0-.092.306c.655,5.493,4.715,9.635,9.446,9.635,4.763,0,8.826-4.177,9.453-9.715a.4.4,0,0,0-.092-.3.408.408,0,0,0-.291-.14c-2.688-.1-5.436-.157-8.179-.157m-.891,9.519c-3.988,0-7.563-3.348-8.5-7.962l-.112-.55.56-.024c5.344-.228,10.765-.25,16.112-.068l.561.019-.108.552c-.916,4.654-4.5,8.032-8.514,8.032m-7.435-7.6c1,3.883,4.057,6.646,7.435,6.646,3.4,0,6.464-2.789,7.451-6.708-4.943-.155-9.945-.134-14.886.063" transform="translate(-137.615 -337.486)"/>
            <path id="Trazado_823479" data-name="Trazado 823479" d="M153.626,60.5a2.336,2.336,0,0,1-2.059-1.229L130.086,19.4A2.337,2.337,0,0,1,134.2,17.18l21.48,39.87a2.338,2.338,0,0,1-2.054,3.447" transform="translate(-98.747 -12.135)" fill="#fbd3cd"/>
            <path id="Trazado_823480" data-name="Trazado 823480" d="M150.841,58.586a3.205,3.205,0,0,1-2.831-1.69L126.529,17.029a3.212,3.212,0,1,1,5.656-3.049L153.665,53.85a3.218,3.218,0,0,1-1.3,4.354,3.261,3.261,0,0,1-1.522.383M129.357,14.043a1.463,1.463,0,0,0-1.286,2.154l21.48,39.87a1.492,1.492,0,0,0,1.981.592,1.461,1.461,0,0,0,.591-1.977L130.644,14.811a1.463,1.463,0,0,0-1.287-.768" transform="translate(-95.962 -9.35)"/>
            <path id="Trazado_823481" data-name="Trazado 823481" d="M149.315,57.544a3.685,3.685,0,0,1-3.253-1.943l-21.48-39.866a3.691,3.691,0,1,1,6.5-3.5L152.561,52.1a3.7,3.7,0,0,1-1.5,5,3.747,3.747,0,0,1-1.75.441m-21.484-46.3a2.737,2.737,0,0,0-2.407,4.033l21.481,39.867a2.729,2.729,0,0,0,2.41,1.439,2.783,2.783,0,0,0,1.3-.327,2.737,2.737,0,0,0,1.106-3.7L130.238,12.686a2.727,2.727,0,0,0-2.406-1.438m21.5,44.534a1.967,1.967,0,0,1-1.728-1.009L126.124,14.9a1.94,1.94,0,0,1,3.416-1.841l21.478,39.872a1.922,1.922,0,0,1-1.685,2.849M127.832,13a.985.985,0,0,0-.865,1.45l21.48,39.869a1.013,1.013,0,0,0,1.334.4.982.982,0,0,0,.4-1.327L128.7,13.517a.984.984,0,0,0-.866-.517" transform="translate(-94.436 -7.829)"/>
            <path id="Trazado_823482" data-name="Trazado 823482" d="M29.05,436.233s-5.842,2.207-6.28,7.886,5.4,10.349,5.4,10.349-8.761-10.481.877-18.235" transform="translate(-17.303 -331.852)"/>
            <path id="Trazado_823483" data-name="Trazado 823483" d="M5.966,437.213S.68,438.935.055,443.965s4.371,9.427,4.371,9.427-7.35-9.684,1.54-16.179" transform="translate(0 -332.598)"/>
            <path id="Trazado_823484" data-name="Trazado 823484" d="M392.18,432.911s5.84,2.209,6.278,7.887-5.4,10.35-5.4,10.35,8.761-10.481-.875-18.237" transform="translate(-298.34 -329.325)"/>
            <path id="Trazado_823485" data-name="Trazado 823485" d="M416.328,433.9s5.286,1.722,5.911,6.752-4.37,9.426-4.37,9.426,7.352-9.684-1.541-16.178" transform="translate(-316.71 -330.075)"/>
          </g>
        </g>
      </g>
    </g>
  </g>
</svg>
