<svg xmlns="http://www.w3.org/2000/svg" xmlns:xlink="http://www.w3.org/1999/xlink" width="201" height="189" viewBox="0 0 201 189">
  <defs>
    <clipPath id="clip-path">
      <rect id="Rect치ngulo_379406" data-name="Rect치ngulo 379406" width="119.077" height="98.368" fill="none"/>
    </clipPath>
  </defs>
  <g id="Grupo_1077189" data-name="Grupo 1077189" transform="translate(-705 -2841)">
    <g id="Grupo_1077119" data-name="Grupo 1077119" transform="translate(0 91)">
      <rect id="Rect치ngulo_379370" data-name="Rect치ngulo 379370" width="16" height="5" transform="translate(890 2842)" fill="#dbf9bd"/>
      <g id="Grupo_161158" data-name="Grupo 161158" transform="translate(705 2750)">
        <circle id="Elipse_1142" data-name="Elipse 1142" cx="94.5" cy="94.5" r="94.5" fill="#dbf9bd"/>
      </g>
    </g>
    <g id="Grupo_1077133" data-name="Grupo 1077133" transform="translate(740.461 2880.633)">
      <path id="Trazado_823331" data-name="Trazado 823331" d="M29.336,40.828V28.77l6.591-6.591,10.6-2.435L52.4,18.6l8.505-7.163.067-7.02,9.48,2.154,6.017,6.012.717,4.728,11.174,7.163,4.871,7.02V41.95l11.393,6.877,2.075,7.45v8.31l9.448,8.166,2.586,9.366-1.576,6.966-7.88,8.167-91.975.716L8.848,93.527l-4.3-3.868L3.118,83.212l.86-7.163,8.309-8.739,3.582-1.576L14.722,57.28l4.3-8.452,6.591-3.75Z" transform="translate(-1.368 -1.937)" fill="#9e5958"/>
      <g id="Grupo_1077073" data-name="Grupo 1077073">
        <g id="Grupo_1077072" data-name="Grupo 1077072" clip-path="url(#clip-path)">
          <path id="Trazado_823332" data-name="Trazado 823332" d="M42.583,98.349c-7.328,0-14.656-.031-21.984.012-4.381.026-8.578-.535-12.344-3.016a18.673,18.673,0,0,1-6.18-6.78A17.68,17.68,0,0,1,.422,76.287,17.106,17.106,0,0,1,10.045,63.78c2.382-1.158,2.17-1.227,1.76-3.392a18.17,18.17,0,0,1,12.523-20.7c1.21-.4,1.373-1.027,1.238-2.172-.541-4.608-.176-9.076,2.492-13.083a18,18,0,0,1,10.539-7.8,36.24,36.24,0,0,1,6.175-.776A13.4,13.4,0,0,0,55.073,9.6a14.378,14.378,0,0,0,2.364-8.267c-.01-.965.509-1.285,1.4-1.316,5.811-.2,10.726,1.646,14.448,6.256,1.841,2.279,3.56,4.631,3.977,7.644A2.9,2.9,0,0,0,79.885,16.5c5.712,1.279,9.681,4.755,12.273,9.922,1.667,3.323,1.782,6.861,1.46,10.455-.2,2.239-.265,2.349,1.858,3.069a17.594,17.594,0,0,1,9.964,8.35c1.867,3.343,2.239,7.1,2.069,10.9a13.545,13.545,0,0,1-.125,1.524c-.341,2.147-.322,2.09,1.64,3.038a17.432,17.432,0,0,1,8.989,10.028,19.1,19.1,0,0,1,.637,10.4,16.8,16.8,0,0,1-5.295,9.228,18.255,18.255,0,0,1-12.77,4.917c-10.342.077-20.685.015-31.027.012q-13.487,0-26.976,0v.007m16.66-32.1v-.022c-13.311,0-26.623.053-39.934-.025-5.737-.034-10.181,1.906-13.068,7.115A13.041,13.041,0,0,0,5.032,84.256a14.129,14.129,0,0,0,13.48,9.791c15.444.132,30.889.115,46.334.118,11.454,0,22.91-.091,34.365-.073A15.637,15.637,0,0,0,109.748,90.6,13.506,13.506,0,0,0,113,73.423c-2.784-4.835-7.061-7.208-12.708-7.189-13.682.045-27.366.015-41.048.015m.324-4.305v-.051H99.337c.6,0,1.205-.008,1.807.007a1.549,1.549,0,0,0,1.756-1.552c.062-.506.171-1,.237-1.51A13.817,13.817,0,0,0,89.864,43.25c-20.114-.2-40.232-.065-60.348-.07a12.058,12.058,0,0,0-5.1,1.186c-6.785,3.159-9.37,9-8.217,16.175a1.573,1.573,0,0,0,1.791,1.519c1.018-.038,2.037-.111,3.055-.112q19.259-.011,38.519-.005m-.008-23.06H82.1c1.716,0,3.431.015,5.147,0,.762-.007,1.459-.1,1.745-1.027a12.629,12.629,0,0,0-.2-8.071,13.741,13.741,0,0,0-13.342-9.407c-3.055.135-6.12.034-9.181.009-1.678-.013-2.564-.82-2.566-2.247,0-1.5.9-2.227,2.7-2.217s3.614,0,5.421-.025c1.118-.014,1.5-.509,1.077-1.613a21.828,21.828,0,0,0-1.287-3.2,14.437,14.437,0,0,0-8.034-6.236c-1.4-.512-2.121-.134-2.334,1.356A13.779,13.779,0,0,1,59.1,11.58c-3.736,5.862-9.2,8.614-16.056,8.828a11.81,11.81,0,0,0-2.625.213c-7.038,1.855-11.853,8.463-10.545,15.848.41,2.315.469,2.413,2.837,2.415q13.424.009,26.849,0" transform="translate(0 0)"/>
        </g>
      </g>
    </g>
  </g>
</svg>
