<svg xmlns="http://www.w3.org/2000/svg" xmlns:xlink="http://www.w3.org/1999/xlink" width="190" height="119" viewBox="0 0 190 119">
  <defs>
    <clipPath id="clip-path">
      <rect id="Rectángulo_378853" data-name="Rectángulo 378853" width="100.92" height="96.531" fill="none"/>
    </clipPath>
  </defs>
  <g id="Grupo_1076488" data-name="Grupo 1076488" transform="translate(-180 -1648)">
    <rect id="Rectángulo_378854" data-name="Rectángulo 378854" width="190" height="119" transform="translate(180 1648)" fill="#fff"/>
    <g id="Grupo_1076487" data-name="Grupo 1076487" transform="translate(226.369 1654.234)">
      <g id="Grupo_1076486" data-name="Grupo 1076486" transform="translate(0 0)" clip-path="url(#clip-path)">
        <rect id="Rectángulo_378852" data-name="Rectángulo 378852" width="65.992" height="83.369" rx="3.428" transform="translate(17.375 12.11)" fill="#ecebed"/>
        <path id="Trazado_822423" data-name="Trazado 822423" d="M56.456,11.394a5.441,5.441,0,1,1-5.44,5.44,5.468,5.468,0,0,1,5.44-5.44" transform="translate(37.793 8.44)" fill="#fc974d"/>
        <path id="Trazado_822424" data-name="Trazado 822424" d="M4.992,42.245a4.388,4.388,0,0,1,0,8.775,4.388,4.388,0,0,1,0-8.775" transform="translate(0.448 31.295)" fill="#fc974d"/>
        <path id="Trazado_822425" data-name="Trazado 822425" d="M53.781,11.663c0,.35.176.7.176,1.053a5.469,5.469,0,0,1-5.44,5.44H24.295a5.16,5.16,0,0,1-3.861-1.579,5.159,5.159,0,0,1-1.581-3.861,2.2,2.2,0,0,1,.178-1.053,5.492,5.492,0,0,1,5.44-4.387H27.98A8.8,8.8,0,0,1,36.406.605a8.65,8.65,0,0,1,8.424,6.671h3.509A5.923,5.923,0,0,1,52.2,8.855a4.56,4.56,0,0,1,1.579,2.808" transform="translate(13.966 0.448)" fill="#414a56"/>
        <path id="Trazado_822426" data-name="Trazado 822426" d="M53.906,47.286a1.579,1.579,0,1,1-1.579,1.579,1.579,1.579,0,0,1,1.579-1.579" transform="translate(38.764 35.03)"/>
        <path id="Trazado_822427" data-name="Trazado 822427" d="M53.2,22.08a1.58,1.58,0,1,1-1.581,1.579A1.579,1.579,0,0,1,53.2,22.08" transform="translate(38.241 16.357)"/>
        <path id="Trazado_822428" data-name="Trazado 822428" d="M49.471.706A1.579,1.579,0,1,1,47.89,2.285,1.579,1.579,0,0,1,49.471.706" transform="translate(35.477 0.523)"/>
        <path id="Trazado_822429" data-name="Trazado 822429" d="M16.1,1.311a1.58,1.58,0,1,1-1.581,1.581A1.579,1.579,0,0,1,16.1,1.311" transform="translate(10.755 0.971)"/>
        <path id="Trazado_822430" data-name="Trazado 822430" d="M3.495,15.829a1.581,1.581,0,1,1-1.579,1.579,1.58,1.58,0,0,1,1.579-1.579" transform="translate(1.419 11.726)"/>
        <path id="Trazado_822431" data-name="Trazado 822431" d="M2.789,32.768A1.579,1.579,0,1,1,1.21,34.347a1.579,1.579,0,0,1,1.579-1.579" transform="translate(0.896 24.274)"/>
        <path id="Trazado_822432" data-name="Trazado 822432" d="M49.039,19.835H24.817A7.108,7.108,0,0,1,20.079,17.9a6.479,6.479,0,0,1-1.931-4.738,2.592,2.592,0,0,1,.176-1.227,6.751,6.751,0,0,1,6.493-5.266h2.808A10.042,10.042,0,0,1,36.928,0a9.8,9.8,0,0,1,9.3,6.671h2.81A7.1,7.1,0,0,1,53.777,8.6a6.17,6.17,0,0,1,1.755,3.335c0,.35.176.876.176,1.227a6.9,6.9,0,0,1-6.669,6.671M24.817,8.775a4.5,4.5,0,0,0-4.389,3.511v.877a5.049,5.049,0,0,0,1.229,3.16,4.229,4.229,0,0,0,3.16,1.227H49.039a4.344,4.344,0,0,0,4.387-4.387v-.877a4.328,4.328,0,0,0-4.387-3.511H45.527A1.112,1.112,0,0,1,44.474,7.9,7.692,7.692,0,0,0,37.1,2.106,7.5,7.5,0,0,0,29.731,7.9a1.112,1.112,0,0,1-1.053.877Z" transform="translate(13.444 0)"/>
        <path id="Trazado_822433" data-name="Trazado 822433" d="M70.454,91.826H16.4a7.041,7.041,0,0,1-7.021-7.021V13.373A7.042,7.042,0,0,1,16.4,6.352h9.477a1.131,1.131,0,0,1,1.053,1.053.981.981,0,0,1-.877,1.051H16.571a4.905,4.905,0,0,0-4.913,4.916V84.981A4.906,4.906,0,0,0,16.571,89.9H70.63a4.905,4.905,0,0,0,4.914-4.914V13.373A4.908,4.908,0,0,0,70.63,8.457H61.151A1.131,1.131,0,0,1,60.1,7.405a1.133,1.133,0,0,1,1.053-1.053H70.63a7.042,7.042,0,0,1,7.021,7.021V84.981a7.286,7.286,0,0,1-7.2,6.845" transform="translate(6.946 4.705)"/>
        <path id="Trazado_822434" data-name="Trazado 822434" d="M5.44,52.522a5.441,5.441,0,0,1,0-10.882,5.441,5.441,0,1,1,0,10.882m0-8.775a3.331,3.331,0,0,0-3.332,3.335A3.224,3.224,0,0,0,5.44,50.415a3.226,3.226,0,0,0,3.334-3.334A3.332,3.332,0,0,0,5.44,43.746" transform="translate(0 30.847)"/>
        <path id="Trazado_822435" data-name="Trazado 822435" d="M56.979,23.925a6.669,6.669,0,1,1,6.671-6.669,6.666,6.666,0,0,1-6.671,6.669m0-10.882a4.388,4.388,0,1,0,4.389,4.387,4.345,4.345,0,0,0-4.389-4.387" transform="translate(37.27 7.843)"/>
        <path id="Trazado_822436" data-name="Trazado 822436" d="M63.837,76.03H15.571a1.134,1.134,0,0,1-1.053-1.053V16.882a1.053,1.053,0,0,1,2.106,0V73.923H62.784V16.882a1.053,1.053,0,1,1,2.106,0V74.976a1.133,1.133,0,0,1-1.053,1.053" transform="translate(10.755 11.726)"/>
        <path id="Trazado_822437" data-name="Trazado 822437" d="M55.905,46.871H18.7a1.052,1.052,0,1,1,0-2.1H56.081a1.132,1.132,0,0,1,1.053,1.051,1.174,1.174,0,0,1-1.229,1.053" transform="translate(13.071 33.163)"/>
        <path id="Trazado_822438" data-name="Trazado 822438" d="M55.905,43.746H18.7a1.053,1.053,0,1,1,0-2.106H56.081a1.134,1.134,0,0,1,1.053,1.053,1.175,1.175,0,0,1-1.229,1.053" transform="translate(13.071 30.847)"/>
        <path id="Trazado_822439" data-name="Trazado 822439" d="M55.905,40.621H18.7a1.053,1.053,0,1,1,0-2.106H56.081a1.133,1.133,0,0,1,1.053,1.053,1.175,1.175,0,0,1-1.229,1.053" transform="translate(13.071 28.532)"/>
        <path id="Trazado_822440" data-name="Trazado 822440" d="M55.905,37.5H18.7a1.053,1.053,0,1,1,0-2.106H56.081a1.134,1.134,0,0,1,1.053,1.053A1.175,1.175,0,0,1,55.905,37.5" transform="translate(13.071 26.216)"/>
        <path id="Trazado_822441" data-name="Trazado 822441" d="M55.905,34.268H18.7a1.053,1.053,0,1,1,0-2.106H56.081a1.134,1.134,0,0,1,1.053,1.053,1.174,1.174,0,0,1-1.229,1.053" transform="translate(13.071 23.826)"/>
        <path id="Trazado_822442" data-name="Trazado 822442" d="M55.905,31.143H18.7a1.053,1.053,0,1,1,0-2.106H56.081a1.134,1.134,0,0,1,1.053,1.051,1.175,1.175,0,0,1-1.229,1.055" transform="translate(13.071 21.511)"/>
        <path id="Trazado_822443" data-name="Trazado 822443" d="M55.905,28.017H18.7a1.053,1.053,0,1,1,0-2.106H56.081a1.134,1.134,0,0,1,1.053,1.053,1.174,1.174,0,0,1-1.229,1.053" transform="translate(13.071 19.195)"/>
        <path id="Trazado_822444" data-name="Trazado 822444" d="M36.249,24.892H18.7a1.053,1.053,0,0,1,0-2.106H36.249a1.053,1.053,0,0,1,0,2.106" transform="translate(13.07 16.88)"/>
      </g>
    </g>
  </g>
</svg>
