<svg xmlns="http://www.w3.org/2000/svg" xmlns:xlink="http://www.w3.org/1999/xlink" width="203" height="189" viewBox="0 0 203 189">
  <defs>
    <clipPath id="clip-path">
      <rect id="Rect치ngulo_379405" data-name="Rect치ngulo 379405" width="138.443" height="74.096" fill="none"/>
    </clipPath>
  </defs>
  <g id="Grupo_1077190" data-name="Grupo 1077190" transform="translate(-693 -3077)">
    <g id="Grupo_1077125" data-name="Grupo 1077125" transform="translate(0 91)">
      <g id="Grupo_161157" data-name="Grupo 161157" transform="translate(707 2986)">
        <circle id="Elipse_1146" data-name="Elipse 1146" cx="94.5" cy="94.5" r="94.5" fill="#e8e8e8"/>
      </g>
      <rect id="Rect치ngulo_379371" data-name="Rect치ngulo 379371" width="16" height="5" transform="translate(693 3078)" fill="#e8e8e8"/>
    </g>
    <g id="Grupo_1077132" data-name="Grupo 1077132" transform="translate(730.778 3134.452)">
      <path id="Trazado_823320" data-name="Trazado 823320" d="M9.334,65.481l-4.39.55L2.82,70.137l1.133,2.195L8.7,73.961l8.355,18.621v5.381l22.516.566,1.583-3.115-.663-2.832L49.2,75.027,59.392,92.3V98.1l20.533.425,2.619-.637v-4.46l9.248-18.975,9.231,18.338V97.75l21.949.779,1.77-1.337-.354-4.327L133.1,75.027l4.319-3.037V68.3l-2.974-2.816-35.472-.087-1.557-6.656H86.595l-2,6.656-27.9.087-1.776-6.743H44.484l-2.51,6.585Z" transform="translate(-1.256 -26.16)" fill="#9c9c9c"/>
      <path id="Trazado_823321" data-name="Trazado 823321" d="M16.532,40.6l-3.115-9.771L16.532,15.54l6.514-7.778,5.664-3.976,7.222-.708L44.1,7.638l6.838,10.45,1.707,14.3-4.106,1.275L47.4,40.6Z" transform="translate(-5.975 -1.371)" fill="#fff"/>
      <path id="Trazado_823322" data-name="Trazado 823322" d="M95.228,39.2,89.96,29.432l3.115-15.293,6.514-7.778,5.664-3.976,7.222-.708,8.164,4.56,6.838,10.45,1.708,14.3-4.106,1.275L123.945,39.2Z" transform="translate(-40.066 -0.747)" fill="#fff"/>
      <path id="Trazado_823323" data-name="Trazado 823323" d="M171.92,40.761l-6.1-9.771L168.934,15.7l6.514-7.778,5.664-3.976,7.222-.708L196.5,7.8l6.838,10.45,1.707,14.3-1.394,6.943L199.8,40.761Z" transform="translate(-73.851 -1.441)" fill="#fff"/>
      <g id="Grupo_1077070" data-name="Grupo 1077070">
        <g id="Grupo_1077069" data-name="Grupo 1077069" clip-path="url(#clip-path)">
          <path id="Trazado_823324" data-name="Trazado 823324" d="M111.484,74.1c-3.182-.083-6.365-.138-9.547-.257-2.72-.1-4.107-1.3-3.871-4,.24-2.733-.859-4.922-1.917-7.208Q93.579,57.07,91,51.508c-.113-.243-.186-.581-.458-.615-.343-.043-.347.363-.446.577-2.291,4.913-4.559,9.837-6.848,14.751a2.749,2.749,0,0,0-.24,1.7,7.993,7.993,0,0,1,0,2.557c-.331,2.24-1.22,3.119-3.5,3.337-1.037.1-2.083.131-3.126.153-5.3.11-10.593.093-15.888-.1-.428-.016-.857-.029-1.282-.079a3.3,3.3,0,0,1-3.282-3.3,12.114,12.114,0,0,1,.03-2.883,2.457,2.457,0,0,0-.234-1.395Q52.282,58.8,48.855,51.385c-.1-.219-.156-.5-.452-.494-.28,0-.265.3-.348.476q-3.451,7.408-6.9,14.819a2.7,2.7,0,0,0-.235,1.627,7.282,7.282,0,0,1-.447,4.244,2.678,2.678,0,0,1-1.912,1.556,18.421,18.421,0,0,1-4.069.356c-5.431.1-10.862.116-16.292-.095-3.258-.126-4.613-1.308-4.373-4.54a10.718,10.718,0,0,0-1.316-5.555c-2.108-4.5-4.243-8.985-6.225-13.54a2.24,2.24,0,0,0-2-1.553A5.261,5.261,0,0,1,.013,42.96a5.412,5.412,0,0,1,5-4.89A14.84,14.84,0,0,1,6.7,38.054c.646.032.868-.218.754-.862a41.544,41.544,0,0,1-.633-6.864c-.075-8.287,1.8-16.022,6.834-22.771A17.945,17.945,0,0,1,22.917.72,14.9,14.9,0,0,1,35.749,2.526c5,3.21,7.9,8,9.9,13.431a40.967,40.967,0,0,1,2.327,13.771c0,.107,0,.214,0,.321.009.357,0,.755.5.743.483-.012.409-.419.4-.724a41.406,41.406,0,0,1,.638-7.505c1.087-6.465,3.454-12.353,8.065-17.14C61.426,1.443,66.067-.561,71.686.207a16.3,16.3,0,0,1,9.307,4.807,28.5,28.5,0,0,1,6.866,11.341A39.96,39.96,0,0,1,90.04,29.9c0,.053,0,.107,0,.16-.011.38.05.73.53.724s.431-.4.424-.708a38.309,38.309,0,0,1,.371-6c.912-6.739,3.175-12.914,7.762-18.062a16.81,16.81,0,0,1,9.915-5.8,15.259,15.259,0,0,1,12.386,3.377,26.724,26.724,0,0,1,8.179,11.772,40.981,40.981,0,0,1,1.87,21.866c-.124.731.216.846.784.817a5.921,5.921,0,0,1,3.743.937,5.316,5.316,0,0,1-1.572,9.609,2.11,2.11,0,0,0-1.633,1.4c-1.748,4.015-3.636,7.969-5.473,11.945-.65,1.406-1.279,2.823-1.957,4.215a2.8,2.8,0,0,0-.277,1.7,9.736,9.736,0,0,1,.027,2.483c-.266,2.344-1.245,3.308-3.6,3.492-2.911.227-5.83.154-8.745.214-.428.009-.856,0-1.283,0l0,.049m2.106-36.051v0h13.716c.161,0,.321,0,.481,0a.555.555,0,0,0,.635-.558c.143-1.113.349-2.219.465-3.334a38.454,38.454,0,0,0-1.709-16.536A25.291,25.291,0,0,0,120.046,6.4,12.279,12.279,0,0,0,104.86,5.1,20.73,20.73,0,0,0,98.011,12.9a34.959,34.959,0,0,0-3.938,16.355c-.023,1.748-.074,1.561,1.546,1.573,1.057.008,1.638.328,1.871,1.176.459,1.673.921,3.352,1.232,5.057.141.775.377,1,1.151,1,4.572-.034,9.145-.017,13.718-.017m-88.223,0v0h.642c4.414,0,8.827-.007,13.241.011.581,0,.8-.146.927-.772.373-1.8.854-3.585,1.344-5.361a1.5,1.5,0,0,1,1.451-1.076,5.749,5.749,0,0,1,.962-.008c.748.067,1.035-.206,1.024-1A38.669,38.669,0,0,0,42.8,17.01a23.975,23.975,0,0,0-7.12-10.769C31.8,3.082,27.486,2.029,22.732,4.022a16.662,16.662,0,0,0-7.27,6.226c-3.975,5.8-5.481,12.337-5.626,19.262a49.572,49.572,0,0,0,.669,7.582c.1.76.311.977,1.059.972,4.6-.03,9.2-.015,13.8-.015m44.1,0H72.92q4.253,0,8.5,0c.323,0,.734.119.8-.414.208-1.621.755-3.164,1.118-4.749.41-1.788.748-2.029,2.566-2.042,1.08-.008,1.148-.073,1.125-1.133A39.06,39.06,0,0,0,85,17.336,24.447,24.447,0,0,0,77.845,6.312c-3.9-3.243-8.264-4.287-13.075-2.273a16.639,16.639,0,0,0-7.151,6.125C53.655,15.839,52.1,22.246,51.982,29.07c-.034,2-.184,1.739,1.661,1.765a1.61,1.61,0,0,1,1.776,1.2c.454,1.731.9,3.466,1.263,5.217.123.588.3.806.917.8,3.957-.024,7.915-.012,11.872-.012m-.173,3.03v.029H61.513l-33.946,0-21.83,0a2.656,2.656,0,0,0-1.8.535,2.341,2.341,0,0,0-.76,2.6,2.486,2.486,0,0,0,2.544,1.573q9.952.014,19.9.017,34.029-.007,68.057-.019,19.542,0,39.085,0a2.457,2.457,0,0,0,2.617-2.363,2.333,2.333,0,0,0-2.517-2.332c-.936-.028-1.873-.034-2.809-.034q-30.377,0-60.754,0m-41.923,7.8v0q-8.709,0-17.417,0c-.938,0-.965.049-.58.88l7.341,15.851a2.721,2.721,0,0,1,.268,1.781,9.91,9.91,0,0,0-.1,2.48.812.812,0,0,0,.88.9,175.67,175.67,0,0,0,19.252,0c.659-.039.891-.371.92-.961a8.234,8.234,0,0,0-.133-2.4,2.463,2.463,0,0,1,.211-1.708q1.976-4.25,3.963-8.5c1.183-2.542,2.349-5.093,3.545-7.628.235-.5.131-.7-.405-.7-.214,0-.428-.006-.642-.006h-17.1m42.18-.011v.015q-8.747,0-17.5,0c-.909,0-.963.094-.588.905q3.618,7.819,7.247,15.631a3.651,3.651,0,0,1,.348,2.089c-.1.765-.057,1.547-.079,2.322-.017.623.26.908.907.942a171.727,171.727,0,0,0,19.169.006.885.885,0,0,0,.963-.926,7.307,7.307,0,0,0-.13-2.316,2.86,2.86,0,0,1,.251-1.942q3.661-7.839,7.313-15.683c.473-1.015.471-1.016-.65-1.04-.106,0-.214-.006-.321-.006H69.555m42.055.006v0q-8.665,0-17.331,0c-1.041,0-1.1.1-.66,1.039,2.238,4.819,4.453,9.648,6.723,14.452a6.181,6.181,0,0,1,.748,4.072,6.92,6.92,0,0,0-.006,1.52c.008.555.283.8.852.819,1.417.038,2.831.137,4.248.171,4.974.118,9.947.145,14.918-.167a.919.919,0,0,0,1-.961,9.4,9.4,0,0,0-.143-2.4,3.112,3.112,0,0,1,.289-1.862q3.627-7.764,7.227-15.54c.511-1.1.488-1.151-.7-1.151H111.61M48.4,38.045v0c1.522,0,3.044,0,4.567,0,.387,0,.816,0,.673-.591-.234-.958-.5-1.908-.734-2.867a.839.839,0,0,0-.969-.715c-2.323.024-4.647.028-6.969,0a.913.913,0,0,0-1.034.851c-.18.807-.4,1.6-.614,2.4-.2.767-.11.913.676.918,1.469.011,2.937,0,4.406,0m42.079,0q2.285,0,4.572,0c.4,0,.8-.026.65-.611-.257-1.009-.526-2.014-.774-3.025a.618.618,0,0,0-.692-.519q-3.69,0-7.381,0a.714.714,0,0,0-.778.639c-.209.884-.439,1.762-.677,2.638-.161.6-.043.907.666.892,1.47-.033,2.942-.01,4.413-.008" transform="translate(0 0)"/>
          <path id="Trazado_823325" data-name="Trazado 823325" d="M210.807,21.117c-.581.053-.986-.344-1.326-.862a14.563,14.563,0,0,0-5.044-4.931,15.7,15.7,0,0,0-2.069-.855,1.436,1.436,0,0,1-.963-1.912,1.343,1.343,0,0,1,1.752-.982,12.346,12.346,0,0,1,5.368,2.9,18.249,18.249,0,0,1,3.65,4.329,1.477,1.477,0,0,1-1.368,2.314" transform="translate(-89.663 -5.132)"/>
          <path id="Trazado_823326" data-name="Trazado 823326" d="M224.909,42.152a2.346,2.346,0,0,1-.149,1.562,1.494,1.494,0,0,1-1.509.713,1.367,1.367,0,0,1-1.221-1.105c-.324-1.352-.237-2.765-.6-4.115a16.706,16.706,0,0,1-.4-1.876,1.513,1.513,0,0,1,2.944-.692,27.893,27.893,0,0,1,.938,5.514" transform="translate(-98.428 -15.814)"/>
          <path id="Trazado_823327" data-name="Trazado 823327" d="M57.718,21.016a1.534,1.534,0,0,1-1.359-.889,14.211,14.211,0,0,0-4.974-4.885,11.064,11.064,0,0,0-2.46-.94,1.6,1.6,0,0,1-1.24-1.852,1.578,1.578,0,0,1,1.948-1.1,14.084,14.084,0,0,1,7.406,4.627,16.914,16.914,0,0,1,2.054,2.754,1.475,1.475,0,0,1-1.375,2.288" transform="translate(-21.219 -5.033)"/>
          <path id="Trazado_823328" data-name="Trazado 823328" d="M72.3,42.293a2.417,2.417,0,0,1-.191,1.454,1.468,1.468,0,0,1-1.518.676A1.353,1.353,0,0,1,69.4,43.3c-.293-1.383-.248-2.815-.608-4.191a15.131,15.131,0,0,1-.394-1.876,1.381,1.381,0,0,1,1.142-1.654,1.356,1.356,0,0,1,1.781,1.03,26.356,26.356,0,0,1,.987,5.688" transform="translate(-30.454 -15.82)"/>
          <path id="Trazado_823329" data-name="Trazado 823329" d="M134.624,21.11c-.678.033-1.045-.415-1.379-.921a14.259,14.259,0,0,0-5.064-4.893,13.749,13.749,0,0,0-1.914-.806,1.437,1.437,0,0,1-1.041-1.923,1.378,1.378,0,0,1,1.888-.976,13.173,13.173,0,0,1,5.565,3.188,19.325,19.325,0,0,1,3.3,4A1.42,1.42,0,0,1,136.1,20.3a1.531,1.531,0,0,1-1.471.811" transform="translate(-55.733 -5.126)"/>
          <path id="Trazado_823330" data-name="Trazado 823330" d="M148.727,42.248c.009.616.1,1.048-.166,1.437a1.516,1.516,0,0,1-1.57.735,1.373,1.373,0,0,1-1.241-1.286,53.54,53.54,0,0,0-.973-6,1.514,1.514,0,0,1,2.961-.522,33.6,33.6,0,0,1,.989,5.641" transform="translate(-64.468 -15.819)"/>
        </g>
      </g>
    </g>
  </g>
</svg>
