<svg xmlns="http://www.w3.org/2000/svg" xmlns:xlink="http://www.w3.org/1999/xlink" width="295" height="169.157" viewBox="0 0 295 169.157">
  <defs>
    <clipPath id="clip-path">
      <rect id="Rect치ngulo_378862" data-name="Rect치ngulo 378862" width="178.507" height="165.207" fill="none"/>
    </clipPath>
  </defs>
  <g id="Grupo_1076499" data-name="Grupo 1076499" transform="translate(-180 -361.843)">
    <rect id="Rect치ngulo_378863" data-name="Rect치ngulo 378863" width="295" height="169" transform="translate(180 362)" fill="#fff"/>
    <g id="Grupo_1076498" data-name="Grupo 1076498" transform="translate(241.5 361.843)">
      <g id="Grupo_1076497" data-name="Grupo 1076497" clip-path="url(#clip-path)">
        <path id="Trazado_822497" data-name="Trazado 822497" d="M165.215,130.754c31.714,18.31,31.882,48,.369,66.309s-82.76,18.312-114.472,0-31.879-48-.374-66.312,82.763-18.31,114.477,0" transform="translate(-10.603 -45.588)" fill="#f2f2f2"/>
        <path id="Trazado_822498" data-name="Trazado 822498" d="M60.524,156.622s-11.806,16.8,2.764,23.037S98.3,191.664,104.05,186.4s15.507-12.179,19.535-4.643,23.35,25.641,46.046,6.7,20.1-30.018,13.576-31.839-16.5-23.731-27.2-28.918-24.907-4.545-37.921,0-57.559,28.918-57.559,28.918" transform="translate(-21.82 -48.327)" fill="#e0e0e0"/>
        <path id="Trazado_822499" data-name="Trazado 822499" d="M211.977,28.56s11,12.374,9.426,19.573a68.967,68.967,0,0,0-1.177,18.973c.392,3.138-1.767-6.171-1.767-6.171s1.767-11.921,0-15.434-8.437-11.755-8.437-11.755Z" transform="translate(-81.819 -11.126)" fill="#e3dac9"/>
        <path id="Trazado_822500" data-name="Trazado 822500" d="M167.217,65.518s4.2,17.612,4.2,20.214-1,4.377,0,8.592,1.6,7.223,1.2,10.122a11.194,11.194,0,0,1-2.639,5.3s8.043,4,9.445-2.4c0,0,.4-11.032,0-13.022s-.6-9.393-.8-11.6.755-15.9.977-18.96a27.956,27.956,0,0,0-.977-7.458Z" transform="translate(-65.143 -21.938)" fill="#e3dac9"/>
        <path id="Trazado_822501" data-name="Trazado 822501" d="M173.675,137.929s4.935.942,7.057,0c0,0,.43,5.806-4.5,5.485l-.883-1.055-2.014.756-2.109-.792s2.216-3.1,2.45-4.394" transform="translate(-66.705 -53.734)" fill="#9c4812"/>
        <path id="Trazado_822502" data-name="Trazado 822502" d="M185.854,86.817A13.015,13.015,0,1,1,172.84,73.8a13.015,13.015,0,0,1,13.015,13.017" transform="translate(-62.263 -28.751)" fill="#ffab91"/>
        <path id="Trazado_822503" data-name="Trazado 822503" d="M183.728,79.085a13.015,13.015,0,1,1-13.016-13.017,13.015,13.015,0,0,1,13.016,13.017" transform="translate(-61.435 -25.738)" fill="#ea9781"/>
        <path id="Trazado_822504" data-name="Trazado 822504" d="M16.366,87.208s-5.273-1.963-9.216-.866-3.663,1.482-5.925,1.967-1,2.55.659,2.585,6.843,5.335,8.891,6.081,5.455-1.288,5.966-2.887-.375-6.88-.375-6.88" transform="translate(0 -33.507)" fill="#bf6121"/>
        <path id="Trazado_822505" data-name="Trazado 822505" d="M16.366,87.208s-5.273-1.963-9.216-.866-3.663,1.482-5.925,1.967-1,2.55.659,2.585,6.843,5.335,8.891,6.081,5.455-1.288,5.966-2.887-.375-6.88-.375-6.88" transform="translate(0 -33.507)" fill="#bf6121"/>
        <path id="Trazado_822506" data-name="Trazado 822506" d="M63.4,122.469s4.2,20.281,4.2,22.882-1,4.378,0,8.594,1.6,7.222,1.2,10.121a11.194,11.194,0,0,1-2.639,5.3,18.729,18.729,0,0,1,4.124.036c2.3.322,4.571.985,5.32-2.437,0,0,.4-11.034,0-13.022s-.6-9.393-.8-11.6,3.5-14.755,3.722-17.809-3.722-8.609-3.722-8.609Z" transform="translate(-24.701 -45.164)" fill="#e3dac9"/>
        <path id="Trazado_822507" data-name="Trazado 822507" d="M57.379,56.548c-7.005,10.008.6,39.028,11.007,40.228S80.492,95.651,87.2,94.709c23.744-3.339,33.424-16.8,44.031-29.156,4.358-5.076,23.016-10.607,23.616-16.211s-.2-26.818-5-29.82-5.4-3.6-11.407-4.4-8.606-1.4-13.81,2.6S108.613,30.53,95.8,34.133,67.184,44.94,64.983,48.542s-6.044,5.775-7.6,8.006" transform="translate(-21.297 -5.663)" fill="#e3dac9"/>
        <path id="Trazado_822508" data-name="Trazado 822508" d="M93.063,140.95s3.81,17.257,3.81,19.916-1.022,4.474,0,8.782,1.636,7.381,1.227,10.345a11.442,11.442,0,0,1-2.7,5.418s2.637-1.183,4.1-.808c2.54.647,4.64,2.5,5.548-1.647,0,0,.408-11.276,0-13.309s-.614-9.6-.819-11.851,1.666-7.042,1.894-10.164a27.681,27.681,0,0,1,2.011-7.229Z" transform="translate(-36.255 -54.698)" fill="#e3dac9"/>
        <path id="Trazado_822509" data-name="Trazado 822509" d="M196.036,72.055s4.2,17.612,4.2,20.213-1,4.377,0,8.593,1.6,7.222,1.2,10.122a11.2,11.2,0,0,1-2.639,5.3s8.043,4,9.444-2.4c0,0,.4-11.033,0-13.022s-.6-9.393-.8-11.594,2.3-14.15,2.525-17.2,0-15.752,0-15.752Z" transform="translate(-76.371 -21.938)" fill="#e3dac9"/>
        <path id="Trazado_822510" data-name="Trazado 822510" d="M150.077,19.522c-4.8-3-5.4-3.6-11.407-4.4s-8.607-1.4-13.81,2.6S108.849,30.53,96.041,34.134,67.421,44.94,65.22,48.542s-6.283,5.626-7.6,8.006c-2.191,3.944-2.888,12.256-1.9,20.032,1.629,3.372,3.852,5.7,6.707,6.028,10.407,1.2,8.78,6.471,15.5,7.318,43.419,5.473,38.794-28.865,49.4-41.223,4.357-5.078,24.161-4.921,24.761-10.526a90.835,90.835,0,0,0-.631-17.165,4.567,4.567,0,0,0-1.37-1.492" transform="translate(-21.533 -5.663)" fill="#f5ead8"/>
        <path id="Trazado_822511" data-name="Trazado 822511" d="M150.077,19.522c-4.8-3-5.4-3.6-11.407-4.4s-8.607-1.4-13.81,2.6S108.849,30.53,96.041,34.134,67.421,44.94,65.22,48.542s-6.283,5.626-7.6,8.006c-2.191,3.944-2.888,12.256-1.9,20.032,1.629,3.372,3.852,5.7,6.707,6.028,10.407,1.2,8.78,6.471,15.5,7.318,43.419,5.473,38.794-28.865,49.4-41.223,4.357-5.078,24.161-4.921,24.761-10.526a90.835,90.835,0,0,0-.631-17.165,4.567,4.567,0,0,0-1.37-1.492" transform="translate(-21.533 -5.663)" fill="#f5ead8"/>
        <path id="Trazado_822512" data-name="Trazado 822512" d="M141.819,17.72c-5.2,4-16.011,12.808-28.819,16.412a134.241,134.241,0,0,0-14.2,4.943c2.661,1.27,6.61,2.408,11.047,4.774,8.006,4.269,5.872,2.668,12.187,8.675s9.7,1.733,11.031-3.072,1.868-8.005,7.5-9.415,6.648-6.33,7.981-10.866,6.939-1.334,13.877-5.6c3.518-2.165-1.539-5.632-7.381-8.527-5.593-.756-8.193-1.189-13.224,2.681" transform="translate(-38.492 -5.662)" fill="#9c4812"/>
        <path id="Trazado_822513" data-name="Trazado 822513" d="M61.682,65.833c-2.2,3.6-3.681,4.885-5.242,7.116-6.231,8.9-5.683,27.182,2.894,33.213,3.75,2.79,7.046,4.692,8.366,3.19,2.671-3.037,3.749-9.064,9.466-10.675a14.493,14.493,0,0,0,9.748-9.34c.8-2.936-12.542-3.47-15.439-10.408s6.1-3.736,11.778-8.272c3.916-3.131-.544-10.492-5.32-14.023-5.743,2.674-15.161,7.415-16.251,9.2" transform="translate(-20.359 -22.064)" fill="#9c4812"/>
        <path id="Trazado_822514" data-name="Trazado 822514" d="M54.7,60.624s-3.821.03-18.616,9.242c-3.814,2.375-7.428-2.157-14.835,2.479-3,1.878-7.285,15.111-8.529,21.124s-6.381,13.129-6.689,17,3.4,12.275,10.23,7.361,12.4-8.843,16.076-8.508,6.114-4.2,13.18-.856c0,0-.445-30.131,9.184-47.845" transform="translate(-2.342 -23.618)" fill="#9c4812"/>
        <path id="Trazado_822515" data-name="Trazado 822515" d="M39.386,93.581s3.69-4.612,8.289-3.854,5.481,4.223,7.081,5.458,6,2.154.057,3.83-9.933,2.8-12.575.723-4.5-3.627-2.852-6.157" transform="translate(-15.101 -34.923)" fill="#883c0c"/>
        <path id="Trazado_822516" data-name="Trazado 822516" d="M99.592,205.259a5.92,5.92,0,0,0,7.044,0s1.355,5.955-3.87,6.681l-2.514-.168.391-1.167-2.357.637-1.39-.565s2.6-4.378,2.7-5.418" transform="translate(-37.748 -79.964)" fill="#9c4812"/>
        <path id="Trazado_822517" data-name="Trazado 822517" d="M70.384,196.274s4.935.941,7.057,0c0,0,.43,5.805-4.5,5.485l-.883-1.055-2.014.756-2.11-.792s2.217-3.1,2.451-4.393" transform="translate(-26.465 -76.463)" fill="#9c4812"/>
        <path id="Trazado_822518" data-name="Trazado 822518" d="M202.883,146.915a5.922,5.922,0,0,0,7.046,0s1.353,5.956-3.872,6.68l-2.514-.167.391-1.167-2.357.637-1.39-.566s2.595-4.377,2.7-5.418" transform="translate(-77.988 -57.234)" fill="#9c4812"/>
        <path id="Trazado_822519" data-name="Trazado 822519" d="M196.407,109.087c.483,1.614.225,3.117-.579,3.359s-1.848-.873-2.332-2.487-.224-3.118.579-3.359,1.848.871,2.332,2.486" transform="translate(-75.286 -41.516)" fill="#ffab91"/>
        <path id="Trazado_822520" data-name="Trazado 822520" d="M185.61,114.527c-.035,1.685-.742,3.038-1.581,3.021s-1.492-1.4-1.458-3.081.742-3.037,1.58-3.02,1.493,1.4,1.458,3.081" transform="translate(-71.125 -43.416)" fill="#ffab91"/>
        <path id="Trazado_822521" data-name="Trazado 822521" d="M174.476,114.732c-.689,1.538-1.869,2.507-2.634,2.165s-.829-1.869-.14-3.406,1.868-2.508,2.633-2.165.83,1.869.141,3.406" transform="translate(-66.705 -43.343)" fill="#ffab91"/>
        <path id="Trazado_822522" data-name="Trazado 822522" d="M33.3,116.063s.584-4.054,3.442-3.7l1.954.9s-1.546,5.28-5.4,2.8" transform="translate(-12.972 -43.764)" fill="#232121"/>
        <path id="Trazado_822523" data-name="Trazado 822523" d="M38.953,113.863a.773.773,0,1,1-.772-.773.773.773,0,0,1,.772.773" transform="translate(-14.573 -44.057)" fill="#fefefc"/>
        <path id="Trazado_822524" data-name="Trazado 822524" d="M42.914,104.043c2.641,2.082,6.635.953,12.575-.723,2.153-.607,2.943-1.115,3.006-1.575-2.218.841-8.753.867-13.315-.647-2.942-.977-4.173.012-4.681.839a20.822,20.822,0,0,0,2.415,2.107" transform="translate(-15.777 -39.227)" fill="#77310b"/>
        <path id="Trazado_822525" data-name="Trazado 822525" d="M2.021,93.1c1.662.037,6.843,5.335,8.891,6.081a4.183,4.183,0,0,0,2.874-.253l.927-1.345S7.76,94.833,5.585,92.65c-1.5-1.511-3.9-.932-5.233-.432a2.1,2.1,0,0,0,1.669.885" transform="translate(-0.137 -35.716)" fill="#9c4812"/>
        <path id="Trazado_822526" data-name="Trazado 822526" d="M38.735,127.712c2.684.244,4.71-2.1,8.358-2.089.2.166.411.33.626.481,3.75,2.79,7.046,4.692,8.366,3.19,2.671-3.037,3.749-9.064,9.466-10.675a14.638,14.638,0,0,0,8.041-5.842c-2.9-1.785-7.712-4.306-12.492-4.827-7.561-.825-10.885,2.395-13.652,7.676S35.89,120.549,30.2,122.663s-7.757,9.686-7.757,9.686l2,2.592c6.018-4.3,10.942-7.534,14.291-7.229" transform="translate(-8.743 -42.005)" fill="#933e0f"/>
        <path id="Trazado_822527" data-name="Trazado 822527" d="M4.954,138.226s.228-1.983,2.312-.751,2.742,3.543,4.4,3.752,4.357-2,5.953-1.116a3.772,3.772,0,0,1,1.755,3.587c-.279,1.891-5.317,6.855-10.231,5.615,0,0-5.81-2.741-4.19-11.088" transform="translate(-1.819 -53.4)" fill="#454140"/>
        <path id="Trazado_822528" data-name="Trazado 822528" d="M16.994,147.07s2.546-2.459,4.131-1.807,1.505,1.538,1.312,1.689-4.3,2.94-5.439.363Z" transform="translate(-6.62 -56.548)" fill="#232121"/>
        <path id="Trazado_822529" data-name="Trazado 822529" d="M23.144,147.1c.181-.141.262-.928-1.035-1.565a7.55,7.55,0,0,0-3.3,1.9l.005.246a1.734,1.734,0,0,0,.77.868,8.259,8.259,0,0,0,3.561-1.446" transform="translate(-7.327 -56.698)" fill="#332f2f"/>
        <path id="Trazado_822530" data-name="Trazado 822530" d="M10.263,145.606s-1.361-3.269-3.075-3.3-1.992.814-1.875,1.03,2.783,4.405,4.848,2.492Z" transform="translate(-2.061 -55.439)" fill="#232121"/>
        <path id="Trazado_822531" data-name="Trazado 822531" d="M10.876,146.255l.1-.223a9.107,9.107,0,0,0-1.684-2.6,1.441,1.441,0,0,0-.27-.036c-1.713-.03-1.992.813-1.875,1.029a9.7,9.7,0,0,0,1.879,2.2,1.712,1.712,0,0,0,1.848-.378" transform="translate(-2.776 -55.864)" fill="#332f2f"/>
        <path id="Trazado_822532" data-name="Trazado 822532" d="M13.544,142.658c1.181.378,1.566-1.146,4.894-1.3a6.555,6.555,0,0,0,1.716-.256,3.132,3.132,0,0,0-.876-.731c-1.6-.885-4.3,1.326-5.954,1.116-1-.125-1.911-1.588-2.713-2.544a16.975,16.975,0,0,0-1.687-1.209c.026,1.688,3.439,4.546,4.62,4.925" transform="translate(-3.477 -53.657)" fill="#5b5656"/>
        <path id="Trazado_822533" data-name="Trazado 822533" d="M176.994,41.748l.8,1.136,6.4-3.693-.8-1.137Z" transform="translate(-68.953 -14.825)" fill="#aab2b5"/>
        <path id="Trazado_822534" data-name="Trazado 822534" d="M174.979,46.6l.8,1.139,9.052-5.227-.8-1.137Z" transform="translate(-68.167 -16.119)" fill="#aab2b5"/>
        <path id="Trazado_822535" data-name="Trazado 822535" d="M179.623,53.22l.8,1.137,9.054-5.226-.8-1.138Z" transform="translate(-69.977 -18.696)" fill="#aab2b5"/>
        <path id="Trazado_822536" data-name="Trazado 822536" d="M184.282,59.851l.8,1.138,9.056-5.228-.8-1.137Z" transform="translate(-71.792 -21.28)" fill="#aab2b5"/>
        <path id="Trazado_822537" data-name="Trazado 822537" d="M186.318,65.648l.8,1.135,9.053-5.225-.8-1.137Z" transform="translate(-72.585 -23.538)" fill="#aab2b5"/>
        <path id="Trazado_822538" data-name="Trazado 822538" d="M192.786,52.227,179.322,60,163.731,37.8,177.2,30.023Zm-13.127,5.8,11.079-6.4L176.877,31.895l-11.077,6.4Z" transform="translate(-63.785 -11.696)" fill="#141b1f"/>
        <path id="Trazado_822539" data-name="Trazado 822539" d="M181.652,48.379l.8,1.136,6.4-3.693-.8-1.137Z" transform="translate(-70.767 -17.408)" fill="#aab2b5"/>
        <path id="Trazado_822540" data-name="Trazado 822540" d="M168.7,40.547l.8,1.135,10.047-5.8-.8-1.137Z" transform="translate(-65.72 -13.536)" fill="#aab2b5"/>
        <path id="Trazado_822541" data-name="Trazado 822541" d="M192.058,52.827l-11.079,6.4L167.12,39.486l11.077-6.4ZM168.879,41.036l10.046-5.8-.8-1.137-10.042,5.8Zm10.761,15.1,9.053-5.225-.8-1.137L178.839,55Zm4.166-13.949-9.053,5.227.8,1.137,9.055-5.226Zm2.843,4.048L177.6,51.462l.8,1.138,9.057-5.228Zm-5.681-8.086-9.05,5.225.8,1.139,9.053-5.227Zm4.258,6.057-6.4,3.694.8,1.138,6.4-3.7Zm-5.682-8.086-6.4,3.694.8,1.136,6.4-3.693Zm2.843,4.048-6.4,3.694L176.785,45l6.4-3.693Zm-1.33,17.988,5.794-3.346-.8-1.136-5.794,3.345Z" transform="translate(-65.106 -12.891)" fill="#edeeef"/>
        <path id="Trazado_822542" data-name="Trazado 822542" d="M186.3,54.994l.8,1.138,6.4-3.7-.8-1.137Z" transform="translate(-72.577 -19.985)" fill="#aab2b5"/>
        <path id="Trazado_822543" data-name="Trazado 822543" d="M188.643,70.156l.8,1.137,5.794-3.346-.8-1.136Z" transform="translate(-73.49 -26.028)" fill="#aab2b5"/>
        <path id="Trazado_822544" data-name="Trazado 822544" d="M184.958,64.246s.674-2.389-2.543-3.983a10.9,10.9,0,0,1-3.168-2.038c-.28-.236-1.577-.934-1.065.8a4.435,4.435,0,0,0,1.571,2.448S175,57.539,174.4,58.3a21.419,21.419,0,0,0,1.335,3.313s1.621,2.887,2.891,3.071c0,0,3.266.528,4.377,1.413Z" transform="translate(-67.941 -22.551)" fill="#f1b287" fill-rule="evenodd"/>
        <path id="Trazado_822545" data-name="Trazado 822545" d="M184.958,64.378s-.343-3.406-2.543-3.983c0,0-.65.07-2.583-1.565-.28-.237-2.162-1.407-1.649.325a4.435,4.435,0,0,0,1.571,2.448S175,57.671,174.4,58.431a21.419,21.419,0,0,0,1.335,3.313s1.744,3.071,2.891,3.071c0,0,3.266.528,4.377,1.413Z" transform="translate(-67.941 -22.683)" fill="#f1b287" fill-rule="evenodd"/>
        <path id="Trazado_822546" data-name="Trazado 822546" d="M223.413,204.775c-.751.256-2.846,1.7-1.207,3.141s6.792,5.592,9.654,5.272l1.945-.218,1.825,2.1a4.71,4.71,0,0,0,3.891.076c1.383-.666,1.158-2.946,1.158-2.946l-.206-2.183s-13.545-6.443-17.06-5.242" transform="translate(-86.328 -79.717)" fill="#222421"/>
        <path id="Trazado_822547" data-name="Trazado 822547" d="M234.006,210.964s-13.495-3.739-8.139-6.339c0,0,4.316.517,5.255,1.34a11.64,11.64,0,0,0,2.884,5" transform="translate(-87.502 -79.717)" fill="#2b2d29"/>
        <path id="Trazado_822548" data-name="Trazado 822548" d="M224.593,211.687s6.54,4.186,10.423,3.26l2.005,2.033s3.468,1.446,4.814-1.17c0,0-.348,3.924-5.039,2.01l-1.825-2.1a8.987,8.987,0,0,1-3.9-.074,24.467,24.467,0,0,1-6.477-3.96" transform="translate(-87.496 -82.468)" fill="#151614"/>
        <path id="Trazado_822549" data-name="Trazado 822549" d="M242.8,102.4l-1.046,33.332s3.768,4.468,1.779,33.984c-.162,2.368-9.235,4.341-9.411-2.154,0,0-2.856-28.559-3.354-32.771-.862-7.224-2.3-28.109-2.3-28.109Z" transform="translate(-89.004 -39.89)" fill="#192328"/>
        <path id="Trazado_822550" data-name="Trazado 822550" d="M244.973,135.727s3.768,4.467,1.779,33.984c-.1,1.426-3.412,2.691-6.082,2.074-.938-7.935-1.16-18.934-2.729-30.864-1.661-12.632-1.215-30.107-.993-36.12l9.07-2.406Z" transform="translate(-92.221 -39.89)" fill="#212e33"/>
        <path id="Trazado_822551" data-name="Trazado 822551" d="M246.934,135.013S250.7,139.48,248.713,169c-.07,1.018-1.784,1.942-3.728,2.169-.576-7.044-2.29-24.768-3.1-35.772-.8-10.842,2.469-27.74,3.721-33.69l2.411-1.143Z" transform="translate(-94.182 -39.176)" fill="#27353a"/>
        <path id="Trazado_822552" data-name="Trazado 822552" d="M199.882,213.345c-.766.267-2.9,1.768-1.228,3.264s6.922,5.812,9.839,5.48l1.983-.227,1.861,2.18a4.73,4.73,0,0,0,3.97.079c1.409-.692,1.181-3.061,1.181-3.061l-.209-2.271s-13.813-6.695-17.4-5.445" transform="translate(-77.147 -83.053)" fill="#222421"/>
        <path id="Trazado_822553" data-name="Trazado 822553" d="M210.684,219.78s-13.755-3.888-8.3-6.587c0,0,4.405.534,5.36,1.391a12.19,12.19,0,0,0,2.939,5.2" transform="translate(-78.345 -83.055)" fill="#2b2d29"/>
        <path id="Trazado_822554" data-name="Trazado 822554" d="M201.085,220.528s6.665,4.349,10.627,3.387l2.047,2.113s3.531,1.507,4.906-1.212c0,0-.353,4.073-5.137,2.085l-1.861-2.18s-2.609.5-3.979-.076a24.86,24.86,0,0,1-6.6-4.117" transform="translate(-78.338 -85.912)" fill="#151614"/>
        <path id="Trazado_822555" data-name="Trazado 822555" d="M224.891,108.143l-4.647,35.467s3.7,4.47,1.745,33.987c-.158,2.367-9.062,4.341-9.238-2.154,0,0-2.8-28.559-3.287-32.771-.844-7.224.041-31.377.041-31.377Z" transform="translate(-81.46 -42.13)" fill="#192328"/>
        <path id="Trazado_822556" data-name="Trazado 822556" d="M222.19,143.61s3.7,4.47,1.745,33.988c-.095,1.422-3.347,2.689-5.971,2.073-.916-7.936-1.137-18.934-2.676-30.865-1.63-12.63-1.19-30.107-.97-36.118l12.519-4.545Z" transform="translate(-83.406 -42.13)" fill="#212e33"/>
        <path id="Trazado_822557" data-name="Trazado 822557" d="M224.114,143.61s3.7,4.47,1.745,33.988c-.067,1.017-1.749,1.939-3.658,2.167-.564-7.044-2.249-24.767-3.046-35.77-.787-10.841,2.423-27.741,3.652-33.688l5.953-2.163Z" transform="translate(-85.329 -42.13)" fill="#27353a"/>
        <path id="Trazado_822558" data-name="Trazado 822558" d="M241,30.946c-6.445,3.8-4.634,30.119-3.121,37.962.064,1.811,5.091,3.749,5.442,3.322l4.885-16.7a40.163,40.163,0,0,0-.179-11.754c-1-7.992-1.538-11.855-7.027-12.828" transform="translate(-92.11 -12.056)" fill="#beeffc" fill-rule="evenodd"/>
        <path id="Trazado_822559" data-name="Trazado 822559" d="M241.672,43.066c-6.444,3.8-4.119,24-2.6,31.844.041,1.212,2.316,2.483,4.073,2.608,1.433-7.609,3.275-12.885,4.023-16.608a87.02,87.02,0,0,0-.089-9.153c-.35-7.024-2.71-7.851-5.4-8.691" transform="translate(-92.479 -16.777)" fill="#a5e4f2" fill-rule="evenodd"/>
        <path id="Trazado_822560" data-name="Trazado 822560" d="M212.691,58.156s-.575-6.345-1.376-11.2a15.963,15.963,0,0,1-.047-7.471,54.536,54.536,0,0,1,8.172-5.354l5.079-.99,4.645-2.647c8.659-3.244,7.268,11.546,6.231,15.984-.877,3.761-1.94,9.573-2.417,12.257a29.317,29.317,0,0,0,1.345,9.864c2.591,7.638,1.111,19.924.261,20.772-3.791,3.788-11.1,6.963-19.952,6.378-1.959-.13-4.415-1.077-5.318-2.686,0,0-.75-30.781,3.376-34.905" transform="translate(-81.523 -11.7)" fill="#beeffc"/>
        <path id="Trazado_822561" data-name="Trazado 822561" d="M212.665,58.16s-.575-6.345-1.376-11.2a13.658,13.658,0,0,1-.047-7.471,19.59,19.59,0,0,1,2.721-2.063c2.6-1.759,5.451-3.291,5.451-3.291l5.079-.99,4.645-2.647a5.465,5.465,0,0,1,3.125-.358c1.038,1.4,1.435,5.526-5.552,8.033-4.264,1.53-8.317,1.771-8.059,2.968a46.337,46.337,0,0,1-.608,21.79c-2.3,8.989-4.991,28.76-8.756,30.134-.566-23.2,1.531-33.061,3.376-34.905" transform="translate(-81.497 -11.704)" fill="#a5e4f2"/>
        <path id="Trazado_822562" data-name="Trazado 822562" d="M224.146,27.862s1.36,3.633-.711,5.267c-.96.754,6.476,1.126,10.15-1.651a4.859,4.859,0,0,1-.16-6.325Z" transform="translate(-87.012 -9.799)" fill="#e8a476"/>
        <path id="Trazado_822563" data-name="Trazado 822563" d="M224.689,27.608s3.064,3.1,7.873-1.256l-.323-1.549-.052-.859-1.867-8.4s-1.7,5.841-2.884,7.426a15.881,15.881,0,0,1-2.677,2.055,4.4,4.4,0,0,1-.07,2.58" transform="translate(-87.533 -6.057)" fill="#e8a476"/>
        <path id="Trazado_822564" data-name="Trazado 822564" d="M223.49,35.193s2.272-2.026,8.791-4.743l-8.224.112a6.23,6.23,0,0,1-.567,4.631" transform="translate(-87.066 -11.863)" fill="#db9669"/>
        <path id="Trazado_822565" data-name="Trazado 822565" d="M220.413,4.45s-2.24,2.658-2.107,4.42a24.487,24.487,0,0,1,.109,2.863c-.07.642-.456.948-.52,1.494s.395,6.162,2.367,6.4,4.47,2.759,10.849-2.379c0,0,4.921-5.336,1.8-11.51,0,0-4.1-6.345-12.494-1.288" transform="translate(-84.884 -0.972)" fill="#f1b287"/>
        <path id="Trazado_822566" data-name="Trazado 822566" d="M219,11.165a6.989,6.989,0,0,1,.972,2.965c-.067,1.2-.8,3.1-.208,3.768s1.594,1.112,2.029,2.331a6.933,6.933,0,0,1,.619,3.22s3.708,1.372,4.706-.491l-.4-6.956-1.907-4.826-5.775-.095Z" transform="translate(-85.318 -4.317)" fill="#e8a476"/>
        <path id="Trazado_822567" data-name="Trazado 822567" d="M235.252,10.3c.712,2.9-1.716,8.572-3.479,10.12-.731.641-2.756,1.538-4.006.778-2.4-1.45-.1-5.454-3.278-6.7-1.341-.523-2.319.831-2.365,1.682a5.967,5.967,0,0,1-.408-3.418c.239-.864.919-2.28-.344-3.678-.7-.774,11.615-8,13.88,1.211" transform="translate(-86.23 -2.209)" fill="#3f210a"/>
        <path id="Trazado_822568" data-name="Trazado 822568" d="M216.661.969s-1.563,5.983,5.891,6.894c0,0,11.58-.017,10.64,3.2,0,0,3.34-11.1-8.139-11.015-1.881.012-5.515,1.843-8.392.916" transform="translate(-84.352 -0.021)" fill="#361d07"/>
        <path id="Trazado_822569" data-name="Trazado 822569" d="M235.372,2.707s-2.528-4.2-10.452-2.141c0,0,2.547.094,3.541.157s-.833.544-1.777.705,2.74.015,3.982.1,3.4.645,1.854.783,2.605.117,2.851.4" transform="translate(-87.623 0)" fill="#4c260c"/>
        <path id="Trazado_822570" data-name="Trazado 822570" d="M221.973,12.323a3.148,3.148,0,0,1,.135,2.246,6.4,6.4,0,0,0-.352,2.033s1.567-2.073,1.322-3.07l.426,1.959a10.611,10.611,0,0,1,.679-1.832,6.757,6.757,0,0,1,.143,2.407,25.592,25.592,0,0,1,1.5-2.407,4.257,4.257,0,0,0-.034,2.513,14.734,14.734,0,0,1,1.572-2.476,6.82,6.82,0,0,0,.22,3.627,19.052,19.052,0,0,1,1.591-3.031,9.489,9.489,0,0,0,.234,3.867s.6-1.775,1.226-3.2a8.477,8.477,0,0,1-.175,4.236s2.159-2.036,2.035-4.067c0,0,1.355,2.378.734,4.162,0,0,1.235-2.567,1.087-3.866a17.6,17.6,0,0,1-.284,4.387s1.419-2.791,1.319-4.441c0,0-.065-3.208-7.807-2.941Z" transform="translate(-86.386 -4.801)" fill="#4c260c"/>
        <path id="Trazado_822571" data-name="Trazado 822571" d="M233.193,11.439s.276-1.386-2.881-2.185a42.073,42.073,0,0,0-6.906-.791s-8.423.959-6.792-6.908c0,0,.048,2.637.925,3.43,0,0,.292-.2.245-.983,0,0,1.366,2.8,2.777,3.225a1.387,1.387,0,0,1-.6-.936s3.351,1.536,5.676,1.4a5.777,5.777,0,0,0-.542-.565s8.973.627,8.1,4.31" transform="translate(-84.306 -0.606)" fill="#301808"/>
        <path id="Trazado_822572" data-name="Trazado 822572" d="M222.738,33.488s-1.7,1.761-2.917,3.213c0,0,12.389,2.149,13.628-4.31l-2.474-1.354s-.641,2.868-8.236,2.451" transform="translate(-85.637 -12.091)" fill="#27b5d6"/>
        <path id="Trazado_822573" data-name="Trazado 822573" d="M239.8,48.786c-.878,3.761-1.941,9.573-2.417,12.257a29.3,29.3,0,0,0,1.345,9.863c2.591,7.639,1.11,19.924.261,20.772-3.567,3.57-10.266,6.588-18.425,6.441.481-2.941,1.652-7.092,3.142-12.765,1.978-7.5,2.741-24.532,2.741-31.782s-1.709-9.318.671-9.318c7.39,0,11.289-6.268,12.753-8.3,1.245,4.646.5,10.366-.071,12.829" transform="translate(-85.926 -14.008)" fill="#d7f7ff"/>
        <path id="Trazado_822574" data-name="Trazado 822574" d="M210.6,44.728c-3.019,1.613-3.869,15.247-4.4,23.243-.029.093,1.829,7.55,6.716,4.124,1.49-3.928,1.9-10.9,2.222-14.692.305-3.609.9-10.433-2.3-12.428a2.639,2.639,0,0,0-2.234-.246" transform="translate(-80.328 -17.364)" fill="#d0f4fc" fill-rule="evenodd"/>
        <path id="Trazado_822575" data-name="Trazado 822575" d="M204.18,73.188l-12.778-8.4c-2.911-1.171-4.938,3.81-3.74,5.462L200.7,80.23c1.873.874,3.409.9,4.293.273,1.051-.748,1.258-2.373,1.07-3.857a5.432,5.432,0,0,0-1.88-3.457" transform="translate(-72.972 -25.17)" fill="#d0f4fc" fill-rule="evenodd"/>
        <path id="Trazado_822576" data-name="Trazado 822576" d="M213.742,44.18s-4.856,5.346-4.318,19.249l-2.549-1.679s.763-15.6,3.988-17.411l2.469-.77Z" transform="translate(-80.593 -16.973)" fill="#a5e4f2"/>
        <path id="Trazado_822577" data-name="Trazado 822577" d="M200.7,81.591h0l-13.035-9.983c-.557-.767-.411-2.252.19-3.505,4.756,5.089,10.6,12.178,12.845,13.488" transform="translate(-72.973 -26.531)" fill="#a5e4f2"/>
        <path id="Trazado_822578" data-name="Trazado 822578" d="M178.291,57.929s-.247,1.9,2.155,3.7l2.337,1.913-.673,2.084s-2.185-.665-3.486-.926c0,0-1.108.2-3.121-3.559L174.4,58.316s.109-.888,3.409,1.665l1.945,1.507s-3.13-2.607-1.462-3.559" transform="translate(-67.941 -22.568)" fill="#e8a476" fill-rule="evenodd"/>
      </g>
    </g>
  </g>
</svg>
