<svg xmlns="http://www.w3.org/2000/svg" xmlns:xlink="http://www.w3.org/1999/xlink" width="190" height="126" viewBox="0 0 190 126">
  <defs>
    <clipPath id="clip-path">
      <rect id="Rect치ngulo_379020" data-name="Rect치ngulo 379020" width="100.452" height="105.428" fill="none"/>
    </clipPath>
  </defs>
  <g id="Grupo_1076851" data-name="Grupo 1076851" transform="translate(-180 -599)">
    <rect id="Rect치ngulo_379021" data-name="Rect치ngulo 379021" width="190" height="126" transform="translate(180 599)" fill="#fff"/>
    <g id="Grupo_1076850" data-name="Grupo 1076850" transform="translate(234.774 610.863)">
      <g id="Grupo_1076849" data-name="Grupo 1076849" transform="translate(0 0)" clip-path="url(#clip-path)">
        <path id="Trazado_822749" data-name="Trazado 822749" d="M51.976,44.766a4.792,4.792,0,1,1-4.791,4.791,4.744,4.744,0,0,1,4.791-4.791" transform="translate(42.525 40.345)" fill="#ffdc67"/>
        <path id="Trazado_822750" data-name="Trazado 822750" d="M50.706,3.832a5.941,5.941,0,1,1-5.941,5.941,5.851,5.851,0,0,1,5.941-5.941" transform="translate(40.344 3.453)" fill="#ffdc67"/>
        <path id="Trazado_822751" data-name="Trazado 822751" d="M10.854,17.039A8.434,8.434,0,1,1,2.42,25.473a8.434,8.434,0,0,1,8.434-8.434" transform="translate(2.181 15.356)" fill="#ffdc67"/>
        <path id="Trazado_822752" data-name="Trazado 822752" d="M68.4,51.924A7.676,7.676,0,0,1,61.31,62.661H14.537a7.732,7.732,0,0,1-6.9-11.118L14.73,37.549s12.267-7.86,23.193,0,21.661-2.875,21.661-2.875v8.242A8.96,8.96,0,0,0,68.4,51.924" transform="translate(6.165 30.692)" fill="#88c116"/>
        <path id="Trazado_822753" data-name="Trazado 822753" d="M40.164,16H19.843a4.217,4.217,0,0,1,0-8.434h20.32a4.217,4.217,0,0,1,0,8.434" transform="translate(14.085 6.815)" fill="#8cf2ff"/>
        <path id="Trazado_822754" data-name="Trazado 822754" d="M55.447,25.987H36.277a4.254,4.254,0,0,1-4.215-4.217A3.614,3.614,0,0,1,33.21,18.9a3.9,3.9,0,0,1,2.877-1.15H55.255a4.254,4.254,0,0,1,4.217,4.217,3.927,3.927,0,0,1-4.025,4.025" transform="translate(28.896 15.992)" fill="#bcb7c6"/>
        <path id="Trazado_822755" data-name="Trazado 822755" d="M34.582,53.8V21.98H52.6V53.8a9.009,9.009,0,0,1-18.018,0" transform="translate(31.167 19.809)" fill="#ecebed"/>
        <path id="Trazado_822756" data-name="Trazado 822756" d="M43.767,31.166,55.844,54.744S45.11,65.478,34.183,57.618s-23.193,0-23.193,0L24.407,31.166V12H43.575V31.166Z" transform="translate(9.905 10.813)" fill="#bdf9ff"/>
        <path id="Trazado_822757" data-name="Trazado 822757" d="M52.741,25.206a1.724,1.724,0,1,1-1.726,1.724,1.724,1.724,0,0,1,1.726-1.724" transform="translate(45.977 22.716)"/>
        <path id="Trazado_822758" data-name="Trazado 822758" d="M50.221,36.6a1.724,1.724,0,1,1-1.726,1.724A1.724,1.724,0,0,1,50.221,36.6" transform="translate(43.706 32.984)"/>
        <path id="Trazado_822759" data-name="Trazado 822759" d="M41.449,12a1.724,1.724,0,1,1-1.726,1.724A1.724,1.724,0,0,1,41.449,12" transform="translate(35.8 10.813)"/>
        <path id="Trazado_822760" data-name="Trazado 822760" d="M37.589,6.353a4.217,4.217,0,1,1-4.217,4.217,4.133,4.133,0,0,1,4.217-4.217" transform="translate(30.076 5.725)"/>
        <path id="Trazado_822761" data-name="Trazado 822761" d="M32.033,41.64a2.492,2.492,0,1,1-2.493,2.493,2.416,2.416,0,0,1,2.493-2.493" transform="translate(26.623 37.527)"/>
        <path id="Trazado_822762" data-name="Trazado 822762" d="M23.8,42.245a1.725,1.725,0,1,1-1.724,1.724A1.724,1.724,0,0,1,23.8,42.245" transform="translate(19.899 38.073)"/>
        <path id="Trazado_822763" data-name="Trazado 822763" d="M19.974,0a1.726,1.726,0,1,1-1.726,1.724A1.724,1.724,0,0,1,19.974,0" transform="translate(16.446 0)"/>
        <path id="Trazado_822764" data-name="Trazado 822764" d="M18.695,37.809a3.068,3.068,0,1,1-3.067,3.067,3.152,3.152,0,0,1,3.067-3.067" transform="translate(14.085 34.075)"/>
        <path id="Trazado_822765" data-name="Trazado 822765" d="M14.328,53.638A1.724,1.724,0,1,1,12.6,55.362a1.724,1.724,0,0,1,1.726-1.724" transform="translate(11.357 48.341)"/>
        <path id="Trazado_822766" data-name="Trazado 822766" d="M6.162,5.041A1.726,1.726,0,1,1,4.436,6.767,1.725,1.725,0,0,1,6.162,5.041" transform="translate(3.998 4.543)"/>
        <path id="Trazado_822767" data-name="Trazado 822767" d="M1.724,32.768A1.724,1.724,0,1,1,0,34.492a1.725,1.725,0,0,1,1.724-1.724" transform="translate(0 29.532)"/>
        <path id="Trazado_822768" data-name="Trazado 822768" d="M40.709,17.692h-.576a1.239,1.239,0,0,1-1.15-1.15,1.237,1.237,0,0,1,1.15-1.15h.576a3.3,3.3,0,0,0,3.067-3.067,3.028,3.028,0,0,0-3.067-3.067H20.388a3.294,3.294,0,0,0-3.065,3.067,3.027,3.027,0,0,0,3.065,3.067h.576a1.237,1.237,0,0,1,1.15,1.15,1.239,1.239,0,0,1-1.15,1.15h-.576a5.368,5.368,0,1,1,0-10.734h20.32a5.368,5.368,0,1,1,0,10.734" transform="translate(13.539 6.27)"/>
        <path id="Trazado_822769" data-name="Trazado 822769" d="M55.993,27.774h-.576a1.15,1.15,0,1,1,0-2.3h.576a3.3,3.3,0,0,0,3.067-3.067,3.028,3.028,0,0,0-3.067-3.067H36.822a3.3,3.3,0,0,0-3.067,3.067,3.028,3.028,0,0,0,3.067,3.067H37.4a1.15,1.15,0,1,1,0,2.3h-.576a5.368,5.368,0,1,1,0-10.734h19.17a5.368,5.368,0,1,1,0,10.734" transform="translate(28.35 15.357)"/>
        <path id="Trazado_822770" data-name="Trazado 822770" d="M61.9,84.336H15.129a9.071,9.071,0,0,1-7.666-4.219,9.182,9.182,0,0,1-.384-8.624L27.59,31.43V12.644a1.237,1.237,0,0,1,1.15-1.15H47.909a1.239,1.239,0,0,1,1.15,1.15V31.43L60.944,54.816a1.058,1.058,0,0,1-.576,1.532,1.206,1.206,0,0,1-1.532-.572L46.758,32.2c0-.19-.192-.384-.192-.576V13.6H29.7V31.621a.7.7,0,0,1-.192.576L8.8,72.452A6.712,6.712,0,0,0,9,78.777a6.434,6.434,0,0,0,5.559,3.067H61.9a6.373,6.373,0,0,0,5.367-2.875,6.989,6.989,0,0,0,.576-6.135c0-.19-.192-.382-.192-.576A1.236,1.236,0,0,1,68.8,71.109a1.293,1.293,0,0,1,1.15.766,8.839,8.839,0,0,1-.766,8.436A8.447,8.447,0,0,1,61.9,84.336" transform="translate(5.571 10.359)"/>
        <path id="Trazado_822771" data-name="Trazado 822771" d="M44.137,64.606h-.192a10.317,10.317,0,0,1-9.968-10.16V22.626a1.239,1.239,0,0,1,1.15-1.15H53.145a1.237,1.237,0,0,1,1.15,1.15V54.445a10.227,10.227,0,0,1-10.158,10.16M36.47,23.777V54.253a7.986,7.986,0,0,0,7.668,7.86h.192a7.894,7.894,0,0,0,7.86-7.86V23.777Z" transform="translate(30.622 19.355)"/>
        <path id="Trazado_822772" data-name="Trazado 822772" d="M43.459,42.294a15.178,15.178,0,0,1-9.2-3.067c-10.16-7.284-21.661,0-21.853,0a1.25,1.25,0,0,1-1.34-2.11,28.3,28.3,0,0,1,7.858-3.067c6.133-1.34,11.885-.382,16.678,3.067,9.966,7.284,19.935-2.491,19.935-2.683a1.219,1.219,0,0,1,1.724,1.724,22.84,22.84,0,0,1-7.092,4.6,17.85,17.85,0,0,1-6.709,1.534" transform="translate(9.447 30.163)"/>
        <path id="Trazado_822773" data-name="Trazado 822773" d="M51.343,17.593a7.284,7.284,0,1,1,7.284-7.284,7.405,7.405,0,0,1-7.284,7.284m0-11.885A4.792,4.792,0,1,0,56.136,10.5a4.869,4.869,0,0,0-4.793-4.791" transform="translate(39.708 2.727)"/>
        <path id="Trazado_822774" data-name="Trazado 822774" d="M11.4,35.6a9.584,9.584,0,0,1,0-19.168,9.584,9.584,0,0,1,0,19.168m0-16.868a7.284,7.284,0,1,0,7.284,7.284A7.281,7.281,0,0,0,11.4,18.736" transform="translate(1.636 14.812)"/>
        <path id="Trazado_822775" data-name="Trazado 822775" d="M52.521,56.045A5.942,5.942,0,1,1,58.465,50.1a5.851,5.851,0,0,1-5.943,5.941m0-9.584A3.64,3.64,0,0,0,48.881,50.1a3.642,3.642,0,1,0,3.641-3.643" transform="translate(41.98 39.799)"/>
      </g>
    </g>
  </g>
</svg>
