<svg xmlns="http://www.w3.org/2000/svg" xmlns:xlink="http://www.w3.org/1999/xlink" width="201" height="189" viewBox="0 0 201 189">
  <defs>
    <clipPath id="clip-path">
      <rect id="Rect치ngulo_379407" data-name="Rect치ngulo 379407" width="132.856" height="120.8" fill="none"/>
    </clipPath>
  </defs>
  <g id="Grupo_1077191" data-name="Grupo 1077191" transform="translate(-707 -3313)">
    <g id="Grupo_1077120" data-name="Grupo 1077120" transform="translate(0 91)">
      <rect id="Rect치ngulo_379372" data-name="Rect치ngulo 379372" width="16" height="5" transform="translate(892 3314)" fill="#dbf9bd"/>
      <g id="Grupo_161158" data-name="Grupo 161158" transform="translate(707 3222)">
        <circle id="Elipse_1142" data-name="Elipse 1142" cx="94.5" cy="94.5" r="94.5" fill="#dbf9bd"/>
      </g>
    </g>
    <g id="Grupo_1077134" data-name="Grupo 1077134" transform="translate(733.572 3347.1)">
      <g id="Grupo_1077075" data-name="Grupo 1077075" clip-path="url(#clip-path)">
        <path id="Trazado_823333" data-name="Trazado 823333" d="M130.46,58.9A57.9,57.9,0,1,1,72.56,1a57.9,57.9,0,0,1,57.9,57.9" transform="translate(-7.009 -0.478)" fill="#65add7"/>
        <path id="Trazado_823334" data-name="Trazado 823334" d="M72.082,116.844A58.422,58.422,0,1,1,130.5,58.422a58.488,58.488,0,0,1-58.422,58.422m0-115.8A57.378,57.378,0,1,0,129.46,58.422,57.443,57.443,0,0,0,72.082,1.044" transform="translate(-6.531)" fill="#020202"/>
        <path id="Trazado_823335" data-name="Trazado 823335" d="M132.812,191.826c0,7.533-29.507,13.639-65.906,13.639S1,199.359,1,191.826s29.507-13.639,65.906-13.639,65.906,6.106,65.906,13.639" transform="translate(-0.478 -85.187)" fill="#039314"/>
        <path id="Trazado_823336" data-name="Trazado 823336" d="M66.428,205.509C29.179,205.509,0,199.289,0,191.348s29.179-14.161,66.428-14.161,66.428,6.22,66.428,14.161-29.179,14.161-66.428,14.161m0-27.278c-39.111,0-65.384,6.782-65.384,13.117s26.273,13.117,65.384,13.117,65.384-6.782,65.384-13.117-26.273-13.117-65.384-13.117" transform="translate(0 -84.709)" fill="#020202"/>
        <path id="Trazado_823337" data-name="Trazado 823337" d="M14.716,78.6l-1.421-2.951-1.288-1.244H9.03L4.851,70.953,3.478,69.478,4.4,68.345,6.73,66.958,9.1,66.679l2.03.934L12.971,69.9l.679.29.6-3.091.467-1.121,1.532-1.19L19.6,63.669l4.089.515L28.753,67.1l.816.882,3.315-1.3,2.532.045,1.732.933,1.264,1.377,4.821-.444,10.128.577,15.946,1.111,9.683-.755,16.435-2.394,2.665-.582,1.51.267,4.289-.844,4.639,1.688,2.976,2,2.176,4.62.472,4.981-.161,8.389.222,2.932,2.31,7.418.222,5.73-.888-.133-1.421-1.244-.071-2.1-.107-2.744-.755-2.665-1.066-2.532-.43-6.574-.991,2.665-1.644,6.841-.825,5.009.247,5.829,1.777,3.509-.311,2.443-1.555,3.731L107.094,125.8l.235,3.109-.235,1.422-2.385,4.131-2.135.944-2.3-.215-.717-.419.382-1.471,1.528-1.506,1.6-1.91.622-2.31.221-3.617-.088-4.245-.969-5.6-2.578,7.951-.983,4,.266,2.532-.458.977-1.363.178-.771,2.737-1.094,1.2H92.637a13.2,13.2,0,0,1-1.5-.893c.115-.021,2.558-3.086,2.558-3.086l2.319-5.528.952-4.6-.783-8.928L94.8,107.1l-.666.978-1.021-.711-.844,1.288-.888-3.02-.489-.267-.844,2.665-.977-.311-.205-3.4-2.62-3.93-8.191,3.731L69.929,105.9l-13.236.311-4.975.4-1.155,6.219-1.2,3.065-2.088,3.554-.195,11.542,1.527,3.472-.336.772-1.632.981-.24,2.022-4.89.908-2.541-.242,2.084-3.658,1.777-3.582.077-8.226-1.4-3.251-.053-10.777-1.6.311H34.572l-3.154-1.955-1.377-2.532-2.31-2.754-1.066-2.132L26.4,97.284l-1.865-4.013-1.822.267-3.431-.267-2.521-.962-.844-1.332.466-2.728-.133-2.031-.955-2.57Z" transform="translate(-1.663 -30.439)" fill="#fff"/>
        <path id="Trazado_823338" data-name="Trazado 823338" d="M162.066,131.665l2.447,3.22.267,1.532.222,2.71.688.533,1.2-3.269.928,3.478,1.11-2.052.6,1.71h.778l.666-2.266.622-.666,1.71-.6,1.608-1.155-2.341-3.309-3.153-1.866s-2.554-.377-3.087,0-4.268,2-4.268,2" transform="translate(-77.48 -61.91)" fill="#ff88b7"/>
        <path id="Trazado_823339" data-name="Trazado 823339" d="M28.079,113.345l-.133-2.744.853-.915.813-.886,5.058.244,2.363,1.393.72,1.05-.479,2.6-1.189,1.03-3.9-.1-3.389-.979Z" transform="translate(-13.36 -52.014)" fill="#ff88b7"/>
        <path id="Trazado_823340" data-name="Trazado 823340" d="M52.74,73.768a1.086,1.086,0,0,1-.028-.136c.006.046.012.093.018.139a1.136,1.136,0,0,1,0-.279l-.019.138a1.562,1.562,0,0,1,.1-.359l-.053.125a2.478,2.478,0,0,1,.28-.483c.012-.016.025-.031.036-.048-.087.125-.028.037-.007.01l.09-.107c.074-.085.151-.166.231-.245a.522.522,0,0,0-.738-.738,2.467,2.467,0,0,0-.923,2.261.522.522,0,0,0,1.007-.278" transform="translate(-24.707 -34.247)"/>
        <path id="Trazado_823341" data-name="Trazado 823341" d="M35.839,66.126h-.005l.264.071a5.236,5.236,0,0,0-3.776-.436,7.126,7.126,0,0,0-2.791,1.744h.738c-2.238-2-4.746-4.032-7.768-4.638a9.586,9.586,0,0,0-4.429.17,7.927,7.927,0,0,0-3.534,1.781,3.621,3.621,0,0,0-.948,2.1,8.594,8.594,0,0,1-.492,2.59l.589-.24c-.229-.051-.371-.1-.47-.293a6.959,6.959,0,0,0-.33-.672,6.936,6.936,0,0,0-1.447-1.511,4.869,4.869,0,0,0-4.265-1.008,7.48,7.48,0,0,0-2.265.989,3.616,3.616,0,0,0-1.453,1.417c-.53,1.177.473,2.214,1.255,2.974.587.569,1.173,1.145,1.8,1.673a11.931,11.931,0,0,0,.972.748,2.412,2.412,0,0,0,1.081.544L8.3,74.055a4.811,4.811,0,0,0,1.634.439c.466.043.935.013,1.4.06.94.1,1.338.8,1.684,1.595a15.187,15.187,0,0,1,1,2.863c.271,1.273.342,2.576.689,3.836.185.669.414,1.326.631,1.985a7.446,7.446,0,0,1,.5,1.958c.053,1.375-.607,2.729-.269,4.1.476,1.931,3.053,2.428,4.73,2.6a16.589,16.589,0,0,0,2.9.063,3.242,3.242,0,0,0,2.7-1.205,6.27,6.27,0,0,0,.532-2.782,9.673,9.673,0,0,1,1.549-3.248,13.235,13.235,0,0,0,1.445-3.794,10.834,10.834,0,0,0,.263-4.16,14.353,14.353,0,0,1-.569-3.641,2.054,2.054,0,0,1,.1-.466c.007-.016.108-.185.063-.126a.335.335,0,0,1,.12-.116,1.675,1.675,0,0,1,.83-.165,19.585,19.585,0,0,0,3.008-.27,14.766,14.766,0,0,0,1.943-.507,10.807,10.807,0,0,0,1.554-.648A3.76,3.76,0,0,0,38.777,70.3a3.2,3.2,0,0,0-1.123-2.96A6.286,6.286,0,0,0,36.1,66.2c-.595-.311-1.123.59-.527.9.9.47,2.088,1.365,2.227,2.463.108.848-.7,1.455-1.344,1.829a10.584,10.584,0,0,1-3.232,1.134,16.373,16.373,0,0,1-2.924.284,2.127,2.127,0,0,0-1.932.827,4.62,4.62,0,0,0-.087,3.185c.132.61.3,1.212.4,1.827a6.842,6.842,0,0,1,.021,1.923,14.422,14.422,0,0,1-.947,3.91c-.482,1.152-1.24,2.162-1.787,3.281a5.437,5.437,0,0,0-.553,1.592c-.068.474-.069.953-.111,1.43a2.063,2.063,0,0,1-.345,1.1,1.724,1.724,0,0,1-1.135.562,12.284,12.284,0,0,1-2.934.058,10.541,10.541,0,0,1-2.4-.415c-.691-.212-1.616-.565-1.875-1.312a3.842,3.842,0,0,1,.017-1.866,11.206,11.206,0,0,0,.247-2,6.877,6.877,0,0,0-.432-2.011c-.206-.644-.432-1.282-.627-1.93a32.442,32.442,0,0,1-.721-3.8,14.493,14.493,0,0,0-.93-2.936,4.523,4.523,0,0,0-1.558-2.344,5.628,5.628,0,0,0-2.642-.435,3.517,3.517,0,0,1-.688-.128,3.008,3.008,0,0,0-.73-.244l.264.072a12.336,12.336,0,0,1-2.994-2.37,10.036,10.036,0,0,1-1.172-1.22.987.987,0,0,1-.269-.912,2.758,2.758,0,0,1,1.205-1.076,6.4,6.4,0,0,1,1.975-.813,3.871,3.871,0,0,1,3.479,1.062,4.467,4.467,0,0,1,1.147,1.4,1.627,1.627,0,0,0,1.216,1.044.531.531,0,0,0,.589-.24,6.361,6.361,0,0,0,.527-2.2,4.4,4.4,0,0,1,.5-1.977,3.332,3.332,0,0,1,1.248-1.009,9.259,9.259,0,0,1,1.689-.692,8.63,8.63,0,0,1,3.921-.345A10.721,10.721,0,0,1,25.715,65.3a26.058,26.058,0,0,1,3.815,2.947.533.533,0,0,0,.738,0,5.957,5.957,0,0,1,2.363-1.484,3.771,3.771,0,0,1,1.592-.091,4.685,4.685,0,0,1,.833.211,2.736,2.736,0,0,0,.782.29.522.522,0,0,0,0-1.044" transform="translate(-1.582 -29.968)"/>
        <path id="Trazado_823342" data-name="Trazado 823342" d="M8.558,70.28a7,7,0,0,1,3.569,1.711A10.893,10.893,0,0,1,14.7,75.11v-.527a3.218,3.218,0,0,1-1.644,1.2,6.77,6.77,0,0,1-2.238.432.522.522,0,0,0,0,1.044,7.567,7.567,0,0,0,2.7-.539A4.277,4.277,0,0,0,15.6,75.11a.523.523,0,0,0,0-.527c-1.408-2.587-4.021-5-7.042-5.347a.525.525,0,0,0-.522.522.534.534,0,0,0,.522.522" transform="translate(-3.842 -33.099)"/>
        <path id="Trazado_823343" data-name="Trazado 823343" d="M58.653,75.05a25.212,25.212,0,0,1-3.382-.03,3.667,3.667,0,0,1-2.515-1.178l-.082.633a16.176,16.176,0,0,1,2.849-2.654A10.308,10.308,0,0,1,57.3,70.779a4.445,4.445,0,0,1,1.712-.457.522.522,0,0,0,0-1.044A7.371,7.371,0,0,0,55.08,70.86a17.091,17.091,0,0,0-3.143,2.877.532.532,0,0,0-.081.633,4.481,4.481,0,0,0,3,1.637,23.765,23.765,0,0,0,3.8.088.522.522,0,0,0,0-1.044" transform="translate(-24.756 -33.12)"/>
        <path id="Trazado_823344" data-name="Trazado 823344" d="M27.225,80.261a50.08,50.08,0,0,1,.885,5.33c.143,1.63-.088,3.353.609,4.882a.526.526,0,0,0,.714.187.535.535,0,0,0,.187-.714,5.664,5.664,0,0,1-.378-2.217c-.021-.84-.038-1.674-.124-2.511-.182-1.763-.543-3.5-.886-5.234-.13-.658-1.137-.379-1.007.278" transform="translate(-13.01 -38.059)"/>
        <path id="Trazado_823345" data-name="Trazado 823345" d="M41.834,91.944c-.379,2.336-.462,4.7-.8,7.045a.54.54,0,0,0,.364.642.526.526,0,0,0,.642-.365c.338-2.34.421-4.71.8-7.045a.538.538,0,0,0-.365-.642.526.526,0,0,0-.642.364" transform="translate(-19.613 -43.775)"/>
        <path id="Trazado_823346" data-name="Trazado 823346" d="M27.755,110.507a2.881,2.881,0,0,0,1.031-1.119c.173-.342.271-.583.582-.67a6.3,6.3,0,0,1,2.4.043c.82.106,1.666.167,2.477.325a2.918,2.918,0,0,1,1.4.614,10.1,10.1,0,0,1,1.284,1.32.525.525,0,0,0,.738,0,.534.534,0,0,0,0-.739,6.271,6.271,0,0,0-2.22-1.92,9.233,9.233,0,0,0-2.556-.49c-.588-.074-1.348-.2-2.007-.249a4.547,4.547,0,0,0-2.02.169,1.659,1.659,0,0,0-.847.806c-.1.186-.18.386-.3.564a1.664,1.664,0,0,1-.494.444c-.549.38-.028,1.285.527.9" transform="translate(-12.906 -51.435)"/>
        <path id="Trazado_823347" data-name="Trazado 823347" d="M40.045,112.452a6.751,6.751,0,0,0-1.572,2.387.522.522,0,1,0,1.006.277,3.007,3.007,0,0,1,.1-.3c.023-.062-.056.12-.007.018l.028-.061c.022-.045.045-.09.07-.134a4.856,4.856,0,0,1,.36-.542c.042-.056-.062.078-.018.023l.054-.068.1-.122q.1-.127.212-.252c.138-.162.276-.324.409-.49a.565.565,0,0,0,.153-.369.522.522,0,0,0-.891-.369" transform="translate(-18.385 -53.689)"/>
        <path id="Trazado_823348" data-name="Trazado 823348" d="M31.122,112.739c.355.646.6,1.351.989,1.977a.522.522,0,0,0,.9-.527c-.393-.626-.634-1.331-.989-1.977a.527.527,0,0,0-.714-.187.533.533,0,0,0-.187.714" transform="translate(-14.846 -53.522)"/>
        <path id="Trazado_823349" data-name="Trazado 823349" d="M82.871,108.93c2.048-.147,4.09-.3,6.144-.355,2-.052,3.992-.057,5.987-.106a45.5,45.5,0,0,0,11.9-1.551,88.079,88.079,0,0,0,11.5-4.807c.932-.428,1.863-.868,2.811-1.26a6.434,6.434,0,0,1,2.2-.543,5.42,5.42,0,0,1,3.735,1.657,19.721,19.721,0,0,1,5.606,9.729,58.47,58.47,0,0,1,1.709,11.974,21.948,21.948,0,0,1-.2,5.04,11.983,11.983,0,0,1-.668,2.437,5.613,5.613,0,0,1-1.3,1.937,21.962,21.962,0,0,0-1.708,1.75,2.1,2.1,0,0,0-.6,1.426c.056.657.642,1.009,1.216,1.185a6.382,6.382,0,0,0,2.541.212,4.106,4.106,0,0,0,3.084-2.183c.483-.8.883-1.646,1.34-2.459a5.548,5.548,0,0,0,.724-1.625,7.4,7.4,0,0,0-.073-2.161,11.464,11.464,0,0,1,.067-2.938c.312-2.035.665-4.07,1.037-6.1.181-.986.375-1.97.6-2.948a13.881,13.881,0,0,1,.85-2.546,7.547,7.547,0,0,0,.751-2.5,4.891,4.891,0,0,0-.59-2.444,11.414,11.414,0,0,1-.994-2.264,15.728,15.728,0,0,1-.355-2.824,27.77,27.77,0,0,1,.372-5.828,45.7,45.7,0,0,1,1.291-5.548,39.049,39.049,0,0,0,1.271-5.9,41.81,41.81,0,0,0,.359-6.184,28.223,28.223,0,0,0-.529-5.662c-.688-3.1-2.4-6.293-5.444-7.615a6.343,6.343,0,0,0-2.853-.557,21.562,21.562,0,0,0-2.777.458,18.53,18.53,0,0,1-3.056.2,17.086,17.086,0,0,0-3.1.358,137.409,137.409,0,0,1-25.383,3.021A119.5,119.5,0,0,1,87.544,70.7c-2.126-.2-4.253-.4-6.388-.5-2.062-.1-4.121-.265-6.185-.337a30.621,30.621,0,0,0-6.03.306.527.527,0,0,0-.364.642.534.534,0,0,0,.642.364,30.432,30.432,0,0,1,6.176-.252c2.063.086,4.126.232,6.188.342,4.184.223,8.34.791,12.522,1.044a112.248,112.248,0,0,0,25.048-1.658q3.138-.519,6.256-1.141a18.173,18.173,0,0,1,3.109-.427,25.72,25.72,0,0,0,3.1-.16c.886-.13,1.755-.385,2.647-.478a5.469,5.469,0,0,1,2.7.39,7.55,7.55,0,0,1,3.477,3.159c1.818,3.019,1.991,6.686,1.975,10.118a39.49,39.49,0,0,1-.489,6.1,53.289,53.289,0,0,1-1.369,5.708,33.3,33.3,0,0,0-1.405,11.327,14.342,14.342,0,0,0,.4,2.686,13.183,13.183,0,0,0,1.008,2.246,3.716,3.716,0,0,1,.455,2.342,12.041,12.041,0,0,1-.908,2.437,14.939,14.939,0,0,0-.76,2.673c-.211.985-.4,1.976-.574,2.969-.343,1.935-.717,3.88-.974,5.829a12.086,12.086,0,0,0-.031,2.942,5.259,5.259,0,0,1,.052,1.936,8.51,8.51,0,0,1-.877,1.725,23.8,23.8,0,0,1-1.313,2.342,2.925,2.925,0,0,1-1.182,1.038,4.06,4.06,0,0,1-2.018.207,3.948,3.948,0,0,1-1.137-.234,1.867,1.867,0,0,1-.24-.138c-.05-.032-.055-.088-.05-.035a.645.645,0,0,1,.132-.386,4.07,4.07,0,0,1,.554-.693c.612-.652,1.309-1.224,1.885-1.909a6.685,6.685,0,0,0,1.088-2.008,15.931,15.931,0,0,0,.866-5.066,45.224,45.224,0,0,0-.261-5.362c-.177-2.026-.414-4.048-.778-6.049a26.69,26.69,0,0,0-3.982-10.528,15.342,15.342,0,0,0-3.733-3.852,5.542,5.542,0,0,0-3.99-1.034,8.97,8.97,0,0,0-2.345.728c-.928.4-1.851.824-2.771,1.248-1.848.852-3.689,1.718-5.555,2.528a47.135,47.135,0,0,1-5.835,2.184,34.432,34.432,0,0,1-5.763,1.091c-3.959.422-7.946.325-11.92.443-1.916.056-3.822.206-5.732.343-.666.048-.672,1.092,0,1.044" transform="translate(-32.778 -32.203)"/>
        <path id="Trazado_823350" data-name="Trazado 823350" d="M201.406,70.318a8.184,8.184,0,0,1,4.839,3.745,14.846,14.846,0,0,1,1.712,6.028,49.423,49.423,0,0,1,.084,6.822c-.051,1.27-.147,2.544-.117,3.815a19.881,19.881,0,0,0,.671,4.636c.478,1.8,1.265,3.495,1.728,5.295a16.358,16.358,0,0,1,.429,5.842l.522-.522c-1.2-.052-1.652-1.038-1.841-2.13-.213-1.23,0-2.476-.134-3.708-.2-1.875-1.3-3.441-1.753-5.243a21.073,21.073,0,0,1-.254-6.093,19.412,19.412,0,0,0-.515-6.889c-.2-.637-1.213-.365-1.006.278,1.318,4.107-.176,8.488.7,12.665.388,1.858,1.626,3.481,1.8,5.388.058.639,0,1.289.007,1.93a11.669,11.669,0,0,0,.165,2.018,4.091,4.091,0,0,0,.841,1.935,2.7,2.7,0,0,0,1.995.893.535.535,0,0,0,.522-.522,17.058,17.058,0,0,0-.288-5.355c-.364-1.728-1.079-3.334-1.6-5.013a19.8,19.8,0,0,1-.9-4.614,37.941,37.941,0,0,1,.06-4.069,54.874,54.874,0,0,0-.026-6.964,17.118,17.118,0,0,0-1.685-6.576,9.288,9.288,0,0,0-5.669-4.6.523.523,0,0,0-.278,1.007" transform="translate(-96.112 -33.124)"/>
        <path id="Trazado_823351" data-name="Trazado 823351" d="M198.505,84.181a13.6,13.6,0,0,1,1.588,8.014c-.271,2.683-1.6,5.016-2.324,7.575a7.817,7.817,0,0,0-.155,4.385c.194.641,1.2.368,1.006-.277-.779-2.575.65-5.282,1.536-7.64a15.493,15.493,0,0,0,.831-8.091,13.854,13.854,0,0,0-1.582-4.491.522.522,0,0,0-.9.526" transform="translate(-94.356 -39.871)"/>
        <path id="Trazado_823352" data-name="Trazado 823352" d="M194.078,111.318a12.639,12.639,0,0,0,.139,8.093.523.523,0,0,0,1.007-.278,11.684,11.684,0,0,1-.139-7.538.526.526,0,0,0-.365-.642.533.533,0,0,0-.642.364" transform="translate(-92.494 -53.035)"/>
        <path id="Trazado_823353" data-name="Trazado 823353" d="M173.976,145.773a33.406,33.406,0,0,1,2.2,10.649,22.117,22.117,0,0,1-2.389,10.334,21.3,21.3,0,0,1-3.316,4.683.53.53,0,0,0-.081.633,2.748,2.748,0,0,0,1.731.921,8.429,8.429,0,0,0,2.421.136,3.706,3.706,0,0,0,2.206-.727c.664-.614.593-1.587.673-2.408a1.118,1.118,0,0,1,.326-.806,1.059,1.059,0,0,1,.66-.185,1.286,1.286,0,0,0,.852-.375,2.177,2.177,0,0,0,.442-1.3,10.8,10.8,0,0,0-.074-1.616,5.281,5.281,0,0,1,.185-1.691c.31-1.225.685-2.433,1.033-3.648.791-2.762,1.516-5.543,2.275-8.314a.523.523,0,0,0-1.007-.278c-.635,2.318-1.25,4.641-1.894,6.956-.317,1.144-.655,2.281-.983,3.421a10.852,10.852,0,0,0-.663,3.384c.021.508.1,1.014.1,1.522a2.509,2.509,0,0,1-.081.626.827.827,0,0,1-.068.187c-.02.038-.069.079-.023.045-.012.009-.129.042-.115.04-.157.022-.316.028-.474.054a1.776,1.776,0,0,0-.91.447,3.034,3.034,0,0,0-.665,2.2,1.644,1.644,0,0,1-.254.94,1.354,1.354,0,0,1-.757.358,6.916,6.916,0,0,1-2.368.116,5.12,5.12,0,0,1-1.1-.231,1.674,1.674,0,0,1-.354-.154c-.035-.02-.155-.1-.145-.091.033.027-.136-.155-.059-.052q-.041.316-.082.633a21.526,21.526,0,0,0,5.177-9.279,24.624,24.624,0,0,0,.325-11.257,41.921,41.921,0,0,0-1.724-6.146c-.223-.628-1.232-.358-1.007.278" transform="translate(-81.422 -69.387)"/>
        <path id="Trazado_823354" data-name="Trazado 823354" d="M161.133,133.551c.871,1.471,2.572,2.6,2.641,4.456.047,1.268-.42,3.4,1.369,3.631a.5.5,0,0,0,.451-.258,6.9,6.9,0,0,0,.538-1.7,4.176,4.176,0,0,1,.558-1.556l-.714.187c.269.127.331.288.385.605a7.68,7.68,0,0,1,.05.979,2.221,2.221,0,0,0,.828,1.991.526.526,0,0,0,.633-.082,2.627,2.627,0,0,0,.587-1.455,3.945,3.945,0,0,1,.288-1.39l-.82.105c.242.223.216.521.22.829a2.023,2.023,0,0,0,.237,1.09,1.006,1.006,0,0,0,1.784.1,3.808,3.808,0,0,0,.349-1.042,2.149,2.149,0,0,1,.424-1.11c.48-.482,1.264-.531,1.872-.768a3.663,3.663,0,0,0,2.072-1.933.539.539,0,0,0-.187-.714.525.525,0,0,0-.714.187,2.86,2.86,0,0,1-1.958,1.624,3.273,3.273,0,0,0-2.181,1.336,5.683,5.683,0,0,0-.4,1.367c-.044.17-.152.359-.179.527-.017.1-.124.018.05.015.238,0,.085.037.032-.057a.69.69,0,0,1-.151-.336c-.021-.191,0-.386-.013-.578a1.751,1.751,0,0,0-.521-1.275.528.528,0,0,0-.82.106,3.818,3.818,0,0,0-.376,1.445,2.116,2.116,0,0,1-.336,1.189l.633-.081a.8.8,0,0,1-.281-.6c-.047-.35-.03-.709-.046-1.061a2.019,2.019,0,0,0-.936-1.913.539.539,0,0,0-.714.187c-.678.975-.57,2.224-1.1,3.257l.45-.259a.207.207,0,0,1-.166-.106c.052.065-.033-.052-.041-.068a.453.453,0,0,1-.057-.138,3.03,3.03,0,0,1-.1-.912,10.177,10.177,0,0,0-.045-2.006,5.569,5.569,0,0,0-1.174-2.382,18.722,18.722,0,0,1-1.528-1.959.522.522,0,0,0-.9.527" transform="translate(-76.997 -63.476)"/>
        <path id="Trazado_823355" data-name="Trazado 823355" d="M43.049,120.175a15.618,15.618,0,0,1,1.889,5.29,11.71,11.71,0,0,0,.555,2.551,9.226,9.226,0,0,0,1.525,2.415c.589.723,1.251,1.4,1.777,2.171.459.674.777,1.433,1.274,2.084a6.738,6.738,0,0,0,4.3,2.243,14.65,14.65,0,0,0,2.724.2c1.107-.021,2.2-.239,3.305-.268a.522.522,0,0,0,0-1.044c-.982.026-1.95.2-2.93.254a13.714,13.714,0,0,1-2.328-.075,6.411,6.411,0,0,1-4.122-1.788,17.679,17.679,0,0,1-1.263-2.047,23.122,23.122,0,0,0-1.7-2.114,9.237,9.237,0,0,1-1.518-2.232,9.661,9.661,0,0,1-.553-2.41,14.711,14.711,0,0,0-.722-2.974,20.056,20.056,0,0,0-1.3-2.779c-.326-.588-1.228-.062-.9.527" transform="translate(-20.547 -57.079)"/>
        <path id="Trazado_823356" data-name="Trazado 823356" d="M76.991,112.326a17.078,17.078,0,0,0,.876,6.354,21.552,21.552,0,0,0,1.538,2.848,5.545,5.545,0,0,1,.937,2.885c-.039,1.982-1.484,3.633-2.208,5.4-.867,2.116-.886,4.434-1.461,6.626-.513,1.956-1.925,3.475-2.621,5.353a10.015,10.015,0,0,0-.482,3.245c-.029,1.142-.1,2.273-.171,3.412a30.275,30.275,0,0,0-.031,3.563,18.285,18.285,0,0,0,.377,3.1,3.669,3.669,0,0,0,.566,1.338c.2.277.527.546.6.895a2.447,2.447,0,0,1,0,.532c0,.1-.009-.011.007,0l-.022.039.106-.106c.037-.025.106-.02.049-.016a1.922,1.922,0,0,0-.846.184,3.812,3.812,0,0,0-.783.647,1.507,1.507,0,0,0-.34.657,3.372,3.372,0,0,0-.22,1.142,2.35,2.35,0,0,0,.029.271c.02.106.038-.055.006.01.029-.06.042-.068,0-.035a6.007,6.007,0,0,1-2.649.6,19.479,19.479,0,0,1-2.9.373,3.071,3.071,0,0,1-1.254-.218q.094.357.187.714a29.261,29.261,0,0,1,2.392-3.846,10.494,10.494,0,0,0,1.637-4.144,29.616,29.616,0,0,0,.231-4.9c-.007-.772.051-1.567-.029-2.335a6.96,6.96,0,0,0-.473-1.853,10.768,10.768,0,0,1-1.084-3.543c-.067-1.656.014-3.313.073-4.968.056-1.571.045-3.13-.021-4.7a6.217,6.217,0,0,0-1.039-3.713c-1.832-2.354-5.073-2.9-7.108-5.017-.467-.485-1.2.254-.738.738a12.438,12.438,0,0,0,3.118,2.206,17.274,17.274,0,0,1,3.169,1.96,4.175,4.175,0,0,1,1.163,1.465,5.21,5.21,0,0,1,.356,1.71c.106,1.482.124,2.973.085,4.458-.044,1.615-.138,3.23-.125,4.847a11,11,0,0,0,.16,2.2,9.387,9.387,0,0,0,.6,1.731,15.1,15.1,0,0,1,.635,1.616,6.509,6.509,0,0,1,.208,1.94c-.005,1.572.063,3.146-.057,4.715a12.168,12.168,0,0,1-.446,2.611A8.981,8.981,0,0,1,68,157.4a37.787,37.787,0,0,0-2.626,4.218.529.529,0,0,0,.186.714c1.864.831,3.993.014,5.919-.142a4.008,4.008,0,0,0,1.588-.4,1.526,1.526,0,0,0,.828-.766,1.918,1.918,0,0,0,.011-.669,3.059,3.059,0,0,1,.24-.96c.027-.08-.016.009-.01.02a.183.183,0,0,1,.025-.043s-.068.057.016-.013c.109-.091.216-.187.324-.28a.949.949,0,0,1,.295-.211c.112-.039.006-.009.083-.014.058,0,.117,0,.175-.007.923-.071,1.073-1.109.847-1.858a3.535,3.535,0,0,0-.687-1.064,3.06,3.06,0,0,1-.493-1.241,19.156,19.156,0,0,1-.332-3.294,34.968,34.968,0,0,1,.1-3.623c.084-1.148.088-2.295.15-3.443a7.467,7.467,0,0,1,.788-3.075c.47-.914,1.058-1.761,1.529-2.674,1.043-2.019,1.1-4.3,1.576-6.48a11.926,11.926,0,0,1,1.188-3.178,19.163,19.163,0,0,0,1.33-2.727,5.4,5.4,0,0,0,.179-3.092,10.8,10.8,0,0,0-1.419-2.913,11.193,11.193,0,0,1-1.327-2.96,14.562,14.562,0,0,1-.425-3.217c-.021-.56-.024-1.12-.026-1.68a.522.522,0,0,0-1.044,0" transform="translate(-28.668 -53.46)"/>
        <path id="Trazado_823357" data-name="Trazado 823357" d="M97.647,103.36c-.878,3.142-1.029,6.779.688,9.676a8.358,8.358,0,0,0,1.819,2.136c.511.429,1.254-.306.738-.738-3.172-2.659-3.276-7.087-2.238-10.8a.522.522,0,0,0-1.007-.278" transform="translate(-46.377 -49.238)"/>
        <path id="Trazado_823358" data-name="Trazado 823358" d="M85.394,154.959c-.6,3.548-4.248,6.65-2.931,10.466.218.631,1.227.36,1.007-.278-.585-1.695.077-3.384.83-4.91a18.8,18.8,0,0,0,2.1-5,.538.538,0,0,0-.365-.642.526.526,0,0,0-.642.364" transform="translate(-39.287 -73.901)"/>
        <path id="Trazado_823359" data-name="Trazado 823359" d="M74.849,201.2a6.433,6.433,0,0,1,4.988,1.442.538.538,0,0,0,.738,0,.525.525,0,0,0,0-.738,8.168,8.168,0,0,0-2.79-1.527,7.491,7.491,0,0,0-3.213-.184.526.526,0,0,0-.364.642.536.536,0,0,0,.642.364" transform="translate(-35.469 -95.662)"/>
        <path id="Trazado_823360" data-name="Trazado 823360" d="M71.853,205.181A16.958,16.958,0,0,0,75.513,202a.538.538,0,0,0,0-.739.526.526,0,0,0-.738,0,15.909,15.909,0,0,1-3.448,3.019.535.535,0,0,0-.187.714.526.526,0,0,0,.714.187" transform="translate(-33.977 -96.146)"/>
        <path id="Trazado_823361" data-name="Trazado 823361" d="M188.606,196.284a4.273,4.273,0,0,1,2.206.067,8.706,8.706,0,0,1,2,.95.522.522,0,0,0,.527-.9,9.59,9.59,0,0,0-2.314-1.075,5.374,5.374,0,0,0-2.692-.048c-.653.153-.377,1.16.278,1.007" transform="translate(-89.857 -93.287)"/>
        <path id="Trazado_823362" data-name="Trazado 823362" d="M173.7,192.68a8.639,8.639,0,0,1,3.418,2.178.522.522,0,0,0,.738-.738,9.736,9.736,0,0,0-3.878-2.447.523.523,0,0,0-.278,1.007" transform="translate(-82.868 -91.624)"/>
        <path id="Trazado_823363" data-name="Trazado 823363" d="M60.154,112.976c-.47,3.165.475,7.02,3.111,9.038a5.616,5.616,0,0,0,2.557,1.1.539.539,0,0,0,.642-.364.525.525,0,0,0-.364-.642c-3.08-.473-4.649-3.634-4.957-6.463a9.448,9.448,0,0,1,.018-2.385.539.539,0,0,0-.365-.642.525.525,0,0,0-.642.364" transform="translate(-28.703 -53.829)"/>
        <path id="Trazado_823364" data-name="Trazado 823364" d="M68.577,124.351a5.907,5.907,0,0,0,2.063,1.89,7.86,7.86,0,0,0,2.575,1,.537.537,0,0,0,.642-.364.527.527,0,0,0-.365-.642,6.944,6.944,0,0,1-2.27-.863,4.963,4.963,0,0,1-1.745-1.549c-.353-.57-1.256-.046-.9.527" transform="translate(-32.746 -59.08)"/>
        <path id="Trazado_823365" data-name="Trazado 823365" d="M163.845,77.32c-1.983.292-3.246,1.923-4.129,3.587-.436.82-.8,1.674-1.229,2.5a12.766,12.766,0,0,1-1.907,2.777,25.073,25.073,0,0,1-2.874,2.577.525.525,0,0,0,0,.738.535.535,0,0,0,.738,0,18.136,18.136,0,0,0,4.566-4.873c.928-1.59,1.483-3.441,2.683-4.864a3.866,3.866,0,0,1,2.431-1.433.526.526,0,0,0,.364-.642.535.535,0,0,0-.642-.364" transform="translate(-73.411 -36.961)"/>
        <path id="Trazado_823366" data-name="Trazado 823366" d="M157.843,92.8a17.113,17.113,0,0,1-3.16,3.865,11.858,11.858,0,0,1-4.2,2.594c-.635.21-.363,1.218.278,1.007a15.54,15.54,0,0,0,7.988-6.939.522.522,0,0,0-.9-.527" transform="translate(-71.768 -44.246)"/>
        <path id="Trazado_823367" data-name="Trazado 823367" d="M132.379,161.2l-5.354-7.04a1.585,1.585,0,0,0-2.523,0l-5.354,7.04a1.586,1.586,0,0,0,1.262,2.545h1.668v11.516a1.641,1.641,0,0,0,1.641,1.641h3.9a1.641,1.641,0,0,0,1.641-1.641V163.747h1.858a1.586,1.586,0,0,0,1.262-2.545" transform="translate(-56.806 -73.402)" fill="#dbf9bd"/>
        <path id="Trazado_823368" data-name="Trazado 823368" d="M126.9,176.969H123a2.427,2.427,0,0,1-2.424-2.424V163.811h-.885a2.368,2.368,0,0,1-1.885-3.8l5.354-7.04a2.368,2.368,0,0,1,3.77,0l5.354,7.04a2.368,2.368,0,0,1-1.885,3.8h-1.076v10.734a2.427,2.427,0,0,1-2.424,2.424M125.047,153.6a.8.8,0,0,0-.639.317l-5.353,7.04a.8.8,0,0,0,.638,1.288h2.451v12.3a.859.859,0,0,0,.858.858h3.9a.859.859,0,0,0,.859-.858v-12.3H130.4a.8.8,0,0,0,.638-1.288h0l-5.353-7.04a.8.8,0,0,0-.639-.317" transform="translate(-56.089 -72.685)"/>
        <path id="Trazado_823369" data-name="Trazado 823369" d="M132.379,38.88l-5.354,7.04a1.585,1.585,0,0,1-2.523,0l-5.354-7.04a1.586,1.586,0,0,1,1.262-2.545h1.668V24.818a1.641,1.641,0,0,1,1.641-1.641h3.9a1.641,1.641,0,0,1,1.641,1.641V36.335h1.858a1.586,1.586,0,0,1,1.262,2.545" transform="translate(-56.806 -11.08)" fill="#dbf9bd"/>
        <path id="Trazado_823370" data-name="Trazado 823370" d="M125.047,46.611a2.351,2.351,0,0,1-1.885-.935l-5.354-7.04a2.368,2.368,0,0,1,1.885-3.8h.885V24.1A2.427,2.427,0,0,1,123,21.677h3.9a2.427,2.427,0,0,1,2.424,2.424V34.835H130.4a2.369,2.369,0,0,1,1.885,3.8l-5.354,7.04a2.352,2.352,0,0,1-1.885.935M119.692,36.4a.8.8,0,0,0-.639,1.289l5.354,7.04a.826.826,0,0,0,1.278,0l5.354-7.04A.8.8,0,0,0,130.4,36.4H127.76V24.1a.859.859,0,0,0-.859-.859H123a.859.859,0,0,0-.859.859V36.4Z" transform="translate(-56.089 -10.363)"/>
      </g>
    </g>
  </g>
</svg>
