<svg xmlns="http://www.w3.org/2000/svg" xmlns:xlink="http://www.w3.org/1999/xlink" width="201" height="189" viewBox="0 0 201 189">
  <defs>
    <clipPath id="clip-path">
      <rect id="Rect치ngulo_379408" data-name="Rect치ngulo 379408" width="141.702" height="128.844" fill="none"/>
    </clipPath>
  </defs>
  <g id="Grupo_1077191" data-name="Grupo 1077191" transform="translate(-709 -1897)">
    <g id="Grupo_1077117" data-name="Grupo 1077117" transform="translate(0 91)">
      <rect id="Rect치ngulo_379366" data-name="Rect치ngulo 379366" width="16" height="5" transform="translate(894 1898)" fill="#dbf9bd"/>
      <g id="Grupo_161158" data-name="Grupo 161158" transform="translate(709 1806)">
        <circle id="Elipse_1142" data-name="Elipse 1142" cx="94.5" cy="94.5" r="94.5" fill="#dbf9bd"/>
      </g>
    </g>
    <g id="Grupo_1077135" data-name="Grupo 1077135" transform="translate(733.148 1924.078)">
      <g id="Grupo_1077078" data-name="Grupo 1077078" clip-path="url(#clip-path)">
        <path id="Trazado_823371" data-name="Trazado 823371" d="M138.171,62.755A61.755,61.755,0,1,1,76.415,1a61.755,61.755,0,0,1,61.755,61.755" transform="translate(-6.499 -0.443)" fill="#65add7"/>
        <path id="Trazado_823372" data-name="Trazado 823372" d="M75.972,124.624a62.312,62.312,0,1,1,62.312-62.312,62.382,62.382,0,0,1-62.312,62.312m0-123.511a61.2,61.2,0,1,0,61.2,61.2,61.268,61.268,0,0,0-61.2-61.2" transform="translate(-6.056)" fill="#020202"/>
        <path id="Trazado_823373" data-name="Trazado 823373" d="M141.589,192.734c0,8.035-31.472,14.547-70.294,14.547S1,200.769,1,192.734s31.472-14.547,70.295-14.547,70.294,6.513,70.294,14.547" transform="translate(-0.443 -78.995)" fill="#039314"/>
        <path id="Trazado_823374" data-name="Trazado 823374" d="M70.851,207.395C31.121,207.395,0,200.761,0,192.291s31.121-15.1,70.851-15.1,70.851,6.634,70.851,15.1-31.121,15.1-70.851,15.1m0-29.095c-41.716,0-69.737,7.234-69.737,13.99s28.022,13.991,69.737,13.991,69.737-7.234,69.737-13.991S112.566,178.3,70.851,178.3" transform="translate(0 -78.551)" fill="#020202"/>
        <path id="Trazado_823375" data-name="Trazado 823375" d="M34.546,100.437l1.738,3.381,1.918,2.913,2.487,3.412,2.345,1.634.371,8.528,1.05,3.625.568,3.036-.639,6.345-.967,3.456L40.9,140.2l-.213,1.492L41.6,143l1.82-.045,3.952-.555,1.081-.77-.228-3.494.9-.578,1.341-.479.322-.916-1.208-2.22-.146-7.528.124-15.1,2.874-2.983.168,2.9.107,1.884-.726,6.4v2.629l1.828,4.619.248,4.619-.4,5.081-1.676,4.477-1.515,2.535.286,1.37,3.3.155,3.8-.542,1.137-1.279-.459-3.559.331-.755,1.9-.589-2.31-6.112-.64-3.02,1.173-6.645-.036-6.893,1.6-8.6,7.071.924,9.132,1.244h5.827l4.69-1.6,1.919.106,1.67,1.315.462,1.847,1.112.746.6,4-1.107,11.274-1.386,4.654-1.457,2.594-2.274,2.345.746.53,3.7-.068,1.929-.764,1.127-2.931.485-.576,1.185.434.995-.32-.995-2.416,1.293-7.193,1.443-7.091.675-6.466.96.924.888-.462.32-.461.106-1.848,1.741-.64,1.386-.852.485-.675,3.352,10.163L111.08,124l.213,3.66-.71,4.193-2.7,5.543.213,1.1,2.238.533,3.2-.256,1.146-.775.144-3.762.628-.75.9.036v-1.634l-1.255-3.553-1.066-5.366-.32-6.182-.249-2.132.888-4.229.007-2.084-2.316-5.413-1.67-5.365-.284-10.66,1.386-9.878.64-2.95,1.6,2.381,3.7,11.371,1.528,5.72.461,4.406-.6,5.153.32,4.441,1.066,2.807,1.67-1.777.536-4.9-.358-4.619-1.386-3.838-.888-4.37-1.457-7.035-1.677-5.01-4.506-7.854-2.452-3.056-5.188-2.451L93.954,62.564s-5.827.141-6.04.213-25.228-1.813-25.228-1.813L50.142,60.4l-5.685-.364-2.807.755-7.5,4.054-9.7-6.3L22.741,58.4,19.985,60.21l-4.806,6.263-.8.807-4.119-1.411L6.544,67.531l-3.07,3.248.212,1.073,4.706,2.66,2.807.169,2.487-1.492,1.919-1.6,1.137.32L18.7,79.265l1.35,3.624L19.518,88.2l.35,2.611,2.872.792h6.067L31.1,93.763s1.706,2.415,1.813,2.449,1.637,4.224,1.637,4.224" transform="translate(-1.54 -25.888)" fill="#fff"/>
        <path id="Trazado_823376" data-name="Trazado 823376" d="M34.926,108.962l.089-3.463,1.26-1.511,4.071-.218h1.709l1.01,1.354-.561,1.5,1.067,1.687-.853,1.926-3.47.521-3.068-.806Z" transform="translate(-15.484 -46.004)" fill="#ff88b7"/>
        <path id="Trazado_823377" data-name="Trazado 823377" d="M148.393,138.681l3.553-3.018,4.086-4.305,3.009-3.313,1.883-1.215,2.819.291L166.905,130l2.617,5.543-.734,1.527-1.137.391-1.954.64.142,2.167-1.244.6-1.6-2.191h-.96l-.212,1.764-.9,1.24-1.883-2.843-1.765,0-.593,1.066v1.543l-.828-.014-1.49-2.759-1.956-.9Z" transform="translate(-65.786 -56.227)" fill="#ff88b7"/>
        <path id="Trazado_823378" data-name="Trazado 823378" d="M71.579,133.58c-1.845,1.749-3.558,3.977-6.315,4.1-2.21.1-3.9-1.369-5.182-3.011-1.3-1.669-2.282-3.56-3.477-5.3a22.859,22.859,0,0,1-1.919-3.193c-.543-1.155-.926-2.369-1.413-3.545-1.006-2.427-3.058-4.013-4.77-5.913-.48-.533-1.266.256-.787.787,1.544,1.713,3.439,3.154,4.425,5.3.552,1.2.919,2.476,1.465,3.678a21.13,21.13,0,0,0,1.959,3.337c1.269,1.826,2.3,3.805,3.668,5.564s3.151,3.275,5.46,3.413a6.773,6.773,0,0,0,4.225-1.256,31.7,31.7,0,0,0,3.45-3.169c.521-.494-.267-1.28-.787-.787" transform="translate(-21.087 -51.666)"/>
        <path id="Trazado_823379" data-name="Trazado 823379" d="M84.752,129.7a5.373,5.373,0,0,1,2.234,2.481,9.779,9.779,0,0,1,.715,3.249c.1,1.247.078,2.5.082,3.749,0,.79.015,1.58.077,2.368s.224,1.57.244,2.365c.077,3.108-1.192,6.13-.632,9.245a11.434,11.434,0,0,0,.768,2.278,14.628,14.628,0,0,1,.7,2.193,16.924,16.924,0,0,1,.382,4.315,46.548,46.548,0,0,1-.51,5.094,12.872,12.872,0,0,1-.569,2.471,11.4,11.4,0,0,1-.43,1.063q-.124.267-.26.53a1.424,1.424,0,0,0-.243.6c.025-.094.051-.188.076-.281a25.156,25.156,0,0,0-1.487,2.609,1.542,1.542,0,0,0,.184,1.678,2.968,2.968,0,0,0,1.912.623,20.676,20.676,0,0,0,2.125.078,7.552,7.552,0,0,0,3.912-.85,2.618,2.618,0,0,0,1.153-1.493,4.759,4.759,0,0,0,0-2.106,4.913,4.913,0,0,1-.169-1.524.581.581,0,0,1,.274-.418,2.491,2.491,0,0,1,1.062-.309.565.565,0,0,0,.537-.7c-.823-2.483-1.9-4.92-2.213-7.541a17.185,17.185,0,0,1,.023-4.009c.155-1.33.446-2.638.627-3.963a36.314,36.314,0,0,0,.189-4.3,36.409,36.409,0,0,1,.4-4.252,60.217,60.217,0,0,1,1.413-8.306,17.781,17.781,0,0,1,1.916-4,14.811,14.811,0,0,0,.949-2.048c.133-.346.256-.695.375-1.046a3.716,3.716,0,0,0,.311-1.036.557.557,0,0,0-1.113,0c0-.093-.06.1-.057.094a2.337,2.337,0,0,0-.077.236c-.052.156-.1.313-.157.469-.112.331-.229.661-.355.987a12.89,12.89,0,0,1-.837,1.782,21.347,21.347,0,0,0-1.826,3.608,24.847,24.847,0,0,0-.9,3.959c-.242,1.426-.43,2.861-.62,4.294s-.443,2.864-.507,4.309,0,2.872-.115,4.3c-.106,1.358-.423,2.695-.616,4.043a19.6,19.6,0,0,0-.215,4.008c.194,3.058,1.379,5.828,2.331,8.7l.537-.7a3.206,3.206,0,0,0-1.972.736,1.888,1.888,0,0,0-.492,1.4c.028,1.041.6,2.2.169,3.206-.415.976-1.876,1.2-2.817,1.294a15.088,15.088,0,0,1-1.795.056,9.254,9.254,0,0,1-2.2-.2,1.114,1.114,0,0,1-.28-.1c-.008,0-.151-.106-.061-.037-.045-.035-.027.027-.062-.081.008.026.024.093,0-.007-.013-.064-.014-.067,0-.01a.9.9,0,0,1,0-.116,3.333,3.333,0,0,1,.125-.416,8.1,8.1,0,0,1,.706-1.206c.148-.231.292-.465.429-.7a1.619,1.619,0,0,0,.317-.72l-.076.281a13.157,13.157,0,0,0,1.486-4.269c.235-1.556.444-3.126.551-4.7a20.724,20.724,0,0,0-.145-4.507,14.849,14.849,0,0,0-.514-2.236c-.246-.785-.615-1.518-.883-2.293-1.064-3.086.286-6.3.38-9.431a15.253,15.253,0,0,0-.183-2.4,21.27,21.27,0,0,1-.132-2.425c-.016-1.315.017-2.631-.062-3.945a11.882,11.882,0,0,0-.836-4.03,6.422,6.422,0,0,0-2.688-3,.557.557,0,0,0-.562.961" transform="translate(-37.453 -56.733)"/>
        <path id="Trazado_823380" data-name="Trazado 823380" d="M96.97,207.147a9.809,9.809,0,0,1-3.19-1.314,5.081,5.081,0,0,0-3.822-.442.571.571,0,0,0-.409.537v.006a.557.557,0,0,0,1.113,0v-.006l-.409.537c2.453-.8,4.362,1.6,6.716,1.8.714.06.71-1.054,0-1.113" transform="translate(-39.7 -90.965)"/>
        <path id="Trazado_823381" data-name="Trazado 823381" d="M90.889,205.837a3.351,3.351,0,0,1-.145.492c-.009.024-.048.119-.019.052-.019.045-.04.089-.06.132q-.057.122-.119.24c-.189.363-.409.71-.631,1.053a13.178,13.178,0,0,0-1.2,2.083.56.56,0,0,0,.389.685.571.571,0,0,0,.685-.389c-.031.073,0-.008.018-.039s.039-.083.059-.124c.038-.076.078-.152.119-.227.091-.167.189-.33.289-.492.218-.352.45-.695.674-1.043a6.609,6.609,0,0,0,1.018-2.128.57.57,0,0,0-.389-.685.562.562,0,0,0-.685.389" transform="translate(-39.315 -91.072)"/>
        <path id="Trazado_823382" data-name="Trazado 823382" d="M71.622,153.3c.045,1.445.2,2.882.289,4.325.08,1.362-.041,2.742.114,4.1a22.1,22.1,0,0,0,1.029,3.638,12.362,12.362,0,0,1,.522,3.3,26.258,26.258,0,0,1-.321,4.018c-.185,1.306-.425,2.606-.728,3.889-.557,2.358-2.885,3.817-3.377,6.194a1.662,1.662,0,0,0,1.309,2.114,8.945,8.945,0,0,0,3.312-.176,11.063,11.063,0,0,0,3.087-.658,2.444,2.444,0,0,0,1.108-1.091,2.483,2.483,0,0,0,.137-1.525,7.849,7.849,0,0,1-.252-1.377.493.493,0,0,1,.456-.533,6.132,6.132,0,0,0,.936-.153,1.28,1.28,0,0,0,.813-.936c.239-1.025-.51-1.926-.831-2.843a5.867,5.867,0,0,1-.194-1.714c-.028-.71-.037-1.422-.035-2.133.009-2.844.131-5.686.149-8.53.018-2.91,0-5.821.033-8.731q.011-1.072.031-2.143a.557.557,0,0,0-1.113,0c-.1,5.575-.016,11.151-.165,16.726-.036,1.36-.066,2.721-.035,4.082.014.66.029,1.326.094,1.983a4.552,4.552,0,0,0,.444,1.44,6.328,6.328,0,0,1,.543,1.3.6.6,0,0,1-.013.351c-.038.1-.021.086-.124.115-.239.068-.606.053-.924.139a1.559,1.559,0,0,0-.993.78c-.458.885.085,1.791.125,2.7.046,1.033-1.069,1.307-1.886,1.432-1.015.156-2.039.355-3.061.448a4.333,4.333,0,0,1-1.426-.036c-.273-.068-.446-.16-.476-.418a2.888,2.888,0,0,1,.5-1.531,12.7,12.7,0,0,1,.947-1.418,11.627,11.627,0,0,0,1.757-2.892,12.709,12.709,0,0,0,.433-1.761q.195-.943.35-1.893c.21-1.291.371-2.592.457-3.9a14.033,14.033,0,0,0-.186-3.535,21.816,21.816,0,0,0-.917-3.147,7.337,7.337,0,0,1-.438-1.887c-.05-.64-.037-1.282-.033-1.923.008-1.379-.113-2.749-.22-4.123-.053-.686-.1-1.373-.12-2.06-.022-.715-1.136-.718-1.113,0" transform="translate(-30.634 -67.293)"/>
        <path id="Trazado_823383" data-name="Trazado 823383" d="M78.517,205.163c-1.133-.316-2.024-1.174-3.132-1.57a17.014,17.014,0,0,0-3.869-.687.56.56,0,0,0-.557.557.569.569,0,0,0,.557.557,14.908,14.908,0,0,1,3.694.693c1.062.4,1.9,1.216,3.01,1.526a.557.557,0,0,0,.3-1.074" transform="translate(-31.458 -89.952)"/>
        <path id="Trazado_823384" data-name="Trazado 823384" d="M72.135,207.758a13.472,13.472,0,0,0,1.8-3.134.56.56,0,0,0-.389-.685.571.571,0,0,0-.685.389c-.024.067-.05.132-.076.2s-.027.066-.005.015l-.043.1c-.059.132-.122.263-.188.392-.125.246-.262.486-.405.722-.3.495-.633.97-.97,1.441a.559.559,0,0,0,.2.762.572.572,0,0,0,.762-.2" transform="translate(-31.518 -90.404)"/>
        <path id="Trazado_823385" data-name="Trazado 823385" d="M149.772,141.991a5.794,5.794,0,0,1-.971,1.272,3.041,3.041,0,0,1-1.406.5,2.074,2.074,0,0,0-1.293.737,1.826,1.826,0,0,0-.269,1.34c.042.385.134.719-.237.945-.074.045-.175.069-.245.116s-.04-.005.067.031c.021.007.068.063.078.065-.033,0-.012-.1-.01-.01a1.108,1.108,0,0,0-.072-.227,4.255,4.255,0,0,0-.473-1.03c-.131-.217-.167-.541-.326-.808-.489-.825-1.812-.462-2.389.081a1.053,1.053,0,0,0-.321.915,2.837,2.837,0,0,1,.043.429,1.829,1.829,0,0,1-.152.636,4.4,4.4,0,0,1-.272.637,1.929,1.929,0,0,0-.12.195c.009-.022.005-.021.046-.029a.552.552,0,0,1,.294.016c-.1-.024.04.025.03.025s-.056-.06-.055-.058c.035.1-.01-.017-.035-.058-.043-.072-.084-.145-.123-.22-.347-.67-.631-1.366-1.024-2.013-.441-.727-1.2-.672-1.964-.62a1.321,1.321,0,0,0-1.016.39,2.78,2.78,0,0,0-.336.841,3.363,3.363,0,0,0-.133,1.143c0,.125-.051.325-.045.411.014.2-.107-.169.063-.012-.01-.009-.293-.055-.325-.068a.543.543,0,0,1-.139-.211,4.178,4.178,0,0,1-.208-.593,5.586,5.586,0,0,0-.449-1.152,3.324,3.324,0,0,0-2.084-1.683,5.077,5.077,0,0,0-3.051.517,18.327,18.327,0,0,1-3.219,1.054,17.219,17.219,0,0,1-3.875.18c-5.464-.174-10.8-1.516-16.248-1.911q-1.024-.073-2.05-.1a.557.557,0,0,0,0,1.113c5.561.135,10.991,1.5,16.526,1.914a18.751,18.751,0,0,0,7.665-.606c.541-.189,1.072-.4,1.6-.615a6.43,6.43,0,0,1,1.569-.5,2.058,2.058,0,0,1,2,.885,3.707,3.707,0,0,1,.351.616c.066.146-.024-.068.012.033.014.039.026.078.039.117.033.105.064.211.1.316a4.249,4.249,0,0,0,.478,1.188,1.294,1.294,0,0,0,2.325-.248,9.381,9.381,0,0,0,.081-1.249.244.244,0,0,1,.024-.095c.033-.1.075-.189.106-.286.024-.074.046-.149.066-.224l.021-.069c.033-.12-.016-.013-.008,0a.34.34,0,0,1,.035-.061,1.325,1.325,0,0,0-.1.106c-.037.048-.1-.016-.018.008a.326.326,0,0,0,.076-.018c.13-.022.447-.031.65-.036.134,0,.413,0,.464.005-.062-.008.142.038,0,0,.115.032-.042-.013-.021-.019s.078.11.038.039l.066.115c.046.078.087.158.13.237.105.193.217.382.317.577.175.341.323.7.493,1.04.268.544.783,1.222,1.462.8a2.112,2.112,0,0,0,.7-1.047,3.333,3.333,0,0,0,.349-1.446c-.006-.094-.019-.185-.031-.278-.006-.042-.013-.085-.017-.127.011.106,0,.021,0,0,0,.008-.006-.091,0-.091-.076-.007.161-.125-.005.021-.048.043-.031.042.012.014a2.335,2.335,0,0,1,.565-.217,1.4,1.4,0,0,0,.186-.026c.053-.037-.005.033-.037-.01a.963.963,0,0,0-.1-.091c.06.023.041.067.047.083.022.06.039.121.058.181a3.076,3.076,0,0,0,.212.526,4.791,4.791,0,0,1,.284.451c.046.109.09.315.135.458a1.125,1.125,0,0,0,.7.843,1.677,1.677,0,0,0,1.421-.478,1.578,1.578,0,0,0,.492-1.306c-.016-.306-.176-.771.008-1.047.237-.353.905-.351,1.275-.438a3,3,0,0,0,1.476-.809,9.236,9.236,0,0,0,.991-1.352c.4-.6-.562-1.153-.961-.562" transform="translate(-46.516 -62.837)"/>
        <path id="Trazado_823386" data-name="Trazado 823386" d="M55.068,66.9c1.458-.529,2.924-1.042,4.33-1.7a43.373,43.373,0,0,0,3.871-2.249,8.821,8.821,0,0,1,3.959-1.478,33.639,33.639,0,0,1,4.757.341c1.607.129,3.216.011,4.825.028,1.687.018,3.378.21,5.06.344,3.336.267,6.67.547,10.005.821,3.734.306,7.47.573,11.2.88l-.394-.163c.248.248.723.195,1.047.22q.731.058,1.461.112c.893.064,1.788.119,2.684.152a48.035,48.035,0,0,0,5.386-.144,16.432,16.432,0,0,1,4.727.29c1.317.287,2.576.771,3.868,1.146a51.806,51.806,0,0,1,7.909,2.654,9.184,9.184,0,0,1,3.459,2.473,5.894,5.894,0,0,1,.7,4.325c-.2,1.674-.672,3.3-.973,4.958-.306,1.695-.326,3.42-.464,5.133a63.453,63.453,0,0,0-.359,10.5,27.805,27.805,0,0,0,2.464,9.8c.365.746.764,1.477,1.119,2.228a7.284,7.284,0,0,1,.788,2.359c.141,1.546-.608,3-.892,4.493a15.036,15.036,0,0,0,.214,5.063c.255,1.72.183,3.454.433,5.174a46.935,46.935,0,0,0,.927,4.679c.3,1.192.761,2.339,1.035,3.539a3.464,3.464,0,0,1,.132,1.366l.537-.409a1.726,1.726,0,0,0-2.065,1.246,29.644,29.644,0,0,0-.164,2.968,1.407,1.407,0,0,1-.232.647.668.668,0,0,1-.154.137c-.081.054-.019.014-.1.042a5.179,5.179,0,0,1-1.154.219,14.194,14.194,0,0,1-3.013.019,2.58,2.58,0,0,1-.725-.141c-.161-.071-.165-.086-.156-.287a4.766,4.766,0,0,1,.617-1.748c.54-1.1,1.249-2.146,1.687-3.3a18.2,18.2,0,0,0,.823-7.955,34.368,34.368,0,0,0-1.961-8.164c-.907-2.6-1.873-5.178-2.7-7.809a46.963,46.963,0,0,0-3.024-7.97,9.115,9.115,0,0,0-4.825-4.671,4.861,4.861,0,0,0-3.061-.153,7.038,7.038,0,0,0-2.751,2.01c-1.664,1.712-2.985,3.729-4.719,5.376a12.724,12.724,0,0,1-1.392,1.155c-.579.412-.023,1.378.562.961a27.5,27.5,0,0,0,4.951-5.145,20.466,20.466,0,0,1,2.431-2.543,3.266,3.266,0,0,1,2.789-.831c2.275.393,3.82,2.164,4.881,4.083a41.831,41.831,0,0,1,3.013,7.8c.835,2.659,1.8,5.262,2.72,7.891a33.652,33.652,0,0,1,1.972,8.013,22.145,22.145,0,0,1,0,4.025,12.841,12.841,0,0,1-.816,3.717c-.5,1.195-1.256,2.273-1.781,3.459-.367.827-1,2.321,0,2.969a3.512,3.512,0,0,0,1.559.382,13.563,13.563,0,0,0,1.5.051,10.426,10.426,0,0,0,2.768-.308,2.174,2.174,0,0,0,1.426-2.148c.044-.541.006-1.085.016-1.627a2.183,2.183,0,0,1,.173-1.062c.185-.3.594-.234.9-.194a.554.554,0,0,0,.537-.409,7.381,7.381,0,0,0-.548-3.452c-.183-.592-.382-1.181-.548-1.778-.194-.7-.313-1.417-.464-2.124a25.991,25.991,0,0,1-.711-5.061c-.023-1.766-.421-3.472-.553-5.227a8.34,8.34,0,0,1,.143-2.459c.174-.781.439-1.538.632-2.314a6.673,6.673,0,0,0,.228-2.335,8.125,8.125,0,0,0-.738-2.372c-.694-1.565-1.579-3.019-2.129-4.648a30.542,30.542,0,0,1-1.221-5.015,43.788,43.788,0,0,1-.087-10.6c.151-1.786.262-3.572.39-5.359a41.972,41.972,0,0,1,.935-5.043,12.459,12.459,0,0,0,.2-5.067,5.687,5.687,0,0,0-2.385-3.2c-2.361-1.736-5.351-2.606-8.13-3.414-1.17-.34-2.352-.648-3.511-1.027a21.483,21.483,0,0,0-4.6-1.078,35.1,35.1,0,0,0-5.039.123,49.428,49.428,0,0,1-5.433-.109c-.92-.061-1.839-.134-2.759-.208l.394.163c-.233-.234-.659-.19-.964-.215l-1.286-.1c-.849-.065-1.7-.127-2.548-.192q-2.531-.193-5.061-.4c-3.415-.277-6.828-.564-10.243-.841q-2.55-.206-5.1-.4c-1.668-.125-3.335-.006-5-.033-1.634-.027-3.241-.338-4.871-.406a8.764,8.764,0,0,0-4.359.9c-1.476.723-2.787,1.727-4.235,2.5a38.266,38.266,0,0,1-5.031,2.071c-.668.243-.38,1.319.3,1.074" transform="translate(-24.114 -26.752)"/>
        <path id="Trazado_823387" data-name="Trazado 823387" d="M157.628,151.468a37.624,37.624,0,0,1,.748,5.415,33.314,33.314,0,0,1-.547,5.475c-.263,1.733-.387,3.492-.739,5.211a18.779,18.779,0,0,1-1.622,4.777,7.71,7.71,0,0,1-1.6,2.117,10.481,10.481,0,0,0-1.825,2.082.56.56,0,0,0,.2.762,8.152,8.152,0,0,0,3.46.375c1.172-.04,2.69-.068,3.555-.985l-.394.163c.546,0,.839-.792.976-1.22a12.33,12.33,0,0,1,.489-1.6,3.517,3.517,0,0,1,.355-.633c.015-.019.077-.053.089-.1-.009.033-.079.023-.04.025-.063,0-.108.006-.17,0,.012,0,.055.021.061.018-.053.021-.1-.063.006.017.078.062.165.12.248.176a1.588,1.588,0,0,0,2-.152c.671-.679.117-1.617-.229-2.3a3.777,3.777,0,0,1,.022-2.513c.241-1.119.463-2.231.657-3.36.468-2.705,1.046-5.384,1.619-8.068.532-2.489.415-5.081,1.1-7.542a.557.557,0,0,0-1.074-.3,52.535,52.535,0,0,0-.933,6.579c-.18,1.216-.5,2.413-.749,3.615q-.412,1.957-.775,3.924c-.22,1.2-.379,2.407-.64,3.594a17.361,17.361,0,0,0-.557,3.124,2.668,2.668,0,0,0,.228,1.226c.15.336.366.65.482,1,.046.14.073.221.04.27.012-.018.005-.03.023-.04a.9.9,0,0,1-.252.106.421.421,0,0,1-.19-.01c-.12-.043.021.021-.06-.026-.051-.03-.1-.061-.15-.094a1.554,1.554,0,0,0-.687-.338,1.065,1.065,0,0,0-.969.515,4.923,4.923,0,0,0-.734,1.519,4.351,4.351,0,0,1-.574,1.627l.394-.163c-.346,0-.576.371-.881.5.1-.043-.151.046-.193.057-.112.032-.225.058-.338.082a10.285,10.285,0,0,1-1.668.175,15.72,15.72,0,0,1-1.854-.029,6.208,6.208,0,0,1-.655-.078c-.1-.018-.207-.04-.308-.066-.053-.014-.3-.1-.168-.046l.2.762c.857-1.427,2.384-2.281,3.195-3.756a19.173,19.173,0,0,0,1.835-4.881c.417-1.785.541-3.612.812-5.421a44.677,44.677,0,0,0,.643-5.573,34.717,34.717,0,0,0-.784-6.3.561.561,0,0,0-.685-.389.57.57,0,0,0-.389.685" transform="translate(-67.371 -66.022)"/>
        <path id="Trazado_823388" data-name="Trazado 823388" d="M192.386,196.849a8.376,8.376,0,0,1,5.455.233.575.575,0,0,0,.762-.2.561.561,0,0,0-.2-.762,9.575,9.575,0,0,0-6.313-.346.557.557,0,0,0,.3,1.074" transform="translate(-84.984 -86.627)"/>
        <path id="Trazado_823389" data-name="Trazado 823389" d="M194.174,196a20.882,20.882,0,0,1-1.8,3.379.56.56,0,0,0,.2.762.569.569,0,0,0,.762-.2,20.855,20.855,0,0,0,1.8-3.379.572.572,0,0,0-.2-.762.562.562,0,0,0-.762.2" transform="translate(-85.251 -86.772)"/>
        <path id="Trazado_823390" data-name="Trazado 823390" d="M156.517,194.749a5.166,5.166,0,0,1,2.055.7c.327.186.642.391.955.6.155.1.308.209.463.313a1.26,1.26,0,0,0,.647.317.557.557,0,0,0,0-1.113h-.006l.281.076c-.651-.431-1.284-.9-1.973-1.264a6.394,6.394,0,0,0-2.422-.744.561.561,0,0,0-.557.557.569.569,0,0,0,.557.557" transform="translate(-69.141 -85.843)"/>
        <path id="Trazado_823391" data-name="Trazado 823391" d="M195.436,77.53a57.27,57.27,0,0,1,5.033,8.417,37.192,37.192,0,0,1,3.015,9.009c.352,1.583.659,3.176.97,4.767a45.538,45.538,0,0,0,1.015,4.59,36.451,36.451,0,0,1,1.3,4.34,15.568,15.568,0,0,1,.057,3.442,18.847,18.847,0,0,1-.471,3.674,6.066,6.066,0,0,1-.581,1.551,1.974,1.974,0,0,1-.91.9l.762.2a8.353,8.353,0,0,1-.769-2.743,24.353,24.353,0,0,1-.323-3.088c-.089-2.765.546-5.49.336-8.26a38.647,38.647,0,0,0-1.619-7.914q-1.1-3.762-2.29-7.5a33.9,33.9,0,0,0-3.43-7.889c-.38-.606-1.344-.047-.961.562a31.017,31.017,0,0,1,3.1,6.932c.81,2.474,1.549,4.977,2.3,7.471a41.513,41.513,0,0,1,1.751,7.851,21.6,21.6,0,0,1,0,3.925c-.12,1.427-.3,2.852-.3,4.286a24.51,24.51,0,0,0,.34,3.724,9.452,9.452,0,0,0,.912,3.208.571.571,0,0,0,.762.2,3.857,3.857,0,0,0,1.779-2.361,14.475,14.475,0,0,0,.651-3.5c.089-1,.127-2,.148-3a13.574,13.574,0,0,0-.915-4.669c-.255-.744-.516-1.487-.721-2.247s-.356-1.558-.514-2.339c-.329-1.629-.634-3.264-.971-4.892a44.914,44.914,0,0,0-2.816-9.5c-.758-1.673-1.662-3.294-2.568-4.89a44.358,44.358,0,0,0-3.1-4.826.574.574,0,0,0-.762-.2.561.561,0,0,0-.2.762" transform="translate(-86.605 -34)"/>
        <path id="Trazado_823392" data-name="Trazado 823392" d="M190.237,73.625a5.467,5.467,0,0,0-1,3.254A11.356,11.356,0,0,0,189.9,80.1a25.987,25.987,0,0,1,.952,3.335c.215,1.2.176,2.432.364,3.637a7.375,7.375,0,0,0,1.192,3.155c.41.581,1.376.026.961-.562-1.244-1.765-1.092-3.855-1.349-5.9a17.555,17.555,0,0,0-.818-3.263,16.456,16.456,0,0,1-.81-3,4.6,4.6,0,0,1,.806-3.319c.411-.588-.553-1.146-.961-.562" transform="translate(-83.892 -32.53)"/>
        <path id="Trazado_823393" data-name="Trazado 823393" d="M183.1,83.233a4.152,4.152,0,0,0-3.1-1.4,2.332,2.332,0,0,0-2.152,2.64,5.238,5.238,0,0,0,.872,2.12,9.357,9.357,0,0,1,1.077,1.9,3.283,3.283,0,0,1,.107.444c.036.2.055.344.065.426.056.446.1.893.156,1.339a16.042,16.042,0,0,0,.572,3.036,3.218,3.218,0,0,0,1.5,2.073,2.744,2.744,0,0,0,2.864-.757,4.3,4.3,0,0,0,1.2-3.068c.086-2.627-1.073-5.038-1.7-7.53a.557.557,0,0,0-1.073.3,53.137,53.137,0,0,1,1.587,5.849,5.474,5.474,0,0,1-.211,2.838,2.4,2.4,0,0,1-.736.961,3.172,3.172,0,0,1-.557.329,2.117,2.117,0,0,1-.283.1c-.053.014-.107.026-.161.036-.16.03.1,0-.056.005a1.709,1.709,0,0,1-.239-.006c.139.016-.077-.027-.116-.037-.137-.038.1.055-.03-.011-.026-.014-.052-.027-.078-.042s-.075-.047-.112-.072c.079.055.006.006-.028-.027-.057-.055-.111-.109-.164-.168-.1-.114.038.055-.02-.021-.025-.033-.049-.068-.072-.1a3.426,3.426,0,0,1-.281-.52,7.887,7.887,0,0,1-.353-1.152c-.105-.454-.183-.914-.249-1.374-.106-.742-.181-1.616-.3-2.412a7.314,7.314,0,0,0-1.287-2.8,3.752,3.752,0,0,1-.79-1.951,1.508,1.508,0,0,1,.257-.787,1.007,1.007,0,0,1,.435-.355,2.776,2.776,0,0,1,2.68.989c.482.532,1.268-.257.787-.787" transform="translate(-78.834 -36.279)"/>
        <path id="Trazado_823394" data-name="Trazado 823394" d="M107.514,63.109A10.808,10.808,0,0,0,108,66.566a6.768,6.768,0,0,0,1.9,2.843c.725.631,1.567,1.1,2.309,1.712a2.451,2.451,0,0,1,1.2,2.5,4.237,4.237,0,0,0,.679,2.929,7.882,7.882,0,0,0,1.627,1.29,3.168,3.168,0,0,1,.326.258c.052.047.1.1.152.147.021.021.04.043.058.065.036.043-.018-.034.032.041.09.137.081.092.1.244-.018-.143-.03.14-.008.016a.346.346,0,0,1-.051.15,3.16,3.16,0,0,1-1.78,1.333,1.678,1.678,0,0,1-1.378-.153,3.674,3.674,0,0,1-1.178-1.2A11.929,11.929,0,0,1,110.478,75a39.551,39.551,0,0,0-.986-4.322,7.751,7.751,0,0,0-3.28-4.326,4.727,4.727,0,0,0-5,.3,3.161,3.161,0,0,0-1.295,2.36,7.391,7.391,0,0,0,.9,3.26c.97,2.223,1.3,4.751,2.567,6.839a16.816,16.816,0,0,0,4.337,4.288,28.044,28.044,0,0,1,2.331,1.957,4.579,4.579,0,0,1,1.361,2.43c.2.936.249,1.894.48,2.823s.507,1.9,1.507,2.257a1.638,1.638,0,0,0,1.317-.133c.19-.091.369-.2.553-.3a1.883,1.883,0,0,1,.206-.1c.055-.022.065-.021.066-.02-.1-.035.016.022.045.047-.059-.052.075.082.089.1-.042-.055.044.086.055.106a.609.609,0,0,1,.064.156,4.438,4.438,0,0,1,.179,1A11.562,11.562,0,0,0,116.24,96a3.058,3.058,0,0,0,1.778,1.837,26.85,26.85,0,0,0,2.733.76,7.5,7.5,0,0,1,2.213,1.381,2.451,2.451,0,0,0,2.182.446,7.469,7.469,0,0,0,2.71-1.411,4.944,4.944,0,0,0,1.477-2.068,9.587,9.587,0,0,0,.4-1.311c.035-.146.066-.293.1-.438.011-.042.026-.084.035-.127.018-.085-.073.1-.005.017-.043.055-.161.2-.23.179.014.005.065-.018.079-.019.087-.009.177-.029.263-.046A4.131,4.131,0,0,0,131.1,94.8a3.708,3.708,0,0,1,1.176-.593,2.8,2.8,0,0,1,1.373.281,4.367,4.367,0,0,0,2.7.563.569.569,0,0,0,.389-.685c-.167-.8-.687-1.976-.1-2.72l-.675.087a3.078,3.078,0,0,0,2.181.613,2.412,2.412,0,0,0,1.537-1.652,4.636,4.636,0,0,0,.078-2.989c-.135-.493-.314-.973-.465-1.461-.057-.185-.1-.372-.157-.557-.024-.085-.009-.076,0,.01,0-.042-.009-.083-.011-.125-.046-1,.114-2.011.15-3.012a4.819,4.819,0,0,0-.506-2.957,1.645,1.645,0,0,0-2.741.3c-.1.214-.173.536-.309.621.072-.045-.08.007-.164-.017a.238.238,0,0,1-.178-.17,3.65,3.65,0,0,1-.217-1.162,13.51,13.51,0,0,1,.045-1.516,5.9,5.9,0,0,0-.646-3.12,5.669,5.669,0,0,1-.889-2.162A9.158,9.158,0,0,1,134.3,69.6a2.92,2.92,0,0,0-.518-2.767c-1.113-1.268-3.11-1.128-4.634-1.116A7.453,7.453,0,0,1,124.49,64.7a7.671,7.671,0,0,1-.84-.779.557.557,0,0,0-.787.787,6.861,6.861,0,0,0,1.865,1.432,7.03,7.03,0,0,0,2.237.605,19.213,19.213,0,0,0,2.512.081,9.454,9.454,0,0,1,2.312.147,1.8,1.8,0,0,1,1.525,1.329,6.372,6.372,0,0,1-.571,2.572,4.207,4.207,0,0,0,.045,2.591c.3.794.826,1.483,1.111,2.283a8.472,8.472,0,0,1,.145,3.008,6.915,6.915,0,0,0,.155,1.407,2.127,2.127,0,0,0,.4,1,1.357,1.357,0,0,0,2.032,0,1.576,1.576,0,0,0,.208-.337c.049-.105.136-.332.153-.37.024-.055.05-.108.078-.16.011-.021.089-.131.043-.07.059-.079-.032,0,.022-.018a1.61,1.61,0,0,1,.2-.066c.052-.014.1-.027.156-.038.109-.022-.06,0,.044,0h.132c.1,0-.093-.019.033.01.107.025-.015-.014.011,0a.631.631,0,0,1,.1.056c-.111-.076.114.139.032.027a1.605,1.605,0,0,1,.127.215c.048.092-.022-.07.014.032.021.06.041.12.058.181.028.1.05.2.068.3a1.689,1.689,0,0,1,.037.265,19.3,19.3,0,0,1-.09,3.177,8.568,8.568,0,0,0-.033,1.242,10.214,10.214,0,0,0,.594,2.126,3.733,3.733,0,0,1-.03,2.729,1.758,1.758,0,0,1-.513.725.664.664,0,0,1-.586.043,3.777,3.777,0,0,1-.954-.46.56.56,0,0,0-.675.087c-.93,1.176-.462,2.484-.188,3.8l.389-.685a1.976,1.976,0,0,1-1.181-.186c-.452-.171-.889-.384-1.351-.529a3.152,3.152,0,0,0-1.543-.126,3.876,3.876,0,0,0-1.278.609,3.15,3.15,0,0,1-1.021.387,1.576,1.576,0,0,0-.518.141c-.487.286-.515,1.143-.648,1.62a4.4,4.4,0,0,1-1.139,2.071,6.183,6.183,0,0,1-2.387,1.354,1.411,1.411,0,0,1-.971.018,3.651,3.651,0,0,1-.7-.482,6.927,6.927,0,0,0-2.449-1.378,12.9,12.9,0,0,1-2.574-.73,1.876,1.876,0,0,1-1.091-1.574c-.1-.781-.081-1.574-.233-2.35a1.88,1.88,0,0,0-1.2-1.6,1.718,1.718,0,0,0-1.2.331c-.3.169-.571.382-.887.232a1.249,1.249,0,0,1-.558-.878A13.5,13.5,0,0,1,112.8,89.5a18.187,18.187,0,0,0-.478-2.643,5.95,5.95,0,0,0-1.7-2.5c-1.48-1.374-3.2-2.462-4.659-3.859a9.442,9.442,0,0,1-1.815-2.305,18.608,18.608,0,0,1-1.269-3.457,33.213,33.213,0,0,0-1.25-3.387,3.964,3.964,0,0,1-.461-2.919c.584-1.43,2.6-1.813,3.928-1.367a5.957,5.957,0,0,1,3.265,3.735,13.85,13.85,0,0,1,.695,2.559c.1.587.178,1.173.313,1.755a13.8,13.8,0,0,0,1.467,3.878,4.114,4.114,0,0,0,2.977,2.292,4,4,0,0,0,3.652-2.427c.281-1.5-1.63-2.076-2.441-2.926-.641-.671-.493-1.654-.494-2.5a4.082,4.082,0,0,0-.227-1.484,3.509,3.509,0,0,0-.947-1.3c-.721-.665-1.569-1.157-2.342-1.755a5.753,5.753,0,0,1-1.89-2.5,9.575,9.575,0,0,1-.49-3.275.557.557,0,0,0-1.113,0" transform="translate(-44.292 -27.739)"/>
        <path id="Trazado_823395" data-name="Trazado 823395" d="M155.346,121.547a5.745,5.745,0,0,0-1.491,1.368,16.353,16.353,0,0,0-1.577,2.186,6.394,6.394,0,0,0-.892,2.034,1.9,1.9,0,0,0,.7,2.073,2.018,2.018,0,0,0,1.943-.453,11.386,11.386,0,0,0,1.46-1.244,15.034,15.034,0,0,0,2.369-2.934,3.729,3.729,0,0,0,.679-2.077,1.681,1.681,0,0,0-1.46-1.5c-.7-.147-1,.926-.3,1.074.076.016.152.033.227.056.035.011.167.062.129.045s.1.058.12.071c.105.056-.027-.047.068.057l.04.044c.052.054-.052-.085-.017-.02.022.039.045.076.065.116-.065-.131-.006,0,.006.048.035.138.014-.048.009.068,0,.048,0,.1,0,.146,0,.029-.005.058-.008.087,0-.021.023-.119,0-.016a3.418,3.418,0,0,1-.1.372,1.744,1.744,0,0,1-.112.283c-.068.146-.143.289-.223.429a12.989,12.989,0,0,1-2.066,2.643c-.311.321-.637.63-.978.919a5.088,5.088,0,0,1-.668.5,3.455,3.455,0,0,1-.385.213c-.087.04.046-.009-.076.028a2.058,2.058,0,0,1-.2.052c.109-.02.015-.006-.039,0s.073.046.032.006c-.01-.01-.107-.028-.023,0s-.122-.034.017.017a.3.3,0,0,1-.057-.058c.021.07.017.038,0-.017-.025-.079.028.079-.006-.007a.748.748,0,0,1-.026-.08c-.012-.043-.039-.159-.042-.175a2.054,2.054,0,0,1-.011-.482c-.013.148.011-.042.018-.075.013-.056.028-.112.044-.168a4.061,4.061,0,0,1,.159-.447c-.019.046.045-.1.056-.122.032-.069.065-.137.1-.2.087-.175.18-.347.277-.517a14.378,14.378,0,0,1,1.438-2.07,10.531,10.531,0,0,1,.769-.838c.115-.11.233-.217.357-.317-.084.067.035-.025.067-.047.053-.036.107-.069.164-.1.628-.345.067-1.307-.562-.961" transform="translate(-67.093 -53.637)"/>
        <path id="Trazado_823396" data-name="Trazado 823396" d="M105.094,132.894c-.129-.043.031.042-.073-.039.077.06-.055-.06-.056-.062.027.038-.1-.188-.1-.184a3.081,3.081,0,0,1-.179-.872c-.057-.61-.032-1.232-.137-1.837s-.633-1.156-.46-1.771.767-.905,1.1-1.41c.614-.924.173-2.026-.016-3.007a4.2,4.2,0,0,1-.105-1.274.837.837,0,0,1,.107-.322c.019-.026,0-.007.031-.025.105-.075-.107.023.023-.015.028-.008.21-.033.09-.025a1.819,1.819,0,0,1,1.547.865,6.025,6.025,0,0,1,.652,1.232c.091.23.173.464.246.7.031.1.06.2.088.3.011.038.082.365.082.25a.557.557,0,0,0,1.113,0,4.364,4.364,0,0,0-.38-1.347,8.417,8.417,0,0,0-.627-1.364,3.311,3.311,0,0,0-1.941-1.65,1.718,1.718,0,0,0-1.71.294,2.008,2.008,0,0,0-.443,1.508,9.71,9.71,0,0,0,.268,1.714c.052.232.107.463.151.7.008.041.014.082.022.122.028.143,0-.078,0,.014a1.545,1.545,0,0,1-.02.456c-.145.608-.876.929-1.159,1.485a2.3,2.3,0,0,0-.253,1.431,7.8,7.8,0,0,0,.418,1.059,12.5,12.5,0,0,1,.225,2.195c.1.8.342,1.676,1.194,1.958.682.225.974-.849.3-1.074" transform="translate(-45.632 -53.616)"/>
        <path id="Trazado_823397" data-name="Trazado 823397" d="M101.425,156.021c-1.923.591-1.41,2.884-1.976,4.373a16.822,16.822,0,0,0-1.1,2.732,4.239,4.239,0,0,0,.426,2.766,2.079,2.079,0,0,0,2.13,1.3c.7-.134.405-1.207-.3-1.074a.467.467,0,0,1-.268-.071,1.265,1.265,0,0,1-.35-.314,2.8,2.8,0,0,1-.51-1.078,4.063,4.063,0,0,1,.535-2.816,12.125,12.125,0,0,0,.6-1.4,8.077,8.077,0,0,0,.289-1.669c.07-.628.125-1.46.818-1.673s.391-1.285-.3-1.074" transform="translate(-43.567 -69.156)"/>
        <path id="Trazado_823398" data-name="Trazado 823398" d="M90.6,153.578a1.936,1.936,0,0,1,1.587,1.352,3.308,3.308,0,0,1,.13,1.217,8.431,8.431,0,0,1-.468,1.4,2.316,2.316,0,0,0,.194,1.516,5.847,5.847,0,0,1,.524,1.214,2,2,0,0,1-.009,1.038.8.8,0,0,1-.428.444,7.829,7.829,0,0,1-2.12.473c-.7.131-.405,1.2.3,1.074a9.12,9.12,0,0,0,2.276-.531,2.056,2.056,0,0,0,1.158-1.969,3.829,3.829,0,0,0-.385-1.625c-.2-.416-.537-.848-.431-1.338a4.919,4.919,0,0,1,.318-.793,2.746,2.746,0,0,0,.186-.85,4.233,4.233,0,0,0-.166-1.562A3.038,3.038,0,0,0,90.9,152.5c-.7-.127-1,.946-.3,1.074" transform="translate(-39.727 -67.604)"/>
        <path id="Trazado_823399" data-name="Trazado 823399" d="M33.891,63.917c-1.254-.824-2.538-1.6-3.8-2.41s-2.478-1.676-3.669-2.594A5.979,5.979,0,0,0,23.085,57.4a5.7,5.7,0,0,0-3.677,1.661,17.623,17.623,0,0,0-2.845,3.252c-.425.595-.832,1.2-1.239,1.81-.323.483-.539,1-.814,1.5a1.048,1.048,0,0,1-.995.676,5.324,5.324,0,0,1-1.609-.528,5.374,5.374,0,0,0-1.59-.481,4.909,4.909,0,0,0-1.937.238,10.255,10.255,0,0,0-3.417,2.126c-.5.433-.984.888-1.479,1.33a3.576,3.576,0,0,0-1.162,1.353c-.392,1.161,1.062,2.154,1.9,2.64a15.044,15.044,0,0,0,3.626,1.508,6.171,6.171,0,0,0,3.815-.093,6.417,6.417,0,0,0,1.724-1.027,9.6,9.6,0,0,0,1.072-1.119c.234-.262.59-.691.985-.613.363.072.459.65.546,1.016.3,1.283.651,2.546.9,3.843a14.217,14.217,0,0,0,.574,2.272c.249.675.591,1.312.9,1.958A5.454,5.454,0,0,1,19,84.469a20.537,20.537,0,0,0-.572,3.184,3.718,3.718,0,0,0,.743,2.983,5.011,5.011,0,0,0,3.013,1.029,18.261,18.261,0,0,0,2.851-.043c1.089-.067,2.182-.071,3.266-.211a2.744,2.744,0,0,0,2.5-1.479,5.267,5.267,0,0,0-.22-3.083,4.671,4.671,0,0,1-.2-1.451,18.05,18.05,0,0,1,.446-2.232c.364-1.647.775-3.284,1.122-4.935.266-1.265.441-2.543.68-3.813a8.055,8.055,0,0,1,1.132-3.389.785.785,0,0,1,.863-.343c.546.1,1.065.336,1.6.48a5.806,5.806,0,0,0,4.172-.131A8.471,8.471,0,0,0,42.7,69.2a14.489,14.489,0,0,0,2.073-2.695A4.669,4.669,0,0,0,45.557,64a1.968,1.968,0,0,0-.817-1.6,2.748,2.748,0,0,0-1.657-.37,13.44,13.44,0,0,0-4.5,1.268c-1.432.6-2.823,1.293-4.21,1.991-.209.105-.418.21-.628.313q-.123.06-.247.117c-.033.016-.068.03-.1.046-.052.026.15-.06.022-.009l.628.256c-.206-.3-.393-1.009-.81-1.086a.57.57,0,0,0-.628.256l-.009.018c-.305.644.654,1.21.961.562l.009-.018L32.942,66l.013,0-.245-.143c-.071-.085-.027-.032,0,.033a1.744,1.744,0,0,0,.094.195,4.035,4.035,0,0,0,.287.487.569.569,0,0,0,.629.256c.992-.392,1.929-.944,2.887-1.41a31.822,31.822,0,0,1,4.377-1.833c.351-.111.7-.21,1.063-.291a5.467,5.467,0,0,1,.87-.142c.136-.011.272-.016.409-.014.068,0,.135.006.2.009.178.008-.005-.011.106.011s.217.051.326.081c.147.041-.05-.039.055.022.051.03.1.058.154.089.1.058-.053-.077.037.032.03.036.065.067.1.1-.1-.115,0,.005.024.047.012.021.022.043.035.064.064.106-.011-.041,0,.005s.036.113.052.171.033.186.018.063a2.524,2.524,0,0,1,.01.463,3.224,3.224,0,0,1-.281.967,8.839,8.839,0,0,1-.748,1.3A14.029,14.029,0,0,1,41.31,69a4.608,4.608,0,0,1-2.515,1.379,9.347,9.347,0,0,1-3.572-.7,2.365,2.365,0,0,0-1.4-.046,2.322,2.322,0,0,0-1.192,1.1,10.528,10.528,0,0,0-1.073,3.386c-.23,1.225-.4,2.459-.652,3.681-.329,1.586-.721,3.158-1.077,4.738a10.011,10.011,0,0,0-.468,3.933,8.791,8.791,0,0,1,.466,2.82,1.024,1.024,0,0,1-.181.459.98.98,0,0,1-.173.174c-.055.042-.287.168-.235.145a4.317,4.317,0,0,1-1.24.261c-1.032.111-2.069.11-3.1.184a16.174,16.174,0,0,1-2.806.025c-.745-.076-1.921-.24-2.314-.917a4.644,4.644,0,0,1-.137-2.846,24.405,24.405,0,0,0,.6-3.319,7.882,7.882,0,0,0-1.064-3.6,12.393,12.393,0,0,1-.838-1.98c-.208-.713-.336-1.445-.474-2.174a19.4,19.4,0,0,0-.528-2.182c-.146-.469-.212-.957-.342-1.431a2.249,2.249,0,0,0-.776-1.327,1.626,1.626,0,0,0-1.578-.092,3.515,3.515,0,0,0-1.158,1,6.06,6.06,0,0,1-1.126,1.085,4.642,4.642,0,0,1-3.316.833,11.448,11.448,0,0,1-3.465-1.16,7.73,7.73,0,0,1-1.529-.9,3.019,3.019,0,0,1-.562-.575.768.768,0,0,1-.119-.235s-.022.017.006-.04a5.072,5.072,0,0,1,1.22-1.2c.46-.42.918-.843,1.4-1.242a7.561,7.561,0,0,1,3.228-1.777,3.013,3.013,0,0,1,1.569.066c.557.184,1.082.451,1.633.647a2.959,2.959,0,0,0,1.62.2,2.15,2.15,0,0,0,1.323-1c.282-.449.444-.96.732-1.406.372-.576.762-1.143,1.155-1.706a18.427,18.427,0,0,1,2.684-3.184,4.763,4.763,0,0,1,3.231-1.555,6.017,6.017,0,0,1,3.045,1.644c1.141.9,2.351,1.7,3.575,2.476,1.178.75,2.372,1.477,3.54,2.244.6.395,1.158-.569.562-.961" transform="translate(-1 -25.445)"/>
        <path id="Trazado_823400" data-name="Trazado 823400" d="M70.131,66.566a11.624,11.624,0,0,0-4.67,1.415c-.959.5-1.942.921-2.919,1.385a5.629,5.629,0,0,0-2.63,1.88c-.6,1.08.328,2.09,1.162,2.675a10.475,10.475,0,0,0,1.658.911,4.977,4.977,0,0,0,1.959.657.557.557,0,0,0,0-1.113,4.211,4.211,0,0,1-1.335-.476,13.126,13.126,0,0,1-1.312-.675,3.66,3.66,0,0,1-1.021-.819,1.75,1.75,0,0,1-.132-.211c.006.013-.058-.209-.048-.134a.673.673,0,0,1,.006-.184c0-.028.05-.136,0-.026a1.09,1.09,0,0,1,.073-.129.346.346,0,0,1,.085-.1c.073-.075.147-.146.227-.214a4.333,4.333,0,0,1,.506-.354,13.579,13.579,0,0,1,1.4-.744c.813-.384,1.653-.708,2.444-1.135a11.007,11.007,0,0,1,4.544-1.495c.711-.046.716-1.16,0-1.113" transform="translate(-26.477 -29.51)"/>
        <path id="Trazado_823401" data-name="Trazado 823401" d="M9.524,74.952a10.675,10.675,0,0,1,3.286.346,14.28,14.28,0,0,1,2.532.782,2.445,2.445,0,0,1,.893.564c-.08-.094.035.073.043.079-.026-.017-.026-.105-.014-.024a.735.735,0,0,1-.071.335,6.407,6.407,0,0,1-1.753,2.113,6.677,6.677,0,0,1-.922.731,7.39,7.39,0,0,1-.982.5c-.163.072-.329.138-.5.2-.1.037-.195.073-.293.109-.028.01-.3.1-.208.1a.557.557,0,0,0,0,1.113,3.3,3.3,0,0,0,1.087-.363,12,12,0,0,0,1.1-.5,6.785,6.785,0,0,0,1.16-.809,8.822,8.822,0,0,0,2.182-2.454,1.97,1.97,0,0,0,.279-1.347,1.7,1.7,0,0,0-.773-.952,9.343,9.343,0,0,0-2.916-1.12,12.679,12.679,0,0,0-4.131-.521c-.71.054-.716,1.168,0,1.113" transform="translate(-3.985 -32.724)"/>
        <path id="Trazado_823402" data-name="Trazado 823402" d="M29.657,62.939c-.52,1.422-1.4,3.283-.585,4.762.289.525.779.9,1.029,1.451a5.279,5.279,0,0,1,.13,2,6.185,6.185,0,0,0,.776,2.464c.389.761.806,1.509,1.2,2.265a6.7,6.7,0,0,1,1.111,4.278,7.138,7.138,0,0,1-1.072,2.5c-.259.414-.532.82-.791,1.234-.2.326-.62.824-.62,1.222a.557.557,0,0,0,1.113,0V85.1c-.025.094-.051.187-.076.281.788-1.5,1.952-2.8,2.409-4.457a6.485,6.485,0,0,0-.595-4.588c-.344-.73-.734-1.438-1.112-2.15a13.17,13.17,0,0,1-1.087-2.259,8.535,8.535,0,0,1-.114-2.14,3.559,3.559,0,0,0-.882-2.053,3.432,3.432,0,0,1-.481-.632,2.017,2.017,0,0,1-.131-1.021,10.773,10.773,0,0,1,.846-2.85c.246-.674-.829-.965-1.074-.3" transform="translate(-12.742 -27.735)"/>
        <path id="Trazado_823403" data-name="Trazado 823403" d="M48.448,65.348c-.269,1.6-.9,3.117-1.2,4.713a17.831,17.831,0,0,0-.19,2.392,12.862,12.862,0,0,1-.4,2.442c-.679,2.705-2.145,5.649-.62,8.353a4.427,4.427,0,0,0,1.568,1.583,4.586,4.586,0,0,1,.764.531,1.959,1.959,0,0,1,.3.353,2.513,2.513,0,0,1,.139.244c.016.032.1.283.1.162a.557.557,0,0,0,1.113,0,2.006,2.006,0,0,0-.362-.921,3.092,3.092,0,0,0-.674-.777c-.446-.365-1-.595-1.413-.993a4.315,4.315,0,0,1-1.07-3.524,23.681,23.681,0,0,1,1.1-4.234,17.325,17.325,0,0,0,.49-2.4c.1-.8.046-1.6.142-2.389.217-1.79.982-3.463,1.28-5.238a.574.574,0,0,0-.389-.685.561.561,0,0,0-.685.389" transform="translate(-20.116 -28.79)"/>
        <path id="Trazado_823404" data-name="Trazado 823404" d="M41.431,102.909c-1.142-.029-2.28-.16-3.424-.136a5.331,5.331,0,0,0-3.4.958,1.539,1.539,0,0,0-.571,1.368,7.272,7.272,0,0,1,.065,1.575c-.112.93-.347,1.808.348,2.582,1.056,1.173,3.071,1.362,4.542,1.406,1.368.041,3.447-.084,4.143-1.509a2.2,2.2,0,0,0,.164-1.342,3.36,3.36,0,0,0-.257-.818c-.116-.265-.3-.5-.4-.772-.2-.509.073-1.133.052-1.668a1.7,1.7,0,0,0-1.118-1.624.56.56,0,0,0-.685.389.57.57,0,0,0,.389.685c.371.15.316.649.285.97a3.53,3.53,0,0,0,.005,1.545c.149.431.441.79.573,1.228.024.081.045.163.062.245a.4.4,0,0,1,.021.165c0,.07,0,.14,0,.21,0,.024-.015.11,0,0a.918.918,0,0,1-.025.117c-.007.025-.061.185-.039.132s-.053.094-.065.116-.033.051-.05.075c-.047.067.057-.067,0-.005s-.1.1-.146.149c-.023.021-.048.042-.072.061.081-.064.014-.012,0,0-.055.037-.111.072-.168.1s-.137.073-.207.105.071-.028-.014.006c-.042.017-.085.033-.128.048a5.648,5.648,0,0,1-1.989.279,10.788,10.788,0,0,1-2.009-.181,8.219,8.219,0,0,1-.873-.208c-.11-.033-.218-.072-.326-.111-.146-.051.04.023-.037-.016-.117-.06-.235-.118-.35-.185a1.23,1.23,0,0,1-.659-.738c-.016-.076-.012-.012-.011-.141,0-.081,0-.161.008-.242.009-.144.037-.288.067-.474a6.277,6.277,0,0,0,.107-1.4c-.016-.23-.056-.458-.082-.687a1.891,1.891,0,0,1-.019-.275.52.52,0,0,1,.011-.109,1.833,1.833,0,0,1,1.159-.7,7.022,7.022,0,0,1,1.693-.2c1.145-.024,2.282.107,3.424.136a.557.557,0,0,0,0-1.113" transform="translate(-15.062 -45.561)"/>
        <path id="Trazado_823405" data-name="Trazado 823405" d="M45.194,105.95a3.829,3.829,0,0,0-1.178,1.19,1.935,1.935,0,0,0-.249,1.7.615.615,0,0,0,.257.332.557.557,0,0,0,.817-.628,1.191,1.191,0,0,1-.05-.144.5.5,0,0,0-.019-.087c.014.027.011.141.007.045,0-.05,0-.1,0-.148,0-.025.007-.05.007-.074,0,.15-.012.084,0,.029a1.314,1.314,0,0,1,.039-.148c.008-.025.016-.05.025-.074.031-.085.007,0-.015.031.062-.091.1-.2.161-.3.028-.046.06-.091.092-.136.05-.069.012-.015-.018.019.018-.02.034-.042.052-.064.073-.089.151-.173.233-.254s.153-.144.234-.21c.033-.026.118-.076-.017.013.019-.013.039-.03.058-.043.042-.031.085-.059.127-.086a.557.557,0,0,0-.562-.962" transform="translate(-19.356 -46.936)"/>
        <path id="Trazado_823406" data-name="Trazado 823406" d="M35.971,106.9a2.465,2.465,0,0,1,.244.244c-.114-.119-.048-.064-.022-.027l.054.079c.033.05.063.1.093.154a7.145,7.145,0,0,1,.307.646,2.279,2.279,0,0,0,.859,1.166.557.557,0,1,0,.562-.961c-.021-.012-.041-.025-.061-.037-.087-.053.086.077.046.036s-.068-.063-.1-.1-.072-.1.031.043l-.041-.056c-.027-.04-.052-.08-.077-.122a5.935,5.935,0,0,1-.292-.609,3.128,3.128,0,0,0-.817-1.245.6.6,0,0,0-.394-.163.557.557,0,0,0-.394.95" transform="translate(-15.875 -46.971)"/>
        <path id="Trazado_823407" data-name="Trazado 823407" d="M71.314,61.621A5.959,5.959,0,0,1,73.539,64.4c.361,1.427.306,2.933.623,4.371A9.384,9.384,0,0,0,76.074,72.6a33.8,33.8,0,0,1,2.456,3.083,11.959,11.959,0,0,1,1.27,4.162,10.569,10.569,0,0,0,1.135,3.11c.513.941,1.067,1.866,1.492,2.852a4.3,4.3,0,0,1,.469,2.561,1.459,1.459,0,0,1-.667.94,3.066,3.066,0,0,0-.962.528,1.966,1.966,0,0,0-.227,1.7,6.771,6.771,0,0,0,.688,1.632,2.92,2.92,0,0,1,.447,1.5,3.417,3.417,0,0,1-.776,1.6,4.161,4.161,0,0,0-.756,1.743,6.761,6.761,0,0,1-.264,1.912,1.78,1.78,0,0,1-1.225.973,1.483,1.483,0,0,1-1.04-.428,10.311,10.311,0,0,1-1.8-2.395,9.96,9.96,0,0,0-2.466-2.752,4.333,4.333,0,0,0-1.611-.74,4.288,4.288,0,0,0-1.867.073c-.255.058-.509.122-.766.173a.811.811,0,0,1-.2.028c-.048,0-.1,0-.143,0-.116,0,.048.018-.078-.008a7.252,7.252,0,0,1-1.406-.684,3.4,3.4,0,0,0-3.663.464,16.307,16.307,0,0,0-1.78,2.869,6.435,6.435,0,0,1-2.646,2.35A2.175,2.175,0,0,1,58.3,100a.557.557,0,0,0-.3,1.073,4.048,4.048,0,0,0,3.45-1.009A8.868,8.868,0,0,0,63.8,97.2c.463-.88.9-2.069,2.025-2.215a3.053,3.053,0,0,1,2,.477,3.152,3.152,0,0,0,1.433.514,5.926,5.926,0,0,0,1.457-.255,2.813,2.813,0,0,1,1.707.082,6.244,6.244,0,0,1,2.607,2.366,25.746,25.746,0,0,0,1.874,2.677,2.7,2.7,0,0,0,2.846,1.045,3.1,3.1,0,0,0,1.539-1.308,4.465,4.465,0,0,0,.409-2,3.331,3.331,0,0,1,.662-1.747,4.716,4.716,0,0,0,.882-1.775c.238-1.319-.6-2.255-1.013-3.418a2.408,2.408,0,0,1-.156-.8,1.016,1.016,0,0,1,.024-.257c0-.014.006-.016.014-.02s.118-.065.032-.023c.033-.016.071-.027.1-.04.121-.046.242-.091.361-.144a2.2,2.2,0,0,0,.637-.426c1.661-1.592.451-4.183-.421-5.842-.475-.9-1.027-1.774-1.445-2.707a27.97,27.97,0,0,1-.966-4.088,9.762,9.762,0,0,0-2.094-3.749,18.513,18.513,0,0,1-2.445-3.234,12.037,12.037,0,0,1-.978-4.319,9.484,9.484,0,0,0-.4-2.246,5,5,0,0,0-1.025-1.64A16.871,16.871,0,0,0,72.1,60.834c-.536-.472-1.327.313-.787.787" transform="translate(-25.537 -26.905)"/>
        <path id="Trazado_823408" data-name="Trazado 823408" d="M66.727,136.985a19.676,19.676,0,0,0,4.3,6.146c.512.5,1.3-.284.787-.787a19.422,19.422,0,0,1-2.34-2.695,18.968,18.968,0,0,1-1.785-3.226.56.56,0,0,0-.762-.2.57.57,0,0,0-.2.762" transform="translate(-29.553 -60.359)"/>
        <path id="Trazado_823409" data-name="Trazado 823409" d="M187.606,122.306c.3,1.207.494,2.439.824,3.638a13.024,13.024,0,0,0,1.481,3.351c.606.989,1.284,1.936,1.824,2.964a14.726,14.726,0,0,1,1.222,3.306,16.555,16.555,0,0,1,.435,3.9.557.557,0,0,0,1.113,0,17.643,17.643,0,0,0-1.421-6.948c-.949-2.217-2.68-4.005-3.42-6.323-.436-1.367-.64-2.792-.985-4.181a.557.557,0,0,0-1.074.3" transform="translate(-83.162 -53.914)"/>
        <path id="Trazado_823410" data-name="Trazado 823410" d="M168.122,158.756c-.579,4.46-.785,8.967-1.574,13.4a.572.572,0,0,0,.389.685.561.561,0,0,0,.685-.389c.806-4.531,1.021-9.137,1.614-13.7a.56.56,0,0,0-.557-.557.571.571,0,0,0-.557.557" transform="translate(-73.83 -70.134)"/>
      </g>
    </g>
  </g>
</svg>
