<svg xmlns="http://www.w3.org/2000/svg" xmlns:xlink="http://www.w3.org/1999/xlink" width="204" height="191" viewBox="0 0 204 191">
  <defs>
    <clipPath id="clip-path">
      <circle id="Elipse_6033" data-name="Elipse 6033" cx="95" cy="95" r="95" transform="translate(705 2517)" fill="#fff" stroke="#707070" stroke-width="1"/>
    </clipPath>
    <clipPath id="clip-path-2">
      <rect id="Rect치ngulo_379433" data-name="Rect치ngulo 379433" width="156.928" height="212.24" fill="none"/>
    </clipPath>
  </defs>
  <g id="Grupo_1077194" data-name="Grupo 1077194" transform="translate(-691 -2603)">
    <g id="Grupo_1077124" data-name="Grupo 1077124" transform="translate(0 91)">
      <g id="Grupo_161157" data-name="Grupo 161157" transform="translate(705 2514)">
        <circle id="Elipse_1146" data-name="Elipse 1146" cx="94.5" cy="94.5" r="94.5" fill="#e8e8e8"/>
      </g>
      <rect id="Rect치ngulo_379369" data-name="Rect치ngulo 379369" width="16" height="5" transform="translate(691 2606)" fill="#e8e8e8"/>
    </g>
    <g id="Enmascarar_grupo_144" data-name="Enmascarar grupo 144" transform="translate(0 86)" clip-path="url(#clip-path)">
      <g id="Grupo_1077137" data-name="Grupo 1077137" transform="translate(714.036 2537.76)">
        <g id="Grupo_1077136" data-name="Grupo 1077136" clip-path="url(#clip-path-2)">
          <path id="Trazado_823536" data-name="Trazado 823536" d="M167.332,70.06A69.06,69.06,0,1,1,98.272,1a69.06,69.06,0,0,1,69.06,69.06" transform="translate(-11.027 -0.377)" fill="#76daff"/>
          <path id="Trazado_823537" data-name="Trazado 823537" d="M97.894,139.365a69.683,69.683,0,1,1,69.683-69.683,69.762,69.762,0,0,1-69.683,69.683m0-138.12a68.438,68.438,0,1,0,68.438,68.438A68.516,68.516,0,0,0,97.894,1.245" transform="translate(-10.649)" fill="#020202"/>
          <path id="Trazado_823538" data-name="Trazado 823538" d="M22.617,208.461l-3.109.616-3.865-2.717-2.521-3.109-.756-.756,1.429-3.95-.084-4.874-3.278-7.563L8.489,179.2l-.83-4.267L9,165.94,6.359,154.853,3.793,142.746,2.7,132.158,3.709,121.4,2.7,113.8.348,102.332l.535-6.519,3.75-8.025L11.02,83.67l4.118-1.512,6.792-4.123,4.8-1.175,9.243,1.685,9.328.084,10.673.42,6.909-1.281L73.878,72.83l-6.723-2.857-6.386-4.118-1.817-3.116L62.7,58.291l4.118-1.848,4.454-.748,4.874,1,6.217,1.344L86.4,50.644l4.2-6.723L95.811,40.9l5.126.169,5.294,2.689,4.2,6.723,3.865,6.471,2.017,1.176,3.06-3.51,3.495-1.2,6.135.756,1.932.756.852,4.538-2.7,5.463-4.706,3.445-4.369.84-2.605-.084,2.209,8.635.648,7.415,5.546,13.11,2.127,12.269v7.059l-.614,4.79-2.274,10.084-1.305,7.828-1.127,17.131L120.6,167.789l-2.353,15.378-.971,14.323,1.811,13.577,2.521,6.555,1.26,4.033-.5,2.269-5.785,1.211-2.282-1.127-1.344-3.529-2.689-1.261.084-3.194.756-2.185-2.438-4.762L108,205.6l.84-7.479-1.093-12.1-2.185-15.335-4.285-.38-11.682-3.56v4.232l-.42,11.681-3.949,13.025-.672,4.2,2.437,13.445,1.092,6.135,2.06,3.865-1.388,3.109-2.6.9-4.034-1.068L79.088,221.4l-1.008-10-.84-10.336-2.857-9.832-2.613-8.4-.161-4.958.5-12.858-7.9,2.437-9.58,1.513H49.76l-14.452-6.194-4.455-1.864-6.639,19.4-2.061,15.462,1.725,7.564.756,3.109Z" transform="translate(-0.131 -15.437)" fill="#fff"/>
          <path id="Trazado_823539" data-name="Trazado 823539" d="M136.72,131.863l-3.77-.756-2.427,5.233.242,4.851,4.539,4.327,6.721.625,4.962-2.4,3.441-.951,2.857-.155-.322-4.168-3.88-6.937-3.357-2.395Z" transform="translate(-49.27 -48.745)" fill="#ff88b7"/>
          <path id="Trazado_823540" data-name="Trazado 823540" d="M78.664,87.6c-6.651,1.4-12.294,5.633-18.923,7.085-3.57.782-7.259.514-10.873.266-1.765-.121-3.533-.243-5.3-.253-1.535-.009-3.062.148-4.6.063-2.835-.157-5.631-.724-8.444-1.078a20.222,20.222,0,0,0-8.016.169c-2.737.78-4.641,2.938-7.166,4.113-1.426.664-3.019.962-4.492,1.513a15.526,15.526,0,0,0-4.15,2.293C1.552,105.779-.093,112.65,0,118.9a53.709,53.709,0,0,0,1.546,10.187c.333,1.581.654,3.171.836,4.778a33.445,33.445,0,0,1,.1,5.256c-.315,7.15-.532,14.269.654,21.359,1.193,7.131,3.289,14.051,4.705,21.132.647,3.239-.313,6.456-.551,9.682-.242,3.279.684,6.292,1.794,9.332.981,2.684,1.9,5.4,2.848,8.093a28.69,28.69,0,0,1,1.116,3.824,6.631,6.631,0,0,1-.4,3.824,12.254,12.254,0,0,0-1.1,4.261,1,1,0,0,0,.725.952c1.777.291,2.52,1.617,3.544,2.933a6.464,6.464,0,0,0,4.942,2.518,4.279,4.279,0,0,0,4.261-1.939c.863-1.605.517-3.5.049-5.163-1.432-5.087-3.411-9.926-4.2-15.216-.425-2.834-.717-5.742-.89-8.6a38.71,38.71,0,0,1,.534-8.5,43.872,43.872,0,0,0,.573-4.735c.072-1.472,0-2.95.061-4.424a30.346,30.346,0,0,1,.392-3.893c.265-1.553.717-3.067.967-4.62a1.02,1.02,0,0,0-.69-1.215.994.994,0,0,0-1.215.69c-.4,2.477-1.106,4.861-1.325,7.374-.219,2.5-.015,5.008-.275,7.5-.291,2.786-.945,5.523-1.049,8.331a55.613,55.613,0,0,0,.5,8.195,64.279,64.279,0,0,0,1.219,8.012c.572,2.374,1.35,4.721,2.064,6.952.4,1.266.809,2.532,1.183,3.807a12.438,12.438,0,0,1,.659,2.924c.054,1.277-.339,2.279-1.645,2.517a5.59,5.59,0,0,1-2.906-.339,4.468,4.468,0,0,1-1.793-1.558c-1.206-1.6-2.31-3.106-4.429-3.453l.725.952c0-1.541.783-2.924,1.254-4.355a7.849,7.849,0,0,0,.247-3.906,46.5,46.5,0,0,0-2.461-7.692c-.479-1.337-.886-2.7-1.37-4.032-.51-1.408-1.048-2.808-1.436-4.256a14.888,14.888,0,0,1-.511-4.7c.093-1.65.389-3.276.6-4.912a17.841,17.841,0,0,0,.072-4.665,53.639,53.639,0,0,0-1.144-5.278c-.822-3.459-1.688-6.907-2.453-10.379A88.712,88.712,0,0,1,4.483,155.7a86.149,86.149,0,0,1-.261-10.322,101.042,101.042,0,0,0,.234-10.534,88.107,88.107,0,0,0-1.75-9.868c-1.2-6.172-1.22-13.357,2.474-18.752a13.6,13.6,0,0,1,7.145-5.173,28.878,28.878,0,0,0,4.4-1.572,34.125,34.125,0,0,0,3.4-2.257A9.964,9.964,0,0,1,23.634,95.6a14.783,14.783,0,0,1,3.8-.23c2.835.126,5.631.672,8.439,1.045a33.772,33.772,0,0,0,4.04.346c1.572.019,3.138-.122,4.714-.078,3.621.1,7.231.585,10.859.466a28.2,28.2,0,0,0,9.674-2.133c3.09-1.241,6.047-2.789,9.146-4.007A30.564,30.564,0,0,1,79.189,89.5c1.243-.261.717-2.165-.525-1.9" transform="translate(0 -33.056)"/>
          <path id="Trazado_823541" data-name="Trazado 823541" d="M76.356,217.383c-5.481,1.33-10.88,3.548-16.578,3.726a21.159,21.159,0,0,1-7.563-1.189,61.055,61.055,0,0,1-6.785-3.019c-2.377-1.155-4.812-2.171-7.217-3.264a29.129,29.129,0,0,1-5.995-3.442,39.312,39.312,0,0,1-5.79-5.965,64.685,64.685,0,0,1-4.416-5.992,97.1,97.1,0,0,1-7.864-15.305.993.993,0,0,0-1.351-.354,1.014,1.014,0,0,0-.354,1.351,101,101,0,0,0,7.063,14.048,69.379,69.379,0,0,0,4.42,6.283,50.279,50.279,0,0,0,5.725,6.344c3.879,3.487,8.736,5.141,13.377,7.328,4.689,2.21,9.239,4.719,14.515,5.107,6.651.489,12.995-2.212,19.337-3.751,1.234-.3.712-2.2-.525-1.9" transform="translate(-4.654 -68.871)"/>
          <path id="Trazado_823542" data-name="Trazado 823542" d="M43.5,231.556c-4.816,8.972-7.381,18.908-8.542,28.98a71.5,71.5,0,0,0-.647,8.1.988.988,0,0,0,1.975,0,67.843,67.843,0,0,1,.53-7.031q.376-3.581,1.008-7.127a80.3,80.3,0,0,1,3.882-14.259,64.817,64.817,0,0,1,3.5-7.668c.6-1.119-1.1-2.118-1.705-1" transform="translate(-12.952 -87.222)"/>
          <path id="Trazado_823543" data-name="Trazado 823543" d="M100.659,178.393a46.425,46.425,0,0,0,.816,19.646,43.11,43.11,0,0,0,3.879,9.168c1.6,2.989,3.035,5.987,3.367,9.41.329,3.4-.113,6.8-.19,10.2a39.042,39.042,0,0,0,1.273,10.091c1.563,6.478,3.975,12.767,4.864,19.4.4,3,.466,6.031.741,9.04a28.488,28.488,0,0,0,1.666,8.563,9.154,9.154,0,0,0,5.219,5.149c2.306.751,5.526-.234,6.226-2.773.628-2.274-.7-4.716-1.509-6.77a43.048,43.048,0,0,1-1.863-8.427,92.839,92.839,0,0,1-1.3-9.8,23.257,23.257,0,0,1,1.542-9.046,45.972,45.972,0,0,0,2.443-9.183,86.6,86.6,0,0,0,.209-10.65,47.191,47.191,0,0,1,.211-5.138c.19-1.8.582-3.566.713-5.376.248-3.415-.043-6.832-.129-10.246a49.842,49.842,0,0,1,.106-5.148c.1-1.267-1.876-1.261-1.975,0a91.992,91.992,0,0,0,.082,10.14c.054,1.674.067,3.35-.043,5.022-.114,1.735-.468,3.424-.677,5.146-.809,6.667.6,13.457-1.245,20.014-.814,2.9-2.012,5.683-2.7,8.62a19.963,19.963,0,0,0-.566,4.571,40.431,40.431,0,0,0,.38,4.7c.393,3.266.962,6.508,1.556,9.742a38.139,38.139,0,0,0,.8,4.045c.331,1.1.807,2.159,1.229,3.23.633,1.6,1.762,4.1-.176,5.172-2.182,1.209-4.449-.326-5.755-2.094-1.516-2.053-1.913-4.739-2.229-7.211-.369-2.893-.491-5.809-.721-8.715-.511-6.459-2.479-12.568-4.216-18.77a56.092,56.092,0,0,1-2.066-9.508,76.6,76.6,0,0,1,.172-9.906,23.923,23.923,0,0,0-1.477-9.841c-1.213-2.994-2.969-5.717-4.3-8.652-2.619-5.756-3.356-12.459-2.969-18.718a44.355,44.355,0,0,1,.52-4.571,1.017,1.017,0,0,0-.69-1.215,1,1,0,0,0-1.215.69" transform="translate(-37.741 -67.067)"/>
          <path id="Trazado_823544" data-name="Trazado 823544" d="M143.391,235.181c2.685.837,5.3,1.879,8,2.684a21.775,21.775,0,0,0,8.478,1.222c5.213-.588,8.253-5.1,10.616-9.313a50.228,50.228,0,0,1,4.033-6.743,1.019,1.019,0,0,0,0-1.4.993.993,0,0,0-1.4,0c-2.9,3.667-4.408,8.245-7.4,11.843a9.667,9.667,0,0,1-5.207,3.517c-2.572.577-5.386-.123-7.862-.822-2.954-.834-5.8-1.984-8.73-2.9-1.216-.379-1.736,1.526-.525,1.9" transform="translate(-53.867 -83.554)"/>
          <path id="Trazado_823545" data-name="Trazado 823545" d="M182.668,107.2a41.961,41.961,0,0,0,3.1,8.673,57.229,57.229,0,0,1,3.228,9.413,55.484,55.484,0,0,1,.654,22.692c-.705,3.74-1.707,7.415-2.482,11.141a93.441,93.441,0,0,0-1.571,11.827c-.31,3.984-.509,7.978-.956,11.949-.408,3.621-1.2,7.152-1.907,10.722a148.591,148.591,0,0,0-2.808,20.993,68.847,68.847,0,0,0,1.7,20.791,28.128,28.128,0,0,0,1.3,4.041c.459,1.071.98,2.113,1.434,3.187a9.665,9.665,0,0,1,.976,3.334,1.738,1.738,0,0,1-.03.472c-.059.245-.057.218-.119.27a3.647,3.647,0,0,1-.91.481,11.156,11.156,0,0,1-3.353.567,8.1,8.1,0,0,1-1.335-.049c-.451-.064-.74-.083-.995-.41a3.509,3.509,0,0,1-.334-1.629,3.145,3.145,0,0,0-.828-1.85,3.791,3.791,0,0,0-1.712-.811,4.606,4.606,0,0,1-.769-.217c-.035-.017-.184-.109-.126-.051.145.147-.068-.341-.073-.375a5.412,5.412,0,0,1,.327-2.169,6.733,6.733,0,0,0,.283-2.356,11.915,11.915,0,0,0-1.786-4.21c-1.7-3.212-.537-6.721-.354-10.135a65.157,65.157,0,0,0-.67-11.759c-.511-3.959-1.211-7.889-1.9-11.82-.327-1.856-.649-3.713-.947-5.575a1,1,0,0,0-1.215-.69,1.011,1.011,0,0,0-.69,1.215c1.281,8.013,3.082,15.986,3.43,24.117a38.777,38.777,0,0,1-.087,5.78,34.142,34.142,0,0,0-.456,5.645,10.747,10.747,0,0,0,1.49,4.774c.769,1.378,1.469,2.559,1.076,4.177-.345,1.426-1.009,3.416.105,4.693a2.95,2.95,0,0,0,1.518.775c.444.121,1.061.156,1.3.6a6.35,6.35,0,0,1,.292,1.8,2.9,2.9,0,0,0,1.271,1.93,5.483,5.483,0,0,0,2.869.584,13.852,13.852,0,0,0,3.7-.489,4.3,4.3,0,0,0,2.593-1.545,4.194,4.194,0,0,0,.2-3.148,21.476,21.476,0,0,0-1.447-3.836,31.364,31.364,0,0,1-1.286-2.978,46.145,46.145,0,0,1-1.319-4.886,60.6,60.6,0,0,1-1.236-10.562,111.061,111.061,0,0,1,1.676-21.855c.562-3.418,1.225-6.819,1.947-10.207a91.122,91.122,0,0,0,1.6-11.943c.316-4.068.516-8.148.986-12.2a104.387,104.387,0,0,1,2.285-11.9,73.24,73.24,0,0,0,2.049-11.706,61.385,61.385,0,0,0-.39-11.57,50.973,50.973,0,0,0-2.638-11.463c-.45-1.22-1.107-2.79-1.692-4.162-.634-1.483-1.271-2.966-1.84-4.475a24.262,24.262,0,0,1-1.232-4.127c-.23-1.248-2.133-.72-1.9.525" transform="translate(-63.334 -39.997)"/>
          <path id="Trazado_823546" data-name="Trazado 823546" d="M130.55,56.856a43.71,43.71,0,0,0,4.295-7.819c1.142-2.409,2.338-4.919,4.339-6.7,2.189-1.946,5.209-2.323,8.1-1.955a8.959,8.959,0,0,1,4.67,1.991,16.242,16.242,0,0,1,3.248,3.967c2.391,3.86,4.117,8.42,8.009,11.067a1,1,0,0,0,1.351-.354c1.322-2.217,3.093-4.211,5.705-4.277,2.671-.068,5.37,1.006,7.951,1.631l-.69-.69a8.563,8.563,0,0,1,.217,5.594,10.033,10.033,0,0,1-2.842,4.328,11.135,11.135,0,0,1-9.639,2.885,1,1,0,0,0-1.215,1.215,47.109,47.109,0,0,1,2.175,10.674,36.266,36.266,0,0,1-.31,11.2,10.251,10.251,0,0,1-2.069,4.6,15.939,15.939,0,0,1-3.763,2.9c-.79.494-1.6.974-2.344,1.534a12.174,12.174,0,0,0-2.336,2.407c-1.166,1.526-2.069,3.307-3.551,4.565a4.646,4.646,0,0,1-2.516,1.119,13.426,13.426,0,0,0-3.328.468c-1.887.707-3.372,2.15-5.367,2.6-3,.679-6.8.738-9.213-1.482a6.907,6.907,0,0,1-2.22-5.091,12.465,12.465,0,0,1,1.668-4.839,15.68,15.68,0,0,0,1.645-6.126,40.043,40.043,0,0,0-.71-7.617c-.35-2.346-.621-4.7-1.163-7.015a11.738,11.738,0,0,0-1.189-3.252c-.52-.9-1.189-1.709-1.714-2.609a9.156,9.156,0,0,1-.886-4.921,10.756,10.756,0,0,1,.956-4.583,2.814,2.814,0,0,1,1.1-1.241c1.115-.61.12-2.316-1-1.705a6.017,6.017,0,0,0-2.56,3.951,16.879,16.879,0,0,0-.436,5.427,10.6,10.6,0,0,0,.48,2.7,12.479,12.479,0,0,0,1.65,2.887,9.6,9.6,0,0,1,1.482,3.032c.321,1.2.558,2.425.761,3.652.42,2.545.816,5.121,1.1,7.686a15.335,15.335,0,0,1-.586,7.271c-.687,1.771-1.726,3.406-2.249,5.242a8.4,8.4,0,0,0,.738,6.243c1.813,3.519,5.662,4.887,9.432,4.747a13.325,13.325,0,0,0,5.754-1.333c.913-.485,1.751-1.1,2.681-1.556a8.838,8.838,0,0,1,3.172-.567,7.75,7.75,0,0,0,5.412-3.334c1.3-1.7,2.308-3.709,4.022-5.05,1.426-1.116,3.09-1.906,4.543-2.99a10.877,10.877,0,0,0,3.424-3.993c1.695-3.549,1.825-7.793,1.684-11.652a55.692,55.692,0,0,0-1.737-12.043c-.215-.82-.456-1.633-.731-2.435l-1.215,1.215c6.281,1.366,13.5-2.8,15.064-9.145a10.3,10.3,0,0,0-.041-5.059,3.94,3.94,0,0,0-.507-1.368,1.965,1.965,0,0,0-1.192-.521c-.669-.168-1.335-.347-2-.523-2.226-.59-4.561-1.259-6.881-.91-2.913.439-4.893,2.753-6.324,5.154l1.351-.354c-3.474-2.362-5.059-6.685-7.173-10.149-1.947-3.192-4.534-6.091-8.338-6.921-3.246-.709-6.992-.5-9.8,1.434a16.805,16.805,0,0,0-5.136,6.675c-1.536,3.1-2.824,6.34-4.922,9.118a.993.993,0,0,0,.354,1.351,1.012,1.012,0,0,0,1.351-.354" transform="translate(-47.138 -14.442)"/>
          <path id="Trazado_823547" data-name="Trazado 823547" d="M117.834,64.357c-4.375-.313-8.508-2.6-12.952-2.252a13.231,13.231,0,0,0-4.661,1.391,20.391,20.391,0,0,0-4.266,2.681,6.5,6.5,0,0,0-2.447,3.446A4.233,4.233,0,0,0,95,73.375c2.171,2.2,5.13,3.629,7.852,5.018a23.253,23.253,0,0,0,5.062,2.247,12.656,12.656,0,0,0,6.574-.608.988.988,0,0,0-.525-1.9,11.207,11.207,0,0,1-5.117.694,15.611,15.611,0,0,1-4.254-1.755,44.024,44.024,0,0,1-7.115-4.134,10.076,10.076,0,0,1-1.422-1.323,2.575,2.575,0,0,1-.624-1.088,1.7,1.7,0,0,1,.327-1.248,6.447,6.447,0,0,1,1.243-1.4,17.142,17.142,0,0,1,3.726-2.431,12.042,12.042,0,0,1,3.785-1.324,17.025,17.025,0,0,1,6.439.813,38.044,38.044,0,0,0,6.879,1.4c1.268.091,1.262-1.884,0-1.975" transform="translate(-35.275 -23.43)"/>
          <path id="Trazado_823548" data-name="Trazado 823548" d="M198.787,71.063c-3.933,1.652-8.563,1.8-12.1-.839q.177.675.354,1.351c2.252-5.031,7.043-10.689,13.192-8.906a.988.988,0,0,0,.525-1.9c-7.028-2.038-12.788,3.926-15.422,9.814a1.028,1.028,0,0,0,.354,1.351c3.91,2.914,9.268,2.869,13.626,1.038a1.02,1.02,0,0,0,.69-1.215.993.993,0,0,0-1.215-.69" transform="translate(-69.914 -22.784)"/>
          <path id="Trazado_823549" data-name="Trazado 823549" d="M95.111,72.748c2.377-2.1,5.225-3.649,8.473-3.514,3.109.129,6.01,1.617,8.637,3.165a.988.988,0,0,0,1-1.705c-2.984-1.758-6.274-3.35-9.8-3.44-3.713-.095-6.986,1.7-9.7,4.1-.954.844.447,2.236,1.4,1.4" transform="translate(-35.255 -25.386)"/>
          <path id="Trazado_823550" data-name="Trazado 823550" d="M130.48,73.465a2.829,2.829,0,0,1,2.892.177,6.792,6.792,0,0,1,1.968,3.073,29.627,29.627,0,0,1,1.223,4.429,10.242,10.242,0,0,0,1.769,3.809c.822,1.173,1.754,2.267,2.559,3.452.151.222.3.448.43.682a2.262,2.262,0,0,1,.252.544c.031.092.137.274.031.091.059.1-.059.2.012,0-.042.118.092-.136-.036.053-.024.035-.047.073-.071.108-.164.24.06-.07-.058.074a36.033,36.033,0,0,1-2.792,2.705A7.487,7.487,0,0,0,137.5,94a7.365,7.365,0,0,0-.868,2.642c-.331,1.963-.406,4.04-1.621,5.712a8.159,8.159,0,0,1-1.419,1.429c-.524.437-1.536.966-1.536,1.727a.988.988,0,0,0,1.975,0V105.5l-.289.7a16.123,16.123,0,0,0,2.975-2.848,11.874,11.874,0,0,0,1.711-5.46,7.831,7.831,0,0,1,.731-2.82,2.273,2.273,0,0,1,.393-.5c.226-.246.465-.48.707-.712a21.44,21.44,0,0,0,2.93-2.946c.7-.994.293-2.085-.281-3.032-.771-1.272-1.768-2.4-2.637-3.606a16.065,16.065,0,0,1-1.24-1.945,7.049,7.049,0,0,1-.6-1.879,27.537,27.537,0,0,0-1.332-4.632,8.21,8.21,0,0,0-2.825-3.951,4.948,4.948,0,0,0-4.793-.116.993.993,0,0,0-.354,1.351,1.014,1.014,0,0,0,1.351.354" transform="translate(-48.696 -26.876)"/>
          <path id="Trazado_823551" data-name="Trazado 823551" d="M169.966,56.923c-7.3.872-9.08,9.609-10.532,15.489-.38,1.541-.753,3.087-1.239,4.6a26.494,26.494,0,0,1-2.5,5.2c-1.015,1.755-1.845,3.517-1.475,5.592a12.885,12.885,0,0,0,1.454,3.563,31.692,31.692,0,0,1,1.607,3.836c.521,1.459,1,2.935,1.565,4.376a13.884,13.884,0,0,0,2.024,3.842,18.938,18.938,0,0,0,2.887,2.6,13.369,13.369,0,0,1,2.813,2.923c.708,1.047,2.42.06,1.705-1a13.422,13.422,0,0,0-2.351-2.687c-.827-.713-1.716-1.352-2.53-2.08a7.983,7.983,0,0,1-1.958-2.549,35.39,35.39,0,0,1-1.447-3.645c-.454-1.3-.888-2.605-1.394-3.886-.512-1.3-1.136-2.514-1.759-3.758a5.9,5.9,0,0,1-.75-2.844,5.327,5.327,0,0,1,.712-2.214,55.388,55.388,0,0,0,2.874-5.529,36.279,36.279,0,0,0,1.26-4.18,69.948,69.948,0,0,1,2.788-9.645c1.176-2.831,3.095-5.657,6.249-6.033a1.018,1.018,0,0,0,.987-.987.994.994,0,0,0-.987-.987" transform="translate(-58.179 -21.485)"/>
          <path id="Trazado_823552" data-name="Trazado 823552" d="M133.759,130.5c1.047.083,2.059.415,3.105.521a6.408,6.408,0,0,0,2.968-.538,33.129,33.129,0,0,1,5.446-1.9,3.52,3.52,0,0,1,3.352,1.022,15.119,15.119,0,0,1,3.306,4.543,10.607,10.607,0,0,1,1.3,6.119,1.019,1.019,0,0,0,.689,1.215,1,1,0,0,0,1.215-.69c.667-4.181-1.494-8.7-4.265-11.732a6.688,6.688,0,0,0-4.433-2.55,7.989,7.989,0,0,0-2.43.344,22.515,22.515,0,0,0-3.037,1.009,11.9,11.9,0,0,1-3.375,1.2c-1.271.116-2.577-.439-3.842-.539s-1.261,1.874,0,1.975" transform="translate(-50.133 -47.751)"/>
          <path id="Trazado_823553" data-name="Trazado 823553" d="M154.382,133.6a10.61,10.61,0,0,0-2.424,3.635,5.635,5.635,0,0,0,.146,4.36.994.994,0,0,0,1.351.354,1.012,1.012,0,0,0,.354-1.351,3.1,3.1,0,0,1-.26-1.429c0-.038.029-.405.012-.267a3.8,3.8,0,0,1,.08-.42,5.529,5.529,0,0,1,.261-.824c-.031.067-.021.045.029-.067.03-.067.062-.133.094-.2q.1-.2.207-.392c.147-.26.308-.512.48-.756a10.511,10.511,0,0,1,1.066-1.249.987.987,0,1,0-1.4-1.4" transform="translate(-57.221 -50.323)"/>
          <path id="Trazado_823554" data-name="Trazado 823554" d="M134.948,139.918c.025.019.187.138.066.048s.015.014.035.031c.081.067.161.134.238.2q.234.209.451.438t.416.475c.006.007.148.186.054.065s.044.06.049.068q.093.128.182.258a9.09,9.09,0,0,1,.631,1.084c.045.092.09.186.133.28a.907.907,0,0,0,.055.125c-.118-.178-.037-.088-.007-.016.08.2.151.4.217.6a.988.988,0,0,0,1.9-.525,9.672,9.672,0,0,0-3.428-4.839.99.99,0,0,0-1.351.354,1.016,1.016,0,0,0,.354,1.351" transform="translate(-50.758 -52.119)"/>
          <path id="Trazado_823555" data-name="Trazado 823555" d="M56.726,98.528c-2.7,2.982-4.485,6.663-7.259,9.588a8.459,8.459,0,0,1-4.356,2.686,37.4,37.4,0,0,1-4.6.423c-3.111.288-6.624,1.144-8.725,3.65a7.84,7.84,0,0,0-1.154,7.744c.583,1.691,1.683,3.108,2.319,4.765a6.449,6.449,0,0,1,.325,3.977,20.366,20.366,0,0,1-1.571,3.686A21.06,21.06,0,0,0,30,139.722c-.271,1.264-.606,2.92.093,4.114a2.444,2.444,0,0,0,2.434,1.05c1.026-.091,2.014-.4,3.032-.538a10.178,10.178,0,0,1,1.294-.035,2.347,2.347,0,0,1,1.244.492c1.835,1.447,1.085,4.059.527,6.093-.661,2.412-1.533,5.1-.413,7.513a5.573,5.573,0,0,0,6.642,2.945c2.342-.686,4.384-2.456,6.8-2.793,3.087-.43,4.706,2.531,7.171,3.737,3.311,1.62,6.858-1.285,7.667-4.492a19.729,19.729,0,0,0,.339-4.867,12.108,12.108,0,0,1,.69-4.465c1.043-2.725,3.274-4.822,5.433-6.687a58.484,58.484,0,0,0,6.754-6.182,15.472,15.472,0,0,0,2.719-4.46,13.8,13.8,0,0,0,.727-5.406,35.454,35.454,0,0,1,0-5.885,16.574,16.574,0,0,1,1.7-5.248c.9-1.776,1.992-3.441,2.956-5.181,1.054-1.9,2.024-3.849,3.027-5.779.962-1.853,1.953-3.691,3.071-5.455.682-1.077-1.027-2.069-1.705-1-2.244,3.544-3.974,7.375-5.994,11.045-1.859,3.38-4.141,6.568-4.858,10.439a25.207,25.207,0,0,0-.235,5.855,16.256,16.256,0,0,1-.293,5.136c-.839,3.06-3.151,5.435-5.462,7.481-4.412,3.9-9.949,7.572-10.463,14-.227,2.842.641,6.493-1.808,8.609-1.093.945-2.346,1.394-3.644.631-1.261-.74-2.259-1.861-3.471-2.676a6.512,6.512,0,0,0-4.078-1.159,10.645,10.645,0,0,0-3.754,1.132c-1.063.5-2.117,1.135-3.2,1.543a3.594,3.594,0,0,1-5.11-2.029,6.331,6.331,0,0,1,.017-3.218c.5-2.367,1.612-4.787,1.321-7.252a4.822,4.822,0,0,0-4.919-4.417,18.536,18.536,0,0,0-3.138.491,4.156,4.156,0,0,1-1.085.112c-.2,0-.073,0-.062,0-.04,0-.346-.045-.052.007a.451.451,0,0,1-.169-.1c.227.254-.109-.186.076.07-.024-.032-.128-.253-.087-.151s-.039-.168-.049-.215c-.028-.134-.012-.006-.021-.205-.007-.167-.008-.335,0-.5a10.93,10.93,0,0,1,.424-2.4,23.669,23.669,0,0,1,1.7-4.188,15.851,15.851,0,0,0,1.467-3.743,8.238,8.238,0,0,0-.322-4.386c-.982-2.794-3.294-5.229-2.841-8.364.378-2.61,2.652-4.17,5.039-4.9a20.892,20.892,0,0,1,5-.759,16.049,16.049,0,0,0,4.544-.68c3.68-1.321,6.046-4.953,8.139-8.052a38.744,38.744,0,0,1,3.3-4.43c.852-.939-.54-2.341-1.4-1.4" transform="translate(-11.201 -36.516)"/>
          <path id="Trazado_823556" data-name="Trazado 823556" d="M3.269,118.721a20.975,20.975,0,0,1,4.856-5.763,59.628,59.628,0,0,0,5.506-5.333,1.014,1.014,0,0,0,0-1.4,1,1,0,0,0-1.4,0A62,62,0,0,1,6.6,111.682a22.133,22.133,0,0,0-5.034,6.043c-.567,1.134,1.136,2.135,1.705,1" transform="translate(-0.547 -39.991)"/>
          <path id="Trazado_823557" data-name="Trazado 823557" d="M1.833,138.737a6.864,6.864,0,0,1,1.643-1.262,4.454,4.454,0,0,1,.8-.331q.225-.068.454-.116c.092-.021.186-.039.279-.053.156-.006.157-.016,0-.032.01.113-.162-.22-.106-.043.016.052.151.148.189.188.139.144.267.3.408.442a2.849,2.849,0,0,0,1.425.847c1.241.256,2.118-.626,2.8-1.525a5.653,5.653,0,0,1,.759-.933c.157-.133.017-.045.163-.046a1.96,1.96,0,0,1,.73.092.9.9,0,0,1,.554.531,3.163,3.163,0,0,1,.221,1.117,13.615,13.615,0,0,1-.43,3.528c-.469,2.061-1.566,4.095-1.31,6.258a25.162,25.162,0,0,0,1.321,4.459,43.6,43.6,0,0,1,1.107,4.254,14.279,14.279,0,0,1,.4,4.025c0,.065-.012.129-.019.194-.017.157.047-.241,0,0-.022.113-.042.227-.073.338s-.136.352-.024.12c-.032.066-.219.361-.12.235s0,0-.024.017c-.118.12-.082-.008.046-.027a.469.469,0,0,0-.085.052c-.138.106.225-.052.05-.023a.789.789,0,0,0-.1.025l.156-.019c-.037,0-.075.006-.112.006l-.149-.006s.187.06-.029-.014a2.745,2.745,0,0,1-.788-.349,5.91,5.91,0,0,1-1.089-.784,5.81,5.81,0,0,1-1.066-2.355,3.518,3.518,0,0,0-2.166-2.3c-1.736-.582-3.257.289-4.648,1.257-1.036.721-.05,2.433,1,1.705.916-.638,2.316-1.74,3.439-.885a2.067,2.067,0,0,1,.434.642c.184.43.29.893.446,1.334a5.754,5.754,0,0,0,3.985,3.654c3.563.789,2.985-4.288,2.649-6.3a39.315,39.315,0,0,0-1.109-4.666c-.418-1.415-1.068-2.8-1.378-4.239a5.274,5.274,0,0,1,.193-2.768c.375-1.242.806-2.456,1.068-3.731.409-1.99,1.022-5-.713-6.565a3.086,3.086,0,0,0-3.749-.3,7.808,7.808,0,0,0-1.15,1.361c-.184.238-.537.7-.729.707-.294.016-.653-.512-.891-.759a1.817,1.817,0,0,0-1.554-.684,7.5,7.5,0,0,0-4.5,2.333.988.988,0,0,0,1.4,1.4" transform="translate(-0.056 -50.535)"/>
          <path id="Trazado_823558" data-name="Trazado 823558" d="M186.787,127.026c0-.095-.169.324-.19.382-.078.209-.158.418-.243.624-.179.431-.381.853-.6,1.266a15.044,15.044,0,0,1-1.41,2.184c-1.043,1.345-2.26,2.546-3.414,3.792a22.844,22.844,0,0,0-3.206,4.143,13.689,13.689,0,0,0-1.6,4.64c-.247,1.558-.319,3.137-.563,4.694a7.268,7.268,0,0,1-.33,1.525c.1-.25-.071.128-.117.211-.092.168-.193.331-.3.491a42.685,42.685,0,0,1-3.6,4.351,31.535,31.535,0,0,0-3.876,5.08c-.766,1.361-1.434,3.194-.425,4.614a4.126,4.126,0,0,0,5.055,1.127c1.691-.759,2.98-2.249,4.349-3.453a9.051,9.051,0,0,1,2.124-1.485,3.092,3.092,0,0,1,2.054-.221c2.344.612,2.854,3.554,5.063,4.519a4.711,4.711,0,0,0,2.5.339,1.013,1.013,0,0,0,.987-.987v-.01a.988.988,0,0,0-1.975,0v.01l.987-.987a3.035,3.035,0,0,1-3.129-1.5,8.356,8.356,0,0,0-2.516-2.708,5.334,5.334,0,0,0-5.6.189,40.379,40.379,0,0,0-4.33,3.64,7.548,7.548,0,0,1-.877.621,2.9,2.9,0,0,1-.867.4c-.087.026-.543.1-.348.085a3.014,3.014,0,0,1-.535,0c.172.015-.286-.068-.378-.095a1.814,1.814,0,0,1-.522-.245,1.166,1.166,0,0,1-.436-.386c-.035-.061-.068-.122-.1-.185.115.23.016.037,0-.024s-.033-.136-.048-.2c.06.275,0-.021,0-.1s0-.149.006-.224c.006-.255-.045.211,0-.047a4.667,4.667,0,0,1,.116-.486,4.05,4.05,0,0,1,.42-.981,26.22,26.22,0,0,1,3.564-4.761c1.286-1.481,2.641-2.923,3.779-4.524a6.123,6.123,0,0,0,.97-1.838,27.976,27.976,0,0,0,.628-4.6,14.179,14.179,0,0,1,1.215-4.838,19.44,19.44,0,0,1,3.385-4.55,51.061,51.061,0,0,0,3.749-4.261,15.406,15.406,0,0,0,1.494-2.458c.231-.476.439-.963.634-1.454a4.005,4.005,0,0,0,.42-1.324.988.988,0,0,0-1.975,0" transform="translate(-62.815 -47.589)"/>
        </g>
      </g>
    </g>
    <g id="Grupo_1077138" data-name="Grupo 1077138" transform="translate(86.514 5407.034) rotate(-143)">
      <path id="Trazado_823436" data-name="Trazado 823436" d="M138.994,46.541l-7.967,10.474a2.358,2.358,0,0,1-3.755,0l-7.967-10.474a2.359,2.359,0,0,1,1.878-3.787h2.481V25.619a2.442,2.442,0,0,1,2.442-2.442h5.8a2.442,2.442,0,0,1,2.442,2.442V42.754h2.765a2.359,2.359,0,0,1,1.878,3.787" transform="translate(915.721 2514.402)" fill="#dbf9bd"/>
      <path id="Trazado_823437" data-name="Trazado 823437" d="M128.816,58.776a3.5,3.5,0,0,1-2.8-1.391l-7.967-10.474a3.524,3.524,0,0,1,2.8-5.657h1.316V25.284a3.611,3.611,0,0,1,3.607-3.607h5.8a3.611,3.611,0,0,1,3.607,3.607v15.97h1.6a3.524,3.524,0,0,1,2.8,5.657l-7.966,10.474a3.5,3.5,0,0,1-2.8,1.391m-7.967-15.192A1.195,1.195,0,0,0,119.9,45.5l7.967,10.474a1.229,1.229,0,0,0,1.9,0L137.732,45.5a1.194,1.194,0,0,0-.95-1.917h-3.93v-18.3a1.278,1.278,0,0,0-1.277-1.277h-5.8a1.278,1.278,0,0,0-1.277,1.277v18.3Z" transform="translate(916.056 2514.736)"/>
    </g>
  </g>
</svg>
