<svg xmlns="http://www.w3.org/2000/svg" xmlns:xlink="http://www.w3.org/1999/xlink" width="201" height="189" viewBox="0 0 201 189">
  <defs>
    <clipPath id="clip-path">
      <rect id="Rect치ngulo_379401" data-name="Rect치ngulo 379401" width="120" height="107.28" fill="none"/>
    </clipPath>
  </defs>
  <g id="Grupo_1077189" data-name="Grupo 1077189" transform="translate(-707 -1425)">
    <g id="Grupo_1077116" data-name="Grupo 1077116" transform="translate(0 91)">
      <rect id="Rect치ngulo_379363" data-name="Rect치ngulo 379363" width="16" height="5" transform="translate(892 1426)" fill="#dbf9bd"/>
      <g id="Grupo_161158" data-name="Grupo 161158" transform="translate(707 1334)">
        <circle id="Elipse_1142" data-name="Elipse 1142" cx="94.5" cy="94.5" r="94.5" fill="#dbf9bd"/>
      </g>
    </g>
    <g id="Grupo_1077126" data-name="Grupo 1077126" transform="translate(744 1465.859)">
      <g id="Grupo_1077060" data-name="Grupo 1077060" transform="translate(0 0)" clip-path="url(#clip-path)">
        <path id="Trazado_823184" data-name="Trazado 823184" d="M46.276,10.836a21.2,21.2,0,1,1-13.145,0,45.579,45.579,0,0,1,13.145,0" transform="translate(20.404 11.425)" fill="#57606f"/>
        <path id="Trazado_823185" data-name="Trazado 823185" d="M55.319,3.125A6.574,6.574,0,1,1,48.748,9.7a6.608,6.608,0,0,1,6.571-6.571" transform="translate(53.762 3.446)" fill="#ff5856"/>
        <path id="Trazado_823186" data-name="Trazado 823186" d="M15.226,41.539A9.328,9.328,0,1,1,5.9,50.867a9.328,9.328,0,0,1,9.328-9.328" transform="translate(6.505 45.812)" fill="#ff5856"/>
        <path id="Trazado_823187" data-name="Trazado 823187" d="M30.7,21.374A4.028,4.028,0,1,1,26.667,25.4,4.027,4.027,0,0,1,30.7,21.374" transform="translate(29.41 23.572)" fill="#bcb7c6"/>
        <path id="Trazado_823188" data-name="Trazado 823188" d="M34.143,15.123a10.6,10.6,0,0,1,0,21.2A4.028,4.028,0,1,0,30.113,32.3a3.9,3.9,0,0,0,4.029,4.027,10.6,10.6,0,1,1,0-21.2" transform="translate(25.964 16.678)" fill="#ecebed"/>
        <path id="Trazado_823189" data-name="Trazado 823189" d="M68.845,15.463a28.466,28.466,0,0,1,4.241,15.265A29.259,29.259,0,1,1,18.809,15.463a62.451,62.451,0,0,1,18.446-4.877,21.2,21.2,0,1,0,13.145,0,62.438,62.438,0,0,1,18.444,4.877" transform="translate(16.067 11.675)" fill="#ecebed"/>
        <path id="Trazado_823190" data-name="Trazado 823190" d="M84.3,12.905c12.3,5.3,23.746,14.63,33.921,27.137-35.194,43.252-82.26,43.252-117.668,0C10.732,27.535,22.182,18.206,34.477,12.905A28.465,28.465,0,0,0,30.238,28.17a29.257,29.257,0,1,0,58.514,0A29.181,29.181,0,0,0,84.3,12.905" transform="translate(0.611 14.232)" fill="#414a56"/>
        <path id="Trazado_823191" data-name="Trazado 823191" d="M53.881,37.808a1.908,1.908,0,1,1-1.907,1.907,1.907,1.907,0,0,1,1.907-1.907" transform="translate(57.32 41.697)"/>
        <path id="Trazado_823192" data-name="Trazado 823192" d="M46.926,49.2a1.907,1.907,0,1,1-1.909,1.907A1.907,1.907,0,0,1,46.926,49.2" transform="translate(49.648 54.263)"/>
        <path id="Trazado_823193" data-name="Trazado 823193" d="M38.052.706a1.907,1.907,0,1,1-1.907,1.907A1.909,1.909,0,0,1,38.052.706" transform="translate(39.863 0.778)"/>
        <path id="Trazado_823194" data-name="Trazado 823194" d="M26.155,46.076a1.908,1.908,0,1,1-1.907,1.907,1.909,1.909,0,0,1,1.907-1.907" transform="translate(26.742 50.815)"/>
        <path id="Trazado_823195" data-name="Trazado 823195" d="M19.2,0a1.908,1.908,0,1,1-1.909,1.909A1.908,1.908,0,0,1,19.2,0" transform="translate(19.07 0)"/>
        <path id="Trazado_823196" data-name="Trazado 823196" d="M5.285,35.288A1.908,1.908,0,1,1,3.378,37.2a1.909,1.909,0,0,1,1.907-1.907" transform="translate(3.725 38.918)"/>
        <path id="Trazado_823197" data-name="Trazado 823197" d="M4.68,10.788A1.908,1.908,0,1,1,2.773,12.7,1.906,1.906,0,0,1,4.68,10.788" transform="translate(3.058 11.898)"/>
        <path id="Trazado_823198" data-name="Trazado 823198" d="M44.594,59.372A30.538,30.538,0,0,1,14.065,28.843a29.483,29.483,0,0,1,4.452-15.9,1.382,1.382,0,1,1,2.332,1.485,27.159,27.159,0,0,0-4.029,14.63,27.775,27.775,0,0,0,55.549,0,29.761,29.761,0,0,0-4.029-14.63,1.382,1.382,0,1,1,2.332-1.485,30.011,30.011,0,0,1,4.452,15.9A30.675,30.675,0,0,1,44.594,59.372" transform="translate(15.512 13.561)"/>
        <path id="Trazado_823199" data-name="Trazado 823199" d="M40.37,53.9a22.467,22.467,0,0,1-6.786-43.887,1.442,1.442,0,0,1,1.7.847,1.441,1.441,0,0,1-.847,1.7A19.892,19.892,0,1,0,60.512,31.424a19.593,19.593,0,0,0-13.78-18.869,1.444,1.444,0,0,1-.85-1.7,1.444,1.444,0,0,1,1.7-.847A22.528,22.528,0,0,1,63.269,31.424,23.135,23.135,0,0,1,40.37,53.9" transform="translate(19.736 10.98)"/>
        <path id="Trazado_823200" data-name="Trazado 823200" d="M34.81,38.264A11.873,11.873,0,1,1,46.683,26.391,11.855,11.855,0,0,1,34.81,38.264m0-21.2a9.328,9.328,0,1,0,9.328,9.328,9.41,9.41,0,0,0-9.328-9.328" transform="translate(25.296 16.011)"/>
        <path id="Trazado_823201" data-name="Trazado 823201" d="M31.362,31.37a5.3,5.3,0,1,1,5.3-5.3,5.246,5.246,0,0,1-5.3,5.3m0-7.844a2.757,2.757,0,1,0,2.757,2.757,2.807,2.807,0,0,0-2.757-2.757" transform="translate(28.744 22.905)"/>
        <path id="Trazado_823202" data-name="Trazado 823202" d="M60.107,77.356c-21.626,0-42.192-11.448-59.789-32.861a1.286,1.286,0,0,1,0-1.695C10.706,29.865,22.369,20.749,34.664,15.237a61.385,61.385,0,0,1,18.659-5.089,70.165,70.165,0,0,1,13.357,0,58.269,58.269,0,0,1,18.657,5.089c12.3,5.3,23.958,14.628,34.346,27.562a1.291,1.291,0,0,1,0,1.695C102.3,65.908,81.733,77.356,60.107,77.356M3.075,43.434C19.824,63.788,39.541,74.6,60.107,74.6s40.282-10.813,57.032-31.167C107.173,31.349,96.15,22.66,84.277,17.569a61.543,61.543,0,0,0-18.022-4.877,63.645,63.645,0,0,0-12.72,0,61.543,61.543,0,0,0-18.022,4.877C24.064,22.66,13.038,31.349,3.075,43.434" transform="translate(-0.001 10.84)"/>
        <path id="Trazado_823203" data-name="Trazado 823203" d="M56.1,18.534a8.057,8.057,0,1,1,8.058-8.06,8.055,8.055,0,0,1-8.058,8.06m0-13.36a5.248,5.248,0,0,0-5.3,5.3,5.3,5.3,0,1,0,10.6,0,5.387,5.387,0,0,0-5.3-5.3" transform="translate(52.984 2.669)"/>
        <path id="Trazado_823204" data-name="Trazado 823204" d="M15.894,62.135a10.6,10.6,0,0,1,0-21.2,10.5,10.5,0,0,1,10.6,10.6,10.63,10.63,0,0,1-10.6,10.6m0-18.444a8.056,8.056,0,1,0,8.056,8.056,8.191,8.191,0,0,0-8.056-8.056" transform="translate(5.837 45.144)"/>
      </g>
    </g>
  </g>
</svg>
