<svg xmlns="http://www.w3.org/2000/svg" width="71" height="71" viewBox="0 0 71 71">
  <g id="Grupo_1077184" data-name="Grupo 1077184" transform="translate(-767 -3942.127)">
    <g id="Grupo_1075761" data-name="Grupo 1075761" transform="translate(767 3942.127)">
      <circle id="Elipse_4845" data-name="Elipse 4845" cx="35.5" cy="35.5" r="35.5" fill="#3b5620"/>
    </g>
    <g id="Grupo_1075767" data-name="Grupo 1075767" transform="translate(-374.66 3746.205)">
      <path id="Trazado_815083" data-name="Trazado 815083" d="M1159.865,217.424a8.188,8.188,0,0,1-1.044-.1,1.855,1.855,0,0,1-1.46-1.79q-.017-.673,0-1.346a1.9,1.9,0,0,1,1.875-1.867c.106,0,.211,0,.317,0h34.891a1.944,1.944,0,0,1,2.209,2.211c0,.3,0,.607,0,.911a1.9,1.9,0,0,1-1.956,1.948c-.172,0-.343,0-.578,0v.386c0,2.323,0,4.647-.005,6.97a.489.489,0,0,0,.3.515,1.731,1.731,0,0,1,.964,1.576q.021,5.129,0,10.257a1.834,1.834,0,0,1-1.023,1.63.487.487,0,0,0-.224.342c-.013,2.442-.009,4.884-.007,7.327a.9.9,0,0,0,.034.152c.218,0,.439-.007.659,0a1.9,1.9,0,0,1,1.835,1.825c.016.462.014.924,0,1.386a1.9,1.9,0,0,1-1.847,1.855c-.119,0-.238,0-.356,0h-34.891a1.94,1.94,0,0,1-2.2-2.184c0-.3,0-.607,0-.911a1.9,1.9,0,0,1,1.968-1.975c.17,0,.34,0,.538,0Zm3.857-.012v29.1h3.757v-29.1Zm7.607,0v29.1h3.754v-29.1Zm17.123,8.855q-2.456,0-4.912,0c-.621,0-.83.21-.83.833q0,4.872,0,9.744c0,.62.211.83.833.831q4.872,0,9.744,0c.62,0,.83-.212.831-.833q0-4.872,0-9.744c0-.62-.211-.829-.833-.83Q1190.868,226.265,1188.452,226.266Zm-9.516-8.853v29.116h3.752a1.444,1.444,0,0,0,.021-.167c0-2.43.005-4.859-.009-7.288a.542.542,0,0,0-.255-.364,1.862,1.862,0,0,1-.995-1.649q-.016-5.09,0-10.18a1.754,1.754,0,0,1,.969-1.614.49.49,0,0,0,.3-.517c-.008-2.324,0-4.648,0-6.972v-.365Zm-1.97-1.288h17.429c.119,0,.238.006.356,0a.626.626,0,0,0,.63-.631c.015-.3,0-.607,0-.911,0-.835-.155-.99-.991-.99h-34.779c-.119,0-.238-.006-.356,0a.622.622,0,0,0-.629.631c-.016.316,0,.634,0,.951,0,.781.169.951.951.951Zm.079,31.69h-17.429c-.119,0-.238-.006-.356,0a.622.622,0,0,0-.63.63c-.015.3,0,.607,0,.911,0,.836.155.991.99.991h34.779c.106,0,.211,0,.317,0a.635.635,0,0,0,.672-.672c.011-.3,0-.607,0-.911,0-.781-.17-.951-.951-.951Zm-15.858-30.4v29.1h1.222v-29.1Zm8.819,29.117v-29.1h-1.22v29.1Zm6.393-29.118v29.1h1.22v-29.1Zm10.142,0v7.556h3.754v-7.556Zm3.747,29.119v-7.556h-3.754v7.556Zm-6.282-29.119v7.555h1.219v-7.555Zm8.813,7.578V217.42h-1.205v7.569Zm-7.6,21.541v-7.569H1184v7.569Zm7.615,0v-7.566h-1.223v7.566Z" transform="translate(0 0)" fill="#e8e8e8"/>
      <path id="Trazado_815084" data-name="Trazado 815084" d="M1318.254,297.1c0,.185.007.37,0,.554a2.569,2.569,0,0,0,.339,1.491,2.448,2.448,0,0,1-.734,3.173,2.531,2.531,0,0,1-3.266-.213,2.562,2.562,0,0,1-.36-3.228,1.415,1.415,0,0,0,.209-.684c.026-.764,0-1.53.011-2.295a1.9,1.9,0,1,1,3.8.015C1318.257,296.306,1318.254,296.7,1318.254,297.1Zm-1.267.29c0-.461,0-.922,0-1.384,0-.5-.235-.789-.629-.792s-.635.286-.638.782c0,.8-.014,1.608,0,2.412a1.47,1.47,0,0,1-.366,1.116,1.205,1.205,0,0,0,.129,1.678,1.257,1.257,0,0,0,1.693.034,1.191,1.191,0,0,0,.192-1.669,1.622,1.622,0,0,1-.389-1.267C1317,297.995,1316.987,297.691,1316.987,297.388Z" transform="translate(-127.305 -66.407)" fill="#e8e8e8"/>
    </g>
  </g>
</svg>
